<?xml version="1.0" encoding="UTF-8"?>
<svg id="svg135" width="22" height="22" version="1.2" xmlns="http://www.w3.org/2000/svg">
 <path id="path133" d="m11.352 16.018c-0.99638 0-1.375 0.85688-1.375 1.7536 0 1.5344 1.1359 2.7101 2.6703 2.7101 0.99638 0 1.375-0.85688 1.375-1.7536 0-1.5344-1.1359-2.7101-2.6703-2.7101zm5.5797 2.2319c0 0.85688-0.69746 1.5145-1.4547 1.933-1.0562 0.59783-2.2518 0.81703-3.4674 0.81703s-2.4312-0.2192-3.4873-0.81703c-0.75725-0.41848-1.4547-1.0761-1.4547-1.933 0-0.85688 0.69746-1.5145 1.4547-1.933 1.0562-0.59783 2.2717-0.81703 3.4873-0.81703s2.4112 0.2192 3.4674 0.81703c0.75724 0.41848 1.4547 1.0761 1.4547 1.933z" fill="#232629"/>
</svg>
