<?xml version="1.0" encoding="UTF-8"?>
<svg id="svg260" width="22" height="22" version="1.2" xmlns="http://www.w3.org/2000/svg">
 <path id="path133" d="m13.504 18.5c0-0.83033 0.66967-1.5 1.5-1.5s1.5 0.66967 1.5 1.5-0.66967 1.5-1.5 1.5-1.5-0.66967-1.5-1.5zm-2.128-17.5c-0.10938 0-0.1974 0.088036-0.1974 0.1974v14.608c-0.27559-0.15703-0.6204-0.23438-1.0073-0.23438-1.4807 0-2.6651 0.27632-3.7311 0.98704-0.65147 0.43432-1.0264 1.145-1.2633 1.8952-0.11845 0.37511-0.21694 0.7305-0.21694 1.1056 0 1.0068 0.73018 1.4412 1.6581 1.4412 1.4807 0 2.6456-0.29585 3.7118-1.0066 0.65147-0.43432 1.0459-1.145 1.2828-1.8952 0.11845-0.37511 0.1974-0.73051 0.1974-1.1056 0-0.04338-0.0084-0.07949-0.01112-0.12068 0.01261-0.02606 0.02092-0.05411 0.02092-0.0851v-15.589c1e-6 -0.10937-0.08805-0.1974-0.1974-0.1974zm-1.0268 15.183c0.41458 0 0.8294 0.33604 0.8294 0.80986 0 0.19742-0.05921 0.39454-0.19741 0.55247-0.39482 0.49354-1.3231 1.0664-2.0536 1.5402-0.73047 0.47382-1.6578 1.0856-2.2698 1.2633-0.07897 0.01973-0.1582 0.01953-0.23717 0.01953-0.41457 0-0.8294-0.33535-0.8294-0.80915 1.3e-6 -0.19742 0.07944-0.39454 0.21764-0.55247 0.39482-0.49354 1.3224-1.0664 2.0529-1.5402 0.73047-0.47382 1.6383-1.0856 2.2503-1.2633 0.07897-0.01973 0.1582-0.02022 0.23717-0.02022z" fill="#232629"/>
</svg>
