<?xml version="1.0" encoding="UTF-8"?>
<svg id="svg4" width="22" height="22" version="1.2" xmlns="http://www.w3.org/2000/svg">
 <path id="path2" d="m1.1038 2.0742c-0.12514-1.2e-6 -0.22852 0.10363-0.22852 0.22852v4.3203c-7.313e-4 0.00258-0.00138 0.00519-0.00195 0.00781-0.0025 0.01935-0.0025 0.03729 0 0.056641 6.03e-4 0.00197 0.00125 0.00392 0.00195 0.00586v3.8887c-0.00149 0.0038-0.0028 0.0078-0.00391 0.01172-2.364e-4 6e-3 -2.364e-4 0.01355 0 0.01953l0.00195-0.02148c-0.00213 0.01788-0.00213 0.03681 0 0.05469 6.279e-4 0.0013 0.00128 0.0026 0.00195 0.0039v3.8887c-0.00149 0.0038-0.0028 0.0078-0.00391 0.01172-3.693e-4 0.0075-3.693e-4 0.01401 0 0.02148l0.00195-0.02148c-0.00213 0.01788-0.00213 0.03681 0 0.05469 6.279e-4 0.0013 0.00128 0.0026 0.00195 0.0039v3.8203c0 0.01549 0.00615 0.02055 0.00977 0.0332-0.00104 4e-3 -0.00309 0.0076-0.00391 0.01172-9.684e-4 0.0052-0.00162 0.01038-0.00195 0.01562-1.97e-5 0.0013-1.97e-5 0.0026 0 0.0039-0.00222 0.0044-0.00417 9e-3 -0.00586 0.01367-0.00213 0.01788-0.00213 0.03681 0 0.05469 0.00225 0.0054 0.00486 0.0106 0.00781 0.01563-4.51e-5 2e-3 -4.51e-5 0.0039 0 0.0059 0.00333 0.02015 0.00901 0.04006 0.017578 0.05859 0.0066 0.01238 0.015173 0.02359 0.025391 0.0332 0.00169 0.0047 0.00364 0.0092 0.00586 0.01367 0.00565 0.0063 0.011263 0.01193 0.017578 0.01758 0.00268 0.0026 0.00501 0.0053 0.00781 0.0078 0.00444 0.0022 9e-3 0.0042 0.013672 0.0059 6.938e-4 6.36e-4 0.00125 0.0013 0.00195 2e-3 0.00884 0.0078 0.018703 0.01433 0.029321 0.01943 0.015697 0.0079 0.031745 0.01352 0.048828 0.01758 0.00768 2e-3 0.015521 0.0033 0.023437 0.0039 0.00598 2.36e-4 0.013547 2.36e-4 0.019531 0 0.0024-1.9e-5 0.00542 9.5e-5 0.00781 0 0.0024-1.9e-5 0.00542 9.5e-5 0.00781 0h19.789l-0.01563-2e-3c0.01788 0.0021 0.03681 0.0021 0.05469 0 0.0047-0.0017 0.0092-0.0037 0.01367-0.0059 0.01514-0.0026 0.0297-0.0079 0.04297-0.01563l0.0039-2e-3c0.0063-0.0023 0.01349-0.0031 0.01953-0.0059 0.0047-0.0023 0.0093-0.0049 0.01367-0.0078 0.0046-0.0028 0.0073-0.0066 0.01172-0.0098l-2e-3 0.0039c0.0031-0.0021 0.0049-0.0056 0.0078-0.0078 0.0032-0.0021 0.0067-0.0036 0.0098-0.0059 6.74e-4 -6.59e-4 0.0013-0.0013 2e-3 -2e-3 0.0022-0.0017 0.0037-0.0041 0.0059-0.0059 0.0068-0.01026 0.01203-0.02144 0.01563-0.0332 0.0048-0.0045 0.0093-0.0088 0.01367-0.01367 3e-3 -0.0057 0.0056-0.01153 0.0078-0.01758l-0.0078 0.02539c0.0073-0.01285 0.01292-0.02505 0.01758-0.03906 3e-3 -0.0089 0.0049-0.01804 0.0059-0.02734 0.0023-0.0051 0.0043-0.0103 0.0059-0.01563v-2e-3c0.0014-0.0026 0.0027-0.0052 0.0039-0.0078 5e-6 -4.98e-4 -2e-6 -0.0015 0-2e-3v-8e-3c5e-6 -6.67e-4 5e-6 -0.0013 0-2e-3 -2e-6 -4.99e-4 5e-6 -0.0015 0-2e-3 0.0015-0.0084 0.0022-0.01688 2e-3 -0.02539-1.47e-4 -2e-3 -0.0018-0.0038-2e-3 -0.0059v-4e-3c-7.4e-5 -6.35e-4 7.9e-5 -0.0013 0-2e-3v-4e-3c-2e-6 -4.99e-4 5e-6 -0.0015 0-2e-3 -2e-6 -4.99e-4 5e-6 -0.0015 0-2e-3 -2e-6 -4.99e-4 5e-6 -0.0015 0-2e-3 -2.62e-4 -0.0059-9.3e-4 -0.01177-2e-3 -0.01758-0.0011-0.0076-2e-3 -0.01408-0.0039-0.02148-0.0012-0.0033-0.0025-0.0066-0.0039-0.0098-1.94e-4 -5.66e-4 1.98e-4 -0.0014 0-2e-3 3e-3 -0.01292 0.0078-0.0083 0.0078-0.02539v-3.8184c6.89e-4 -0.0013 0.0014-0.0026 2e-3 -0.0039 5e-6 -4.99e-4 -2e-6 -0.0015 0-2e-3 5e-6 -4.99e-4 -2e-6 -0.0015 0-2e-3v-2e-3c-2e-6 -4.99e-4 5e-6 -0.0015 0-2e-3v-2e-3l-2e-3 0.0078c0.0021-0.01788 0.0021-0.03681 0-0.05469l2e-3 0.0078v-4e-3c-2e-6 -4.99e-4 5e-6 -0.0015 0-2e-3v-2e-3c3e-6 -9.97e-4 1e-5 -0.0029 0-0.0039-5.85e-4 -0.0026-0.0013-0.0052-2e-3 -0.0078v-3.8868c6.89e-4 -0.0013 0.0014-0.0026 2e-3 -0.0039 5e-6 -4.99e-4 -2e-6 -0.0015 0-2e-3 5e-6 -4.98e-4 -2e-6 -0.0015 0-2e-3v-4e-3c-2e-6 -4.99e-4 5e-6 -0.0015 0-2e-3l-2e-3 0.0078c0.0021-0.01788 0.0021-0.03681 0-0.05469l2e-3 0.0078v-0.0059c-2e-6 -4.99e-4 5e-6 -0.0015 0-2e-3 -2e-6 -4.99e-4 5e-6 -0.0015 0-2e-3 -5.85e-4 -0.0026-0.0013-0.0052-2e-3 -0.0078v-3.8887c6.89e-4 -0.00129 0.0014-0.0026 2e-3 -0.00391 5e-6 -4.988e-4 -2e-6 -0.00145 0-0.00195 5e-6 -4.989e-4 -2e-6 -0.00145 0-0.00195v-0.00195c-2e-6 -4.989e-4 5e-6 -0.00145 0-0.00195v-0.00195l-2e-3 0.00781c0.0025-0.01935 0.0025-0.03729 0-0.056641l2e-3 0.00781v-0.00195c-2e-6 -4.989e-4 5e-6 -0.00145 0-0.00195v-0.00391c-2e-6 -4.989e-4 5e-6 -0.00145 0-0.00195-5.85e-4 -0.00262-0.0013-0.00523-2e-3 -0.00781v-4.3163c-9.04e-4 -0.12078-0.10149-0.22852-0.22665-0.22852zm19.832 16.688-0.02148 2e-3c6e-3 2.36e-4 0.01355 2.36e-4 0.01953 0 6.74e-4 -6.59e-4 0.0013-0.0013 2e-3 -2e-3zm-20.063-0.25391c-6.572e-4 6.61e-4 -0.00131 0.0013-0.00195 2e-3 -2.364e-4 6e-3 -2.364e-4 0.01355 0 0.01953zm0-11.877c-6.57e-4 6.43e-4 -0.00131 0.00129-0.00195 0.00195-2.364e-4 0.00598-2.364e-4 0.013547 0 0.019531zm0.45703-3.7051h3.5059v3.5059h-3.5059zm3.9609 0h3.502v3.5059h-3.502zm3.959 0h3.502v3.5059h-3.502zm3.959 0h3.502v0.6775c-0.55643 0.10904-0.99024 0.57488-0.99024 1.1641 2e-6 0.58922 0.43378 1.0551 0.99024 1.1641v0.50023h-3.502zm3.957 0h3.5039v3.5059h-3.5039v-0.50023c0.55547-0.10983 0.99023-0.57541 0.99023-1.1641 1e-6 -0.58862-0.43479-1.0541-0.99023-1.1641zm-15.836 3.9629h3.5059v3.502h-3.5059zm3.9609 0h3.502v0.67164c-0.5555 0.11022-0.98828 0.57767-0.98828 1.166-3e-7 0.58834 0.43307 1.054 0.98828 1.1641v0.50023h-3.502zm3.959 0h3.502v3.502h-3.502v-0.50023c0.5549-0.1102 0.98828-0.57574 0.98828-1.1641 0-0.58832-0.4331-1.0556-0.98828-1.166zm3.959 0h3.502v3.502h-3.502zm3.957 0h3.5039v3.502h-3.5039zm-15.836 3.957h3.5059v0.6736c-0.55663 0.10899-0.99219 0.57453-0.99219 1.1641-4e-7 0.5895 0.43536 1.0567 0.99219 1.166v0.50023h-3.5059zm3.9609 0h3.502v3.5039h-3.502v-0.50023c0.55548-0.11021 0.98828-0.57757 0.98828-1.166 4e-7 -0.58834-0.43307-1.054-0.98828-1.1641zm3.959 0h3.502v3.5039h-3.502zm3.959 0h3.502v3.5039h-3.502zm3.957 0h3.5039v3.5039h-3.5039zm-15.836 3.9609h3.5059v3.5h-3.5059zm3.9609 0h3.502v3.5h-3.502zm3.959 0h3.502v3.5h-3.502zm3.959 0h3.502v3.5h-3.502zm3.957 0h3.5039v3.5h-3.5039z" fill="#232629"/>
</svg>
