<?xml version="1.0" encoding="UTF-8"?>
<svg id="svg8" width="22" height="22" version="1.2" xmlns="http://www.w3.org/2000/svg">
 <g id="layer1" transform="matrix(.49023 0 0 .49023 17.35 2.6319)">
  <g id="g2891" transform="translate(-230.95,-533.66)">
   <path id="path2893" d="m219.81 530.39c-0.71671 0.23553-1.4603 0.80419-2.0223 1.5512-0.77391 1.0229-1.4099 2.5236-1.7127 4.0378-0.16151 0.82101-0.19516 1.2382-0.17497 2.1871 0.0269 1.282 0.17497 2.3655 0.498 3.6609 0.0538 0.21871 0.0909 0.41051 0.0807 0.4307-0.0135 0.0168-3e-3 0.0303 0.0168 0.0303 0.0202 0 0.0336 0.0269 0.0303 0.0572-3e-3 0.0337 0 0.0673 3e-3 0.0774s0.0101 0.0471 0.0135 0.0841c7e-3 0.037 0.0303 0.15479 0.0538 0.26246l0.0437 0.19179-0.13123 0.11441c-0.0707 0.0606-0.56192 0.46435-1.0902 0.89504-3.2942 2.6919-4.8016 4.3272-5.7202 6.2081-0.53837 1.0969-0.77054 2.1367-0.73017 3.2471 0.0606 1.6757 0.69652 3.3278 1.8271 4.7444 0.28264 0.35667 1.1003 1.171 1.5444 1.5411 1.3964 1.1642 3.2 1.8978 5.2491 2.1333 0.61913 0.0707 1.8439 0.0505 2.5741-0.0437 0.34321-0.0438 0.69315-0.0774 0.78064-0.0808 0.31966 0 0.39032 0.1245 0.7369 1.3022 0.1144 0.39368 0.22207 0.7268 0.2389 0.7369 0.0168 0.0101 0.0202 0.0437 7e-3 0.074-0.0101 0.0303-7e-3 0.0572 0.0135 0.0572 0.0202 0 0.0269 0.0303 0.0168 0.0673s0 0.0673 0.0202 0.0673c0.0168 0 0.0269 0.0202 0.0168 0.0471s-3e-3 0.0572 0.0168 0.0673c0.0202 0.0135 0.0269 0.0438 0.0168 0.0673-0.0101 0.0269-3e-3 0.0572 0.0168 0.0673 0.0202 0.0135 0.0269 0.0437 0.0135 0.0707-0.0101 0.0269 0 0.0505 0.0236 0.0505s0.0337 0.0202 0.0236 0.0471-0.0101 0.0572 0 0.0673 0.0236 0.0673 0.0269 0.1245c7e-3 0.0572 0.0269 0.11441 0.0437 0.12787 0.0202 0.0101 0.0336 0.0437 0.0303 0.0707-0.0101 0.0673 0.0841 0.45088 0.1144 0.47107 0.10431 0.0774 0.16824 1.2046 0.0875 1.6488-0.24227 1.3661-1.245 2.2982-2.8769 2.675-0.56193 0.12786-1.1541 0.19516-1.5041 0.16824-0.36003-0.0269-0.89841-0.12786-1.1138-0.21535l-0.15814-0.0606 0.074-0.0673c0.0438-0.0404 0.22208-0.11777 0.40042-0.17834 1.0229-0.33648 1.6252-0.9186 1.8103-1.7362 0.0909-0.41051 0.0572-0.69652-0.1346-1.1272-0.25236-0.56192-0.32639-0.69988-0.51145-0.93879-0.32303-0.4105-0.84794-0.75035-1.4435-0.92869-0.26919-0.0807-0.35667-0.0908-0.79074-0.0908-0.56529 0-0.84457 0.0606-1.3056 0.27928-0.35667 0.17161-0.54174 0.29611-0.82775 0.56866-0.29947 0.28937-0.4879 0.55519-0.69315 0.98589-0.3735 0.78064-0.42061 1.3796-0.17161 2.1064 0.15142 0.43406 0.37686 0.78064 0.76045 1.1676 0.99263 0.99935 2.4967 1.5714 4.1219 1.568 1.5175 0 2.9745-0.41724 4.0041-1.144 0.30284-0.21199 0.35667-0.25573 0.62586-0.52491 0.82438-0.82102 1.1844-2.0795 0.98589-3.4658-0.0168-0.13123-0.21198-0.96907-0.43406-1.8675-0.53837-2.2006-0.60567-2.4933-0.60567-2.6616 0-0.21534 0.17161-0.35667 0.8614-0.70324 1.7396-0.87486 2.8702-2.0324 3.3244-3.3985 0.17833-0.53837 0.23217-0.9085 0.22544-1.5747-0.0135-1.7026-0.57875-3.0384-1.7665-4.1724-0.9758-0.92869-2.2141-1.494-3.7047-1.6891-0.28601-0.0404-1.7531-0.0505-1.8439-0.0135-0.0404 0.0135-0.0673-0.0303-0.12114-0.21198-0.1144-0.39032-0.63595-2.5404-0.66287-2.7289-0.037-0.30283 0.0269-0.41387 0.51818-0.86476 0.747-0.69316 1.2484-1.2349 1.7531-1.8978 1.3628-1.7867 2.1131-3.6744 2.2645-5.6832 0.037-0.53501-3e-3 -1.3863-0.074-1.5209-0.0202-0.0336-0.0336-0.11441-0.0336-0.17834 0-0.38359-0.29274-1.6622-0.56865-2.4799-0.63259-1.8641-1.669-3.5835-2.3621-3.9133-0.26582-0.1245-0.35331-0.13123-0.61913-0.0437zm1.3964 4.6872c0.35668 0.16824 0.60231 0.46098 0.74027 0.88159 0.0639 0.18506 0.0673 0.2389 0.0336 0.46434-0.13459 0.97244-0.69651 2.1232-1.5815 3.2403-0.54847 0.69316-1.6925 1.7733-2.4328 2.3016-0.25909 0.18506-0.26582 0.18506-0.32638-0.0976-0.11441-0.51819-0.17497-0.99936-0.1918-1.4974-0.0236-0.64269 0.0135-1.0229 0.16151-1.6824 0.40715-1.8338 1.3089-3.1596 2.453-3.6105 0.3062-0.11777 0.31966-0.12113 0.63932-0.11104 0.2389 7e-3 0.32302 0.0236 0.50472 0.11104zm-3.5465 12.605c0.0942 0.0336 0.23553 0.37349 0.44079 1.0566 0.0875 0.29274 0.16824 0.53838 0.17833 0.54847 0.0269 0.0269 0.0437 0.11104 0.037 0.19516 0 0.0505 0.0101 0.0707 0.037 0.0538 0.0236-0.0168 0.0303 0 0.0202 0.0471-0.0135 0.0404-7e-3 0.074 0.0135 0.074 0.0202 0 0.0269 0.0303 0.0168 0.0673s-3e-3 0.0774 0.0168 0.0875c0.0168 0.0101 0.0236 0.0404 0.0135 0.0673-0.0101 0.0236-3e-3 0.0538 0.0101 0.0606 0.0168 0.0101 0.0202 0.0606 0.0101 0.10767-0.0135 0.0707-7e-3 0.0841 0.0303 0.0639 0.0336-0.0202 0.037-0.0168 0.0135 0.0101-0.0168 0.0202-0.22208 0.11104-0.45089 0.20525-1.918 0.77728-3.3581 2.4294-3.5398 4.0681-0.074 0.6696 0.10431 1.5007 0.46098 2.1569 0.46098 0.8412 1.0666 1.531 1.7396 1.9785 0.52491 0.34995 1.3426 0.68306 1.669 0.68306 0.21872 0 0.31293-0.0774 0.3062-0.25236 0-0.0101 0.0202-0.0606 0.0505-0.11777 0.0673-0.13123 0.0639-0.31293-7e-3 -0.39705-0.0336-0.0404-0.24564-0.15478-0.47108-0.25236-0.5451-0.24227-0.87822-0.45425-1.1979-0.76381-0.2389-0.22881-0.27255-0.27592-0.34994-0.50473-0.11777-0.34658-0.14469-0.90514-0.0606-1.2416 0.1817-0.74026 0.79747-1.4603 1.6824-1.9651 0.14805-0.0841 0.34657-0.17834 0.44079-0.20862 0.15478-0.0505 0.18506-0.0505 0.29274-3e-3 0.0807 0.0303 0.14132 0.0909 0.18506 0.17833 0.0673 0.12787 0.25573 0.68979 0.36341 1.07 0.0303 0.11104 0.0639 0.20862 0.0774 0.21871 0.0236 0.0168 0.0404 0.11777 0.0404 0.21199 0 0.0336 0.0168 0.0505 0.037 0.037 0.0236-0.0168 0.0303 0 0.0202 0.0471-0.0135 0.0404-7e-3 0.074 0.0135 0.074 0.0202 0 0.0269 0.0303 0.0168 0.0673-0.0101 0.0336-7e-3 0.0673 7e-3 0.074 0.0236 0.0101 0.48117 1.8103 0.49463 1.9449 3e-3 0.0471 0.0101 0.0908 0.0168 0.10094 3e-3 0.0101 0.0101 0.0303 0.0135 0.0505 3e-3 0.0168 0.0168 0.0572 0.0269 0.0841 0.0606 0.14133 0.60231 2.3958 0.60904 2.527 0.0101 0.15478 7e-3 0.15815-0.11441 0.19516-0.78064 0.23217-2.3756 0.28601-3.5331 0.11777-1.5344-0.22208-3.0216-0.83111-4.0412-1.6555-0.35667-0.28937-0.82101-0.784-1.0498-1.1171-0.21199-0.31966-0.40378-0.82775-0.53501-1.43-0.0976-0.45089-0.10767-1.393-0.0168-1.8507 0.21198-1.0767 0.77727-2.1972 1.6218-3.2134 0.42061-0.50472 1.356-1.4233 1.9852-1.9482 0.61576-0.51146 1.7262-1.356 2.0122-1.5276 0.19516-0.11776 0.21535-0.12449 0.34658-0.0807zm3.8157 5.6428c1.4065 0.28601 2.5102 1.0936 3.0418 2.2242 0.2288 0.4879 0.27255 0.6595 0.26918 1.107-3e-3 0.59894-0.16488 1.0801-0.56865 1.706-0.249 0.38359-0.80756 0.93879-1.2248 1.2181-0.30957 0.20526-0.67633 0.40714-0.74026 0.40714-0.0673 0-0.0841-0.0572-1.0296-3.8191-0.32639-1.2954-0.60231-2.4462-0.6124-2.5606-0.0168-0.19179-0.0135-0.20862 0.074-0.27592 0.12113-0.0942 0.34657-0.0976 0.79073-7e-3z" fill="#232629"/>
  </g>
 </g>
</svg>
