<?xml version="1.0" encoding="UTF-8"?>
<svg id="svg8" width="22" height="22" version="1.2" xmlns="http://www.w3.org/2000/svg">
 <path id="path2893" d="m12.041 1c-0.043301-0.0030903-0.087188 0.007842-0.15234 0.029297-0.35135 0.11546-0.71668 0.39356-0.99219 0.75977-0.37939 0.50146-0.68945 1.2382-0.83789 1.9805-0.079177 0.40248-0.095836 0.60709-0.085938 1.0723 0.013187 0.62847 0.085782 1.1579 0.24414 1.793 0.02637 0.10722 0.044062 0.20299 0.039062 0.21289-0.0066 0.00824-0.001887 0.013672 0.007813 0.013672 0.0099 0 0.017245 0.01249 0.015625 0.027344-0.0015 0.016521 4.53e-4 0.03411 0.001953 0.039062 0.0015 0.00495 0.004259 0.022878 0.005859 0.041016 0.0034 0.018139 0.013871 0.076124 0.025391 0.12891l0.021484 0.09375-0.064453 0.056641c-0.034624 0.029709-0.27422 0.22636-0.5332 0.4375-1.6149 1.3197-2.3544 2.1228-2.8047 3.0449-0.26393 0.53773-0.37721 1.0474-0.35742 1.5918 0.029708 0.82148 0.34029 1.6298 0.89453 2.3242 0.13856 0.17485 0.5401 0.57442 0.75781 0.75586 0.68456 0.57072 1.5697 0.93143 2.5742 1.0469 0.30352 0.03466 0.90375 0.024695 1.2617-0.021485 0.16825-0.02147 0.33992-0.037392 0.38281-0.039062 0.15671 0 0.19142 0.059372 0.36133 0.63672 0.05608 0.19299 0.10698 0.35638 0.11523 0.36133 0.0082 5e-3 0.010406 0.022249 0.003906 0.037109-5e-3 0.01485-0.002187 0.027344 0.007813 0.027344 0.0099 0 0.012802 0.015063 0.007812 0.033203-5e-3 0.01814-1.34e-4 0.033203 0.009766 0.033203 0.0082 0 0.012802 0.010248 0.007812 0.023438-5e-3 0.01319-0.001887 0.028253 0.007813 0.033203 0.0099 0.0066 0.012802 0.021683 0.007812 0.033203-5e-3 0.01319 6.6e-5 0.028253 0.009766 0.033203 0.0099 0.0066 0.012449 0.019963 0.005859 0.033203-5e-3 0.01319 1.49e-4 0.025391 0.011719 0.025391s0.016669 0.010247 0.011719 0.023437c-5e-3 0.01319-5e-3 0.028253 0 0.033203 5e-3 5e-3 0.012052 0.032507 0.013672 0.060547 0.0034 0.02804 0.013254 0.0559 0.021484 0.0625 0.0099 5e-3 0.015292 0.021916 0.013672 0.035156-5e-3 0.032991 0.041791 0.22057 0.056641 0.23047 0.05114 0.03794 0.082558 0.59083 0.042968 0.80859-0.11877 0.6697-0.61015 1.1258-1.4102 1.3105-0.27548 0.06268-0.5667 0.095221-0.73828 0.082031-0.1765-0.01319-0.43933-0.062578-0.54492-0.10547l-0.078125-0.029296 0.037109-0.033204c0.02147-0.01981 0.10789-0.056247 0.19531-0.085937 0.50146-0.16495 0.79598-0.45075 0.88672-0.85156 0.04456-0.20124 0.029566-0.3416-0.064454-0.55273-0.12372-0.27547-0.16123-0.34382-0.25195-0.46094-0.15836-0.20124-0.41507-0.36765-0.70703-0.45508-0.13196-0.03956-0.17392-0.044921-0.38672-0.044922-0.27712 0-0.41461 0.029518-0.64062 0.13672-0.17485 0.08413-0.26604 0.14568-0.40625 0.2793-0.14681 0.14186-0.23922 0.27323-0.33984 0.48438-0.1831 0.38269-0.20605 0.67495-0.083984 1.0312 0.074231 0.21279 0.185 0.38257 0.37305 0.57227 0.48662 0.48991 1.2228 0.7712 2.0195 0.76953 0.74392 0 1.4582-0.20427 1.9629-0.56055 0.14846-0.10392 0.17663-0.12585 0.30859-0.25781 0.40414-0.40249 0.57974-1.0196 0.48242-1.6992-0.0082-0.06433-0.10402-0.47558-0.21289-0.91602-0.26392-1.0788-0.29688-1.2222-0.29688-1.3047 0-0.10557 0.083721-0.17385 0.42188-0.34375 0.8528-0.42888 1.4082-0.99631 1.6309-1.666 0.08742-0.26392 0.11268-0.44489 0.10938-0.77148-0.0066-0.83466-0.28296-1.491-0.86523-2.0469-0.47837-0.45527-1.0857-0.73248-1.8164-0.82812-0.14021-0.0198-0.85978-0.02402-0.9043-0.00586-0.0198 0.0066-0.032194-0.014446-0.058594-0.10352-0.05608-0.19135-0.31298-1.2455-0.32617-1.3379-0.01814-0.14846 0.01307-0.20279 0.25391-0.42383 0.3662-0.33981 0.61196-0.60667 0.85937-0.93164 0.66809-0.87589 1.0371-1.8004 1.1113-2.7852 0.01814-0.26228-0.00233-0.68011-0.03711-0.74609-0.0099-0.016472-0.015625-0.05655-0.015625-0.087891 0-0.18805-0.14404-0.81398-0.2793-1.2148-0.30985-0.91386-0.81842-1.7563-1.1582-1.918-0.065156-0.030517-0.10709-0.047691-0.15039-0.050781zm0.28516 2.2715c0.11712 0.00343 0.15897 0.011822 0.24805 0.054688 0.17486 0.082476 0.2937 0.2274 0.36133 0.43359 0.03133 0.090722 0.034098 0.11605 0.017578 0.22656-0.06598 0.47672-0.34154 1.0403-0.77539 1.5879-0.26888 0.33981-0.83044 0.86992-1.1934 1.1289-0.12701 0.090722-0.13047 0.091694-0.16016-0.046875-0.05609-0.25403-0.08549-0.49022-0.09375-0.73438-0.01157-0.31507 0.007498-0.50287 0.080078-0.82617 0.1996-0.89898 0.6403-1.5485 1.2012-1.7695 0.15011-0.057734 0.15775-0.059634 0.31445-0.054688zm-1.5645 6.2246c0.022475-0.0053577 0.040099-9.679e-4 0.072265 0.0097656 0.04618 0.016472 0.11617 0.1827 0.2168 0.51758 0.04289 0.14351 0.082951 0.26458 0.087891 0.26953 0.01319 0.01319 0.020858 0.054473 0.017578 0.095703 0 0.02476 0.004438 0.033681 0.017578 0.02539 0.01157-0.0082 0.014716 3.48e-4 0.009766 0.023438-0.0066 0.0198-0.002188 0.037109 0.007812 0.037109 0.0099 0 0.012803 0.015063 0.007813 0.033203-5e-3 0.018141-0.001888 0.038019 0.007812 0.042969 0.0082 5e-3 0.012783 0.020023 0.007813 0.033203-5e-3 0.01157-0.002594 0.025957 0.003906 0.029297 0.0082 5e-3 0.010759 0.029665 0.005859 0.052735-0.0066 0.03466-0.004578 0.04115 0.013672 0.03125 0.01647-0.0099 0.019353-0.009294 0.007813 0.003906-0.0082 0.0099-0.10853 0.055372-0.2207 0.10156-0.94026 0.38105-1.6473 1.1908-1.7363 1.9941-0.036277 0.32826 0.051712 0.73495 0.22656 1.0566 0.22599 0.41238 0.52164 0.75132 0.85156 0.9707 0.25733 0.17156 0.65835 0.33398 0.81836 0.33398 0.10722 0 0.15369-0.037273 0.15039-0.12305 0-5e-3 0.01053-0.02862 0.02539-0.05664 0.03299-0.06433 0.030814-0.15407-0.003906-0.19531-0.01647-0.0198-0.11995-0.075213-0.23047-0.12305-0.26722-0.11877-0.43117-0.22324-0.58789-0.375-0.11712-0.11217-0.13394-0.13588-0.17187-0.24805-0.057741-0.1699-0.070517-0.44443-0.029297-0.60938 0.08908-0.3629 0.3904-0.71542 0.82422-0.96289 0.07258-0.04123 0.17061-0.086721 0.2168-0.10156 0.07588-0.02476 0.091742-0.025213 0.14453-0.001953 0.039559 0.01485 0.068403 0.045031 0.089843 0.087891 0.03299 0.06269 0.12495 0.33705 0.17774 0.52344 0.01485 0.05443 0.032442 0.10248 0.039062 0.10742 0.01157 0.0082 0.019531 0.059276 0.019531 0.10547 0 0.01647 0.007638 0.024198 0.017579 0.017578 0.01157-0.0082 0.014715 3.48e-4 0.009765 0.023437-0.0066 0.019801-0.002187 0.035157 0.007813 0.035157 0.0099 0 0.012802 0.015063 0.007812 0.033203-5e-3 0.01647-0.004847 0.033819 0.001953 0.037109 0.01157 5e-3 0.23754 0.88714 0.24414 0.95312 0.0015 0.02309 0.004612 0.043858 0.007812 0.048828 0.0015 5e-3 0.00426 0.015481 0.00586 0.025391 0.0015 0.0082 0.008682 0.027826 0.013672 0.041016 0.02971 0.06928 0.29553 1.174 0.29883 1.2383 5e-3 0.07588 0.002849 0.077563-0.056641 0.095703-0.38269 0.11382-1.165 0.14108-1.7324 0.058594-0.75206-0.10888-1.4806-0.40836-1.9805-0.8125-0.17485-0.14186-0.40151-0.38358-0.51367-0.54688-0.10392-0.15671-0.19934-0.40593-0.26367-0.70117-0.047846-0.22104-0.052356-0.68382-0.0078126-0.9082 0.10392-0.52783 0.38091-1.076 0.79492-1.5742 0.2062-0.24743 0.6642-0.69776 0.97266-0.95508 0.30186-0.25073 0.84612-0.66588 0.98633-0.75 0.047835-0.028865 0.075181-0.04347 0.097657-0.048828zm1.6914 2.7441c0.06227-6.33e-4 0.14308 0.009025 0.25195 0.03125 0.68951 0.14021 1.2316 0.53754 1.4922 1.0918 0.11216 0.23918 0.13251 0.32359 0.13086 0.54297-0.0015 0.29362-0.081358 0.5291-0.2793 0.83594-0.12207 0.18805-0.39506 0.45878-0.59961 0.5957-0.15176 0.10062-0.33194 0.20117-0.36328 0.20117-0.03299 0-0.040397-0.028848-0.50391-1.873-0.16001-0.63504-0.29584-1.1998-0.30078-1.2559-0.0082-0.09402-0.005771-0.10177 0.037109-0.13476 0.02969-0.02309 0.072496-0.034523 0.13477-0.035157z" stroke-width=".49023" fill="#232629"/>
</svg>
