<?xml version="1.0" encoding="UTF-8"?>
<svg id="svg883" width="22" height="22" version="1.2" xmlns="http://www.w3.org/2000/svg">
 <path id="path881" d="m9.3008 5.0957-0.24609 3.2891 0.44531 0.27734c0.12759-0.031789 0.29537-0.063914 0.50195-0.095703 0.20658-0.031789 0.39802-0.046875 0.57422-0.046875 0.5286 1e-7 0.91517 0.11146 1.1582 0.33398 0.24911 0.21617 0.37305 0.5301 0.37305 0.94336 0 0.46412-0.13674 0.80677-0.41016 1.0293-0.27342 0.21617-0.63806 0.32422-1.0938 0.32422-0.28557 0-0.5864-0.040395-0.90234-0.12305-0.30987-0.082652-0.57424-0.1907-0.79297-0.32422v0.92578c0.20658 0.1208 0.4564 0.21181 0.74805 0.27539 0.29772 0.063578 0.61678 0.095703 0.95703 0.095703 0.78987 0 1.4006-0.20443 1.832-0.61133 0.43139-0.41326 0.64648-0.97542 0.64648-1.6875 0-0.6485-0.19686-1.1464-0.5918-1.4961-0.39493-0.34968-0.91455-0.52539-1.5586-0.52539-0.21266 0-0.39867 0.013631-0.55664 0.039062-0.15797 0.019074-0.28929 0.037567-0.39258 0.056641l0.14648-1.7832h2.5059v-0.89648h-3.3437zm-7.8965 2.9629c-0.00217 6.752e-4 -0.0056925 0.0011831-0.0078125 0.0019531-0.076429 0.00791-0.14684 0.036771-0.20703 0.078125-0.00533 0.00384-0.010959 0.0090319-0.015625 0.013672-0.00691 0.0064799-0.014624 0.010242-0.021484 0.017578-0.00219 0.0022-0.0041194 0.0059425-0.0058594 0.0078125-0.00581 0.0056-0.011799 0.011395-0.017578 0.017578-0.0080499 0.0079-0.01649 0.016476-0.023437 0.023438-0.00217 0.0022-0.0042794 0.0042094-0.0058594 0.0058594-0.020532 0.020337-0.030138 0.044014-0.046875 0.068359-0.00537 0.011552-0.0099708 0.024492-0.011719 0.037109v-0.0058593c-4.368e-4 0.0012099-0.0011431 0.0058325-0.0019531 0.0078124-0.015296 0.01713-0.016114 0.041901-0.023438 0.060547-0.00277 0.00692-0.0043494 0.01416-0.0058594 0.021484-7.058e-4 0.0022-0.0031862 0.0013863-0.0039062 0.0039063-0.00371 0.011091-0.0052894 0.021519-0.0058594 0.033203-3.74e-5 0.00307-3.74e-5 0.0086367 0 0.011719-1.923e-4 0.00879-3.211e-4 0.016607 0 0.025391-1.371e-4 0.00802-2.943e-4 0.015378 0 0.023438l0.0019531-0.011719c-0.00109 0.018021-0.00109 0.036666 0 0.054688l-0.0019531-0.0078125v2.7617l0.0019531-0.007813c-0.009246 0.14582 0.042904 0.27356 0.13086 0.35547 0.087954 0.0819 0.20402 0.12109 0.31641 0.12109 0.11238 0 0.22649-0.039184 0.31445-0.12109 0.087955-0.08191 0.14011-0.20965 0.13086-0.35547l0.0019532 0.007813v-2.3535h5.5918l-0.0078124-0.0019531c0.14583 0.00922 0.27355-0.0429 0.35547-0.13086 0.081913-0.087958 0.11914-0.20206 0.11914-0.31445s-0.037224-0.22845-0.11914-0.31641c-0.081935-0.087955-0.20964-0.13817-0.35547-0.12891l0.0078124-0.0039062h-6.0117c-0.00879-3.194e-4 -0.016619-1.921e-4 -0.025391 0-0.00131-1.53e-5 -0.0026263 5.5e-6 -0.0039063 0-0.014075-6.851e-4 -0.028893-6.863e-4 -0.042969 0zm13.107 0 0.007812 0.0039062c-0.14583-0.00926-0.27357 0.040948-0.35547 0.12891-0.081919 0.08796-0.11914 0.20402-0.11914 0.31641s0.037231 0.22649 0.11914 0.31445c0.08191 0.08796 0.20965 0.14008 0.35547 0.13086l-0.007812 0.0019531h5.5918v2.3535l0.001953-0.007813c-0.00924 0.14582 0.042909 0.27356 0.13086 0.35547 0.08796 0.08191 0.20402 0.12109 0.31641 0.12109s0.2265-0.039194 0.31445-0.12109c0.087959-0.08191 0.14016-0.20965 0.13086-0.35547l0.001953 0.007813v-2.7617l-0.001953 0.0078125c0.0011-0.018021 0.0011-0.036666 0-0.054688l0.001953 0.011719c2.95e-4 -0.00806 1.37e-4 -0.015418 0-0.023438 3.21e-4 -0.0087839 1.93e-4 -0.016601 0-0.025391 3.8e-5 -0.003082 3.8e-5 -0.0086487 0-0.011719-6e-4 -0.011684-0.002259-0.022112-0.005859-0.033203-6e-4 -0.00252-0.001249-0.0017063-0.001953-0.0039063-0.0016-0.007324-0.005113-0.014564-0.007813-0.021484-0.00733-0.018646-0.008148-0.043417-0.023437-0.060547-7e-4 -0.0019799-0.001517-0.0066025-0.001954-0.0078124v0.0058593c-0.00166-0.012617-0.004365-0.025557-0.009765-0.037109-0.01674-0.024345-0.028288-0.048022-0.048828-0.068359-0.0016-0.00165-0.00366-0.0036594-0.00586-0.0058594-0.00695-0.006962-0.015437-0.015538-0.023437-0.023438-0.00577-0.006183-0.011778-0.011978-0.017578-0.017578-0.0019-0.00187-0.00366-0.0056125-0.00586-0.0078125-0.00685-0.007336-0.014584-0.011098-0.021484-0.017578-0.00469-0.00464-0.010225-0.0098319-0.015625-0.013672-0.06019-0.041354-0.1306-0.070215-0.20703-0.078125-0.001683-5.888e-4 -0.004205-0.0014109-0.00586-0.0019531h-0.001953c-0.013495-5.955e-4 -0.027585-6.542e-4 -0.041015 0-0.0014 5.3e-6 -0.00446-1.54e-5 -0.00586 0-0.00877-1.921e-4 -0.016691-3.196e-4 -0.02539 0h-6.0117z" fill="#232629"/>
</svg>
