<?xml version="1.0" encoding="UTF-8"?>
<svg id="svg883" width="22" height="22" version="1.2" xmlns="http://www.w3.org/2000/svg">
 <path id="path881" d="m13.396 5c-0.46177 0-0.85918 0.08615-1.1934 0.25781-0.33417 0.1653-0.63132 0.36291-0.89258 0.5918l0.51953 0.67578c0.25519-0.21617 0.50132-0.38165 0.73828-0.49609 0.23696-0.11444 0.50306-0.17188 0.80078-0.17188 0.30987 0 0.56338 0.089558 0.75781 0.26758 0.19443 0.17802 0.29102 0.43988 0.29102 0.7832 0 0.27975-0.054697 0.53965-0.16406 0.78125-0.10937 0.23524-0.27346 0.48347-0.49219 0.74414-0.21873 0.25431-0.49222 0.55657-0.82031 0.90625l-1.6777 1.7832v0.78125h4.375v-0.89648h-3.1621v-0.046874l1.2129-1.2305c0.34633-0.34968 0.64716-0.67725 0.90234-0.98242 0.25519-0.30518 0.45205-0.61084 0.5918-0.91602 0.13974-0.31153 0.20898-0.64737 0.20898-1.0098 0-0.55313-0.17863-0.99556-0.53711-1.3262-0.3524-0.33061-0.83924-0.49609-1.459-0.49609zm-5.1758 0.095703-1.8594 1.5254 0.49219 0.64844 0.71094-0.60156c0.10937-0.095368 0.20595-0.17957 0.29102-0.25586 0.085062-0.082652 0.16711-0.16539 0.24609-0.24805-0.012152 0.18438-0.021268 0.37517-0.027344 0.57227-0.0060759 0.19709-0.0097657 0.4132-0.0097657 0.64844v4.5195h0.95703v-6.8086h-0.80078zm-6.8164 2.9629c-0.00217 6.752e-4 -0.0056925 0.0011831-0.0078125 0.0019531-0.076429 0.00791-0.14684 0.036771-0.20703 0.078125-0.00533 0.00384-0.010959 0.0090319-0.015625 0.013672-0.00691 0.0064799-0.014624 0.010242-0.021484 0.017578-0.00219 0.0022-0.0041194 0.0059425-0.0058594 0.0078125-0.00581 0.0056-0.011799 0.011395-0.017578 0.017578-0.0080499 0.0079-0.01649 0.016476-0.023437 0.023438-0.00217 0.0022-0.0042794 0.0042094-0.0058594 0.0058594-0.020532 0.020337-0.030138 0.044014-0.046875 0.068359-0.00537 0.011552-0.0099708 0.024492-0.011719 0.037109v-0.0058593c-4.368e-4 0.0012099-0.0011431 0.0058325-0.0019531 0.0078124-0.015296 0.01713-0.016114 0.041901-0.023438 0.060547-0.00277 0.00692-0.0043494 0.01416-0.0058594 0.021484-7.058e-4 0.0022-0.0031862 0.0013863-0.0039062 0.0039063-0.00371 0.011091-0.0052894 0.021519-0.0058594 0.033203-3.74e-5 0.00307-3.74e-5 0.0086367 0 0.011719-1.923e-4 0.00879-3.211e-4 0.016607 0 0.025391-1.371e-4 0.00802-2.943e-4 0.015378 0 0.023438l0.0019531-0.011719c-0.00109 0.018021-0.00109 0.036666 0 0.054688l-0.0019531-0.0078125v2.7617l0.0019531-0.007813c-0.009246 0.14582 0.042904 0.27356 0.13086 0.35547 0.087954 0.0819 0.20402 0.12109 0.31641 0.12109 0.11238 0 0.22649-0.039184 0.31445-0.12109 0.087955-0.08191 0.14011-0.20965 0.13086-0.35547l0.0019532 0.007813v-2.3535h3.1035l-0.0078125-0.0019531c0.14583 0.00922 0.27355-0.0429 0.35547-0.13086 0.081913-0.087958 0.11914-0.20206 0.11914-0.31445s-0.037224-0.22845-0.11914-0.31641c-0.081935-0.087955-0.20964-0.13817-0.35547-0.12891l0.0078125-0.0039062h-3.5957zm15.588 0 0.007812 0.0039062c-0.14583-0.00926-0.27357 0.040948-0.35547 0.12891-0.08192 0.08796-0.12109 0.20402-0.12109 0.31641s0.039183 0.22649 0.12109 0.31445c0.08191 0.08796 0.20965 0.14008 0.35547 0.13086l-0.007812 0.0019531h3.1113v2.3535l0.001953-0.007813c-0.00924 0.14582 0.042909 0.27356 0.13086 0.35547 0.08796 0.08191 0.20402 0.12109 0.31641 0.12109s0.2265-0.039194 0.31445-0.12109c0.087959-0.08191 0.14016-0.20965 0.13086-0.35547l0.001953 0.007813v-2.7617l-0.001953 0.0078125c0.0011-0.018021 0.0011-0.036666 0-0.054688l0.001953 0.011719c2.95e-4 -0.00806 1.37e-4 -0.015418 0-0.023438 3.21e-4 -0.0087839 1.93e-4 -0.016601 0-0.025391 3.8e-5 -0.003082 3.8e-5 -0.0086487 0-0.011719-6e-4 -0.011684-0.002259-0.022112-0.005859-0.033203-6e-4 -0.00252-0.001249-0.0017063-0.001953-0.0039063-0.0016-0.007324-0.005113-0.014564-0.007813-0.021484-0.00733-0.018646-0.008148-0.043417-0.023437-0.060547-7e-4 -0.0019799-0.001517-0.0066025-0.001954-0.0078124v0.0058593c-0.00166-0.012617-0.004365-0.025557-0.009765-0.037109-0.01674-0.024345-0.028288-0.048022-0.048828-0.068359-0.0016-0.00165-0.00366-0.0036594-0.00586-0.0058594-0.00695-0.006962-0.015437-0.015538-0.023437-0.023438-0.00577-0.006183-0.011778-0.011978-0.017578-0.017578-0.0019-0.00187-0.00366-0.0056125-0.00586-0.0078125-0.00685-0.007336-0.014584-0.011098-0.021484-0.017578-0.00469-0.00464-0.010225-0.0098319-0.015625-0.013672-0.06019-0.041354-0.1306-0.070215-0.20703-0.078125-0.001683-5.888e-4 -0.004205-0.0014109-0.00586-0.0019531h-0.001953-3.6035z" fill="#232629"/>
</svg>
