<?xml version="1.0" encoding="UTF-8"?>
<svg id="svg883" width="22" height="22" version="1.2" xmlns="http://www.w3.org/2000/svg">
 <path id="path881" d="m11.347 5.4706c-0.46103 0-0.88694 0.1472-1.2032 0.38391-0.31627 0.23671-0.52761 0.5706-0.52761 0.94154 0 0.18971 0.060271 0.36074 0.17158 0.48471s0.27458 0.19732 0.45469 0.19732c0.32638 0 0.58766-0.26128 0.58766-0.58766 0-0.16817-0.07951-0.30902-0.20804-0.44611-7.23e-4 -7.225e-4 -0.0015-0.00144-0.0022-0.00214-0.03657-0.036557-0.05684-0.062555-0.06433-0.075066-0.0075-0.012512-0.0043-0.00824-0.0043-0.015013 0-0.00365 0.0031-0.024506 0.03218-0.055764 0.02909-0.031259 0.07855-0.068241 0.14155-0.1008 0.12605-0.065129 0.3039-0.11153 0.46759-0.11153 0.24279 0 0.42138 0.065322 0.54048 0.17587 0.1191 0.11055 0.18659 0.26999 0.18659 0.489 0 0.3193-0.11732 0.64069-0.29383 0.87506-0.17651 0.23437-0.40546 0.37319-0.6134 0.37319 0.0012 0-0.07906-0.00483-0.17587-0.01287-7.33e-4 -6.5e-6 -0.0015-6.5e-6 -0.0022 0-0.23939-0.015955-0.25798-0.017164-0.2874-0.017164-0.10228 0-0.19799 0.022796-0.27453 0.083643-0.07654 0.060847-0.12011 0.16065-0.12011 0.26166 0 0.091067 0.03252 0.18139 0.09865 0.2445 0.06614 0.063109 0.15895 0.094372 0.25523 0.094372 0.05486 0 0.11556-0.00912 0.18016-0.017164 0.0036-5.775e-4 0.0073-0.00132 0.01076-0.0022 0.0988-0.021172 0.20362-0.025739 0.27667-0.025739 0.14956 0 0.26204 0.059748 0.34959 0.17587 0.08756 0.11612 0.1437 0.29358 0.1437 0.51903 0 0.35418-0.08277 0.69911-0.23807 0.98015-0.22033 0.39661-0.53454 0.57908-1.0166 0.57908-0.19764 0-0.38626-0.05101-0.51474-0.1244-0.12848-0.07339-0.1823-0.15835-0.1823-0.22091 0-0.02961-0.00257-0.0188-0.00214-0.0193 4.28e-4 -4.99e-4 0.023997-0.01774 0.081501-0.04289 6.3e-6 -7.33e-4 6.3e-6 -0.0015 0-0.0022 0.12887-0.05778 0.2327-0.13097 0.30241-0.22949 0.069706-0.09852 0.1008-0.21683 0.1008-0.34316 0-0.34231-0.28878-0.61983-0.63485-0.61983-0.2048 0-0.38855 0.086531-0.51045 0.23378-0.12189 0.14736-0.18443 0.34915-0.18443 0.5792 0 0.41876 0.1672 0.77444 0.46327 1.0145 0.29607 0.24002 0.71266 0.36675 1.2118 0.36675 1.2589 0 2.2456-0.85462 2.2456-1.9946 0-0.31344-0.10144-0.59148-0.2874-0.81286-7.33e-4 -6.6e-6 -0.0015-6.6e-6 -0.0022 0-0.11924-0.14094-0.25908-0.23879-0.42679-0.32386 0.67392-0.25903 1.0981-0.79332 1.0981-1.4541 1e-6 -0.40901-0.17099-0.76619-0.46112-1.0123-0.29008-0.24613-0.69549-0.38391-1.1624-0.38391zm9.2495 2.5887c0.0022 6.753e-4 0.0043 0.00143 0.0065 0.0022 0.07643 0.00791 0.14785 0.035854 0.20804 0.077208 0.0054 0.00384 0.01032 0.00823 0.01501 0.01287 0.0069 0.00648 0.01458 0.011969 0.02143 0.019305 0.0022 0.0022 0.0046 0.00461 0.0065 0.00648 0.0058 0.0056 0.01138 0.010981 0.01715 0.017164 8e-3 0.0079 0.01665 0.01668 0.0236 0.023642 0.0022 0.0022 0.0049 0.00483 0.0065 0.00648 0.02054 0.020337 0.03045 0.044298 0.04719 0.068643 0.0054 0.011552 0.0091 0.02384 0.01076 0.036457v-0.00647c4.37e-4 0.00121 0.0014 0.00659 0.0021 0.00857 0.01529 0.01713 0.01626 0.041399 0.02359 0.060045 0.0027 0.00692 0.0049 0.014122 0.0065 0.021446 7.05e-4 0.0022 0.0015 0.00176 0.0021 0.00428 0.0036 0.011091 0.0059 0.022632 0.0065 0.034316 3.8e-5 0.00307 3.8e-5 0.00768 0 0.010762 1.93e-4 0.00879 3.21e-4 0.016955 0 0.025739 1.37e-4 0.00802 2.95e-4 0.015538 0 0.023598l-0.0021-0.01287c0.0011 0.018021 0.0011 0.037742 0 0.055763l0.0021-0.00857v2.7624l-0.0021-0.0085c0.0093 0.14582-0.04287 0.27412-0.13083 0.35603-0.08795 0.0819-0.20289 0.12011-0.31528 0.12011s-0.22732-0.0382-0.31528-0.12011c-0.08795-0.08191-0.14007-0.21021-0.13083-0.35603l-0.0021 0.0085v-2.3528h-5.5918l0.0085-0.0022c-0.14582 0.00922-0.27411-0.04287-0.35602-0.13083-0.08191-0.087959-0.12011-0.20289-0.12011-0.31528 0-0.11239 0.03819-0.22732 0.12011-0.31528 0.0819-0.087958 0.2102-0.14009 0.35603-0.13083l-0.0085-0.0022h6.012c0.0087-3.196e-4 0.01697-1.921e-4 0.02574 0 0.0014-1.54e-5 0.0029 5.4e-6 0.0043 0 0.01407-6.853e-4 0.02881-6.863e-4 0.04289 0zm-19.193 0c-0.00217 6.753e-4 -0.00431 0.00143-0.00643 0.0022-0.076429 0.00791-0.14785 0.035854-0.20804 0.077208-0.00533 0.00384-0.010347 0.00823-0.015013 0.01287-0.00691 0.00648-0.014587 0.011969-0.021447 0.019305-0.00219 0.0022-0.00469 0.00461-0.00643 0.00648-0.00581 0.0056-0.011379 0.010981-0.017158 0.017164-0.00805 0.0079-0.016646 0.01668-0.023593 0.023642-0.00217 0.0022-0.00485 0.00483-0.00643 0.00648-0.020532 0.020337-0.030445 0.044298-0.047182 0.068643-0.00537 0.011552-0.00898 0.02384-0.010728 0.036457v-0.00647c-4.368e-4 0.00121-0.00133 0.00659-0.00214 0.00857-0.015296 0.01713-0.016264 0.041399-0.023587 0.060045-0.00277 0.00692-0.00492 0.014122-0.00643 0.021446-7.058e-4 0.0022-0.00142 0.00176-0.00214 0.00428-0.00371 0.011091-0.00586 0.022632-0.00643 0.034316-3.74e-5 0.00307-3.74e-5 0.00768 0 0.010762-1.923e-4 0.00879-3.2114e-4 0.016955 0 0.025739-1.371e-4 0.00802-2.9434e-4 0.015538 0 0.023598l0.00214-0.01287c-0.00109 0.018021-0.00109 0.037742 0 0.055763l-0.00214-0.00857v2.7624l0.00214-0.0085c-0.009246 0.14582 0.042875 0.27412 0.13083 0.35603 0.087954 0.0819 0.20289 0.12011 0.31528 0.12011 0.11238 0 0.22732-0.0382 0.31528-0.12011 0.087955-0.08191 0.14008-0.21021 0.13083-0.35603l0.00214 0.0085v-2.3528h5.5916l-0.00858-0.0022c0.14583 0.00922 0.27411-0.04287 0.35603-0.13083 0.081913-0.087958 0.12011-0.20289 0.12011-0.31528 0-0.11239-0.038193-0.22732-0.12011-0.31528-0.081935-0.087955-0.21022-0.14009-0.35605-0.13083l0.00858-0.0022h-6.012c-0.00879-3.194e-4 -0.016964-1.921e-4 -0.025736 0-0.00131-1.53e-5 -0.00301 5.6e-6 -0.00429 0-0.014075-6.851e-4 -0.02882-6.863e-4 -0.042896 0z" fill="#232629" stroke-width="1.0981"/>
</svg>
