<?xml version="1.0" encoding="UTF-8"?>
<svg id="svg1008" width="22" height="22" version="1.2" xmlns="http://www.w3.org/2000/svg">
 <path id="path1006" d="m8.1943 7.8606c-0.95209 0-1.7342 1.8192-1.7342 2.9413 0 0.37403 0.13601 0.64606 0.51004 0.64606 1.0881 0 1.6491-2.1422 1.6491-3.0263 0-0.30603-0.119-0.56105-0.42504-0.56105zm-2.0572 6.6136c-0.64606 0-1.3261-0.08502-1.9722-0.08502-0.66306 0-1.3261 0.08502-1.9552 0.08502-0.153 0-0.23801-0.11901-0.23801-0.23802 0-0.30603 0.52705-0.25502 0.81606-0.27203 0.37403 0 0.79907-0.08502 0.91809-0.42504l1.7342-5.1005c0.03406-0.11901 0.068-0.23802 0.068-0.34003 0-0.13601-0.03406-0.23802-0.18702-0.23802-0.56104 0-1.0711 1.0201-1.3431 1.6492-0.08497 0.20402-0.25503 0.28903-0.40803 0.28903-0.13602 0-0.23803-0.06801-0.23803-0.20402 0-0.04251 0.01708-0.085 0.03406-0.13601 0.51004-1.1561 1.2241-2.4312 2.2442-2.4312 0.59505 0 1.0031 0.35703 1.1221 0.88408 0.49304-0.52705 1.1391-0.88408 1.7512-0.88408 1.1731 0 1.8192 0.83308 1.8192 1.9382 0 0.35703-0.068 0.74807-0.20402 1.1391-0.34003 0.98609-1.5471 2.0232-2.4992 2.0232-0.45905 0-0.88409-0.08501-1.2411-0.28903-0.068-0.0425-0.11902-0.05101-0.18702-0.05101-0.11902 0-0.23802 0.05101-0.27203 0.15301l-0.49304 1.4621c-0.01697 0.0425-0.01697 0.085-0.01697 0.11901 0 0.34003 0.35703 0.44204 0.74806 0.47604 0.15301 0 0.22103 0.13601 0.22103 0.23802 0 0.11901-0.068 0.23802-0.22103 0.23802z" fill="#232629"/>
 <path id="path1633" d="m16.9 9.3933-0.85009 2.7713c-0.51004 1.6832-2.0572 4.3354-3.7063 4.3354-0.76507 0-1.4791-0.45904-1.4791-1.1731 0-0.66306 0.28903-1.3091 0.88408-1.3091 0.40804 0 0.74808 0.34003 0.74808 0.74807 0 0.51005-0.64607 0.40804-0.64607 0.91808 0 0.17002 0.18702 0.18702 0.39104 0.18702h0.10206c0.81607 0 1.0371-0.98609 1.2411-1.8362l1.1561-4.6414h-0.83307c-0.18702 0-0.32304-0.13601-0.32304-0.32303s0.13602-0.32303 0.32304-0.32303h1.0201c0.54406-1.6321 2.0062-3.2473 3.6213-3.2473 0.76507 0 1.4791 0.45904 1.4791 1.1731 0 0.66306-0.28902 1.3091-0.88408 1.3091-0.40803 0-0.74807-0.32303-0.74807-0.73107 0-0.51005 0.64606-0.42504 0.64606-0.93508 0-0.17002-0.17001-0.18702-0.37403-0.18702h-0.119c-1.0541 0-1.1901 1.4961-1.4621 2.6182h0.93508c0.18702 0 0.32303 0.13601 0.32303 0.32303s-0.13601 0.32303-0.32303 0.32303z" fill="#232629"/>
</svg>
