<?xml version="1.0" encoding="UTF-8" standalone="no"?>
<svg
   viewBox="0 0 22 22"
   version="1.1"
   id="svg137"
   sodipodi:docname="edit_mode_edition_no_natural.svg"
   inkscape:version="1.2.2 (b0a8486541, 2022-12-01)"
   xmlns:inkscape="http://www.inkscape.org/namespaces/inkscape"
   xmlns:sodipodi="http://sodipodi.sourceforge.net/DTD/sodipodi-0.dtd"
   xmlns="http://www.w3.org/2000/svg"
   xmlns:svg="http://www.w3.org/2000/svg">
  <sodipodi:namedview
     id="namedview139"
     pagecolor="#ffffff"
     bordercolor="#000000"
     borderopacity="0.25"
     inkscape:showpageshadow="2"
     inkscape:pageopacity="0.0"
     inkscape:pagecheckerboard="0"
     inkscape:deskcolor="#d1d1d1"
     showgrid="true"
     inkscape:zoom="23.880924"
     inkscape:cx="5.0458683"
     inkscape:cy="6.9092803"
     inkscape:window-width="1920"
     inkscape:window-height="1021"
     inkscape:window-x="0"
     inkscape:window-y="0"
     inkscape:window-maximized="1"
     inkscape:current-layer="svg137">
    <inkscape:grid
       type="xygrid"
       id="grid1176" />
  </sodipodi:namedview>
  <defs
     id="defs3051">
    <style
       type="text/css"
       id="current-color-scheme">
      .ColorScheme-Text {
        color:#232629;
      }
      </style>
  </defs>
  <path
     id="path135"
     style="fill:currentColor;fill-opacity:1;stroke:none"
     class="ColorScheme-Text"
     d="M 8.9960938 1 L 6.0039062 3.9921875 L 6 3.9921875 L 6 8 L 7 8 L 9 8 L 10.007812 8 L 10.007812 7.9960938 L 17.003906 1 L 15.589844 1 L 11 5.5898438 L 11 4 L 10 4 L 9 4 L 9 3 L 9 2.4101562 L 10.410156 1 L 8.9960938 1 z M 8 3.4101562 L 8 5 L 9 5 L 10 5 L 10 6 L 10 6.5898438 L 9.5898438 7 L 8 7 L 7 6 L 7 4.4101562 L 8 3.4101562 z " />
  <path
     d="m 16.44034,1.0001255 c -0.26669,1e-7 -0.50779,0.23915 -0.50779,0.50583 v 4.2133 l -2.2135,0.82737 v -3.8663 c 1e-6,-0.26669 -0.23915,-0.50779 -0.50583,-0.50779 -0.26668,0 -0.48034,0.24111 -0.48034,0.50779 v 4.2133 l -1.2273,0.4529 c -0.21335,0.080005 -0.34506,0.267 -0.34506,0.48035 v 1.5998 c 0,0.29336 0.23993,0.53328 0.53328,0.53328 0.05333,-10e-7 0.13292,-7.77e-4 0.18626,-0.02744 l 0.85286,-0.29213 v 4.2662005 l -1.2273,0.42741 c -0.21335,0.08 -0.34506,0.29248 -0.34506,0.50583 v 1.599799 c 0,0.293351 0.23993,0.53524 0.53328,0.53524 0.05333,0 0.13292,-7.78e-4 0.18626,-0.02744 l 0.85286,-0.319581 v 3.866301 c 0,0.266689 0.21366,0.505829 0.48034,0.505829 0.26668,0 0.50583,-0.23914 0.50583,-0.505829 v -4.213301 l 2.2135,-0.827369 v 3.868199 c 0,0.266691 0.24111,0.50583 0.50779,0.50583 0.26668,0 0.48034,-0.23915 0.48034,-0.50583 v -4.215299 l 1.2254,-0.4529 c 0.21335,-0.08 0.34702,-0.267 0.34702,-0.48035 v -1.5998 c 0,-0.29336 -0.23992,-0.53328 -0.53328,-0.53328 -0.05333,0 -0.13292,7.78e-4 -0.18626,0.02744 l -0.85286,0.29213 V 8.0934155 l 1.2254,-0.42741 c 0.21335,-0.080005 0.34702,-0.29248 0.34702,-0.50583 v -1.5998 c 0,-0.29336 -0.23992,-0.53328 -0.53328,-0.53328 -0.05333,0 -0.13292,-0.00118 -0.18626,0.025489 l -0.85286,0.31957 v -3.8663 c 0,-0.26669 -0.21366,-0.50583 -0.48034,-0.50583 z m -12.214,0.17841 c -0.24002,0 -0.50619,0.080362 -0.71954,0.2137 L 3.82638,17.259236 c 0,0.373359 0.26697,0.6666 0.61366,0.6666 0.56004,0 0.79985,-0.66693 1.1999,-1.0136 1.6268,-1.3868 3.9212,-2.3739 3.9212,-4.5074 0,-1.4401 -0.98751,-2.7193005 -2.3743,-2.7193005 -0.88006,0 -1.7605,0.3457505 -2.4272,0.9057905 L 4.9459,1.3922255 c -0.21335,-0.13334 -0.47952,-0.2137 -0.71954,-0.2137 z m 11.707,7.2875 v 4.2682005 l -2.2135,0.79992 V 9.2659555 Z m -9.5736,2.3390005 c 0.77339,0 1.1469,0.908 1.1469,1.7881 0,1.5734 -1.2801,2.6921 -2.4801,3.7055 -0.080005,-0.58671 -0.10587,-1.1719 -0.10587,-1.7586 v -0.29409 l 0.025489,-1.7606 c 0.026668,-0.88006 0.58686,-1.6802 1.4136,-1.6802 z"
     fill="#232629"
     id="path2" />
</svg>
