<?xml version="1.0" encoding="UTF-8"?>
<svg id="svg137" version="1.1" viewBox="0 0 22 22" xmlns="http://www.w3.org/2000/svg">
 <defs id="defs3051">
  <style id="current-color-scheme" type="text/css">.ColorScheme-Text {
        color:#232629;
      }</style>
 </defs>
 <path id="path135" class="ColorScheme-Text" d="m8.9961 1-2.9922 2.9922h-0.0039062v4.0078h4.0078v-0.0039062l6.9961-6.9961h-1.4141l-4.5898 4.5898v-1.5898h-2v-1.5898l1.4102-1.4102h-1.4141zm-0.99609 2.4102v1.5898h2v1.5898l-0.41016 0.41016h-1.5898l-1-1v-1.5898l1-1z" fill="currentColor"/>
 <path id="path2" d="m16.44 1.0001c-0.26669 1e-7 -0.50779 0.23915-0.50779 0.50583v4.2133l-2.2135 0.82737v-3.8663c1e-6 -0.26669-0.23915-0.50779-0.50583-0.50779s-0.48034 0.24111-0.48034 0.50779v4.2133l-1.2273 0.4529c-0.21335 0.080005-0.34506 0.267-0.34506 0.48035v1.5998c0 0.29336 0.23993 0.53328 0.53328 0.53328 0.05333-1e-6 0.13292-7.77e-4 0.18626-0.02744l0.85286-0.29213v4.2662l-1.2273 0.42741c-0.21335 0.08-0.34506 0.29248-0.34506 0.50583v1.5998c0 0.29335 0.23993 0.53524 0.53328 0.53524 0.05333 0 0.13292-7.78e-4 0.18626-0.02744l0.85286-0.31958v3.8663c0 0.26669 0.21366 0.50583 0.48034 0.50583s0.50583-0.23914 0.50583-0.50583v-4.2133l2.2135-0.82737v3.8682c0 0.26669 0.24111 0.50583 0.50779 0.50583s0.48034-0.23915 0.48034-0.50583v-4.2153l1.2254-0.4529c0.21335-0.08 0.34702-0.267 0.34702-0.48035v-1.5998c0-0.29336-0.23992-0.53328-0.53328-0.53328-0.05333 0-0.13292 7.78e-4 -0.18626 0.02744l-0.85286 0.29213v-4.2662l1.2254-0.42741c0.21335-0.080005 0.34702-0.29248 0.34702-0.50583v-1.5998c0-0.29336-0.23992-0.53328-0.53328-0.53328-0.05333 0-0.13292-0.00118-0.18626 0.025489l-0.85286 0.31957v-3.8663c0-0.26669-0.21366-0.50583-0.48034-0.50583zm-12.214 0.17841c-0.24002 0-0.50619 0.080362-0.71954 0.2137l0.31958 15.867c0 0.37336 0.26697 0.6666 0.61366 0.6666 0.56004 0 0.79985-0.66693 1.1999-1.0136 1.6268-1.3868 3.9212-2.3739 3.9212-4.5074 0-1.4401-0.98751-2.7193-2.3743-2.7193-0.88006 0-1.7605 0.34575-2.4272 0.90579l0.18626-9.1991c-0.21335-0.13334-0.47952-0.2137-0.71954-0.2137zm11.707 7.2875v4.2682l-2.2135 0.79992v-4.2682zm-9.5736 2.339c0.77339 0 1.1469 0.908 1.1469 1.7881 0 1.5734-1.2801 2.6921-2.4801 3.7055-0.080005-0.58671-0.10587-1.1719-0.10587-1.7586v-0.29409l0.025489-1.7606c0.026668-0.88006 0.58686-1.6802 1.4136-1.6802z" fill="#232629"/>
</svg>
