<?xml version="1.0" encoding="UTF-8"?>
<svg id="svg260" width="22" height="22" version="1.2" xmlns="http://www.w3.org/2000/svg">
 <path id="path258" d="m11.021 9.1738 5.1064-4.971c0.12766-0.10145 0.25532-0.20289 0.38298-0.20289 0.12766 0 0.29787 0.10145 0.42553 0.20289l0.85106 0.81159c0.12766 0.15217 0.21276 0.4058 0.21276 0.60869 0 0.20289-0.085101 0.4058-0.21276 0.55797l-4.9362 4.8189 4.9362 4.8189c0.12766 0.15217 0.21276 0.35507 0.21276 0.55797 0 0.2029-0.0851 0.45652-0.21276 0.60869l-0.85106 0.81159c-0.12766 0.10145-0.29787 0.20289-0.42553 0.20289-0.12766 0-0.25532-0.10145-0.38298-0.20289l-5.1064-4.971-5.1489 4.971c-0.12766 0.10145-0.25532 0.20289-0.38298 0.20289-0.12766 0-0.29788-0.10145-0.42553-0.20289l-0.85106-0.81159c-0.12766-0.15217-0.21276-0.4058-0.21276-0.60869s0.085106-0.4058 0.21276-0.55797l4.9362-4.8189-4.9362-4.8189c-0.12766-0.15217-0.21276-0.35507-0.21276-0.55797 0-0.20289 0.085106-0.45652 0.21276-0.60869l0.85106-0.81159c0.12766-0.10145 0.29788-0.20289 0.42553-0.20289s0.25532 0.10145 0.38298 0.20289z" fill="#232629" stroke-width=".76426"/>
</svg>
