<?xml version="1.0" encoding="UTF-8"?>
<svg id="svg891" width="22" height="22" version="1.2" xmlns="http://www.w3.org/2000/svg">
 <path id="path889" d="m4.6452 11c0-0.11732 0.03923-0.19555 0.11732-0.27374 2.19-2.0335 4.1452-4.1843 5.9441-6.5698 0.078227-0.078229 0.19554-0.15642 0.31287-0.15642 0.11732 0 0.19554 0.078228 0.27373 0.15642 1.7989 2.3855 3.7542 4.5364 5.9441 6.5698 0.07823 0.07823 0.11732 0.15642 0.11732 0.27374s-0.03924 0.19554-0.11732 0.27374c-2.19 2.0335-4.1452 4.1843-5.9441 6.5698-0.078224 0.078233-0.15641 0.15642-0.27373 0.15642s-0.23464-0.078232-0.31287-0.15642c-1.7989-2.3855-3.7542-4.5364-5.9441-6.5698-0.078229-0.078228-0.11732-0.15642-0.11732-0.27374z" fill="#232629" stroke-width=".875"/>
</svg>
