<?xml version="1.0" encoding="UTF-8"?>
<svg id="svg1889" width="22" height="22" version="1.2" xmlns="http://www.w3.org/2000/svg">
 <path id="path1887" d="m17.418 4h-12.836l-0.29085 5.2549h1.0277c0.25207-1.4349 0.52352-2.1912 0.98892-2.8698 0.62047-0.93073 1.3574-1.3767 2.2493-1.3767 0.58169 0 0.69802 0.13573 0.69802 0.79497v9.4044c0 1.2216 0 1.2992-0.13573 1.4543-0.17451 0.21329-0.58169 0.29085-1.6095 0.29085h-0.42657v1.0471h7.8338v-1.0471h-0.42658c-1.0277 0-1.4349-0.07756-1.6094-0.29085-0.13573-0.15512-0.13573-0.23268-0.13573-1.4543v-9.4044c0-0.65925 0.11634-0.79497 0.69802-0.79497 0.83375 0 1.4737 0.34902 2.0942 1.1441 0.54291 0.71741 0.85314 1.5318 1.1441 3.1025h1.0277z" fill="#232629" stroke-width=".87499"/>
</svg>
