<?xml version="1.0" encoding="UTF-8"?>
<svg id="svg2268" width="22" height="22" version="1.2" xmlns="http://www.w3.org/2000/svg">
 <path id="path2266" d="m2.7512 12.127c0 0.6611 0.51085 0.90153 1.172 0.90153 1.172 0 2.1636-0.42071 3.0952-0.8414l0.15025-0.72121c-0.69116-0.51085-1.5025-0.87145-2.4341-0.87145-0.96156 0-1.9833 0.4808-1.9833 1.5325zm8.1436 3.6961c0 1.833-1.4124 3.4557-2.9449 3.4557-1.172 0-1.6828-1.3222-1.6828-2.7346 0-0.4207 0.030051-0.8414 0.1202-1.232l0.45075-2.2838c-0.93159 0.39065-1.8631 0.75125-3.0351 0.75125-1.0517 0-1.803-0.5409-1.803-1.5325 0-1.5325 1.4725-2.404 2.8848-2.404 0.93159 0 1.7429 0.3005 2.4641 0.75125l1.3823-6.9716c0.1803 0.090153 0.39065 0.15025 0.601 0.15025 0.6611 0 1.4424-0.4808 2.0435-1.0517l-1.5926 7.9934 1.9232-1.0818c0.7813-0.42071 1.5325-0.601 2.2237-0.601 0.87145 0 1.5926 0.3005 1.9232 0.8414 0.5409-0.601 1.3222-0.90153 2.0734-0.90153 1.0818 0 2.0734 0.6611 2.0734 2.0734 0 1.3523-0.81135 2.7045-1.9533 2.7045-0.75126 0-1.1419-0.6611-1.1419-1.4424 0-1.232 0.87145-1.9232 1.803-1.9232h0.09015c-0.2404-0.4207-0.69115-0.601-1.1419-0.601-0.72121 0-1.5025 0.4808-1.6528 1.2921l-1.6227 8.1135c-0.33055-0.21035-0.72121-0.33055-1.1419-0.33055-0.42071 0-0.87145 0.1202-1.2921 0.33055l1.6227-8.1135v-0.21035c0-0.4808-0.3606-0.78131-0.87145-0.78131-0.21035 0-0.4808 0.09015-0.72121 0.21035l-2.3739 1.3222-0.21035 0.93159c0.81135 0.93159 1.5025 2.0134 1.5025 3.2755zm-1.803 1.9533c0.69116 0 1.0517-1.0217 1.0517-1.833 0-0.90153-0.42071-1.6528-0.96156-2.3439l-0.15025 0.81135c-0.1202 0.5409-0.39065 1.6828-0.39065 2.4942 0 0.51085 0.1202 0.87145 0.45076 0.87145z" fill="#232629" stroke-width=".9"/>
</svg>
