<?xml version="1.0" encoding="UTF-8"?>
<svg id="svg6" width="22" height="22" version="1.2" xmlns="http://www.w3.org/2000/svg">
 <path id="path508-3" d="m12.682 5c-0.06562 0-0.11844 0.052821-0.11844 0.11844v8.8854c-0.24105-0.18388-0.5688-0.27287-0.90612-0.27287-0.48566 0-0.95976 0.17773-1.3862 0.42647-0.55671 0.33167-1.22 0.91206-1.22 1.7649 0 0.7344 0.62784 1.0777 1.2911 1.0777 0.48566 0 0.95976-0.17773 1.3862-0.42647 0.55671-0.33167 1.22-0.91206 1.22-1.7649 0-0.03218-0.0031-0.06265-0.0055-0.09333 0.0019-0.0084 0.0055-0.01651 0.0055-0.02554v-9.5712c0-0.065622-0.05282-0.11844-0.11844-0.11844z" fill="#232629" stroke-width=".6"/>
 <path id="rect1447" d="m8 19h6a2 2 135 0 0 2-2v-12a2 2 45 0 0-2-2h-6a2 2 135 0 0-2 2v12a2 2 45 0 0 2 2zm0-15h6a1 1 45 0 1 1 1v12a1 1 135 0 1-1 1h-6a1 1 45 0 1-1-1v-12a1 1 135 0 1 1-1z" fill="#f00" fill-opacity=".5" stroke-width="1.5811"/>
</svg>
