<?xml version="1.0" encoding="UTF-8"?>
<svg id="svg6" version="1.1" viewBox="0 0 16 16" xmlns="http://www.w3.org/2000/svg">
 <defs id="defs3051">
  <style id="current-color-scheme" type="text/css">.ColorScheme-Text {
        color:#232629;
      }</style>
 </defs>
 <path id="path4" class="ColorScheme-Text" d="m3 2v12h10v-9l-3-3h-7zm1 1h5v3h1.7051v3.6953c-0.18555-0.14154-0.43761-0.21094-0.69727-0.21094-0.37384 0-0.74012 0.13471-1.0684 0.32617-0.42853 0.2553-0.93945 0.7029-0.93945 1.3594 0 0.5653 0.48356 0.83008 0.99414 0.83008 0.37384 0 0.73817-0.13666 1.0664-0.32812 0.42853-0.2553 0.93945-0.7029 0.93945-1.3594 0-0.02477-0.002066-0.048636-0.003906-0.072266 0.001416-0.006478 0.003906-0.010621 0.003906-0.017578v-4.2227h1v7h-8v-10zm3.9102 1.502-0.11523 0.0019531c-0.050512 0-0.089844 0.039333-0.089844 0.089844v5.1016c-0.18555-0.14154-0.43957-0.21094-0.69922-0.21094-0.37384 0-0.73817 0.13471-1.0664 0.32617-0.42853 0.2553-0.93945 0.7029-0.93945 1.3594 0 0.5653 0.48356 0.83008 0.99414 0.83008 0.37384 0 0.73817-0.13666 1.0664-0.32812 0.42853-0.2553 0.93945-0.7029 0.93945-1.3594 0-0.02477-0.0020663-0.048636-0.0039062-0.072266 0.0014162-0.006478 0.0039062-0.010621 0.0039062-0.017578v-5.6289c0-0.050512-0.039331-0.091797-0.089844-0.091797z" fill="currentColor"/>
</svg>
