<?xml version="1.0" encoding="UTF-8" standalone="no"?>
<svg
   viewBox="0 0 16 16"
   version="1.1"
   id="svg6"
   sodipodi:docname="layout_score.svg"
   inkscape:version="1.2.2 (b0a8486541, 2022-12-01)"
   xmlns:inkscape="http://www.inkscape.org/namespaces/inkscape"
   xmlns:sodipodi="http://sodipodi.sourceforge.net/DTD/sodipodi-0.dtd"
   xmlns="http://www.w3.org/2000/svg"
   xmlns:svg="http://www.w3.org/2000/svg">
  <sodipodi:namedview
     id="namedview8"
     pagecolor="#ffffff"
     bordercolor="#666666"
     borderopacity="1.0"
     inkscape:showpageshadow="2"
     inkscape:pageopacity="0.0"
     inkscape:pagecheckerboard="0"
     inkscape:deskcolor="#d1d1d1"
     showgrid="true"
     inkscape:zoom="46.4375"
     inkscape:cx="7.9892328"
     inkscape:cy="7.9892328"
     inkscape:window-width="1920"
     inkscape:window-height="1021"
     inkscape:window-x="0"
     inkscape:window-y="0"
     inkscape:window-maximized="1"
     inkscape:current-layer="svg6">
    <inkscape:grid
       type="xygrid"
       id="grid284" />
  </sodipodi:namedview>
  <defs
     id="defs3051">
    <style
       type="text/css"
       id="current-color-scheme">
      .ColorScheme-Text {
        color:#232629;
      }
      </style>
  </defs>
  <path
     id="path4"
     style="fill:currentColor;fill-opacity:1;stroke:none"
     class="ColorScheme-Text"
     d="M 3 2 L 3 14 L 13 14 L 13 6 L 13 5 L 10 2 L 9 2 L 3 2 z M 4 3 L 9 3 L 9 6 L 9.2050781 6 L 9.2050781 9.6953125 C 9.0195295 9.5537734 8.7655109 9.484375 8.5058594 9.484375 C 8.1320237 9.484375 7.76769 9.619082 7.4394531 9.8105469 C 7.0109254 10.065848 6.5 10.513449 6.5 11.169922 C 6.5 11.735226 6.9835649 12 7.4941406 12 C 7.8679763 12 8.2323099 11.863341 8.5605469 11.671875 C 8.9890745 11.416574 9.5 10.968973 9.5 10.3125 C 9.5 10.28773 9.4979337 10.263864 9.4960938 10.240234 C 9.49751 10.233756 9.5 10.229613 9.5 10.222656 L 9.5 6 L 12 6 L 12 13 L 4 13 L 4 3 z " />
</svg>
