<?xml version="1.0" encoding="UTF-8"?>
<svg id="svg1" version="1.1" viewBox="0 0 22 22" xmlns="http://www.w3.org/2000/svg">
  <path id="path1350" d="m13.848 5-0.84766 0.84766 0.42383 0.42578 2.2266 2.2266-2.2266 2.2266-0.42383 0.42578 0.84766 0.84766 0.42578-0.42383 2.2266-2.2266 2.2266 2.2266 0.42578 0.42383 0.84766-0.84766-0.42383-0.42578-2.2266-2.2266 2.2266-2.2266 0.42383-0.42578-0.84766-0.84766-0.42578 0.42383-2.2266 2.2266-2.2266-2.2266zm8.72e-4 0.84853 5.3029 5.3029m-5.3029 0 5.3029-5.3029m-14.351 4.7516-2.1001-2.1001-0.70002 0.70002s1.2474 1.2482 2.7981 2.8191l0.00196-2e-3 -1.96e-5 -0.0171 6.3002-6.3002-0.70002-0.70002zm11.2 5.6619v1.3963q-0.81903 0.60842-1.5211 0.88143-0.69423 0.26521-1.4509 0.26521-0.85803 0-1.9969-0.46022-0.078-0.0312-0.1326-0.0546-0.0468-0.0156-0.16381-0.0624-1.209-0.47582-1.9423-0.47582-0.68643 0-1.3573 0.29641-0.67083 0.29641-1.4353 0.95163v-1.3963q0.81903-0.60842 1.5133-0.87363 0.70203-0.27301 1.4587-0.27301 0.85803 0 2.0047 0.46022 0.0858 0.039 0.1248 0.0546 0.0468 0.0156 0.16381 0.0624 1.209 0.47582 1.9423 0.47582 0.67082 0 1.326-0.28861 0.66302-0.29641 1.4665-0.95944zm0-3.0343v1.3885q-0.81903 0.61622-1.5211 0.88923-0.69423 0.26521-1.4509 0.26521-0.85803 0-1.9969-0.46022-0.078-0.0312-0.1326-0.0546-0.0468-0.0156-0.16381-0.0624-1.209-0.47582-1.9423-0.47582-0.68643 0-1.3573 0.29641t-1.4353 0.94384v-1.3885q0.81903-0.60842 1.5133-0.87363 0.70203-0.27301 1.4587-0.27301 0.85803 0 2.0047 0.46022 0.078 0.0312 0.117 0.0468 0.0546 0.0234 0.17161 0.0702 1.209 0.47582 1.9423 0.47582 0.67082 0 1.326-0.28861 0.66302-0.29641 1.4665-0.95944z" color="#232629" fill="currentColor" stroke-linecap="square" style="-inkscape-stroke:none"/>
</svg>
