<?xml version="1.0" encoding="UTF-8"?>
<svg id="svg4" width="22" height="22" version="1.2" xmlns="http://www.w3.org/2000/svg">
 <path id="path933" d="m19.347 1c-0.1251 0-0.22578 0.10068-0.22578 0.22578v8.6827c-0.45976-0.35176-1.0825-0.52461-1.7265-0.52461-0.92582 0-1.83 0.33925-2.643 0.81347-1.0614 0.6323-2.3258 1.7376-2.3258 3.3634 0 1.4001 1.1974 2.0553 2.462 2.0553 0.92582 0 1.8283-0.33925 2.6413-0.81347 1.0614-0.6323 2.3258-1.7376 2.3258-3.3634 0-0.06388-0.01505-0.11852-0.01992-0.1793 4e-3 -0.0169 0.01992-0.02832 0.01992-0.04649v-9.9876c0-0.1251-0.10067-0.22578-0.22578-0.22578h-0.28222zm-15.913 15.75-0.00166 0.0017c-0.041895-0.0067-0.065127 0.02926-0.10625 0.03487-0.016235 0.0031-0.033123 0.0066-0.033203 0.0066 0 8.5e-5 -0.00247 0.0014-0.00332 0.0017-0.10513 0.01693-0.2126 0.03918-0.26895 0.09629-0.022439 0.02251-0.044091 0.04794-0.064746 0.07969-0.00401 0.0054-0.00788 0.01098-0.011621 0.0166-0.019864 0.03413-0.038213 0.07391-0.051465 0.11455-0.053235 0.15944-0.052874 0.29098 0.013281 0.45322 0.00162 0.0034 0.00328 0.0067 0.00498 0.01 0.00903 0.02055 0.025484 0.05069 0.048145 0.08467 0.018487 0.02813 0.026034 0.02127 0.046485 0.04151 1.3991 2.2165 3.8415 3.3087 6.2754 3.3087 2.4256 0 4.8588-1.088 6.2604-3.2887 0.02524-0.02252 0.03302-0.0141 0.05811-0.05147 0.0046-0.0065 9e-3 -0.01316 0.01328-0.01992 0.01491-0.02514 0.01864-0.03143 5e-3 -0.0083 5.65e-4 -5.68e-4 0.0011-0.0011 0.0017-0.0017 0.01949-0.03359 0.03647-0.07529 0.0498-0.11621 0.05274-0.15867 0.05268-0.28825-0.01328-0.4499-0.0016-0.0045-0.0033-0.0089-5e-3 -0.01328-0.0077-0.0174-0.0239-0.04507-0.0415-0.07305-0.0061-0.0098-0.02764-0.01646-0.03486-0.02656-0.0572-0.09753-0.15107-0.1681-0.26065-0.19596-0.0013-2.55e-4 -2e-3 2e-3 -0.0033 0.0017h-0.0017c-0.03521-0.0082-0.06146 0.02372-0.09795 0.02491-0.0063-0.0013-0.01822-0.0033-0.01826-0.0033-1.27e-4 -8e-6 -0.08636 0.01099-0.13614 0.0166 0.04282-0.0045 0.13794-0.01493 0.13779-0.01494-3.4e-5 0 0.01018 0.0024 0.01494 0.0033-0.09915 0.0037-0.19122 0.02161-0.26397 0.06972 0.03795-0.02626 0.07975-0.0548 0.07969-0.05478-0.0011 1.7e-4 -0.01 0.0017-0.01 0.0017-5.1e-5 2.5e-5 -0.04053 0.02885-0.07305 0.05313-0.01036 0.0069-0.02899 0.0025-0.03818 0.01v0.0017c-0.0067 0.0054-0.02218 1e-3 -0.02822 0.0066-0.02385 0.02238-0.04502 0.04745-0.06309 0.07471l-0.0017 0.0017c-0.01964 0.01914-0.02368 0.01072-0.04482 0.04151-1.1643 1.6651-3.3107 2.5599-5.4851 2.5599-2.1672 0-4.3082-0.88884-5.4752-2.5434-0.01779-0.02872-0.022659-0.01965-0.041504-0.03984-0.00109-0.0017-0.0022-0.0033-0.00332-5e-3 -0.00775-0.01147-0.016063-0.02255-0.024902-0.0332-2.55e-5 -3.4e-5 -0.028091-0.01764-0.041504-0.02656-0.0019-0.0013-0.00441-0.0032-0.00664-5e-3 -0.00728-0.0048-0.012748-0.0085-0.019922-0.01329-0.011563-8e-3 -0.022114-0.01576-0.034863-0.02324-0.021434-0.0142-0.045709-0.03001-0.063086-0.04151 0.00866 0.0065 0.026347 0.02017 0.041504 0.03154-0.035633-0.01939-0.071141-0.03944-0.11123-0.05478 0.015572 0.0018 0.040059 0.0048 0.041504 5e-3 -3.4e-4 -2.55e-4 -0.00498-0.0033-0.00498-0.0033-4.25e-5 -1.7e-4 -0.025479-0.0036-0.039844-5e-3 -0.027582-0.01019-0.031288-0.03641-0.063086-0.04151zm11.48 0.12451c-0.04771 0.03561-0.08492 0.06283-0.09629 0.07138v-0.0017c0.0082-0.0098 9e-3 -0.0075 0.0166-0.01494 0.0087-0.0059 0.04029-0.02753 0.07969-0.05478zm-11.862 0.54785c0.01547 0.02521 0.021677 0.01454 0.038184 0.0332-0.00419-0.0051-0.019842-0.0085-0.023242-0.01328zm0.023242 0.02989c0.00252 0.0019 0.016272 0.01307 0.023242 0.01826 7.65e-4 1e-3 9.775e-4 0.0023 0.00166 0.0033 0.00633 0.0091 0.016867 0.01422 0.023242 0.02324-0.01014-0.0067-0.033224-0.02326-0.033203-0.02324l-0.014941-0.02158zm12.384 0.02822-0.0066 0.0066c-0.0013 0.0013-0.0053 4.7e-4 -0.0066 0.0017 0.0039-0.0027 0.01047-0.0064 0.01329-0.0083zm0.10957 0.1959-0.01328 0.01826c-0.0041 0.0057-0.0042 0.0014-0.0083 0.0066 6e-3 -0.0095 0.01555-0.01534 0.02158-0.02491z" fill="#232629" stroke-width=".85" style="font-feature-settings:normal;font-variant-alternates:normal;font-variant-caps:normal;font-variant-ligatures:normal;font-variant-numeric:normal;font-variant-position:normal;isolation:auto;mix-blend-mode:normal;shape-padding:0;text-decoration-color:#000000;text-decoration-line:none;text-decoration-style:solid;text-indent:0;text-orientation:mixed;text-transform:none;white-space:normal"/>
</svg>
