<?xml version="1.0" encoding="UTF-8"?>
<svg id="svg1262" width="22" height="22" version="1.2" xmlns="http://www.w3.org/2000/svg">
 <path id="path1256" d="m13.031 1c-0.031347 2.722e-4 -0.064762 0.0056686-0.099609 0.015625-0.458 0.13939-0.93616 0.25781-1.4141 0.25781s-0.95607-0.11842-1.4141-0.25781c-0.17922-0.059738-0.31836 0.11923-0.31836 0.31836 0 2.4493-1.155 4.7184-2.748 6.5703-0.019913 0.019913-0.039062 0.059403-0.039062 0.11914 0 0.17922 0.15919 0.45898 0.61719 0.45898h3.3242v0.1582c0 0.95581-0.55705 1.873-1.4531 1.873-0.1593 0-0.23828 0.099274-0.23828 0.21875 0 0.11948 0.078979 0.23828 0.23828 0.23828 0.87616 0 1.7332-0.25781 2.6094-0.25781s1.7313 0.25781 2.6074 0.25781c0.1593 0 0.24023-0.1188 0.24023-0.23828 0-0.11948-0.080932-0.21875-0.24023-0.21875-0.89608 0-1.4336-0.91723-1.4336-1.873v-0.1582h1.4336c0.19913 0 0.29883-0.15944 0.29883-0.29883 0-0.13939-0.0997-0.2793-0.29883-0.2793h-1.4336v-4.8789c0-0.17922-0.13834-0.27734-0.25781-0.27734-0.079655 0-0.13986 0.03949-0.17969 0.11914-0.1593 0.33852-0.31807 0.69545-0.53711 0.99414-0.3186 0.41817-0.75723 0.71731-1.1953 0.99609-0.13939 0.099564-0.16016 0.28015-0.16016 0.43945v2.6074h-3.3242l5.6543-6.5703c0.10454-0.12197-0.018851-0.33589-0.23828-0.33398zm0 10.029c-0.031347 2.72e-4 -0.064762 0.003715-0.099609 0.013672-0.458 0.13939-0.93616 0.25976-1.4141 0.25976s-0.95607-0.12038-1.4141-0.25976c-0.17922-0.059738-0.31836 0.11923-0.31836 0.31836 0 2.4493-1.155 4.7204-2.748 6.5723-0.019913 0.019917-0.039062 0.0594-0.039062 0.11914 0 0.17922 0.15919 0.45703 0.61719 0.45703h3.3242v0.16016c0 0.95582-0.55705 1.8711-1.4531 1.8711-0.1593 0-0.23828 0.099274-0.23828 0.21875 0 0.11948 0.078979 0.24023 0.23828 0.24023 0.87616 0 1.7332-0.25977 2.6094-0.25977s1.7313 0.25977 2.6074 0.25977c0.1593 0 0.24023-0.12076 0.24023-0.24023 0-0.11948-0.080932-0.21875-0.24023-0.21875-0.89608 0-1.4336-0.91528-1.4336-1.8711v-0.16016h1.4336c0.19913 0 0.29883-0.15944 0.29883-0.29883 0-0.13939-0.0997-0.27734-0.29883-0.27734h-1.4336v-4.8789c0-0.17922-0.13834-0.2793-0.25781-0.2793-0.079655 0-0.13986 0.03949-0.17969 0.11914-0.1593 0.33852-0.31807 0.6974-0.53711 0.99609-0.3186 0.41817-0.75723 0.71732-1.1953 0.99609-0.13939 0.099564-0.16016 0.2782-0.16016 0.4375v2.6094h-3.3242l5.6543-6.5723c0.10454-0.12197-0.018851-0.33394-0.23828-0.33203z" stroke-width="4.9782" fill="#232629"/>
</svg>
