<?xml version="1.0" encoding="UTF-8" standalone="no"?>
<svg
   viewBox="0 0 16 16"
   version="1.1"
   id="svg238"
   sodipodi:docname="transport_metronome.svg"
   inkscape:version="1.2.2 (b0a8486541, 2022-12-01)"
   xmlns:inkscape="http://www.inkscape.org/namespaces/inkscape"
   xmlns:sodipodi="http://sodipodi.sourceforge.net/DTD/sodipodi-0.dtd"
   xmlns="http://www.w3.org/2000/svg"
   xmlns:svg="http://www.w3.org/2000/svg">
  <sodipodi:namedview
     id="namedview240"
     pagecolor="#ffffff"
     bordercolor="#666666"
     borderopacity="1.0"
     inkscape:showpageshadow="2"
     inkscape:pageopacity="0.0"
     inkscape:pagecheckerboard="0"
     inkscape:deskcolor="#d1d1d1"
     showgrid="true"
     inkscape:zoom="52.25"
     inkscape:cx="8"
     inkscape:cy="8"
     inkscape:window-width="1920"
     inkscape:window-height="1021"
     inkscape:window-x="0"
     inkscape:window-y="0"
     inkscape:window-maximized="1"
     inkscape:current-layer="svg238">
    <inkscape:grid
       type="xygrid"
       id="grid411" />
  </sodipodi:namedview>
  <defs
     id="defs3051">
    <style
       type="text/css"
       id="current-color-scheme">
      .ColorScheme-Text {
        color:#232629;
      }
      </style>
  </defs>
  <path
     id="path576"
     style="color:#232629;fill:currentColor;fill-opacity:1;stroke:none;stroke-width:0.577349"
     d="M 2.9394531 1.9960938 A 1.0040525 1 62.96431 0 0 2.5136719 2.1171875 A 1.0040525 1 62.96431 0 0 2.0878906 3.4082031 A 1.0040525 1 62.96431 0 0 3.0527344 3.9980469 L 4.8671875 6.5292969 L 3 14 L 13 14 L 10 2 L 6 2 L 5.1855469 5.2558594 L 3.8925781 3.4511719 A 1.0040525 1 62.96431 0 0 3.8320312 2.4433594 A 1.0040525 1 62.96431 0 0 2.9394531 1.9960938 z M 6.78125 3 L 9.21875 3 L 11.720703 13 L 4.2792969 13 L 5.6308594 7.59375 L 7.078125 9.6113281 A 1.0040525 1 62.96431 0 0 7.0898438 10.408203 A 1.0040525 1 62.96431 0 0 8.3398438 10.941406 L 8.6191406 10.787109 A 1.0040525 1 62.96431 0 0 8.8339844 9.4433594 A 1.0040525 1 62.96431 0 0 7.8730469 9.0039062 L 5.9492188 6.3222656 L 6.78125 3 z " />
</svg>
