<?xml version="1.0" encoding="UTF-8"?>
<svg id="svg135" version="1.1" viewBox="0 0 22 22" xmlns="http://www.w3.org/2000/svg">
 <path id="rect1" d="m0 6v11h22v-11h-22zm3.0488 1.6699c0.69572 0 1.2511 0.17629 1.666 0.52734 0.41807 0.34786 0.62695 0.80908 0.62695 1.3867 0 0.39254-0.10987 0.72073-0.33008 0.98242-0.21701 0.26169-0.53506 0.44618-0.95312 0.55469 0.46913 0.12446 0.8292 0.34688 1.0781 0.66602 0.24893 0.31595 0.37305 0.71199 0.37305 1.1875 0 0.65742-0.22241 1.1742-0.66602 1.5508-0.44041 0.37339-1.0521 0.56055-1.834 0.56055-0.32871 0-0.66243-0.031161-1.0039-0.091797s-0.67715-0.14878-1.0059-0.26367v-0.96289c0.32552 0.16914 0.64694 0.29593 0.96289 0.37891 0.31595 0.082976 0.62865 0.125 0.94141 0.125 0.52977 0 0.93667-0.12002 1.2207-0.35938s0.42773-0.58322 0.42773-1.0332c0-0.41488-0.1437-0.74378-0.42773-0.98633-0.28403-0.24574-0.66726-0.36914-1.1523-0.36914h-0.73828v-0.79492h0.73828c0.4436 0 0.79014-0.096342 1.0391-0.29102 0.24893-0.19467 0.37305-0.46659 0.37305-0.81445 0-0.36701-0.11664-0.64712-0.34961-0.8418-0.22978-0.19787-0.55868-0.29688-0.98633-0.29688-0.28403 0-0.57768 0.031876-0.88086 0.095703-0.30318 0.063828-0.62122 0.15945-0.95312 0.28711v-0.89062c0.38616-0.10212 0.72931-0.17941 1.0293-0.23047 0.30318-0.051062 0.57172-0.076172 0.80469-0.076172zm9.9648 0.18359h0.9668v6.332h1.4844v0.81445h-3.9453v-0.81445h1.5039v-5.4609l-1.6191 0.36328v-0.88086l1.6094-0.35352zm5.9141 0h1.1191v4.6563h0.95312v0.78516h-0.95312v1.7051h-0.96094v-1.7051h-3.0312v-0.91406l2.873-4.5273zm0.1582 0.88086-2.2559 3.7754h2.2559v-3.7754zm-11.191 1.1777h1.207v1.4492h-1.207v-1.4492zm0 3.627h1.207v1.4609h-1.207v-1.4609z" fill="#232629"/>
</svg>
