<?xml version="1.0" encoding="UTF-8"?>
<svg id="svg4" width="22" height="22" version="1.2" xmlns="http://www.w3.org/2000/svg">
 <path id="path2-6" d="m11 1c3.68e-4 1.0252 3.68e-4 1.0252 2e-5 1.9389-3.1121 0-5.0471 1.2001-7.8496 3.8013 0.01407-0.026852-0.01361 0.02456-0.14061 0.12109-0.0371 0.034241-0.09282 0.077894-0.13085 0.10157-0.06604 0.031261-0.119 0.059819-0.18357 0.072269-0.10742 0.020711-0.22174 0.027143-0.32819 0.00193-0.11448-0.027113-0.2219-0.087599-0.3145-0.16015-0.03996-0.031308-0.07004-0.069826-0.09958-0.11523-0.0462-0.054111-0.08292-0.12852-0.1093-0.18357-0.07614-0.22806-0.05759-0.42031 0.03704-0.65237 0.02323-0.048793 0.05439-0.096251 0.07616-0.13476 2.4068-2.8476 5.9479-4.7379 9.043-4.791zm0 0c-3.68e-4 1.0252-3.68e-4 1.0252-2e-5 1.9389 3.1121 0 5.0471 1.2001 7.8496 3.8013-0.01407-0.026852 0.01361 0.02456 0.14061 0.12109 0.0371 0.034241 0.09282 0.077894 0.13085 0.10157 0.06604 0.031261 0.119 0.059819 0.18357 0.072269 0.10742 0.020711 0.22174 0.027143 0.32819 0.00193 0.11448-0.027113 0.2219-0.087599 0.3145-0.16015 0.03996-0.031308 0.07004-0.069826 0.09958-0.11523 0.0462-0.054111 0.08292-0.12852 0.1093-0.18357 0.07614-0.22806 0.05759-0.42031-0.03704-0.65237-0.02323-0.048793-0.05439-0.096251-0.07616-0.13476-2.4068-2.8476-5.9479-4.7379-9.043-4.791zm-2.6206 4.1308c-0.10053 0-0.18164 0.081115-0.18164 0.18164v11.123c-0.36928-0.28169-0.87191-0.41797-1.3887-0.41797-0.74402 0-1.4698 0.27129-2.123 0.65234-0.85287 0.50811-1.8691 1.3985-1.8691 2.7051 0 1.1251 0.96236 1.6504 1.9785 1.6504 0.74402 0 1.4698-0.27129 2.123-0.65234 0.85287-0.50811 1.8691-1.3985 1.8691-2.7051 0-0.04931-0.00414-0.09556-0.00781-0.14258 0.00285-0.01293 0.00781-0.02523 0.00781-0.03906v-12.174c0-0.10053-0.081109-0.18164-0.18164-0.18164h-0.22656zm6.9784 0c-0.10053 0-0.18164 0.081114-0.18164 0.18164v11.123c-0.36928-0.28169-0.8719-0.41797-1.3887-0.41797-0.74402 0-1.4698 0.27129-2.123 0.65234-0.85288 0.50811-1.8691 1.3985-1.8691 2.7051 0 1.1251 0.96236 1.6504 1.9785 1.6504 0.74402 0 1.4698-0.27129 2.123-0.65234 0.85288-0.50811 1.8691-1.3985 1.8691-2.7051 0-0.04953-0.0042-0.09536-0.0078-0.14258 0.0028-0.01272 0.0078-0.02546 0.0078-0.03906v-7.637c1.3065 1.3609 3.0312 1.4095 3.0312 3.2969 0 1.1977-0.2899 2.3776-0.76172 3.4844-0.05443 0.29034 0.18011 0.48828 0.41602 0.48828 0.12702 0 0.25497-0.07163 0.3457-0.2168 0.4718-1.1977 0.76172-2.4675 0.76172-3.7559 0-3.593-3.793-4.2414-3.793-7.834 0-0.10053-0.08111-0.18164-0.18164-0.18164h-0.22656z" fill="#232629"/>
</svg>
