<?xml version="1.0" encoding="UTF-8"?>
<svg height="16px" viewBox="0 0 16 16" width="16px" xmlns="http://www.w3.org/2000/svg">
    <path d="m 4.96875 0.00390625 c -1.332031 0 -2.273438 0.81640575 -2.644531 1.55468775 c -0.371094 0.738281 -0.355469 1.445312 -0.355469 1.445312 l 0.03125 12.472656 l 5.996094 -2.402343 l 6.003906 2.402343 l -0.03125 -12.476562 c 0 -0.003906 0.011719 -0.707031 -0.355469 -1.441406 c -0.371093 -0.738282 -1.3125 -1.55468775 -2.644531 -1.55468775 z m 0 1.99999975 h 6 c 0.695312 0.011719 1.003906 0.367188 1 1 l 0.023438 9.519532 l -3.996094 -1.601563 l -4.003906 1.601563 l -0.023438 -9.523438 c -0.007812 -0.648438 0.398438 -0.996094 1 -0.996094 z m 0 0" fill="#2e3436"/>
</svg>
