<?xml version="1.0" encoding="UTF-8"?>
<svg height="16px" viewBox="0 0 16 16" width="16px" xmlns="http://www.w3.org/2000/svg">
    <path d="m 8.488281 0.0195312 c -4.128906 0 -7.488281 3.3554688 -7.488281 7.4882808 c 0 4.128907 3.359375 7.484376 7.488281 7.484376 c 4.128907 0 7.488281 -3.355469 7.488281 -7.484376 c 0 -4.132812 -3.359374 -7.4882808 -7.488281 -7.4882808 z m 0 1.9726568 c 3.050781 0 5.511719 2.464843 5.511719 5.515624 c 0 3.046876 -2.460938 5.511719 -5.511719 5.511719 s -5.511719 -2.464843 -5.511719 -5.511719 c 0 -3.050781 2.460938 -5.515624 5.511719 -5.515624 z m 3.007813 2.007812 c -0.03125 0 -0.066406 0 -0.101563 0.007812 c -0.097656 0.023438 -0.183593 0.078126 -0.25 0.15625 l -2.65625 2.65625 l -1.65625 -1.65625 c -0.109375 -0.179687 -0.3125 -0.269531 -0.515625 -0.234374 c -0.207031 0.039062 -0.363281 0.199218 -0.402344 0.402343 c -0.039062 0.203125 0.054688 0.410157 0.230469 0.519531 l 2 2 c 0.191407 0.179688 0.496094 0.179688 0.6875 0 l 3 -3 c 0.136719 -0.140624 0.179688 -0.351562 0.109375 -0.535156 c -0.074218 -0.183594 -0.246094 -0.308594 -0.445312 -0.316406 z m 0 0" fill="#2e3436"/>
</svg>
