<?xml version="1.0" encoding="UTF-8"?>
<svg height="16px" viewBox="0 0 16 16" width="16px" xmlns="http://www.w3.org/2000/svg">
    <path d="m 8 0.363281 c -0.5 0 -1 0.167969 -1.40625 0.507813 l -4.464844 3.722656 c -0.714844 0.59375 -1.128906 1.476562 -1.128906 2.40625 v 6 c 0 1.65625 1.34375 3 3 3 h 8 c 1.65625 0 3 -1.34375 3 -3 v -6 c 0 -0.929688 -0.414062 -1.8125 -1.128906 -2.40625 l -4.464844 -3.722656 c -0.40625 -0.339844 -0.90625 -0.507813 -1.40625 -0.507813 z m -0.015625 1.996094 c 0.050781 -0.003906 0.101563 0.011719 0.144531 0.046875 l 4.464844 3.722656 c 0.257812 0.214844 0.40625 0.535156 0.40625 0.871094 v 6 c 0 0.5625 -0.4375 1 -1 1 h -2 v -5 c 0 -0.554688 -0.445312 -1 -1 -1 h -2 c -0.554688 0 -1 0.445312 -1 1 v 5 h -2 c -0.5625 0 -1 -0.4375 -1 -1 v -6 c 0 -0.335938 0.148438 -0.65625 0.40625 -0.871094 l 4.464844 -3.722656 c 0.035156 -0.027344 0.074218 -0.042969 0.113281 -0.046875 z m 0 0" fill="#2e3436"/>
</svg>
