<?xml version="1.0" encoding="UTF-8"?>
<svg id="svg4" width="22" height="22" version="1.2" xmlns="http://www.w3.org/2000/svg">
 <path id="path2" d="m12.368 0.99996c-0.10937 0-0.19741 0.088036-0.19741 0.1974v14.809c-0.40175-0.30646-0.948-0.45479-1.5102-0.45479-0.80943 0-1.5989 0.29622-2.3096 0.71078-0.92786 0.55278-2.0334 1.5201-2.0334 2.9415 0 1.224 1.0464 1.7962 2.1519 1.7962 0.80943 0 1.5989-0.29622 2.3096-0.71078 0.92786-0.55278 2.0334-1.5201 2.0334-2.9415 0-0.05389-0.0044-0.10488-0.0084-0.15625 3e-3 -0.01384 0.0084-0.02706 0.0084-0.04186v-7.5621c1.4214 1.303 3.2973 3.159 3.2973 5.0739 0 1.145-0.31609 2.2902-0.82939 3.3168-0.05922 0.31587 0.19746 0.53293 0.45411 0.53293 0.13819 0 0.27657-0.07923 0.37528-0.23716 0.51328-1.145 0.82868-2.3689 0.82868-3.6125 0-0.82914-0.21733-1.5791-0.57268-2.3096 0.27638-0.59225 0.45411-1.2242 0.45411-1.8757 0-3.5141-4.0075-5.7646-4.0075-9.2785 0-0.10937-0.08804-0.1974-0.1974-0.1974zm0.44432 4.4021c1.3622 1.3227 3.1585 3.1787 3.1585 5.0739 0 0.31587-0.03941 0.6316-0.13811 0.92775-1.224-1.9347-3.0204-3.6721-3.0204-6.0018z" fill="#232629"/>
</svg>
