<?xml version="1.0" encoding="UTF-8"?>
<svg id="svg510" width="22" height="22" version="1.2" xmlns="http://www.w3.org/2000/svg">
 <path id="path133" d="m13.529 18.5c0-0.83033 0.66967-1.5 1.5-1.5s1.5 0.66967 1.5 1.5-0.66967 1.5-1.5 1.5-1.5-0.66967-1.5-1.5zm-2.148-17.5c-0.10937 0-0.1974 0.088036-0.1974 0.1974v14.809c-0.40175-0.30646-0.948-0.45479-1.5102-0.45479-0.80943 0-1.5996 0.29622-2.3103 0.71078-0.92785 0.55278-2.0334 1.5201-2.0334 2.9415 0 1.224 1.0464 1.7962 2.1519 1.7962 0.80943 0 1.5996-0.29622 2.3103-0.71078 0.92785-0.55278 2.0334-1.5201 2.0334-2.9415 0-0.05364-0.0051-0.1044-0.0091-0.15555 0.0031-0.01407 0.0091-0.02751 0.0091-0.04256v-15.952c0-0.10937-0.08803-0.1974-0.1974-0.1974z" fill="#232629"/>
</svg>
