<?xml version="1.0" encoding="UTF-8"?>
<svg id="svg4" width="22" height="22" version="1.2" xmlns="http://www.w3.org/2000/svg">
 <path id="path3006" d="m10.69 5.8648c-0.1984 1e-7 -0.37776 0.17791-0.37776 0.3763v3.1344l-1.6467 0.61551v-2.8763c0-0.1984-0.17791-0.37776-0.3763-0.37776s-0.35734 0.17937-0.35734 0.37776v3.1344l-0.91303 0.33693c-0.15872 0.05952-0.2567 0.19863-0.2567 0.35735v1.1901c0 0.21824 0.17849 0.39672 0.39672 0.39672 0.039675-1e-6 0.098883-5.78e-4 0.13856-0.02041l0.63447-0.21732v3.1738l-0.91303 0.31796c-0.15872 0.05951-0.2567 0.21759-0.2567 0.3763v1.1901c0 0.21823 0.17849 0.39818 0.39672 0.39818 0.039675 0 0.098883-5.78e-4 0.13856-0.02041l0.63447-0.23775v2.8763c0 0.1984 0.15895 0.3763 0.35734 0.3763s0.3763-0.1779 0.3763-0.3763v-3.1344l1.6467-0.61551v2.8777c0 0.1984 0.17937 0.3763 0.37776 0.3763s0.35734-0.17791 0.35734-0.3763v-3.1359l0.91162-0.33693c0.15872-0.05952 0.25816-0.19863 0.25816-0.35735v-1.1901c0-0.21824-0.17848-0.39672-0.39672-0.39672-0.03968 0-0.09888 5.78e-4 -0.13856 0.02041l-0.63447 0.21732v-3.1738l0.91161-0.31796c0.15872-0.05952 0.25816-0.21759 0.25816-0.3763v-1.1901c0-0.21824-0.17849-0.39672-0.39672-0.39672-0.03967 0-0.09888-8.779e-4 -0.13856 0.018962l-0.63447 0.23774v-2.8763c0-0.1984-0.15895-0.3763-0.35734-0.3763zm-9.0864 0.13272c-0.17856 0-0.37657 0.059784-0.53529 0.15898l0.23775 11.804c0 0.27776 0.19861 0.49591 0.45652 0.49591 0.41663 0 0.59503-0.49615 0.89264-0.75405 1.2102-1.0317 2.9171-1.766 2.9171-3.3532 0-1.0713-0.73464-2.023-1.7663-2.023-0.6547 0-1.3097 0.25721-1.8057 0.67385l0.13856-6.8435c-0.15872-0.099196-0.35673-0.15898-0.53529-0.15898zm8.7092 5.4214v3.1753l-1.6467 0.59509v-3.1753zm-7.1221 1.7401c0.57535 0 0.85322 0.67549 0.85322 1.3302 0 1.1705-0.95231 2.0027-1.845 2.7566-0.059518-0.43647-0.07876-0.87181-0.07876-1.3083v-0.21878l0.018962-1.3098c0.019839-0.65471 0.43658-1.25 1.0516-1.25zm16.157-12.159c-0.1251 0-0.22578 0.10068-0.22578 0.22578v8.6827c-0.45976-0.35176-1.0825-0.52461-1.7265-0.52461-0.92582 0-1.83 0.33925-2.643 0.81347-1.0614 0.6323-2.3258 1.7376-2.3258 3.3634 0 1.4001 1.1974 2.0553 2.462 2.0553 0.92582 0 1.8283-0.33925 2.6413-0.81347 1.0614-0.6323 2.3258-1.7376 2.3258-3.3634 0-0.06388-0.01505-0.11852-0.01992-0.1793 4e-3 -0.0169 0.01992-0.02832 0.01992-0.04649v-9.9876c0-0.1251-0.10067-0.22578-0.22578-0.22578h-0.28222z" fill="#232629"/>
</svg>
