<?xml version="1.0" encoding="UTF-8"?>
<svg id="svg883" width="22" height="22" version="1.2" xmlns="http://www.w3.org/2000/svg">
 <path id="path881" d="m13.352 5c-0.44962 0-0.84703 0.069112-1.1934 0.20898-0.34025 0.13351-0.63023 0.29559-0.86719 0.48633l0.47461 0.69727c0.21266-0.15259 0.44056-0.28254 0.68359-0.39062 0.24911-0.10808 0.54083-0.16211 0.875-0.16211 0.35848-1e-7 0.63196 0.08615 0.82031 0.25781 0.19443 0.1653 0.29102 0.3999 0.29102 0.70508 0 0.34968-0.12394 0.63149-0.37305 0.84766-0.24911 0.21617-0.65022 0.32422-1.2031 0.32422h-0.60156v0.83008h0.5918c0.58329 0 1.0209 0.089558 1.3125 0.26758 0.29164 0.17802 0.4375 0.45837 0.4375 0.83984 0 0.39419-0.12024 0.7013-0.36328 0.92383-0.24304 0.21617-0.64241 0.32422-1.1953 0.32422-0.28557 0-0.5864-0.036987-0.90234-0.11328-0.30987-0.076294-0.60158-0.18775-0.875-0.33398v0.91602c0.26734 0.13352 0.54994 0.22794 0.84766 0.28516 0.29772 0.057221 0.62047 0.085938 0.9668 0.085938 0.58329 0 1.061-0.086151 1.4316-0.25781 0.3767-0.17802 0.65192-0.41943 0.82812-0.72461 0.18228-0.31154 0.27344-0.66441 0.27344-1.0586 0-0.45141-0.13132-0.8145-0.39258-1.0879-0.26126-0.27975-0.64956-0.45009-1.166-0.51367v-0.039062c0.40101-0.08901 0.72745-0.26958 0.97656-0.54297 0.25519-0.27339 0.38086-0.6433 0.38086-1.1074 0-0.49591-0.17494-0.896-0.52734-1.2012-0.34632-0.31153-0.85682-0.4668-1.5312-0.4668zm-5.1035 0.095703-1.8594 1.5254 0.49219 0.64844 0.71094-0.60156c0.10937-0.095368 0.20595-0.17957 0.29102-0.25586 0.085062-0.082652 0.16711-0.16539 0.24609-0.24805-0.012152 0.18438-0.021268 0.37517-0.027344 0.57227s-0.0097656 0.4132-0.0097656 0.64844v4.5195h0.95703v-6.8086h-0.80078zm-6.8438 2.9629c-0.00217 6.752e-4 -0.0056925 0.0011831-0.0078125 0.0019531-0.076429 0.00791-0.14684 0.036771-0.20703 0.078125-0.00533 0.00384-0.010959 0.0090319-0.015625 0.013672-0.00691 0.0064799-0.014624 0.010242-0.021484 0.017578-0.00219 0.0022-0.0041194 0.0059425-0.0058594 0.0078125-0.00581 0.0056-0.011799 0.011395-0.017578 0.017578-0.0080499 0.0079-0.01649 0.016476-0.023437 0.023438-0.00217 0.0022-0.0042794 0.0042094-0.0058594 0.0058594-0.020532 0.020337-0.030138 0.044014-0.046875 0.068359-0.00537 0.011552-0.0099708 0.024492-0.011719 0.037109v-0.0058593c-4.368e-4 0.0012099-0.0011431 0.0058325-0.0019531 0.0078124-0.015296 0.01713-0.016114 0.041901-0.023438 0.060547-0.00277 0.00692-0.0043494 0.01416-0.0058594 0.021484-7.058e-4 0.0022-0.0031862 0.0013863-0.0039062 0.0039063-0.00371 0.011091-0.0052894 0.021519-0.0058594 0.033203-3.74e-5 0.00307-3.74e-5 0.0086367 0 0.011719-1.923e-4 0.00879-3.211e-4 0.016607 0 0.025391-1.371e-4 0.00802-2.943e-4 0.015378 0 0.023438l0.0019531-0.011719c-0.00109 0.018021-0.00109 0.036666 0 0.054688l-0.0019531-0.0078125v2.7617l0.0019531-0.007813c-0.009246 0.14582 0.042904 0.27356 0.13086 0.35547 0.087954 0.0819 0.20402 0.12109 0.31641 0.12109 0.11238 0 0.22649-0.039184 0.31445-0.12109 0.087955-0.08191 0.14011-0.20965 0.13086-0.35547l0.0019532 0.007813v-2.3535h3.1035l-0.0078125-0.0019531c0.14583 0.00922 0.27355-0.0429 0.35547-0.13086 0.081913-0.087958 0.11914-0.20206 0.11914-0.31445s-0.037224-0.22845-0.11914-0.31641c-0.081935-0.087955-0.20964-0.13817-0.35547-0.12891l0.0078125-0.0039062h-3.5957zm15.588 0 0.007812 0.0039062c-0.14583-0.00926-0.27357 0.040948-0.35547 0.12891-0.08192 0.08796-0.12109 0.20402-0.12109 0.31641s0.039183 0.22649 0.12109 0.31445c0.08191 0.08796 0.20965 0.14008 0.35547 0.13086l-0.007812 0.0019531h3.1113v2.3535l0.001953-0.007813c-0.00924 0.14582 0.042909 0.27356 0.13086 0.35547 0.08796 0.08191 0.20402 0.12109 0.31641 0.12109s0.2265-0.039194 0.31445-0.12109c0.087959-0.08191 0.14016-0.20965 0.13086-0.35547l0.001953 0.007813v-2.7617l-0.001953 0.0078125c0.0011-0.018021 0.0011-0.036666 0-0.054688l0.001953 0.011719c2.95e-4 -0.00806 1.37e-4 -0.015418 0-0.023438 3.21e-4 -0.0087839 1.93e-4 -0.016601 0-0.025391 3.8e-5 -0.003082 3.8e-5 -0.0086487 0-0.011719-6e-4 -0.011684-0.002259-0.022112-0.005859-0.033203-6e-4 -0.00252-0.001249-0.0017063-0.001953-0.0039063-0.0016-0.007324-0.005113-0.014564-0.007813-0.021484-0.00733-0.018646-0.008148-0.043417-0.023437-0.060547-7e-4 -0.0019799-0.001517-0.0066025-0.001954-0.0078124v0.0058593c-0.00166-0.012617-0.004365-0.025557-0.009765-0.037109-0.01674-0.024345-0.028288-0.048022-0.048828-0.068359-0.0016-0.00165-0.00366-0.0036594-0.00586-0.0058594-0.00695-0.006962-0.015437-0.015538-0.023437-0.023438-0.00577-0.006183-0.011778-0.011978-0.017578-0.017578-0.0019-0.00187-0.00366-0.0056125-0.00586-0.0078125-0.00685-0.007336-0.014584-0.011098-0.021484-0.017578-0.00469-0.00464-0.010225-0.0098319-0.015625-0.013672-0.06019-0.041354-0.1306-0.070215-0.20703-0.078125-0.001683-5.888e-4 -0.004205-0.0014109-0.00586-0.0019531h-0.001953-3.6035z" fill="#232629"/>
</svg>
