<?xml version="1.0" encoding="UTF-8"?>
<svg id="svg883" width="22" height="22" version="1.2" xmlns="http://www.w3.org/2000/svg">
 <path id="path881" d="m11.875 5.0098c-0.5043 0-0.93644 0.075927-1.2949 0.22852-0.3524 0.14623-0.64412 0.35066-0.875 0.61133-0.23088 0.26067-0.41321 0.56097-0.54688 0.9043-0.12759 0.33697-0.21875 0.70006-0.27344 1.0879-0.048607 0.38147-0.072266 0.76988-0.072266 1.1641 0 0.68029 0.10028 1.2425 0.30078 1.6875 0.2005 0.43869 0.4703 0.76626 0.81055 0.98242 0.34633 0.21617 0.7292 0.32422 1.1484 0.32422 0.65012 0 1.1643-0.20443 1.541-0.61133 0.38278-0.41326 0.57422-0.97883 0.57422-1.6973 0-0.66757-0.1732-1.1825-0.51953-1.5449-0.34025-0.36876-0.79236-0.55273-1.3574-0.55273-0.38278 0-0.69642 0.075927-0.93945 0.22852-0.24304 0.15259-0.43078 0.34338-0.56445 0.57227h-0.054688c0.018228-0.35604 0.063808-0.68847 0.13672-1 0.072911-0.31153 0.18773-0.58507 0.3457-0.82031 0.15797-0.23524 0.37307-0.42117 0.64648-0.55469 0.27342-0.13351 0.61983-0.19922 1.0391-0.19922 0.29164 0 0.55427 0.03894 0.78516 0.11523v-0.84961c-0.10937-0.025431-0.24437-0.043925-0.40234-0.056641-0.15797-0.012716-0.30014-0.019531-0.42773-0.019531zm-10.471 3.0488c-0.00217 6.752e-4 -0.0056925 0.0011831-0.0078125 0.0019531-0.076429 0.00791-0.14684 0.036771-0.20703 0.078125-0.00533 0.00384-0.010959 0.0090319-0.015625 0.013672-0.00691 0.0064799-0.014624 0.010242-0.021484 0.017578-0.00219 0.0022-0.0041194 0.0059425-0.0058594 0.0078125-0.00581 0.0056-0.011799 0.011395-0.017578 0.017578-0.0080499 0.0079-0.01649 0.016476-0.023437 0.023438-0.00217 0.0022-0.0042794 0.0042094-0.0058594 0.0058594-0.020532 0.020337-0.030138 0.044014-0.046875 0.068359-0.00537 0.011552-0.0099708 0.024492-0.011719 0.037109v-0.0058593c-4.368e-4 0.0012099-0.0011431 0.0058325-0.0019531 0.0078124-0.015296 0.01713-0.016114 0.041901-0.023438 0.060547-0.00277 0.00692-0.0043494 0.01416-0.0058594 0.021484-7.058e-4 0.0022-0.0031862 0.0013863-0.0039062 0.0039063-0.00371 0.011091-0.0052894 0.021519-0.0058594 0.033203-3.74e-5 0.00307-3.74e-5 0.0086367 0 0.011719-1.923e-4 0.00879-3.211e-4 0.016607 0 0.025391-1.371e-4 0.00802-2.943e-4 0.015378 0 0.023438l0.0019531-0.011719c-0.00109 0.018021-0.00109 0.036666 0 0.054688l-0.0019531-0.0078125v2.7617l0.0019531-0.007813c-0.009246 0.14582 0.042904 0.27356 0.13086 0.35547 0.087954 0.0819 0.20402 0.12109 0.31641 0.12109 0.11238 0 0.22649-0.039184 0.31445-0.12109 0.087955-0.08191 0.14011-0.20965 0.13086-0.35547l0.0019532 0.007813v-2.3535h5.5918l-0.0078124-0.0019531c0.14583 0.00922 0.27355-0.0429 0.35547-0.13086 0.081913-0.087958 0.11914-0.20206 0.11914-0.31445s-0.037224-0.22845-0.11914-0.31641c-0.081935-0.087955-0.20964-0.13817-0.35547-0.12891l0.0078124-0.0039062h-6.0117c-0.00879-3.194e-4 -0.016619-1.921e-4 -0.025391 0-0.00131-1.53e-5 -0.0026263 5.5e-6 -0.0039063 0-0.014075-6.851e-4 -0.028893-6.863e-4 -0.042969 0zm13.107 0 0.007812 0.0039062c-0.14583-0.00926-0.27357 0.040948-0.35547 0.12891-0.081919 0.08796-0.11914 0.20402-0.11914 0.31641s0.037231 0.22649 0.11914 0.31445c0.08191 0.08796 0.20965 0.14008 0.35547 0.13086l-0.007812 0.0019531h5.5918v2.3535l0.001953-0.007813c-0.00924 0.14582 0.042909 0.27356 0.13086 0.35547 0.08796 0.08191 0.20402 0.12109 0.31641 0.12109s0.2265-0.039194 0.31445-0.12109c0.087959-0.08191 0.14016-0.20965 0.13086-0.35547l0.001953 0.007813v-2.7617l-0.001953 0.0078125c0.0011-0.018021 0.0011-0.036666 0-0.054688l0.001953 0.011719c2.95e-4 -0.00806 1.37e-4 -0.015418 0-0.023438 3.21e-4 -0.0087839 1.93e-4 -0.016601 0-0.025391 3.8e-5 -0.003082 3.8e-5 -0.0086487 0-0.011719-6e-4 -0.011684-0.002259-0.022112-0.005859-0.033203-6e-4 -0.00252-0.001249-0.0017063-0.001953-0.0039063-0.0016-0.007324-0.005113-0.014564-0.007813-0.021484-0.00733-0.018646-0.008148-0.043417-0.023437-0.060547-7e-4 -0.0019799-0.001517-0.0066025-0.001954-0.0078124v0.0058593c-0.00166-0.012617-0.004365-0.025557-0.009765-0.037109-0.01674-0.024345-0.028288-0.048022-0.048828-0.068359-0.0016-0.00165-0.00366-0.0036594-0.00586-0.0058594-0.00695-0.006962-0.015437-0.015538-0.023437-0.023438-0.00577-0.006183-0.011778-0.011978-0.017578-0.017578-0.0019-0.00187-0.00366-0.0056125-0.00586-0.0078125-0.00685-0.007336-0.014584-0.011098-0.021484-0.017578-0.00469-0.00464-0.010225-0.0098319-0.015625-0.013672-0.06019-0.041354-0.1306-0.070215-0.20703-0.078125-0.001683-5.888e-4 -0.004205-0.0014109-0.00586-0.0019531h-0.001953c-0.013495-5.955e-4 -0.027585-6.542e-4 -0.041015 0-0.0014 5.3e-6 -0.00446-1.54e-5 -0.00586 0-0.00877-1.921e-4 -0.016691-3.196e-4 -0.02539 0h-6.0117zm-3.4199 0.32617c0.38278 0 0.66712 0.11828 0.85547 0.35352 0.19443 0.23524 0.29297 0.55258 0.29297 0.95312 0 0.50227-0.10939 0.87559-0.32812 1.1172-0.21873 0.23524-0.50133 0.35156-0.84766 0.35156-0.27949 0-0.51477-0.079335-0.70312-0.23828-0.18835-0.1653-0.33052-0.37118-0.42773-0.61914-0.097214-0.24796-0.14648-0.503-0.14648-0.76367 0-0.18438 0.054696-0.36495 0.16406-0.54297 0.10937-0.17802 0.2626-0.32501 0.45703-0.43945 0.19443-0.11444 0.42233-0.17188 0.68359-0.17188z" fill="#232629"/>
</svg>
