<?xml version="1.0" encoding="UTF-8"?>
<svg id="svg883" width="22" height="22" version="1.2" xmlns="http://www.w3.org/2000/svg">
 <path id="path881" d="m1.4043 8.0586c-0.00217 6.751e-4 -0.00569 0.00118-0.00781 0.00195-0.076429 0.00791-0.14684 0.036771-0.20703 0.078125-0.00533 0.00384-0.010959 0.00903-0.015625 0.013672-0.00691 0.00648-0.014624 0.010242-0.021484 0.017578-0.00219 0.0022-0.00412 0.00594-0.00586 0.00781-0.00581 0.0056-0.011799 0.011395-0.017578 0.017578-0.00805 0.0079-0.016491 0.016476-0.023437 0.023437-0.00217 0.0022-0.00428 0.00421-0.00586 0.00586-0.020532 0.020337-0.030138 0.044014-0.046875 0.068359-0.00537 0.011552-0.00997 0.024492-0.011719 0.037109v-0.00586c-4.368e-4 0.00121-0.00114 0.00583-0.00195 0.00781-0.015296 0.01713-0.016113 0.041901-0.023437 0.060547-0.00277 0.00692-0.00435 0.01416-0.00586 0.021484-7.058e-4 0.0022-0.00319 0.00139-0.00391 0.00391-0.00371 0.011091-0.00529 0.021519-0.00586 0.033203-3.74e-5 0.00307-3.74e-5 0.00864 0 0.011719-1.923e-4 0.00879-3.211e-4 0.016607 0 0.025391-1.371e-4 0.00802-2.943e-4 0.015378 0 0.023438l0.0019525-0.011714c-0.00109 0.018021-0.00109 0.036665 0 0.054687l-0.0019531-0.007812v2.7617l0.00195-0.0078c-0.009246 0.14582 0.042903 0.27356 0.13086 0.35547 0.087954 0.0819 0.20402 0.12109 0.31641 0.12109 0.11238 0 0.22649-0.03918 0.31445-0.12109 0.087955-0.08191 0.14011-0.20965 0.13086-0.35547l0.00195 0.0078v-2.3535h18.207v2.3535l2e-3 -0.0078c-0.0092 0.14582 0.04291 0.27356 0.13086 0.35547 0.08796 0.08191 0.20402 0.12109 0.31641 0.12109s0.2265-0.03919 0.31445-0.12109c0.08796-0.08191 0.14016-0.20965 0.13086-0.35547l0.001906 0.0078v-2.7617l-2e-3 0.00781c0.0011-0.018021 0.0011-0.036665 0-0.054687l2e-3 0.011721c2.95e-4 -0.00806 1.37e-4 -0.015417 0-0.023438 3.21e-4 -0.00878 1.93e-4 -0.016601 0-0.025391 3.8e-5 -0.00308 3.8e-5 -0.00865 0-0.011719-6e-4 -0.011684-0.0023-0.022112-0.0059-0.033203-6e-4 -0.00252-0.0012-0.00171-2e-3 -0.00391-0.0016-0.00732-0.0051-0.014564-0.0078-0.021484-0.0073-0.018646-0.0081-0.043417-0.02344-0.060547-7e-4 -0.00198-0.0015-0.0066-2e-3 -0.00781v0.00586c-0.0017-0.012617-0.0044-0.025557-0.0098-0.037109-0.01674-0.024345-0.02829-0.048022-0.04883-0.068359-0.0016-0.00165-0.0037-0.00366-0.0059-0.00586-0.0069-0.00696-0.01544-0.015538-0.02344-0.023437-0.0058-0.00618-0.01178-0.011978-0.01758-0.017578-0.0019-0.00187-0.0037-0.00561-0.0059-0.00781-0.0069-0.00734-0.01458-0.011098-0.02148-0.017578-0.0047-0.00464-0.01021-0.00983-0.01563-0.013672-0.06019-0.041354-0.1306-0.070215-0.20703-0.078125-0.0017-5.888e-4 -0.0042-0.00141-0.0059-0.00195h-2e-3c-0.0135-5.955e-4 -0.02759-6.542e-4 -0.04102 0-0.0014 5.2e-6 -0.0045-1.55e-5 -0.0059 0-0.0088-1.921e-4 -0.01669-3.196e-4 -0.02539 0h-19.046c-0.00879-3.195e-4 -0.016619-1.921e-4 -0.025391 0-0.00131-1.53e-5 -0.00263 5.5e-6 -0.00391 0-0.014075-6.852e-4 -0.028893-6.864e-4 -0.042969 0z" fill="#232629"/>
</svg>
