<svg id="svg6" version="1.1" viewBox="0 0 22 22" xmlns="http://www.w3.org/2000/svg">
    <defs id="defs3051">
    <style type="text/css" id="current-color-scheme">
        .ColorScheme-Text {            color:#232629;        }
    </style>
    </defs>
    <path id="path347" d="m3 3v6h0.2695312 1.0332032 4.6972656l-2.9394531-2.9394531a7 7 0 0 1 4.9394531-2.0605469 7 7 0 0 1 7 7 7 7 0 0 1-7 7 7 7 0 0 1-7-7h-1a8 8 0 0 0 8 8 8 8 0 0 0 4.892578-1.693359l3.400391 3.40039a1 1 0 0 0 1.414062 0 1 1 0 0 0 0-1.414062l-3.40039-3.400391a8 8 0 0 0 1.693359-4.892578 8 8 0 0 0-8-8 8 8 0 0 0-5.6347656 2.3652344l-2.3652344-2.3652344z" class="ColorScheme-Text" fill="currentColor" stroke-linecap="square" stroke-width="2" style="paint-order:markers stroke fill"/>
</svg>
