<?xml version="1.0" encoding="UTF-8"?>
<svg id="svg4" width="16px" height="16px" version="1.1" viewBox="0 0 16 16" xmlns="http://www.w3.org/2000/svg">
 <path id="path668" d="m8.5 12.5a0.5 0.5 0 0 1-0.5 0.5 0.5 0.5 0 0 1-0.5-0.5 0.5 0.5 0 0 1 0.5-0.5 0.5 0.5 0 0 1 0.5 0.5zm-0.5-11.5c-0.55078 0-1 0.44922-1 1v2.5859l-1.293-1.293c-0.1875-0.1875-0.44141-0.29297-0.70703-0.29297s-0.51953 0.10547-0.70703 0.29297c-0.39062 0.39062-0.39062 1.0234 0 1.4141l3 3c0.39062 0.39062 1.0234 0.39062 1.4141 0l3-3c0.39062-0.39062 0.39062-1.0234 0-1.4141s-1.0234-0.39062-1.4141 0l-1.293 1.293v-2.5859c0-0.55078-0.44922-1-1-1zm-7 8v2h14v-2zm0 5v2h14v-2z" stroke-width=".5" fill="#2e3436"/>
</svg>
