<?xml version="1.0" encoding="UTF-8"?>
<svg id="svg4" width="16px" height="16px" version="1.1" viewBox="0 0 16 16" xmlns="http://www.w3.org/2000/svg">
 <path id="path2" d="m9.7266 3.0039c-0.06735 0-0.12109 0.053747-0.12109 0.12109v6.8008c-0.2474-0.18872-0.58349-0.28125-0.92969-0.28125-0.49845 0-0.98618 0.18221-1.4238 0.4375-0.57137 0.3404-1.252 0.9372-1.252 1.8125 0 0.75374 0.64345 1.1055 1.3242 1.1055 0.49845 0 0.98618-0.18221 1.4238-0.4375 0.57137-0.3404 1.252-0.9372 1.252-1.8125 0-0.03303-0.0034-0.0642-0.00586-0.0957 0.0019-0.0086 0.00586-0.01612 0.00586-0.02539v-7.5039c0-0.06735-0.053744-0.12109-0.12109-0.12109h-0.15234z" fill="#2e3436"/>
 <path id="rect1447" d="m6 15h4c1.1046 0 2-0.89543 2-2v-10c0-1.1046-0.89543-2-2-2h-4c-1.1046 0-2 0.89543-2 2v10c0 1.1046 0.89543 2 2 2zm0-13h4c0.55228 0 1 0.44772 1 1v10c0 0.55228-0.44772 1-1 1h-4c-0.55228 0-1-0.44772-1-1v-10c0-0.55228 0.44772-1 1-1z" fill="#2e3436" fill-opacity=".34902"/>
</svg>
