<?xml version="1.0" encoding="UTF-8"?>
<svg id="svg4" width="16px" height="16px" version="1.1" viewBox="0 0 16 16" xmlns="http://www.w3.org/2000/svg">
 <path id="path2" d="m4 0c-1.6445 0-3 1.3555-3 3v10c0 1.6445 1.3555 3 3 3h2 1 5c1.6445 0 3-1.3555 3-3v-7-1c0-0.26562-0.10547-0.51953-0.29297-0.70703l-4-4c-0.1875-0.1875-0.44141-0.29297-0.70703-0.29297h-6zm0 2h5.5859l3.4141 3.4141v0.58594 7c0 0.57031-0.42969 1-1 1h-5-1-2c-0.57031 0-1-0.42969-1-1v-10c0-0.57031 0.42969-1 1-1zm1.3555 1-0.095703 2h-0.59375c-0.36979 0-0.66602 0.11133-0.66602 0.25v0.5c0 0.13867 0.29622 0.25 0.66602 0.25h2.8613c0.065014 0.1335 0.099609 0.28659 0.099609 0.45898 0 0.6392-0.46698 1.0234-1.1914 1.0234-0.42614 0-0.89631-0.12145-1.2656-0.32031l-0.16992 0.46875c0.44034 0.23437 0.90128 0.36914 1.3984 0.36914 1.0937 0 1.834-0.62589 1.834-1.5918 0-0.1468-0.0238-0.27961-0.056641-0.4082h3.1582c0.36979 0 0.66602-0.11133 0.66602-0.25v-0.5c0-0.13867-0.29622-0.25-0.66602-0.25h-4.1758c-0.2086-0.061051-0.44306-0.095703-0.70312-0.095703-0.21307 0-0.43271 0.019886-0.63867 0.0625l0.072266-1.4629h2.1094v-0.50391h-2.6426zm5.4121 5-1.7676 0.91602 0.21484 0.4082 1.3301-0.63672v1.3125h-5.8789c-0.36979 0-0.66602 0.11133-0.66602 0.25v0.5c0 0.13867 0.29622 0.25 0.66602 0.25h5.8789v2h0.56445v-2h0.22461c0.36979 0 0.66602-0.11133 0.66602-0.25v-0.5c0-0.13867-0.29622-0.25-0.66602-0.25h-0.22461v-2h-0.3418z" fill="#2e3436"/>
</svg>
