<?xml version="1.0" encoding="UTF-8"?>
<svg id="svg10" width="16px" height="16px" version="1.1" viewBox="0 0 16 16" xmlns="http://www.w3.org/2000/svg">
 <g id="g8" fill="#2e3436">
  <path id="path2" d="m15 6.5026h-14v-4.5026h14z" fill-opacity=".34902" stroke-width="1.025"/>
  <path id="path4" d="m3 15c-1.6445 0-3-1.3555-3-3v-8c0-1.6445 1.3555-3 3-3h10c1.6445 0 3 1.3555 3 3v8c0 1.6445-1.3555 3-3 3zm0-2h10c0.57031 0 1-0.42969 1-1v-8c0-0.57031-0.42969-1-1-1h-10c-0.57031 0-1 0.42969-1 1v8c0 0.57031 0.42969 1 1 1z"/>
  <path id="path6" d="m1 6v1h14v-1z" stroke-width="1.0801"/>
 </g>
</svg>
