<?xml version="1.0" encoding="UTF-8"?>
<svg width="24" height="24" version="1.2" xmlns="http://www.w3.org/2000/svg"><path d="m12.625 2.0002c-0.09229 0-0.16671 0.074425-0.16671 0.16671v15.621c-0.33912-0.2592-0.7995-0.38575-1.2744-0.38575-0.683 0-1.3492 0.24936-1.9489 0.59918-0.78296 0.46643-1.716 1.2831-1.716 2.4826 1e-7 1.0328 0.88282 1.5157 1.8157 1.5157 0.683 0 1.3492-0.25006 1.9489-0.59989 0.78296-0.46643 1.716-1.2824 1.716-2.4819 0-0.04511-0.0037-0.08812-7e-3 -0.13114 0.0027-0.01191 7e-3 -0.02353 7e-3 -0.03628v-5.8064c1.1994 0.96621 2.7818 2.3659 2.7818 3.8818 0 0.91621-0.26651 1.7988-0.69964 2.6151-0.04998 0.26654 0.16639 0.44993 0.38296 0.44993 0.11661 0 0.23339-0.05019 0.31668-0.18345 0.43314-0.89957 0.69964-1.882 0.69964-2.8816 0-0.683-0.19958-1.2996-0.49943-1.8827 0.24988-0.54975 0.39968-1.149 0.39968-1.7487 0-0.66636-0.2002-1.2661-0.48339-1.8492 0.1999-0.43314 0.31668-0.91618 0.31668-1.3993 0-2.9152-3.215-4.8643-3.215-7.7796 0-0.092289-0.074424-0.16671-0.16671-0.16671zm0.37457 3.715c1.0828 1.1161 2.4986 2.682 2.4986 4.2314 0 0.1999-0.01629 0.39989-0.06626 0.58314-0.99954-1.5159-2.4323-2.8823-2.4323-4.7314zm0 3.6146c1.1495 0.98285 2.6653 2.3658 2.6653 3.865 0 0.33317-0.05002 0.64957-0.14997 0.9661-1.0328-1.5159-2.5154-2.8657-2.5154-4.7314z" fill="#232629"/></svg>
