<?xml version="1.0" encoding="UTF-8"?>
<svg width="24" height="24" version="1.2" xmlns="http://www.w3.org/2000/svg"><path d="m12.541 2c-0.07982 0-0.14439 0.064568-0.14439 0.14439v16.213c-0.29332-0.22424-0.69133-0.33413-1.1021-0.33413-0.59076 0-1.1673 0.2164-1.686 0.51897-0.67722 0.40343-1.4837 1.1089-1.4837 2.1464 0 0.89333 0.76329 1.3114 1.5702 1.3114 0.59076 0 1.1673-0.2164 1.686-0.51897 0.67722-0.40343 1.4837-1.1089 1.4837-2.1464 0-0.03947-0.0034-0.07678-0.0063-0.1144 0.0022-0.01006 0.0063-0.01925 0.0063-0.02999v-4.2661c1.0374 0.86451 2.4066 2.1184 2.4066 3.4585 0 0.80686-0.23085 1.585-0.60547 2.3054-0.04323 0.23054 0.14403 0.38854 0.33134 0.38854 0.10086 0 0.2021-0.04307 0.27414-0.15834 0.37461-0.79247 0.60479-1.6567 0.60479-2.5356 0-0.70601-0.24432-1.3401-0.59011-1.9308 0.30258-0.37461 0.50432-0.8359 0.50432-1.3114 0-0.59076-0.17358-1.1238-0.41854-1.6281 0.25936-0.50429 0.41854-1.0515 0.41854-1.6134 0-0.59076-0.17358-1.1238-0.41854-1.6281 0.1729-0.40343 0.27414-0.85079 0.27414-1.2974 0-2.5503-2.7811-4.2786-2.7811-6.829 0-0.079827-0.063872-0.1444-0.14369-0.1444zm0.32366 3.2129c0.93654 1.0086 2.1617 2.3917 2.1617 3.7604 0 0.18731-0.02932 0.38957-0.07254 0.57686-0.86451-1.3256-2.0892-2.5359-2.0892-4.1497zm0 3.2422c0.99419 0.87894 2.3054 2.1182 2.3054 3.4438 0 0.3314-0.05772 0.63354-0.17299 0.93612-0.86451-1.3544-2.1324-2.5643-2.1324-4.2068zm0 3.2276c0.99419 0.87894 2.3054 2.1322 2.3054 3.4577 0 0.27376-0.0861 0.54793-0.23019 0.77847-0.87894-1.2824-2.0752-2.4643-2.0752-4.0493z" fill="#232629"/></svg>
