<?xml version="1.0" encoding="UTF-8"?>
<svg width="24" height="24" version="1.2" xmlns="http://www.w3.org/2000/svg"><path d="m12.74 2c-0.10937 0-0.19741 0.088036-0.19741 0.1974v14.809c-0.40175-0.30646-0.948-0.45479-1.5102-0.45479-0.80943 0-1.5989 0.29622-2.3096 0.71078-0.92786 0.55278-2.0334 1.5201-2.0334 2.9415 0 1.224 1.0464 1.7962 2.1519 1.7962 0.80943 0 1.5989-0.29622 2.3096-0.71078 0.92786-0.55278 2.0334-1.5201 2.0334-2.9415 0-0.05389-0.0044-0.10488-0.0083-0.15625 3e-3 -0.01384 0.0083-0.02707 0.0083-0.04186v-11.016c1.4214 1.4806 3.2973 3.5335 3.2973 5.5868 0 1.303-0.31609 2.5862-0.82939 3.7903-0.05922 0.31587 0.19746 0.53293 0.45411 0.53293 0.13819 0 0.27657-0.07923 0.37528-0.23716 0.51328-1.303 0.82868-2.6845 0.82868-4.0861 0-3.9089-4.1261-6.6136-4.1261-10.522 0-0.10937-0.08803-0.1974-0.1974-0.1974z" fill="#2e3436"/></svg>
