<?xml version="1.0" encoding="UTF-8" standalone="no"?>
<svg
   height="16px"
   viewBox="0 0 16 16"
   width="16px"
   version="1.1"
   id="svg4"
   sodipodi:docname="audio-headphones-symbolic_disabled.svg"
   inkscape:version="1.2.2 (b0a8486541, 2022-12-01)"
   xmlns:inkscape="http://www.inkscape.org/namespaces/inkscape"
   xmlns:sodipodi="http://sodipodi.sourceforge.net/DTD/sodipodi-0.dtd"
   xmlns="http://www.w3.org/2000/svg"
   xmlns:svg="http://www.w3.org/2000/svg">
  <defs
     id="defs8" />
  <sodipodi:namedview
     id="namedview6"
     pagecolor="#ffffff"
     bordercolor="#666666"
     borderopacity="1.0"
     inkscape:showpageshadow="2"
     inkscape:pageopacity="0.0"
     inkscape:pagecheckerboard="0"
     inkscape:deskcolor="#d1d1d1"
     showgrid="false"
     inkscape:zoom="46.4375"
     inkscape:cx="3.4239569"
     inkscape:cy="7.9892328"
     inkscape:window-width="1920"
     inkscape:window-height="1021"
     inkscape:window-x="0"
     inkscape:window-y="0"
     inkscape:window-maximized="1"
     inkscape:current-layer="svg4" />
  <g
     id="g216">
    <path
       d="m 8 0 c -1.230469 0 -2.4375 0.324219 -3.5 0.9375 c -2.164062 1.25 -3.5 3.5625 -3.5 6.0625 v 6 s 0 2 2 2 h 1 c 0.554688 0 1 -0.445312 1 -1 v -4 c 0 -0.554688 -0.5 -1 -1 -1 c 0 0 -1 0 -1 -1 v -1 c 0 -1.785156 0.953125 -3.4375 2.5 -4.332031 c 1.546875 -0.890625 3.453125 -0.890625 5 0 c 1.546875 0.894531 2.5 2.546875 2.5 4.332031 v 1 c 0 1 -1 1 -1 1 c -0.5 0 -1 0.445312 -1 1 v 4 c 0 0.554688 0.445312 1 1 1 h 1 c 2 0 2 -2 2 -2 v -6 c 0 -2.5 -1.335938 -4.8125 -3.5 -6.0625 c -1.0625 -0.613281 -2.269531 -0.9375 -3.5 -0.9375 z m 0 0"
       fill="#444444"
       id="path2" />
    <path
       d="m 6,3.2664439 c -0.265625,0 -0.519531,0.105469 -0.707031,0.292969 -0.390625,0.390625 -0.390625,1.023437 0,1.414062 l 1.292969,1.292969 -1.292969,1.292969 c -0.390625,0.390625 -0.390625,1.023437 0,1.414062 0.390625,0.390625 1.023437,0.390625 1.414062,0 L 8,7.6805059 9.292969,8.9734749 c 0.390625,0.390625 1.023437,0.390625 1.414062,0 0.390625,-0.390625 0.390625,-1.023437 0,-1.414062 l -1.292969,-1.292969 1.292969,-1.292969 c 0.390625,-0.390625 0.390625,-1.023437 0,-1.414062 -0.1875,-0.1875 -0.441406,-0.292969 -0.707031,-0.292969 -0.265625,0 -0.519531,0.105469 -0.707031,0.292969 L 8,4.8523819 6.707031,3.5594129 C 6.519531,3.3719129 6.265625,3.2664439 6,3.2664439 Z m 0,0"
       id="path12"
       style="fill:#444444" />
  </g>
</svg>
