<?xml version="1.0" encoding="UTF-8" standalone="no"?>
<svg
   width="24"
   height="24"
   version="1.2"
   id="svg4"
   sodipodi:docname="chord.svg"
   inkscape:version="1.2.2 (b0a8486541, 2022-12-01)"
   xmlns:inkscape="http://www.inkscape.org/namespaces/inkscape"
   xmlns:sodipodi="http://sodipodi.sourceforge.net/DTD/sodipodi-0.dtd"
   xmlns="http://www.w3.org/2000/svg"
   xmlns:svg="http://www.w3.org/2000/svg">
  <defs
     id="defs8" />
  <sodipodi:namedview
     id="namedview6"
     pagecolor="#ffffff"
     bordercolor="#666666"
     borderopacity="1.0"
     inkscape:showpageshadow="2"
     inkscape:pageopacity="0.0"
     inkscape:pagecheckerboard="0"
     inkscape:deskcolor="#d1d1d1"
     showgrid="false"
     inkscape:zoom="21.890847"
     inkscape:cx="17.084766"
     inkscape:cy="17.221809"
     inkscape:window-width="1920"
     inkscape:window-height="1021"
     inkscape:window-x="0"
     inkscape:window-y="0"
     inkscape:window-maximized="1"
     inkscape:current-layer="svg4" />
  <path
     id="path2"
     fill="#232629"
     d="M 2.1035156,3.6542969 C 1.9783724,3.6542957 1.8750005,3.7579225 1.875,3.8828125 V 8.203125 c -7.313e-4,0.00258 -0.00138,0.00519 -0.00195,0.00781 -0.0025,0.01935 -0.0025,0.03729 0,0.056641 6.03e-4,0.00197 0.00125,0.00392 0.00195,0.00586 v 3.888672 c -0.00149,0.0038 -0.0028,0.0078 -0.00391,0.01172 -2.364e-4,0.006 -2.364e-4,0.01355 0,0.01953 l 0.00195,-0.02148 c -0.00213,0.01788 -0.00213,0.03681 0,0.05469 6.279e-4,0.0013 0.00128,0.0026 0.00195,0.0039 v 3.888672 c -0.00149,0.0038 -0.0028,0.0078 -0.00391,0.01172 -3.693e-4,0.0075 -3.693e-4,0.01401 0,0.02148 l 0.00195,-0.02148 c -0.00213,0.01788 -0.00213,0.03681 0,0.05469 6.279e-4,0.0013 0.00128,0.0026 0.00195,0.0039 v 3.820313 c 0,0.01549 0.00615,0.02055 0.00977,0.0332 -0.00104,0.004 -0.00309,0.0076 -0.00391,0.01172 -9.684e-4,0.0052 -0.00162,0.01038 -0.00195,0.01562 -1.97e-5,0.0013 -1.97e-5,0.0026 0,0.0039 -0.00222,0.0044 -0.00417,0.009 -0.00586,0.01367 -0.00213,0.01788 -0.00213,0.03681 0,0.05469 0.00225,0.0054 0.00486,0.0106 0.00781,0.01563 -4.51e-5,0.002 -4.51e-5,0.0039 0,0.0059 0.00333,0.02015 0.00901,0.04006 0.017578,0.05859 0.0066,0.01238 0.015173,0.02359 0.025391,0.0332 0.00169,0.0047 0.00364,0.0092 0.00586,0.01367 0.00565,0.0063 0.011263,0.01193 0.017578,0.01758 0.00268,0.0026 0.00501,0.0053 0.00781,0.0078 0.00444,0.0022 0.009,0.0042 0.013672,0.0059 6.938e-4,6.36e-4 0.00125,0.0013 0.00195,0.002 0.00884,0.0078 0.018703,0.01433 0.029321,0.01943 0.015697,0.0079 0.031745,0.01352 0.048828,0.01758 0.00768,0.002 0.015521,0.0033 0.023437,0.0039 0.00598,2.36e-4 0.013547,2.36e-4 0.019531,0 0.0024,-1.9e-5 0.00542,9.5e-5 0.00781,0 0.0024,-1.9e-5 0.00542,9.5e-5 0.00781,0 h 19.789068 l -0.01563,-0.002 c 0.01788,0.0021 0.03681,0.0021 0.05469,0 0.0047,-0.0017 0.0092,-0.0037 0.01367,-0.0059 0.01514,-0.0026 0.0297,-0.0079 0.04297,-0.01563 l 0.0039,-0.002 c 0.0063,-0.0023 0.01349,-0.0031 0.01953,-0.0059 0.0047,-0.0023 0.0093,-0.0049 0.01367,-0.0078 0.0046,-0.0028 0.0073,-0.0066 0.01172,-0.0098 l -0.002,0.0039 c 0.0031,-0.0021 0.0049,-0.0056 0.0078,-0.0078 0.0032,-0.0021 0.0067,-0.0036 0.0098,-0.0059 6.74e-4,-6.59e-4 0.0013,-0.0013 0.002,-0.002 0.0022,-0.0017 0.0037,-0.0041 0.0059,-0.0059 0.0068,-0.01026 0.01203,-0.02144 0.01563,-0.0332 0.0048,-0.0045 0.0093,-0.0088 0.01367,-0.01367 0.003,-0.0057 0.0056,-0.01153 0.0078,-0.01758 l -0.0078,0.02539 c 0.0073,-0.01285 0.01292,-0.02505 0.01758,-0.03906 0.003,-0.0089 0.0049,-0.01804 0.0059,-0.02734 0.0023,-0.0051 0.0043,-0.0103 0.0059,-0.01563 v -0.002 c 0.0014,-0.0026 0.0027,-0.0052 0.0039,-0.0078 5e-6,-4.98e-4 -2e-6,-0.0015 0,-0.002 v -0.002 -0.002 -0.002 -0.002 c 5e-6,-6.67e-4 5e-6,-0.0013 0,-0.002 -2e-6,-4.99e-4 5e-6,-0.0015 0,-0.002 0.0015,-0.0084 0.0022,-0.01688 0.002,-0.02539 -1.47e-4,-0.002 -0.0018,-0.0038 -0.002,-0.0059 v -0.002 -0.002 c -7.4e-5,-6.35e-4 7.9e-5,-0.0013 0,-0.002 v -0.002 -0.002 c -2e-6,-4.99e-4 5e-6,-0.0015 0,-0.002 -2e-6,-4.99e-4 5e-6,-0.0015 0,-0.002 -2e-6,-4.99e-4 5e-6,-0.0015 0,-0.002 -2.62e-4,-0.0059 -9.3e-4,-0.01177 -0.002,-0.01758 -0.0011,-0.0076 -0.002,-0.01408 -0.0039,-0.02148 -0.0012,-0.0033 -0.0025,-0.0066 -0.0039,-0.0098 -1.94e-4,-5.66e-4 1.98e-4,-0.0014 0,-0.002 0.003,-0.01292 0.0078,-0.0083 0.0078,-0.02539 v -3.81836 c 6.89e-4,-0.0013 0.0014,-0.0026 0.002,-0.0039 5e-6,-4.99e-4 -2e-6,-0.0015 0,-0.002 5e-6,-4.99e-4 -2e-6,-0.0015 0,-0.002 v -0.002 c -2e-6,-4.99e-4 5e-6,-0.0015 0,-0.002 v -0.002 l -0.002,0.0078 c 0.0021,-0.01788 0.0021,-0.03681 0,-0.05469 l 0.002,0.0078 v -0.002 -0.002 c -2e-6,-4.99e-4 5e-6,-0.0015 0,-0.002 v -0.002 c 3e-6,-9.97e-4 10e-6,-0.0029 0,-0.0039 -5.85e-4,-0.0026 -0.0013,-0.0052 -0.002,-0.0078 v -0.0098 -3.876953 c 6.89e-4,-0.0013 0.0014,-0.0026 0.002,-0.0039 5e-6,-4.99e-4 -2e-6,-0.0015 0,-0.002 5e-6,-4.98e-4 -2e-6,-0.0015 0,-0.002 v -0.002 -0.002 c -2e-6,-4.99e-4 5e-6,-0.0015 0,-0.002 l -0.002,0.0078 c 0.0021,-0.01788 0.0021,-0.03681 0,-0.05469 l 0.002,0.0078 v -0.0039 -0.002 c -2e-6,-4.99e-4 5e-6,-0.0015 0,-0.002 -2e-6,-4.99e-4 5e-6,-0.0015 0,-0.002 -5.85e-4,-0.0026 -0.0013,-0.0052 -0.002,-0.0078 v -0.0098 -3.8789065 c 6.89e-4,-0.00129 0.0014,-0.0026 0.002,-0.00391 5e-6,-4.988e-4 -2e-6,-0.00145 0,-0.00195 5e-6,-4.989e-4 -2e-6,-0.00145 0,-0.00195 v -0.00195 c -2e-6,-4.989e-4 5e-6,-0.00145 0,-0.00195 v -0.00195 l -0.002,0.00781 c 0.0025,-0.01935 0.0025,-0.03729 0,-0.056641 l 0.002,0.00781 v -0.00195 c -2e-6,-4.989e-4 5e-6,-0.00145 0,-0.00195 v -0.00391 c -2e-6,-4.989e-4 5e-6,-0.00145 0,-0.00195 -5.85e-4,-0.00262 -0.0013,-0.00523 -0.002,-0.00781 V 8.1914062 3.8828125 C 22.12418,3.7620365 22.023597,3.6542969 21.898438,3.6542969 Z m 19.8320314,16.6875001 -0.02148,0.002 c 0.006,2.36e-4 0.01355,2.36e-4 0.01953,0 6.74e-4,-6.59e-4 0.0013,-0.0013 0.002,-0.002 z M 1.8730469,20.087891 c -6.572e-4,6.6e-4 -0.00131,0.0013 -0.00195,0.002 -2.364e-4,0.006 -2.364e-4,0.01355 0,0.01953 z m 0,-11.8769535 c -6.57e-4,6.43e-4 -0.00131,0.00129 -0.00195,0.00195 -2.364e-4,0.00598 -2.364e-4,0.013547 0,0.019531 z M 2.3300781,4.5058594 H 5.8359375 V 8.0117188 H 2.3300781 Z m 3.9609375,0 H 9.7929688 V 8.0117188 H 6.2910156 Z m 3.9589844,0 h 3.501953 V 8.0117188 H 10.25 Z m 3.958984,0 h 3.501954 V 5.183361 c -0.556429,0.1090369 -0.990235,0.5748847 -0.990235,1.1640625 2e-6,0.5892198 0.433782,1.0551452 0.990235,1.1640625 v 0.5002328 h -3.501954 z m 3.957032,0 h 3.503906 V 8.0117188 H 18.166016 V 7.511486 C 18.721482,7.4016546 19.15625,6.9360716 19.15625,6.3474235 19.156251,5.758808 18.721457,5.2932895 18.166016,5.183361 Z M 2.3300781,8.46875 h 3.5058594 v 3.501953 H 2.3300781 Z m 3.9609375,0 h 3.5019532 v 0.6716422 c -0.5554954,0.110225 -0.9882813,0.5776654 -0.9882813,1.1660158 -3e-7,0.588339 0.4330748,1.054024 0.9882813,1.164063 v 0.500232 H 6.2910156 Z m 3.9589844,0 h 3.501953 v 3.501953 H 10.25 v -0.500232 c 0.554895,-0.110198 0.988281,-0.575745 0.988281,-1.164063 0,-0.5883204 -0.4331,-1.0556172 -0.988281,-1.1660158 z m 3.958984,0 h 3.501954 v 3.501953 h -3.501954 z m 3.957032,0 h 3.503906 v 3.501953 H 18.166016 Z M 2.3300781,12.425781 h 3.5058594 v 0.673596 c -0.5566282,0.108989 -0.9921874,0.574527 -0.9921875,1.164062 -4e-7,0.589498 0.435365,1.056735 0.9921875,1.166016 v 0.500233 H 2.3300781 Z m 3.9609375,0 h 3.5019532 v 3.503907 H 6.2910156 v -0.500233 c 0.5554841,-0.110211 0.9882813,-0.577574 0.9882813,-1.166016 4e-7,-0.588338 -0.4330748,-1.054023 -0.9882813,-1.164062 z m 3.9589844,0 h 3.501953 v 3.503907 H 10.25 Z m 3.958984,0 h 3.501954 v 3.503907 h -3.501954 z m 3.957032,0 h 3.503906 v 3.503907 H 18.166016 Z M 2.3300781,16.386719 h 3.5058594 v 3.5 H 2.3300781 Z m 3.9609375,0 h 3.5019532 v 3.5 H 6.2910156 Z m 3.9589844,0 h 3.501953 v 3.5 H 10.25 Z m 3.958984,0 h 3.501954 v 3.5 h -3.501954 z m 3.957032,0 h 3.503906 v 3.5 h -3.503906 z"
     sodipodi:nodetypes="ccccccccccccccccccscccccccccccccccccccccccccccccccccccccccscccccccccsccccccccsscccccsccsccccccccccccccccscccccccccscccccsccccccccccccccsccccccccccccccccccccccccccccccccscccccccccsccccccccccscccccccccscccccccccccccccscccccccccscccccccccccccccccccccccccccccccccccccccccc" />
</svg>
