<?xml version="1.0" encoding="UTF-8"?>
<svg width="24" height="24" version="1.2" xmlns="http://www.w3.org/2000/svg"><path d="m2.1041 3.7837c-0.054828-5e-7 -0.099548 0.044916-0.099548 0.099548v4.3323a0.098977 0.098977 0 0 0-0.00398 0.00398 0.098977 0.098977 0 0 0 0 0.00797 0.098977 0.098977 0 0 0 0 0.023892 0.098977 0.098977 0 0 0 0.00398 0.00598v3.9162a0.098977 0.098977 0 0 0-0.00398 6e-3 0.098977 0.098977 0 0 0 0 8e-3 0.098977 0.098977 0 0 0 0 0.02389 0.098977 0.098977 0 0 0 0.00398 0.0039v3.9162a0.098977 0.098977 0 0 0-0.00398 6e-3 0.098977 0.098977 0 0 0 0 8e-3 0.098977 0.098977 0 0 0 0 0.02389 0.098977 0.098977 0 0 0 0.00398 0.0039v3.8366c0 0.01584 0.011403 0.02659 0.017919 0.03982a0.098977 0.098977 0 0 0-0.00598 6e-3 0.098977 0.098977 0 0 0-0.00797 0.02389 0.098977 0.098977 0 0 0 0 8e-3 0.098977 0.098977 0 0 0-0.00797 8e-3 0.098977 0.098977 0 0 0 0 8e-3 0.098977 0.098977 0 0 0 0 0.02389 0.098977 0.098977 0 0 0 0.00797 8e-3 0.098977 0.098977 0 0 0 0 8e-3 0.098977 0.098977 0 0 0 0.00797 0.02389 0.098977 0.098977 0 0 0 0.00797 8e-3 0.098977 0.098977 0 0 0 0 8e-3 0.098977 0.098977 0 0 0 0.00797 8e-3 0.098977 0.098977 0 0 0 0.00797 8e-3 0.098977 0.098977 0 0 0 0.00797 0 0.098977 0.098977 0 0 0 0.00797 8e-3 0.098977 0.098977 0 0 0 0.021901 8e-3 0.098977 0.098977 0 0 0 0.00797 0 0.098977 0.098977 0 0 0 0.00797 0 0.098977 0.098977 0 0 0 0.00797 0h19.794a0.098977 0.098977 0 0 0 0.0239 0 0.098977 0.098977 0 0 0 8e-3 0 0.098977 0.098977 0 0 0 8e-3 -8e-3 0.098977 0.098977 0 0 0 8e-3 0 0.098977 0.098977 0 0 0 6e-3 -6e-3 0.098977 0.098977 0 0 0 2e-3 -2e-3 0.098977 0.098977 0 0 0 8e-3 -0.0039 0.098977 0.098977 0 0 0 6e-3 -0.0039 0.098977 0.098977 0 0 0 8e-3 -6e-3 0.098977 0.098977 0 0 0 0-2e-3 0.098977 0.098977 0 0 0 8e-3 -6e-3 0.098977 0.098977 0 0 0 0-2e-3 0.098977 0.098977 0 0 0 8e-3 -0.01792 0.098977 0.098977 0 0 0 0-6e-3 0.098977 0.098977 0 0 0 8e-3 -8e-3 0.098977 0.098977 0 0 0 0-8e-3 0.098977 0.098977 0 0 0 0-8e-3 0.098977 0.098977 0 0 0 2e-3 -0.01 0.098977 0.098977 0 0 0-2e-3 -0.01393 0.098977 0.098977 0 0 0 0-8e-3 0.098977 0.098977 0 0 0 0-8e-3 0.098977 0.098977 0 0 0-2e-3 -0.01 0.098977 0.098977 0 0 0-6e-3 -0.01393 0.098977 0.098977 0 0 0-8e-3 -8e-3 0.098977 0.098977 0 0 0-0.0039-0.0039c0.0072-0.01372 0.01792-0.02514 0.01792-0.04181v-3.8227a0.098977 0.098977 0 0 0 2e-3 -2e-3 0.098977 0.098977 0 0 0 0-8e-3 0.098977 0.098977 0 0 0 0-8e-3 0.098977 0.098977 0 0 0 0-0.02389 0.098977 0.098977 0 0 0 0-8e-3 0.098977 0.098977 0 0 0 0-8e-3 0.098977 0.098977 0 0 0-2e-3 -0.01v-3.8904a0.098977 0.098977 0 0 0 2e-3 -2e-3 0.098977 0.098977 0 0 0 0-8e-3 0.098977 0.098977 0 0 0 0-8e-3 0.098977 0.098977 0 0 0 0-0.02389 0.098977 0.098977 0 0 0 0-8e-3 0.098977 0.098977 0 0 0 0-8e-3 0.098977 0.098977 0 0 0-2e-3 -0.01v-3.8921a0.098977 0.098977 0 0 0 2e-3 -0.00199 0.098977 0.098977 0 0 0 0-0.00797 0.098977 0.098977 0 0 0 0-0.00797 0.098977 0.098977 0 0 0 0-0.023892 0.098977 0.098977 0 0 0 0-0.00797 0.098977 0.098977 0 0 0 0-0.00797 0.098977 0.098977 0 0 0-2e-3 -0.00995v-4.3184c-3.71e-4 -0.054622-0.04311-0.099542-0.09793-0.099542zm0.097557 0.59331h3.7629v3.7629h-3.7629zm3.96 0h3.7609v3.7629h-3.7609zm3.96 0h3.7589v3.7629h-3.7589zm3.958 0h3.7609v1.2085c-0.55232 0.051852-0.9915 0.50361-0.9915 1.0691 2e-6 0.56554 0.43919 1.0155 0.9915 1.0672v0.4181h-3.7609zm3.958 0h3.7609v3.7629h-3.7609v-0.4181c0.55137-0.052576 0.98951-0.5023 0.98951-1.0672 1e-6 -0.56486-0.43814-1.0164-0.98951-1.0691zm-15.836 3.962h3.7629v3.7609h-3.7629zm3.96 0h3.7609v1.2045c-0.55137 0.052782-0.98951 0.50429-0.98951 1.0691-3e-7 0.56486 0.43814 1.0164 0.98951 1.0692v0.4181h-3.7609zm3.96 0h3.7589v3.7609h-3.7589v-0.4181c0.55094-0.053 0.98752-0.50444 0.98752-1.0692 0-0.5647-0.43658-1.0161-0.98752-1.0691zm3.958 0h3.7609v3.7609h-3.7609zm3.958 0h3.7609v3.7609h-3.7609zm-15.836 3.958h3.7629v1.2045c-0.55232 0.05185-0.9915 0.50361-0.9915 1.0692-4e-7 0.56554 0.43919 1.0173 0.9915 1.0692v0.4181h-3.7629zm3.96 0h3.7609v3.7609h-3.7609v-0.4181c0.55137-0.05278 0.98951-0.50428 0.98951-1.0692 4e-7 -0.56486-0.43814-1.0164-0.98951-1.0692zm3.96 0h3.7589v3.7609h-3.7589zm3.958 0h3.7609v3.7609h-3.7609zm3.958 0h3.7609v3.7609h-3.7609zm-15.836 3.96h3.7629v3.753c0 0.0023 0.00184 0.0037 0.00199 6e-3h-3.7669c1.523e-4 -0.0022 0.00199-0.0036 0.00199-6e-3zm3.96 0h3.7609v3.753c0 0.0023 0.00182 0.0037 0.00202 6e-3h-3.7649c1.487e-4 -0.0022 0.00199-0.0037 0.00199-6e-3zm3.96 0h3.7589v3.753c0 0.0023 0.0018 0.0037 2e-3 6e-3h-3.7629c1.48e-4 -0.0022 2e-3 -0.0037 2e-3 -6e-3zm3.958 0h3.7609v3.753c0 0.0023 0.0018 0.0037 2e-3 6e-3h-3.7649c1.49e-4 -0.0022 2e-3 -0.0037 2e-3 -6e-3zm3.958 0h3.7609v3.753c0 0.0023 0.0018 0.0037 2e-3 6e-3h-3.7649c1.52e-4 -0.0022 2e-3 -0.0036 2e-3 -6e-3z" fill="#2e3436" stroke-width="3.9587"/></svg>
