<?xml version="1.0" encoding="UTF-8" standalone="no"?>
<svg
   width="24"
   height="24"
   version="1.2"
   id="svg8"
   sodipodi:docname="clef.svg"
   inkscape:version="1.2.2 (b0a8486541, 2022-12-01)"
   xmlns:inkscape="http://www.inkscape.org/namespaces/inkscape"
   xmlns:sodipodi="http://sodipodi.sourceforge.net/DTD/sodipodi-0.dtd"
   xmlns="http://www.w3.org/2000/svg"
   xmlns:svg="http://www.w3.org/2000/svg">
  <defs
     id="defs12" />
  <sodipodi:namedview
     id="namedview10"
     pagecolor="#ffffff"
     bordercolor="#666666"
     borderopacity="1.0"
     inkscape:showpageshadow="2"
     inkscape:pageopacity="0.0"
     inkscape:pagecheckerboard="0"
     inkscape:deskcolor="#d1d1d1"
     showgrid="false"
     inkscape:zoom="23.923779"
     inkscape:cx="9.9482611"
     inkscape:cy="14.170002"
     inkscape:window-width="1920"
     inkscape:window-height="1021"
     inkscape:window-x="0"
     inkscape:window-y="0"
     inkscape:window-maximized="1"
     inkscape:current-layer="svg8" />
  <g
     transform="matrix(0.00164955,0,0,-0.00164955,7.3213462,22.954748)"
     fill="#000000"
     stroke="none"
     id="g1838" />
  <g
     transform="matrix(0.49023307,0,0,0.49023307,18.353426,3.633493)"
     id="layer1">
    <g
       transform="translate(-230.9546,-533.6597)"
       style="fill:#000000;fill-opacity:1"
       id="g2883" />
    <g
       transform="translate(-230.9546,-533.6597)"
       style="fill:#000000;fill-opacity:1"
       id="g2887" />
    <g
       transform="translate(-230.9546,-533.6597)"
       style="fill:#000000;fill-opacity:1"
       id="g2891">
      <path
         id="path2893"
         fill="#232629"
         d="m 219.80715,530.38588 c -0.71671,0.23553 -1.46033,0.80419 -2.02226,1.55118 -0.77391,1.02291 -1.40986,2.52362 -1.7127,4.0378 -0.16151,0.82101 -0.19516,1.23825 -0.17497,2.18713 0.0269,1.282 0.17497,2.36548 0.498,3.66094 0.0538,0.21871 0.0909,0.41051 0.0807,0.4307 -0.0135,0.0168 -0.003,0.0303 0.0168,0.0303 0.0202,0 0.0336,0.0269 0.0303,0.0572 -0.003,0.0337 0,0.0673 0.003,0.0774 0.003,0.0101 0.0101,0.0471 0.0135,0.0841 0.007,0.037 0.0303,0.15479 0.0538,0.26246 l 0.0437,0.19179 -0.13123,0.11441 c -0.0707,0.0606 -0.56192,0.46435 -1.0902,0.89504 -3.29417,2.69187 -4.80161,4.32717 -5.72021,6.20811 -0.53837,1.09693 -0.77054,2.13667 -0.73017,3.24706 0.0606,1.67568 0.69652,3.32782 1.82711,4.74441 0.28264,0.35667 1.1003,1.17096 1.54445,1.54109 1.39641,1.16423 3.19995,1.89776 5.24913,2.1333 0.61913,0.0707 1.84393,0.0505 2.5741,-0.0437 0.34321,-0.0438 0.69315,-0.0774 0.78064,-0.0808 0.31966,0 0.39032,0.1245 0.7369,1.30219 0.1144,0.39368 0.22207,0.7268 0.2389,0.7369 0.0168,0.0101 0.0202,0.0437 0.007,0.074 -0.0101,0.0303 -0.007,0.0572 0.0135,0.0572 0.0202,0 0.0269,0.0303 0.0168,0.0673 -0.0101,0.037 0,0.0673 0.0202,0.0673 0.0168,0 0.0269,0.0202 0.0168,0.0471 -0.0101,0.0269 -0.003,0.0572 0.0168,0.0673 0.0202,0.0135 0.0269,0.0438 0.0168,0.0673 -0.0101,0.0269 -0.003,0.0572 0.0168,0.0673 0.0202,0.0135 0.0269,0.0437 0.0135,0.0707 -0.0101,0.0269 0,0.0505 0.0236,0.0505 0.0236,0 0.0337,0.0202 0.0236,0.0471 -0.0101,0.0269 -0.0101,0.0572 0,0.0673 0.0101,0.0101 0.0236,0.0673 0.0269,0.1245 0.007,0.0572 0.0269,0.11441 0.0437,0.12787 0.0202,0.0101 0.0336,0.0437 0.0303,0.0707 -0.0101,0.0673 0.0841,0.45088 0.1144,0.47107 0.10431,0.0774 0.16824,1.20461 0.0875,1.64877 -0.24227,1.36612 -1.24499,2.29818 -2.87693,2.67504 -0.56193,0.12786 -1.15414,0.19516 -1.50408,0.16824 -0.36003,-0.0269 -0.89841,-0.12786 -1.11376,-0.21535 l -0.15814,-0.0606 0.074,-0.0673 c 0.0438,-0.0404 0.22208,-0.11777 0.40042,-0.17834 1.02291,-0.33648 1.62521,-0.9186 1.81028,-1.73625 0.0909,-0.41051 0.0572,-0.69652 -0.1346,-1.12722 -0.25236,-0.56192 -0.32639,-0.69988 -0.51145,-0.93879 -0.32303,-0.4105 -0.84794,-0.75035 -1.44351,-0.92869 -0.26919,-0.0807 -0.35667,-0.0908 -0.79074,-0.0908 -0.56529,0 -0.84457,0.0606 -1.30555,0.27928 -0.35667,0.17161 -0.54174,0.29611 -0.82775,0.56866 -0.29947,0.28937 -0.4879,0.55519 -0.69315,0.98589 -0.3735,0.78064 -0.42061,1.37958 -0.17161,2.10639 0.15142,0.43406 0.37686,0.78064 0.76045,1.16759 0.99263,0.99935 2.4967,1.57138 4.12192,1.56801 1.51753,0 2.9745,-0.41724 4.00414,-1.14404 0.30284,-0.21199 0.35667,-0.25573 0.62586,-0.52491 0.82438,-0.82102 1.18442,-2.07947 0.98589,-3.46578 -0.0168,-0.13123 -0.21198,-0.96907 -0.43406,-1.86748 -0.53837,-2.20059 -0.60567,-2.49333 -0.60567,-2.66158 0,-0.21534 0.17161,-0.35667 0.8614,-0.70324 1.73961,-0.87486 2.8702,-2.03236 3.32445,-3.39848 0.17833,-0.53837 0.23217,-0.9085 0.22544,-1.57474 -0.0135,-1.7026 -0.57875,-3.03844 -1.76653,-4.17239 -0.9758,-0.92869 -2.21406,-1.49398 -3.70468,-1.68914 -0.28601,-0.0404 -1.75307,-0.0505 -1.84392,-0.0135 -0.0404,0.0135 -0.0673,-0.0303 -0.12114,-0.21198 -0.1144,-0.39032 -0.63595,-2.54045 -0.66287,-2.72888 -0.037,-0.30283 0.0269,-0.41387 0.51818,-0.86476 0.747,-0.69316 1.24836,-1.23489 1.75308,-1.89776 1.36275,-1.78673 2.11311,-3.6744 2.26453,-5.6832 0.037,-0.53501 -0.003,-1.38631 -0.074,-1.5209 -0.0202,-0.0336 -0.0336,-0.11441 -0.0336,-0.17834 0,-0.38359 -0.29274,-1.66222 -0.56865,-2.47988 -0.63259,-1.86411 -1.66896,-3.58354 -2.36211,-3.91329 -0.26582,-0.1245 -0.35331,-0.13123 -0.61913,-0.0437 z m 1.3964,4.6872 c 0.35668,0.16824 0.60231,0.46098 0.74027,0.88159 0.0639,0.18506 0.0673,0.2389 0.0336,0.46434 -0.13459,0.97244 -0.69651,2.12321 -1.58146,3.24033 -0.54847,0.69316 -1.69251,1.77327 -2.43278,2.30155 -0.25909,0.18506 -0.26582,0.18506 -0.32638,-0.0976 -0.11441,-0.51819 -0.17497,-0.99936 -0.1918,-1.49735 -0.0236,-0.64269 0.0135,-1.02291 0.16151,-1.68242 0.40715,-1.83383 1.30892,-3.15957 2.45296,-3.61046 0.3062,-0.11777 0.31966,-0.12113 0.63932,-0.11104 0.2389,0.007 0.32302,0.0236 0.50472,0.11104 z m -3.54652,12.60465 c 0.0942,0.0336 0.23553,0.37349 0.44079,1.05655 0.0875,0.29274 0.16824,0.53838 0.17833,0.54847 0.0269,0.0269 0.0437,0.11104 0.037,0.19516 0,0.0505 0.0101,0.0707 0.037,0.0538 0.0236,-0.0168 0.0303,0 0.0202,0.0471 -0.0135,0.0404 -0.007,0.074 0.0135,0.074 0.0202,0 0.0269,0.0303 0.0168,0.0673 -0.0101,0.037 -0.003,0.0774 0.0168,0.0875 0.0168,0.0101 0.0236,0.0404 0.0135,0.0673 -0.0101,0.0236 -0.003,0.0538 0.0101,0.0606 0.0168,0.0101 0.0202,0.0606 0.0101,0.10767 -0.0135,0.0707 -0.007,0.0841 0.0303,0.0639 0.0336,-0.0202 0.037,-0.0168 0.0135,0.0101 -0.0168,0.0202 -0.22208,0.11104 -0.45089,0.20525 -1.91795,0.77728 -3.3581,2.42941 -3.5398,4.06808 -0.074,0.6696 0.10431,1.50071 0.46098,2.15686 0.46098,0.8412 1.06665,1.53099 1.73962,1.97851 0.52491,0.34995 1.34257,0.68306 1.66895,0.68306 0.21872,0 0.31293,-0.0774 0.3062,-0.25236 0,-0.0101 0.0202,-0.0606 0.0505,-0.11777 0.0673,-0.13123 0.0639,-0.31293 -0.007,-0.39705 -0.0336,-0.0404 -0.24564,-0.15478 -0.47108,-0.25236 -0.5451,-0.24227 -0.87822,-0.45425 -1.19788,-0.76381 -0.2389,-0.22881 -0.27255,-0.27592 -0.34994,-0.50473 -0.11777,-0.34658 -0.14469,-0.90514 -0.0606,-1.24162 0.1817,-0.74026 0.79747,-1.46034 1.68242,-1.96506 0.14805,-0.0841 0.34657,-0.17834 0.44079,-0.20862 0.15478,-0.0505 0.18506,-0.0505 0.29274,-0.003 0.0807,0.0303 0.14132,0.0909 0.18506,0.17833 0.0673,0.12787 0.25573,0.68979 0.36341,1.07002 0.0303,0.11104 0.0639,0.20862 0.0774,0.21871 0.0236,0.0168 0.0404,0.11777 0.0404,0.21199 0,0.0336 0.0168,0.0505 0.037,0.037 0.0236,-0.0168 0.0303,0 0.0202,0.0471 -0.0135,0.0404 -0.007,0.074 0.0135,0.074 0.0202,0 0.0269,0.0303 0.0168,0.0673 -0.0101,0.0336 -0.007,0.0673 0.007,0.074 0.0236,0.0101 0.48117,1.81028 0.49463,1.94488 0.003,0.0471 0.0101,0.0908 0.0168,0.10094 0.003,0.0101 0.0101,0.0303 0.0135,0.0505 0.003,0.0168 0.0168,0.0572 0.0269,0.0841 0.0606,0.14133 0.60231,2.39576 0.60904,2.52699 0.0101,0.15478 0.007,0.15815 -0.11441,0.19516 -0.78064,0.23217 -2.37557,0.28601 -3.53307,0.11777 -1.53436,-0.22208 -3.02161,-0.83111 -4.04116,-1.6555 -0.35667,-0.28937 -0.82101,-0.784 -1.04982,-1.11712 -0.21199,-0.31966 -0.40378,-0.82775 -0.53501,-1.43005 -0.0976,-0.45089 -0.10767,-1.39304 -0.0168,-1.85066 0.21198,-1.07674 0.77727,-2.19723 1.62184,-3.21341 0.42061,-0.50472 1.35603,-1.42332 1.98525,-1.94823 0.61576,-0.51146 1.72616,-1.35603 2.01217,-1.52764 0.19516,-0.11776 0.21535,-0.12449 0.34658,-0.0807 z m 3.81571,5.64282 c 1.4065,0.28601 2.51016,1.09356 3.04181,2.22415 0.2288,0.4879 0.27255,0.6595 0.26918,1.10702 -0.003,0.59894 -0.16488,1.08011 -0.56865,1.70597 -0.249,0.38359 -0.80756,0.93879 -1.2248,1.21807 -0.30957,0.20526 -0.67633,0.40714 -0.74026,0.40714 -0.0673,0 -0.0841,-0.0572 -1.02964,-3.81908 -0.32639,-1.29545 -0.60231,-2.44623 -0.6124,-2.56063 -0.0168,-0.19179 -0.0135,-0.20862 0.074,-0.27592 0.12113,-0.0942 0.34657,-0.0976 0.79073,-0.007 z"
         sodipodi:nodetypes="ccccccscscccccccccccccccssssccccssscccccccccccccccsccccccccccsccccccccccccsccccscccccccccssccscccssccccccccccscccccccccccccsccscccccccccccccccccccccccsccccc" />
    </g>
  </g>
</svg>
