<?xml version="1.0" encoding="UTF-8"?>
<svg width="24" height="24" version="1.2" xmlns="http://www.w3.org/2000/svg"><path d="m16.595 2v20h-3.001v-20zm-4.5008 0v20h-0.94986v-20zm-3.5701 6.3799c0.62002 0 1.1204 0.49894 1.1204 1.119 0 0.62001-0.50041 1.1204-1.1204 1.1204s-1.119-0.50041-1.119-1.1204c0-0.62001 0.49894-1.119 1.119-1.119zm0 4.9993c0.62002 0 1.1204 0.50041 1.1204 1.1204 0 0.62001-0.50041 1.1204-1.1204 1.1204s-1.119-0.50041-1.119-1.1204c0-0.62002 0.49894-1.1204 1.119-1.1204z" fill="#2e3436"/></svg>
