<?xml version="1.0" encoding="UTF-8"?>
<svg width="24" height="24" version="1.2" xmlns="http://www.w3.org/2000/svg"><path d="m12.315 9.2454c-0.79034 0-1.4593 0.50363-1.4593 1.0909 0 0.29728 0.1851 0.50297 0.45338 0.50297 0.23928 0 0.41796-0.17868 0.41796-0.41796 0-0.12326-0.04708-0.20985-0.15585-0.32587-0.07252-0.07251-0.09916-0.11218-0.09916-0.16293 0-0.17402 0.36053-0.36129 0.70132-0.36129 0.48581 0 0.77925 0.27302 0.77925 0.72257 0 0.63807-0.46362 1.2539-0.94218 1.2539-0.02176 0-0.083-0.0069-0.17002-0.01417-0.21753-0.0145-0.22602-0.01417-0.25502-0.01417-0.15227 0-0.24086 0.06784-0.24086 0.19835 0 0.11601 0.07491 0.19127 0.20544 0.19127 0.03626 0 0.09076-0.0069 0.14876-0.01417 0.1015-0.02175 0.20377-0.02834 0.27628-0.02834 0.34079 0 0.56672 0.30136 0.56672 0.75091 0 0.34079-0.08151 0.67373-0.23377 0.94926-0.21752 0.39154-0.55588 0.58798-1.0272 0.58798-0.3988 0-0.75091-0.2001-0.75091-0.43213 0-0.07976 0.02567-0.11218 0.14168-0.16293 0.21027-0.09426 0.29753-0.22219 0.29753-0.41796 0-0.24653-0.20669-0.4463-0.46047-0.4463-0.31178 0-0.51714 0.24635-0.51714 0.6234 0 0.70333 0.53963 1.1405 1.4097 1.1405 1.0949 0 1.9269-0.72856 1.9269-1.7002 0-0.26103-0.08151-0.48463-0.23377-0.6659-0.15952-0.18852-0.30436-0.28103-0.6234-0.38254 0.07976-0.029 0.17543-0.05617 0.24794-0.07792 0.6018-0.21752 0.95633-0.66706 0.95633-1.2326 2e-6 -0.68158-0.55529-1.1547-1.3601-1.1547zm-10.059 2.359c-0.048301 5e-3 -0.094573 0.02209-0.1346 0.04959-0.00489 0.0046-0.00961 0.0093-0.014168 0.01417-0.00241 0.0023-0.00477 0.0047-0.0071 0.0071-0.00489 0.0046-0.00961 0.0093-0.014166 0.01417-0.00241 0.0023-0.00477 0.0047-0.0071 0.0071-0.00489 0.0046-0.00961 0.0093-0.014167 0.01417-0.00241 0.0023-0.00477 0.0047-0.00711 0.0071-0.00489 0.0046-0.00961 0.0093-0.014168 0.01417-2.89e-5 0.0024-2.89e-5 0.0047 0 0.0071-0.00504 0.0069-0.00976 0.01396-0.014167 0.02125-2.89e-5 0.0024-2.89e-5 0.0047 0 0.0071-0.00264 7e-3 -0.00501 0.01408-0.0071 0.02125-0.00504 0.0069-0.00976 0.01396-0.014168 0.02125-2.89e-5 0.0024-2.89e-5 0.0047 0 0.0071-2.89e-5 0.0024-2.89e-5 0.0047 0 0.0071-0.00264 7e-3 -0.00501 0.01408-0.0071 0.02125-2.9e-5 0.0024-2.9e-5 0.0047 0 0.0071-2.588e-4 0.0071-2.588e-4 0.01417 0 0.02125-2.588e-4 0.0071-2.588e-4 0.01417 0 0.02125-7.191e-4 0.01179-7.191e-4 0.02363 0 0.03542v2.5148c-0.026166 0.4126 0.60706 0.4126 0.5809 0v-2.2599h6.2198c0.41263 0.0262 0.41263-0.60709 0-0.58089h-6.489c-0.00708-2.58e-4 -0.014169-2.58e-4 -0.02125 0-0.00237-2.8e-5 -0.00474-2.8e-5 -0.0071 0-0.00944-4.6e-4 -0.018895-4.6e-4 -0.028334 0zm13.63 0c-0.37113 0.03323-0.34426 0.58394 0.02833 0.58089h5.4901v2.2598c-0.02621 0.41265 0.60711 0.41265 0.58089 0v-2.4582c0.03723-0.11153 0.0037-0.23451-0.08499-0.3117-0.04368-0.0387-0.09797-0.06339-0.15585-0.07084-0.0165-0.0014-0.03308-0.0014-0.04959 0h-5.7805c-0.0095-4.6e-4 -0.0189-4.6e-4 -0.02833 0z" color="#000000" color-rendering="auto" dominant-baseline="auto" fill="#2e3436" image-rendering="auto" shape-rendering="auto" solid-color="#000000" style="font-feature-settings:normal;font-variant-alternates:normal;font-variant-caps:normal;font-variant-ligatures:normal;font-variant-numeric:normal;font-variant-position:normal;isolation:auto;mix-blend-mode:normal;shape-padding:0;text-decoration-color:#000000;text-decoration-line:none;text-decoration-style:solid;text-indent:0;text-orientation:mixed;text-transform:none;white-space:normal"/></svg>
