<?xml version="1.0" encoding="UTF-8"?>
<svg width="24" height="24" version="1.2" xmlns="http://www.w3.org/2000/svg"><path d="m13.454 10.393-0.85009 2.7713c-0.51004 1.6832-2.0572 4.3354-3.7063 4.3354-0.76507 0-1.4791-0.45904-1.4791-1.1731 0-0.66306 0.28903-1.3091 0.88408-1.3091 0.40804 0 0.74808 0.34003 0.74808 0.74807 0 0.51005-0.64607 0.40804-0.64607 0.91808 0 0.17002 0.18702 0.18702 0.39104 0.18702h0.10206c0.81607 0 1.0371-0.98609 1.2411-1.8362l1.1561-4.6414h-0.83307c-0.18702 0-0.32304-0.13601-0.32304-0.32303 0-0.18702 0.13602-0.32303 0.32304-0.32303h1.0201c0.54406-1.6321 2.0062-3.2473 3.6213-3.2473 0.76507 0 1.4791 0.45904 1.4791 1.1731 0 0.66306-0.28902 1.3091-0.88408 1.3091-0.40803 0-0.74807-0.32303-0.74807-0.73107 0-0.51005 0.64606-0.42504 0.64606-0.93508 0-0.17002-0.17001-0.18702-0.37403-0.18702h-0.119c-1.0541 0-1.1901 1.4961-1.4621 2.6182h0.93508c0.18702 0 0.32303 0.13601 0.32303 0.32303 0 0.18702-0.13601 0.32303-0.32303 0.32303z" fill="#232629"/></svg>
