<?xml version="1.0" encoding="UTF-8"?>
<svg width="24" height="24" version="1.2" xmlns="http://www.w3.org/2000/svg"><path d="m5.2334 9.5801c-1.0201 0-1.7341 1.2736-2.2441 2.4297-0.01701 0.051-0.03321 0.10272-0.03321 0.13672 0 0.13601 0.10032 0.20508 0.23633 0.20508 0.15301 1e-6 0.3232-0.08504 0.4082-0.28906 0.27202-0.62906 0.7827-1.6504 1.3438-1.6504 0.15302 0 0.1875 0.10227 0.1875 0.23828 0 0.10201-0.03436 0.22083-0.06836 0.33984l-1.7344 5.1016c-0.11901 0.34003-0.54394 0.40683-0.91797 0.42383-0.28903 0.017-0.81641-0.03259-0.81641 0.27344 0 0.11901 0.08527 0.23633 0.23828 0.23633 0.62906 0 1.292-0.08398 1.9551-0.08398 0.64606 0 1.3266 0.08398 1.9727 0.08398 0.15302 0 0.2207-0.11732 0.2207-0.23633 0-0.10201-0.06768-0.22128-0.2207-0.23828-0.39103-0.034-0.74805-0.13653-0.74805-0.47656 0-0.034-0.00137-0.08514 0.01563-0.11914l0.49414-1.4629c0.034-0.10201 0.15247-0.15234 0.27148-0.15234 0.068 0 0.1195 0.01678 0.1875 0.05078 0.35704 0.20402 0.7812 0.28906 1.2402 0.28906 0.95208 0 2.16-1.0373 2.5-2.0234 0.080417-0.23121 0.12924-0.45942 0.16211-0.68359 0.27959-0.63169 0.76388-1.5605 1.3008-1.5605 0.15302 0 0.1875 0.10227 0.1875 0.23828-1e-6 0.10201-0.03436 0.22083-0.06836 0.33984l-1.7344 5.1016c-0.11901 0.34003-0.54394 0.40683-0.91797 0.42383-0.28903 0.017-0.8164-0.03259-0.8164 0.27344 0 0.11901 0.08527 0.23633 0.23828 0.23633 0.62906 0 1.292-0.08398 1.9551-0.08398 0.64606 0 1.3266 0.08398 1.9727 0.08398 0.15301 0 0.2207-0.11732 0.2207-0.23633 0-0.10201-0.06769-0.22128-0.2207-0.23828-0.39104-0.034-0.74805-0.13653-0.74805-0.47656 0-0.034 5.78e-4 -0.08514 0.01758-0.11914l0.49219-1.4629c0.034-0.10201 0.15247-0.15234 0.27148-0.15234 0.06801 0 0.11949 0.01678 0.1875 0.05078 0.35703 0.20402 0.78314 0.28906 1.2422 0.28906 0.95209 0 2.158-1.0373 2.498-2.0234 0.08065-0.23188 0.12928-0.46076 0.16211-0.68555 0.2797-0.63167 0.76431-1.5586 1.3008-1.5586 0.15302 0 0.1875 0.10227 0.1875 0.23828 0 0.10201-0.03436 0.22083-0.06836 0.33984l-1.7344 5.1016c-0.11901 0.34003-0.54394 0.40683-0.91797 0.42383-0.28903 0.017-0.81641-0.03259-0.81641 0.27344 1e-6 0.11901 0.08527 0.23633 0.23828 0.23633 0.62906 0 1.292-0.08398 1.9551-0.08398 0.64606 0 1.3266 0.08398 1.9727 0.08398 0.15301 0 0.2207-0.11732 0.2207-0.23633 0-0.10201-0.06769-0.22128-0.2207-0.23828-0.39104-0.034-0.74805-0.13653-0.74805-0.47656 0-0.034-0.0014-0.08514 0.01563-0.11914l0.49414-1.4629c0.034-0.10201 0.15247-0.15234 0.27148-0.15234 0.06801 0 0.11949 0.01678 0.1875 0.05078 0.35703 0.20402 0.78119 0.28906 1.2402 0.28906 0.95209 0 2.16-1.0373 2.5-2.0234 0.13601-0.39104 0.20312-0.78164 0.20312-1.1387 0-1.1051-0.64525-1.9375-1.8184-1.9375-0.61206 0-1.2589 0.35576-1.752 0.88281-0.11901-0.52705-0.52604-0.88281-1.1211-0.88281-0.67388 0-1.2044 0.57218-1.6406 1.2832-0.21095-0.76159-0.80102-1.2832-1.7266-1.2832-0.61206 0-1.257 0.35576-1.75 0.88281-0.11901-0.52705-0.52799-0.88281-1.123-0.88281-0.67399 0-1.2044 0.57203-1.6406 1.2832-0.21096-0.76159-0.80102-1.2832-1.7266-1.2832-0.61206 0-1.2589 0.35576-1.752 0.88281-0.11901-0.52705-0.52604-0.88281-1.1211-0.88281zm2.584 0.83203c0.30603 0 0.42578 0.25452 0.42578 0.56055 0 0.88408-0.56229 3.0273-1.6504 3.0273-0.37403 0-0.50977-0.27245-0.50977-0.64648 0-1.1221 0.78229-2.9414 1.7344-2.9414zm6.2402 0c0.30603 0 0.42578 0.25452 0.42578 0.56055 0 0.88408-0.56229 3.0273-1.6504 3.0273-0.37404 0-0.50977-0.27245-0.50977-0.64648 0-1.1221 0.78229-2.9414 1.7344-2.9414zm6.2402 0c0.30603 0 0.42578 0.25452 0.42578 0.56055 0 0.88408-0.56229 3.0273-1.6504 3.0273-0.37404 0-0.50976-0.27245-0.50976-0.64648 0-1.1221 0.78229-2.9414 1.7344-2.9414z" fill="#232629"/></svg>
