<?xml version="1.0" encoding="UTF-8"?>
<svg width="24" height="24" version="1.2" xmlns="http://www.w3.org/2000/svg"><path d="m7.4658 9.4609c-1.1391 0-2.0912 1.3094-2.5332 2.6016-0.017 0.034-0.033203 0.06756-0.033203 0.10156 0 0.11901 0.084114 0.1875 0.20312 0.1875 0.13601 0 0.32457-0.10204 0.39258-0.28906 0.20402-0.57805 0.62805-1.4805 1.1211-1.4805 0.17001 0 0.2207 0.11905 0.2207 0.28906 0 0.08501 7.97e-4 0.17085-0.033203 0.25586l-1.0723 3.1113c-0.051004 0.17002 0.035062 0.30664 0.20508 0.30664h0.69727c0.17002 0 0.35719-0.13662 0.4082-0.30664l1.0527-3.0938c0.10201-0.28903 0.42524-0.5625 0.69727-0.5625 0.15301 0 0.22266 0.12042 0.22266 0.27344 0 0.08501-0.018734 0.16948-0.052734 0.27148l-0.88281 3.1113c-0.051004 0.17002 0.050688 0.30664 0.2207 0.30664h0.69726c0.17002 0 0.32204-0.13662 0.37305-0.30664l0.90234-3.1113c0.10201-0.27202 0.39008-0.54492 0.66211-0.54492 0.17001 0 0.23828 0.13662 0.23828 0.30664-1e-6 0.08501-0.0162 0.15327-0.0332 0.23828l-0.66406 2.8047c-0.017 0.06801-0.01758 0.11949-0.01758 0.1875 0 0.32303 0.20489 0.54297 0.54492 0.54297 0.78207 0 1.5465-0.62738 2.2266-1.2734 0.068-0.06801 0.11914-0.13707 0.11914-0.20508 0-0.102-0.08549-0.16992-0.1875-0.16992-0.06801 0-0.15269 0.03355-0.2207 0.10156-0.35703 0.34003-0.66144 0.52734-0.81445 0.52734-0.08501 0-0.11914-0.04976-0.11914-0.13477 0-0.017 0.01563-0.05194 0.01563-0.08594l0.25781-1.0977c0.02946 0.0091 0.05271 0.02734 0.08789 0.02734 0.15301 1e-6 0.32319-0.08504 0.4082-0.28906 0.27202-0.62906 0.7827-1.6504 1.3438-1.6504 0.15302 0 0.1875 0.10227 0.1875 0.23828 0 0.10201-0.03436 0.22083-0.06836 0.33984l-1.7344 5.1016c-0.11901 0.34003-0.54394 0.40683-0.91797 0.42383-0.28903 0.017-0.81641-0.03259-0.81641 0.27344 0 0.11901 0.08527 0.23633 0.23828 0.23633 0.62906 0 1.292-0.08398 1.9551-0.08398 0.64606 0 1.3266 0.08398 1.9727 0.08398 0.15301 0 0.2207-0.11732 0.2207-0.23633 1e-6 -0.10201-0.06769-0.22128-0.2207-0.23828-0.39104-0.034-0.74805-0.13653-0.74805-0.47656 1e-6 -0.034-0.0014-0.08514 0.01563-0.11914l0.49414-1.4629c0.034-0.10201 0.15247-0.15234 0.27148-0.15234 0.06801 0 0.11949 0.01678 0.1875 0.05078 0.35703 0.20402 0.78119 0.28906 1.2402 0.28906 0.95209 0 2.16-1.0373 2.5-2.0234 0.13601-0.39104 0.20312-0.78164 0.20312-1.1387 0-1.1051-0.64525-1.9375-1.8184-1.9375-0.61206 0-1.2589 0.35576-1.752 0.88281-0.11901-0.52705-0.52604-0.88281-1.1211-0.88281-0.79834 0-1.4046 0.78207-1.877 1.6758l0.08594-0.36719c0.017-0.08501 0.0332-0.17085 0.0332-0.25586 0-0.57805-0.4409-1.1719-1.002-1.1719-0.49304 0-0.98729 0.32221-1.3613 0.78125-0.10202-0.42503-0.35702-0.78124-0.74806-0.78124-0.51005 0-1.0029 0.32163-1.377 0.76367-0.085008-0.42504-0.32323-0.76367-0.69727-0.76367zm9.5273 0.95117c0.30603 0 0.42578 0.25452 0.42578 0.56055 0 0.88408-0.56229 3.0273-1.6504 3.0273-0.37404 0-0.50977-0.27245-0.50977-0.64648 0-1.1221 0.78229-2.9414 1.7344-2.9414z" fill="#232629"/></svg>
