<?xml version="1.0" encoding="UTF-8"?>
<svg width="24" height="24" version="1.2" xmlns="http://www.w3.org/2000/svg"><path d="m12.419 6.5c-1.6151 0-3.077 1.6159-3.6211 3.248h-1.0215c-0.18702 0-0.32227 0.13525-0.32227 0.32227 0 0.18702 0.13525 0.32227 0.32227 0.32227h0.83398l-1.1562 4.6426c-0.20402 0.85008-0.42416 1.8359-1.2402 1.8359h-0.10352c-0.20402 0-0.39062-0.01749-0.39062-0.1875 0-0.51005 0.64648-0.40792 0.64648-0.91797 0-0.40804-0.34001-0.74805-0.74805-0.74805-0.59505 0-0.88477 0.64553-0.88477 1.3086 0 0.71406 0.7154 1.1738 1.4805 1.1738 1.6492 0 3.195-2.6528 3.7051-4.3359l0.85156-2.7715h1.1211c0.18702 0 0.32226-0.13525 0.32226-0.32227 0-0.18702-0.13525-0.32227-0.32226-0.32227h-0.93555c0.27202-1.1221 0.40879-2.6191 1.4629-2.6191h0.11914c0.20402 1e-7 0.37305 0.017485 0.37305 0.1875 0 0.51005-0.64453 0.4255-0.64453 0.93555 0 0.40804 0.34001 0.73047 0.74805 0.73047 0.59505 0 0.88281-0.64553 0.88281-1.3086 0-0.71407-0.71345-1.1738-1.4785-1.1738zm5.3691 0c-1.6151 0-3.077 1.6159-3.6211 3.248h-1.0195c-0.18702 0-0.32422 0.13525-0.32422 0.32227 0 0.18702 0.1372 0.32227 0.32422 0.32227h0.83203l-1.1562 4.6426c-0.20402 0.85008-0.42416 1.8359-1.2402 1.8359h-0.10156c-0.20402 0-0.39258-0.01749-0.39258-0.1875 0-0.51005 0.64648-0.40792 0.64648-0.91797 0-0.40804-0.34001-0.74805-0.74805-0.74805-0.59505 0-0.88281 0.64553-0.88281 1.3086 0 0.71406 0.71345 1.1738 1.4785 1.1738 1.6492 0 3.195-2.6528 3.7051-4.3359l0.85156-2.7715h1.1211c0.18702 0 0.32422-0.13525 0.32422-0.32227 0-0.18702-0.1372-0.32227-0.32422-0.32227h-0.93555c0.27202-1.1221 0.40879-2.6191 1.4629-2.6191h0.11914c0.20402 1e-7 0.375 0.017485 0.375 0.1875 0 0.51005-0.64648 0.4255-0.64648 0.93555 0 0.40804 0.34001 0.73047 0.74805 0.73047 0.59505 0 0.88281-0.64553 0.88281-1.3086 0-0.71407-0.71345-1.1738-1.4785-1.1738z" fill="#2e3436"/></svg>
