<?xml version="1.0" encoding="UTF-8"?>
<svg id="svg4" width="16" height="16" version="1.2" xmlns="http://www.w3.org/2000/svg">
 <path id="path2" d="m10.161 0.42388-1.6378 1.6378v-0.36731c7e-7 -0.20213-0.18142-0.38489-0.38354-0.38489s-0.36335 0.18277-0.36335 0.38489v1.1142l-0.96223 0.96223c-0.39456 0.39456-0.61636 0.92813-0.61636 1.4871v3.1571h1.5786v1.7886l-0.92992 0.32433c-0.1617 0.060635-0.26243 0.22184-0.26243 0.38354v1.2126c0 0.22234 0.18274 0.40508 0.40508 0.40508 0.040419 0 0.10087 2e-5 0.14131-0.02019l0.64597-0.24224v2.9298c0 0.20214 0.16258 0.38354 0.36471 0.38354s0.3822-0.18141 0.3822-0.38354v-3.1935l1.6781-0.62713v2.9325c0 0.20214 0.18277 0.38354 0.38489 0.38354 0.20213 0 0.3647-0.18142 0.3647-0.38354v-3.1948l0.92861-0.34317c0.1617-0.06063 0.26242-0.203 0.26242-0.3647v-1.2126c0-0.22234-0.18138-0.40373-0.40373-0.40373-0.04042 0-0.10087-1.86e-5 -0.14131 0.020189l-0.64597 0.22205v-1.3418l4.2661-4.2661v-2.9109l-3.0899 3.0912c-0.045541-0.17328-0.20184-0.3028-0.38892-0.3028-0.04042 0-0.10087-0.00137-0.14131 0.018841l-0.64597 0.24224v-1.0174l2.1209-2.1209c-0.95525-0.008961-2.0087 7.26e-6 -2.9108-3.065e-5zm-8.8326 0.13332c-0.18192 0-0.38333 0.060431-0.54504 0.1615l0.24224 12.026c0 0.28298 0.20152 0.50601 0.46429 0.50601 0.42447 0 0.60653-0.50568 0.90973-0.76841 1.233-1.0511 2.9728-1.7998 2.9728-3.4169 0-1.0915-0.74953-2.0603-1.8006-2.0603-0.66703 0-1.3344 0.26187-1.8396 0.68634l0.14131-6.9723c-0.1617-0.10106-0.36312-0.1615-0.54504-0.1615zm8.8727 2.9082v0.36058l-0.85054 0.3176 0.85054-0.85054zm-7.2548 4.3872c0.58617 0 0.86935 0.68813 0.86935 1.3552 0 1.1925-0.9705 2.0405-1.88 2.8086-0.060638-0.44469-0.080748-0.88761-0.080748-1.3323v-0.2234l0.018841-1.3336c0.020213-0.66703 0.44596-1.2744 1.0725-1.2744zm7.2548 0.38212v1.0808l-1.6768 0.6056v-1.506h0.83035c0.29525 0 0.58215-0.063791 0.84648-0.18033z" fill="#2e3436" stroke-width=".75794"/>
</svg>
