<?xml version="1.0" encoding="UTF-8"?>
<svg id="svg4" width="16px" height="16px" version="1.1" viewBox="0 0 16 16" xmlns="http://www.w3.org/2000/svg">
 <path id="path237" d="m11.477 7.5241c-0.24271 0-0.45894 0.15445-0.53617 0.38613l-0.8186 2.4514-2.5926-0.0089c-0.55382-0.0021-0.78109 0.71052-0.32876 1.0282l2.0476 1.443-0.84728 2.4205c-0.17872 0.50969 0.38834 0.9554 0.84287 0.66194l2.2616-1.4651 2.1998 1.4607c0.45232 0.30008 1.026-0.14563 0.84728-0.65532l-0.84949-2.4227 2.0586-1.4563c0.4457-0.31773 0.22285-1.0216-0.32435-1.0238l-2.6323-0.008838-0.79212-2.4205c-0.07502-0.23168-0.29125-0.38834-0.53617-0.39054zm-4.4775-7.5241c-0.55469 0-1 0.44531-1 1h-2c-1.6445 0-3 1.3555-3 3v9c0 1.6445 1.3555 3 3 3h2.9454v-2h-2.9454c-0.57031 0-1-0.42969-1-1v-9c0-0.57031 0.42969-1 1-1h1v1c0 0.55469 0.44531 1 1 1h4c0.55469 0 1-0.44531 1-1v-1h1c0.57031 0 1 0.42969 1 1v4.1089h2v-4.1089c0-1.6445-1.3555-3-3-3h-2c0-0.55469-0.44531-1-1-1z" fill="#232629" stroke-width=".56485"/>
</svg>
