<?xml version="1.0" encoding="UTF-8" standalone="no"?>
<svg
   width="24"
   height="24"
   version="1.2"
   id="svg4"
   sodipodi:docname="edit_mode_edition_no_natural.svg"
   inkscape:version="1.2.2 (b0a8486541, 2022-12-01)"
   xmlns:inkscape="http://www.inkscape.org/namespaces/inkscape"
   xmlns:sodipodi="http://sodipodi.sourceforge.net/DTD/sodipodi-0.dtd"
   xmlns="http://www.w3.org/2000/svg"
   xmlns:svg="http://www.w3.org/2000/svg">
  <defs
     id="defs8" />
  <sodipodi:namedview
     id="namedview6"
     pagecolor="#ffffff"
     bordercolor="#666666"
     borderopacity="1.0"
     inkscape:showpageshadow="2"
     inkscape:pageopacity="0.0"
     inkscape:pagecheckerboard="0"
     inkscape:deskcolor="#d1d1d1"
     showgrid="false"
     inkscape:zoom="28.291667"
     inkscape:cx="12"
     inkscape:cy="12"
     inkscape:window-width="1920"
     inkscape:window-height="888"
     inkscape:window-x="0"
     inkscape:window-y="0"
     inkscape:window-maximized="1"
     inkscape:current-layer="svg4" />
  <path
     id="path2"
     fill="#232629"
     style="stroke-width:1.1"
     d="M 15.984375 1 C 15.80012 1.0000001 15.626745 1.1040286 15.523438 1.2539062 L 15.367188 1.2539062 L 12.990234 3.6308594 L 12.990234 2.8476562 C 12.990235 2.5542988 12.72694 2.2890625 12.433594 2.2890625 C 12.140248 2.2890625 11.90625 2.5543098 11.90625 2.8476562 L 11.90625 4.7148438 L 10.509766 6.1113281 C 9.9371348 6.6839581 9.6152344 7.458304 9.6152344 8.2695312 L 9.6152344 12.851562 L 11.90625 12.851562 L 11.90625 15.197266 L 10.556641 15.667969 C 10.321957 15.755969 10.175781 15.989926 10.175781 16.224609 L 10.175781 17.984375 C 10.175781 18.307059 10.440988 18.572266 10.763672 18.572266 C 10.822332 18.572266 10.910076 18.572294 10.96875 18.542969 L 11.90625 18.191406 L 11.90625 22.443359 C 11.90625 22.736717 12.142201 23 12.435547 23 C 12.728894 23 12.990234 22.736717 12.990234 22.443359 L 12.990234 17.808594 L 15.425781 16.898438 L 15.425781 21.154297 C 15.425781 21.447655 15.691028 21.710937 15.984375 21.710938 C 16.277722 21.710938 16.513672 21.447644 16.513672 21.154297 L 16.513672 16.517578 L 17.861328 16.019531 C 18.096012 15.931531 18.242188 15.724918 18.242188 15.490234 L 18.242188 13.730469 C 18.242188 13.407775 17.978944 13.144531 17.65625 13.144531 C 17.59759 13.144531 17.509846 13.144504 17.451172 13.173828 L 16.513672 13.496094 L 16.513672 11.798828 L 22.705078 5.6074219 L 22.705078 1.3828125 L 18.220703 5.8691406 C 18.154609 5.6176552 17.927765 5.4296875 17.65625 5.4296875 C 17.59759 5.4296875 17.509846 5.4276933 17.451172 5.4570312 L 16.513672 5.8085938 L 16.513672 4.3320312 L 19.591797 1.2539062 L 16.425781 1.2539062 C 16.331334 1.104016 16.168633 1 15.984375 1 z M 2.5488281 1.1972656 C 2.2848075 1.1972656 1.9924963 1.2849698 1.7578125 1.4316406 L 2.109375 18.884766 C 2.109375 19.295459 2.4018462 19.619141 2.7832031 19.619141 C 3.3992438 19.619141 3.663463 18.885241 4.1035156 18.503906 C 5.8929859 16.978434 8.4179688 15.89176 8.4179688 13.544922 C 8.4179688 11.96082 7.3301484 10.554688 5.8046875 10.554688 C 4.8366268 10.554688 3.8681317 10.934741 3.1347656 11.550781 L 3.3398438 1.4316406 C 3.10516 1.2849675 2.8128487 1.1972656 2.5488281 1.1972656 z M 15.425781 5.4179688 L 15.425781 6.1914062 L 14.191406 6.6523438 L 15.425781 5.4179688 z M 4.8964844 11.785156 C 5.7472088 11.785156 6.1582031 12.783849 6.1582031 13.751953 C 6.1582031 15.482684 4.7496804 16.71339 3.4296875 17.828125 C 3.3416825 17.182747 3.3125 16.539898 3.3125 15.894531 L 3.3125 15.570312 L 3.3398438 13.634766 C 3.3691787 12.666705 3.9870753 11.785156 4.8964844 11.785156 z M 15.425781 12.589844 L 15.425781 13.908203 L 12.992188 14.787109 L 12.992188 12.851562 L 14.197266 12.851562 C 14.625771 12.851562 15.042151 12.758984 15.425781 12.589844 z " />
</svg>
