<?xml version="1.0" encoding="UTF-8"?>
<svg width="24" height="24" version="1.2" xmlns="http://www.w3.org/2000/svg"><path d="m3.547 15.204c-0.16575 0.22099-0.44199 0.33149-0.66298 0.33149-0.44199 0-0.88398-0.38674-0.88398-0.88398 0-0.16575 0.055249-0.38674 0.22099-0.55249l5.9116-7.0718c0.33149-0.44199 0.71823-0.60773 1.105-0.60773 1.326 0 2.8177 2.1547 4.3094 3.7569 0.77348 0.82873 1.8785 1.2707 2.9282 1.2707 0.93923 0 1.8232-0.27624 2.5967-0.93923l1.3812-1.7127c0.16575-0.22099 0.44199-0.33149 0.66298-0.33149 0.44199 0 0.88398 0.38674 0.88398 0.88398 0 0.16575-0.05525 0.38674-0.22099 0.55249l-5.9116 7.0718c-0.33149 0.44199-0.71823 0.60773-1.105 0.60773-1.326 0-2.8177-2.1547-4.3094-3.7569-0.77348-0.82873-1.8785-1.2707-2.9282-1.2707-0.93923 0-1.8232 0.27624-2.5967 0.93923z" fill="#232629"/></svg>
