<?xml version="1.0" encoding="UTF-8" standalone="no"?>
<svg
   width="24"
   height="24"
   version="1.2"
   id="svg4"
   sodipodi:docname="effect_let_ring.svg"
   inkscape:version="1.2.2 (b0a8486541, 2022-12-01)"
   xmlns:inkscape="http://www.inkscape.org/namespaces/inkscape"
   xmlns:sodipodi="http://sodipodi.sourceforge.net/DTD/sodipodi-0.dtd"
   xmlns="http://www.w3.org/2000/svg"
   xmlns:svg="http://www.w3.org/2000/svg">
  <defs
     id="defs8" />
  <sodipodi:namedview
     id="namedview6"
     pagecolor="#ffffff"
     bordercolor="#666666"
     borderopacity="1.0"
     inkscape:showpageshadow="2"
     inkscape:pageopacity="0.0"
     inkscape:pagecheckerboard="0"
     inkscape:deskcolor="#d1d1d1"
     showgrid="false"
     inkscape:zoom="15.479167"
     inkscape:cx="-0.12920592"
     inkscape:cy="14.82638"
     inkscape:window-width="1920"
     inkscape:window-height="888"
     inkscape:window-x="0"
     inkscape:window-y="0"
     inkscape:window-maximized="1"
     inkscape:current-layer="svg4" />
  <path
     id="path405"
     fill="#232629"
     style="font-weight:bold;font-size:10.238px;line-height:1.25;font-family:serif;-inkscape-font-specification:'serif, Bold';letter-spacing:0px;word-spacing:0px;stroke-width:1.01714"
     d="M 11.705824,15.614014 V 15.0714 h 0.4829 q 0.229953,0 0.402417,-0.10238 0.183962,-0.10238 0.183962,-0.5119 V 9.471214 q 0,-0.40952 -0.183962,-0.5119 -0.172464,-0.112618 -0.402417,-0.112618 h -0.4829 V 8.304082 h 3.702235 q 1.632663,0 2.391506,0.491424 0.758843,0.481186 0.758843,1.402606 0,0.542614 -0.229953,0.92142 -0.229952,0.378806 -0.586378,0.624518 -0.356427,0.245712 -0.747346,0.389044 l 1.368217,2.09879 q 0.298939,0.440234 0.563384,0.644994 0.264445,0.194522 0.586379,0.194522 h 0.04599 v 0.542614 h -0.379422 q -0.689857,0 -1.149762,-0.07167 -0.459905,-0.07167 -0.770341,-0.266188 -0.298938,-0.20476 -0.540388,-0.583566 l -1.368217,-2.25236 h -0.758844 v 2.016886 q 0,0.40952 0.172465,0.5119 0.183962,0.10238 0.413914,0.10238 h 0.494398 v 0.542614 z m 3.529771,-3.767584 q 0.793336,0 1.092274,-0.378806 0.298938,-0.378806 0.298938,-1.12618 0,-0.778088 -0.321933,-1.105704 Q 15.98294,8.908124 15.212599,8.908124 H 14.591728 V 11.84643 Z M 2.0002,15.614014 V 15.0714 h 0.4891895 q 0.2562421,0 0.4193053,-0.112618 0.1747106,-0.112618 0.1747106,-0.552852 V 9.512166 q 0,-0.440234 -0.1747106,-0.552852 Q 2.7456316,8.846696 2.4893895,8.846696 H 2.0002 V 8.304082 H 6.0185423 V 8.846696 H 5.5293529 q -0.2445948,0 -0.4193054,0.112618 -0.1747105,0.10238 -0.1747105,0.5119 v 5.518282 h 2.1664107 q 0.4076578,0 0.6289578,-0.225236 0.2329474,-0.235474 0.3377737,-0.66547 l 0.1863579,-0.76785 h 0.6522527 l -0.081532,2.283074 z m 19.0545,-1.826306 c -0.52724,0 -0.9541,0.42688 -0.9541,0.9541 0,0.5171 0.419,0.95411 0.9361,0.95411 0.53737,0 0.9631,-0.42688 0.9631,-0.95411 0,-0.52724 -0.41787,-0.9541 -0.9451,-0.9541 z m -10.835877,0 c -0.5272404,0 -0.9541004,0.42688 -0.9541004,0.9541 0,0.5171 0.419,0.95411 0.9361004,0.95411 0.53737,0 0.9631,-0.42688 0.9631,-0.95411 0,-0.52724 -0.41787,-0.9541 -0.9451,-0.9541 z" />
</svg>
