<?xml version="1.0" encoding="UTF-8"?>
<svg width="24" height="24" version="1.2" xmlns="http://www.w3.org/2000/svg"><path d="m2 8.0751v0.55806h0.15302c0.52724 0 0.73684 0.042399 0.82809 0.14402 0.070976 0.091249 0.072009 0.11618 0.072009 0.76508v4.3925c0 0.64891-0.00103 0.68283-0.072009 0.77408-0.091253 0.10139-0.30085 0.13503-0.82809 0.13503h-0.15302v0.54906h4.0144v-0.54908h-0.22502c-0.53738 0-0.74584-0.03364-0.83709-0.13503-0.070976-0.09124-0.072007-0.12517-0.072007-0.77409v-1.6832h1.1341c2.1191 0 3.1953-0.72275 3.1953-2.1422 0-0.76043-0.37721-1.379-1.0261-1.6832-0.54752-0.25348-1.1463-0.35104-2.1602-0.35104zm7.8577 0v0.54906h0.11701c0.53738 0 0.74584 0.041477 0.83709 0.153 0.07098 0.08111 0.07201 0.11733 0.07201 0.75608v3.6634c0 0.89225-0.04811 1.1541-0.26103 1.3771-0.16222 0.17236-0.43266 0.25987-0.82809 0.27001v0.54906h2.8893v-0.54903c-0.40555-0.010144-0.69287-0.097652-0.85509-0.27001-0.21292-0.22305-0.26103-0.47476-0.26103-1.3771v-4.2215l2.2952 6.4177h0.53106l2.2412-6.5167v5.0585c0 0.63877-1e-3 0.68397-0.07202 0.76509-0.09126 0.11153-0.29974 0.14402-0.83709 0.14402h-0.11701v0.54906h3.8704v-0.54908h-0.10802c-0.53738 0-0.74584-0.03226-0.83709-0.14402-0.07097-0.08111-0.07202-0.13645-0.07202-0.76508v-4.4015c0-0.62863 1e-3 -0.67496 0.07202-0.75608 0.09126-0.11153 0.29969-0.153 0.83709-0.153h0.10802v-0.54908h-3.3033l-1.4762 4.3565-1.5752-4.3565zm-4.4193 0.55806h0.40504c0.96322 0 1.4132 0.45325 1.4132 1.4672 0 1.166-0.48324 1.5932-1.7912 1.5932h-0.58507v-2.4483c0-0.49682 0.1018-0.61206 0.55806-0.61206zm2.8621 5.0045c-0.52724 0-0.9541 0.42688-0.9541 0.9541 0 0.5171 0.419 0.95411 0.9361 0.95411 0.53737 0 0.9631-0.42688 0.9631-0.95411 0-0.52724-0.41787-0.9541-0.9451-0.9541zm12.745 0c-0.52724 0-0.9451 0.42688-0.9451 0.9541 0 0.5171 0.419 0.95411 0.9361 0.95411 0.53737 0 0.9631-0.42688 0.9631-0.95411 0-0.52724-0.42689-0.9541-0.9541-0.9541z" fill="#232629" stroke-width="4.6085"/></svg>
