<?xml version="1.0" encoding="UTF-8"?>
<svg width="24" height="24" version="1.2" xmlns="http://www.w3.org/2000/svg"><path d="m2.8347 14.155c0 0.73456 0.56761 1.0017 1.3022 1.0017 1.3022 0 2.404-0.46745 3.4391-0.93489l0.16694-0.80134c-0.76795-0.56761-1.6694-0.96828-2.7045-0.96828-1.0684 0-2.2037 0.53422-2.2037 1.7028zm9.0484 4.1068c0 2.0367-1.5693 3.8397-3.2721 3.8397-1.3022 0-1.8698-1.4691-1.8698-3.0384 0-0.46744 0.033389-0.93489 0.13356-1.3689l0.50083-2.5376c-1.0351 0.43406-2.0701 0.83472-3.3723 0.83472-1.1686 0-2.0033-0.601-2.0033-1.7028 0-1.7028 1.6361-2.6711 3.2053-2.6711 1.0351 0 1.9366 0.33389 2.7379 0.83472l1.5359-7.7462c0.20033 0.10017 0.43406 0.16694 0.66778 0.16694 0.73456 0 1.6027-0.53422 2.2705-1.1686l-1.7696 8.8815 2.1369-1.202c0.86811-0.46745 1.7028-0.66778 2.4708-0.66778 0.96828 0 1.7696 0.33389 2.1369 0.93489 0.601-0.66778 1.4691-1.0017 2.3038-1.0017 1.202 0 2.3038 0.73456 2.3038 2.3038 0 1.5025-0.9015 3.005-2.1703 3.005-0.83473 0-1.2688-0.73456-1.2688-1.6027 0-1.3689 0.96828-2.1369 2.0033-2.1369h0.10017c-0.26711-0.46744-0.76795-0.66778-1.2688-0.66778-0.80134 0-1.6694 0.53422-1.8364 1.4357l-1.803 9.015c-0.36728-0.23372-0.80134-0.36728-1.2688-0.36728-0.46745 0-0.96828 0.13356-1.4357 0.36728l1.803-9.015v-0.23372c0-0.53422-0.40067-0.86812-0.96828-0.86812-0.23372 0-0.53422 0.10017-0.80134 0.23372l-2.6377 1.4691-0.23372 1.0351c0.9015 1.0351 1.6694 2.2371 1.6694 3.6394zm-2.0033 2.1703c0.76795 0 1.1686-1.1352 1.1686-2.0367 0-1.0017-0.46745-1.8364-1.0684-2.6043l-0.16694 0.9015c-0.13356 0.601-0.43406 1.8698-0.43406 2.7713 0 0.56761 0.13356 0.96828 0.50084 0.96828z" fill="#232629"/></svg>
