<?xml version="1.0" encoding="UTF-8"?>
<svg width="24" height="24" version="1.2" xmlns="http://www.w3.org/2000/svg"><path d="m19.335 4h-14.67l-0.3324 6.0056h1.1745c0.28808-1.6399 0.59831-2.5042 1.1302-3.2798 0.70911-1.0637 1.5513-1.5734 2.5707-1.5734 0.66479 0 0.79775 0.15512 0.79775 0.90855v10.748c0 1.3961 0 1.4848-0.15512 1.6621-0.19944 0.24376-0.66479 0.3324-1.8394 0.3324h-0.48751v1.1967h8.953v-1.1967h-0.48752c-1.1745 0-1.6399-0.08864-1.8393-0.3324-0.15512-0.17728-0.15512-0.26592-0.15512-1.6621v-10.748c0-0.75343 0.13296-0.90855 0.79775-0.90855 0.95287 0 1.6842 0.39888 2.3934 1.3075 0.62047 0.81991 0.97503 1.7507 1.3075 3.5457h1.1745z" fill="#232629"/></svg>
