<?xml version="1.0" encoding="UTF-8"?>
<svg width="24" height="24" version="1.2" xmlns="http://www.w3.org/2000/svg"><path d="m15.084 2c-0.12031 0-0.2168 0.096486-0.2168 0.2168v10.775c-0.44224-0.33875-1.0422-0.50391-1.6621-0.50391-0.89039 0-1.7592 0.3252-2.541 0.78125-1.0207 0.60807-2.2363 1.6727-2.2363 3.2363 0 1.3464 1.151 1.9766 2.3672 1.9766 0.89039 0 1.7592-0.32715 2.541-0.7832 1.0207-0.60807 2.2363-1.6708 2.2363-3.2344 0-0.06053-0.01498-0.11228-0.01953-0.16992 0.0042-0.017 0.01953-0.02853 0.01953-0.04687v-12.031c0-0.12031-0.096486-0.2168-0.2168-0.2168zm-3.084 17.828c-0.60807 0-1.0859 0.47787-1.0859 1.0859 0 0.60807 0.47787 1.0859 1.0859 1.0859 0.60807 0 1.0859-0.47787 1.0859-1.0859s-0.47787-1.0859-1.0859-1.0859z" fill="#232629"/></svg>
