<?xml version="1.0" encoding="UTF-8"?>
<svg width="24" height="24" version="1.2" xmlns="http://www.w3.org/2000/svg"><path d="m10.416 13.13h2.482c4.6316 0 6.9806-1.5734 6.9806-4.6759 0-1.662-0.81991-3.0139-2.2382-3.6787-1.1967-0.55399-2.5042-0.77559-4.7202-0.77559h-8.7978v1.2188h0.3324c1.1524 0 1.6177 0.088639 1.8172 0.31024 0.15512 0.19944 0.15512 0.26592 0.15512 1.6842v9.5956c0 1.4183 0 1.4848-0.15512 1.6842-0.19944 0.2216-0.66479 0.31024-1.8172 0.31024h-0.3324v1.1967h8.7756v-1.1967h-0.48751c-1.1745 0-1.6399-0.08864-1.8393-0.31024-0.15512-0.19944-0.15512-0.26592-0.15512-1.6842zm0-1.2188v-5.3629c0-1.0859 0.2216-1.3296 1.2188-1.3296h0.88639c2.1053 0 3.0803 0.99729 3.0803 3.2133 0 2.5485-1.0415 3.4792-3.9003 3.4792z" fill="#2e3436"/></svg>
