<?xml version="1.0" encoding="UTF-8"?>
<svg width="24" height="24" version="1.2" xmlns="http://www.w3.org/2000/svg"><g transform="matrix(1.3227 0 0 1.3227 -7.0996 -2.6707)" fill="#232629"><path d="m21.319 17c-0.03741-6e-3 -0.04177-0.03684-0.07422-0.04883-0.0169-0.0017-0.04683-0.0057-0.04687-0.0059-4e-6 0-0.0055-0.0036-0.0059-0.0039 0.0017 1.88e-4 0.03051 0.0038 0.04883 0.0059-0.04716-0.01805-0.08894-0.04164-0.13086-0.06445 0.01783 0.01338 0.03864 0.02949 0.04883 0.03711-0.02044-0.01352-0.049-0.03213-0.07422-0.04883-0.015-0.0088-0.02741-0.01799-0.04102-0.02734-0.0084-0.0056-0.01487-0.01-0.02344-0.01563-0.0026-0.0021-0.0056-0.0044-0.0078-0.0059-0.01578-0.0105-0.0488-0.03121-0.04883-0.03125-0.0104-0.01253-0.02018-0.02557-0.0293-0.03906-0.0013-0.0019-0.0026-0.0039-0.0039-0.0059-0.02217-0.02375-0.0279-0.01308-0.04883-0.04687l0.01563 0.02344c-1.3693-1.9612-3.8973-3.0156-6.457-3.0156-2.5582 0-5.0833 1.0527-6.4531 3.0117-0.024871 0.03622-0.029619 0.02631-0.052734 0.04883l-0.00195 2e-3c-0.021259 0.03207-0.046165 0.06156-0.074219 0.08789-0.00711 0.0066-0.025269 0.0015-0.033203 0.0078v2e-3c-0.010819 0.0087-0.032728 0.0036-0.044922 0.01172-0.038264 0.02856-0.085882 0.06247-0.085938 0.0625-9.2e-6 2e-6 -0.010467 0.0018-0.011719 2e-3 -6.82e-5 2.1e-5 0.049098-0.03355 0.09375-0.06445-0.08558 0.0566-0.1939 0.0777-0.31055 0.08203 0.00564 0.0011 0.017619 0.0039 0.017578 0.0039-1.657e-4 -1.5e-5 0.11173-0.01224 0.16211-0.01758-0.058561 0.0066-0.16001 0.01954-0.16016 0.01953-4.53e-5 -4e-6 -0.014087-0.0024-0.021484-0.0039-0.042925 0.0014-0.073808 0.03903-0.11523 0.0293h-0.00195c-0.00149-3.57e-4 -0.00243 0.0023-0.00391 2e-3 -0.12891-0.03276-0.23933-0.11576-0.30664-0.23047-0.00853-0.01189-0.033864-0.01976-0.041016-0.03125-0.020707-0.03292-0.03969-0.06547-0.048828-0.08594-0.00204-0.0052-0.00399-0.01038-0.00586-0.01563-0.077596-0.19018-0.077684-0.34263-0.015625-0.5293 0.015682-0.04814 0.035662-0.0972 0.058594-0.13672 6.492e-4 -6.53e-4 0.0013-0.0013 0.00195-2e-3 -0.016073 0.0272-0.011637 0.01977 0.00586-0.0098 0.00499-8e-3 0.010197-0.01577 0.015625-0.02344 0.029511-0.04396 0.038674-0.03405 0.068359-0.06055 1.6489-2.5891 4.5115-3.8691 7.3652-3.8691 2.8634 0 5.7368 1.2849 7.3828 3.8926 0.02406 0.02381 0.03294 0.01573 0.05469 0.04883 0.02666 0.03997 0.04602 0.07544 0.05664 0.09961 2e-3 0.0039 4e-3 0.0078 0.0059 0.01172 0.07783 0.19087 0.07825 0.34562 0.01563 0.5332-0.01559 0.04782-0.03718 0.09461-0.06055 0.13476-0.0044 0.0066-9e-3 0.01313-0.01367 0.01953-0.0243 0.03735-0.04977 0.06727-0.07617 0.09375-0.07256 0.07355-0.21741 0.09837-0.35156 0.11914 0.01641-0.0033 0.03524-0.0059 0.03516-0.0059-9.94e-4 3.24e-4 -0.0039 0.0019-0.0039 2e-3 -9.5e-5 2.7e-5 -0.01996 0.0042-0.03906 0.0078-0.04838 0.0066-0.07571 0.04891-0.125 0.04102l-2e-3 2e-3zm-13.506-0.14648c0.046346-0.03206 0.083552-0.05742 0.09375-0.06445 0.00897-0.0088 0.00981-0.0061 0.019531-0.01758v-2e-3c-0.01337 0.01006-0.057153 0.04209-0.11328 0.08398zm13.955-0.64453-0.01758-0.02344c-4e-3 -0.0056-0.02241-0.0096-0.02734-0.01563 0.01942 0.02195 0.02672 0.0094 0.04492 0.03906zm-0.02734-0.03516-0.01758-0.02539c2.5e-5 2.6e-5 -0.02713-0.01946-0.03906-0.02734 0.0075 0.01061 0.01989 0.01667 0.02734 0.02734 8.06e-4 0.0012 0.0011 0.0027 2e-3 0.0039 0.0082 0.0061 0.02437 0.01926 0.02734 0.02148zm-14.57-0.0332c0.00328-0.0023 0.011039-0.0066 0.015625-0.0098-0.00157 0.0014-0.00631 4.88e-4 -0.00781 2e-3zm-0.12891-0.23047c0.00706-0.01125 0.018279-0.0181 0.025391-0.0293-0.00476 0.0062-0.00501 0.0011-0.00977 0.0078z" color="#000000" color-rendering="auto" dominant-baseline="auto" image-rendering="auto" shape-rendering="auto" solid-color="#000000" style="font-feature-settings:normal;font-variant-alternates:normal;font-variant-caps:normal;font-variant-ligatures:normal;font-variant-numeric:normal;font-variant-position:normal;isolation:auto;mix-blend-mode:normal;shape-padding:0;text-decoration-color:#000000;text-decoration-line:none;text-decoration-style:solid;text-indent:0;text-orientation:mixed;text-transform:none;white-space:normal"/><text x="9.1190414" y="9.9731054" font-family="'Century Schoolbook L'" font-size="6.4986px" font-weight="bold" stroke-width="2.9538"><tspan fill="#232629" stroke-width="2.9538">HO</tspan></text></g></svg>
