<?xml version="1.0" encoding="UTF-8"?>
<svg width="24" height="24" version="1.2" xmlns="http://www.w3.org/2000/svg"><path d="m21.871 9.2246a0.50005 0.50005 0 0 0-0.085938 0.0058594l-19.67 2.8555-0.025391 0.003906a0.50005 0.50005 0 0 0-0.042969 0.005859 0.50005 0.50005 0 0 0-0.025391 0.003906 0.50005 0.50005 0 0 0-0.0058594 0.001953 0.50005 0.50005 0 0 0 0.12109 0.98828h0.0058593l19.643 2.8516a0.50036 0.50036 0 1 0 0.14453-0.99023l-16.309-2.3652 16.309-2.3652a0.50005 0.50005 0 0 0-0.058594-0.99609z" color="#000000" color-rendering="auto" dominant-baseline="auto" fill="#232629" image-rendering="auto" shape-rendering="auto" solid-color="#000000" style="font-feature-settings:normal;font-variant-alternates:normal;font-variant-caps:normal;font-variant-ligatures:normal;font-variant-numeric:normal;font-variant-position:normal;isolation:auto;mix-blend-mode:normal;shape-padding:0;text-decoration-color:#000000;text-decoration-line:none;text-decoration-style:solid;text-indent:0;text-orientation:mixed;text-transform:none;white-space:normal"/></svg>
