<?xml version="1.0" encoding="UTF-8"?>
<svg width="24" height="24" version="1.2" xmlns="http://www.w3.org/2000/svg"><path d="m12.256 2c-0.15312 0-0.27539 0.12422-0.27539 0.27734v8.0547l-2.3926 1.9277c-0.61912 0.46572 0.15609 1.4341 0.75586 0.92969l1.6367-1.3184v5.0684c-0.40125-0.25787-0.90661-0.39258-1.4355-0.39258-0.75455 0-1.5082 0.24782-2.166 0.63477-0.90933 0.54173-1.916 1.5091-1.916 2.8828 0 1.299 1.0835 1.9355 2.2637 1.9355 0.75455 0 1.5102-0.24782 2.168-0.63477 0.90933-0.54173 1.9141-1.5091 1.9141-2.8828 0-0.03261-0.0084-0.06002-0.0098-0.0918 0.04815-0.0497 0.08008-0.11642 0.08008-0.19141v-7.0527l1.9922-1.6035c0.63398 0.94886 1.1016 1.9694 1.1016 2.9844 0 1.2576-0.30965 2.4952-0.83203 3.6367v0.0957c0 0.31094 0.2721 0.50586 0.54297 0.50586 0.17413 0 0.34857-0.05652 0.44531-0.25 0.50304-1.2769 0.79297-2.6107 0.79297-3.9844 0-1.3475-0.51454-2.5444-1.168-3.7012l1.5547-1.2519c0.61912-0.46572-0.15413-1.4341-0.75391-0.92969l-1.418 1.1426c-1.0845-1.741-2.2578-3.4561-2.2578-5.5137 0-0.15312-0.12422-0.27734-0.27734-0.27734zm0.62305 5.1094c0.40796 0.44344 0.85227 0.94209 1.2773 1.4707l-1.2773 1.0293z" fill="#232629"/></svg>
