<?xml version="1.0" encoding="UTF-8"?>
<svg width="24" height="24" version="1.2" xmlns="http://www.w3.org/2000/svg"><path d="m11.119 4c-0.76113 0-1.4242 0.4201-2.1367 1.3594-0.37247 0.46964-0.63152 0.90699-0.89062 1.4414l0.64648 0.32422c0.048583-0.080972 0.081462-0.14592 0.097656-0.16211 0.64777-1.1336 0.84327-1.3438 1.1348-1.3438 0.30769 0 0.42107 0.26029 0.77734 1.9121l0.22656 1.0508-0.66406 0.92383c-0.583 0.82591-0.90748 1.1504-1.1504 1.1504-0.064777 0-0.1141-0.04818-0.14648-0.17773-0.12955-0.51822-0.46925-0.81055-0.95508-0.81055-0.64777 0-1.084 0.45379-1.084 1.1016 0 0.72874 0.54941 1.2305 1.3105 1.2305s1.6362-0.59865 2.3164-1.5703l0.59961-0.8418 0.04883 0.22656c0.19433 0.90688 0.32235 1.2621 0.59766 1.5859 0.30769 0.38866 0.74602 0.59961 1.248 0.59961 0.76113 0 1.3916-0.40399 1.9746-1.2461 0.40486-0.5668 0.7133-1.1514 0.92383-1.7344l-0.63086-0.32227c-0.42105 1.0526-0.85857 1.6348-1.2148 1.6348-0.34008 0-0.46965-0.32457-0.77734-1.8145l-0.25976-1.3281c0.98785-1.4575 1.4585-1.9902 1.75-1.9902 0.09716 0 0.12834 0.063805 0.14453 0.19336 0 0.5668 0.35589 0.89062 0.95508 0.89062s1.0527-0.46941 1.0527-1.1172c0-0.69636-0.53322-1.166-1.3105-1.166-0.89069 0-1.4575 0.40506-2.4453 1.7168l-0.35742 0.46875c-0.32389-1.5709-0.82578-2.1855-1.7812-2.1855zm-8.4532 5.1698c-0.4263 0.029191-0.62197 0.54504-0.32227 0.84961l9.2852 9.8164c6.65e-4 6.69e-4 0.0013 0.0013 2e-3 2e-3l0.0059 0.0059c0.0094 0.01017 0.01913 0.01994 0.0293 0.0293 0.0064 0.0054 0.01289 0.01058 0.01953 0.01563 0.0064 0.0054 0.01289 0.01058 0.01953 0.01563l0.0078 0.0039c0.01139 0.0083 0.02312 0.01612 0.03516 0.02344 2e-3 0.0013 0.0039 0.0026 0.0059 0.0039 0.01273 0.0071 0.02576 0.01359 0.03906 0.01953 0.01468 0.0066 0.02967 0.01245 0.04492 0.01758 0.01604 0.0054 0.03233 0.0099 0.04883 0.01367 0.0058 0.0014 0.0117 0.0027 0.01758 0.0039 0.01294 0.0025 0.02597 0.0044 0.03906 0.0059 0.01685 0.0022 0.0338 0.0035 0.05078 0.0039 0.03078 2.3e-4 0.06151-0.0024 0.0918-0.0078 0.01312-0.0021 0.02615-0.0047 0.03906-0.0078 0.0033-6.34e-4 0.0065-0.0013 0.0098-2e-3 2e-3 -6.54e-4 0.0039-0.0013 0.0059-2e-3 0.01386-4e-3 0.02755-0.0085 0.04102-0.01367l0.0078-0.0039c0.01261-0.0053 0.02499-0.01121 0.03711-0.01758l0.0078-0.0039c0.01201-0.0067 0.02374-0.01384 0.03516-0.02148l0.0078-0.0039c0.0053-0.0038 0.0105-0.0077 0.01563-0.01172 8e-3 -0.0056 0.0158-0.01149 0.02344-0.01758 0.01079-0.0087 0.02122-0.0178 0.03125-0.02734l0.0059-0.0059c0.0033-0.0032 0.0066-0.0065 0.0098-0.0098l9.2927-9.8242c0.32187-0.32735 0.06946-0.87909-0.38867-0.84961-0.12939 0.00819-0.25053 0.066315-0.33789 0.16211l-8.9297 9.4395-8.9297-9.4395c-0.091137-0.099524-0.21863-0.15799-0.35352-0.16211-0.016916-8.6e-4 -0.033865-8.6e-4 -0.050781 0z" fill="#232629"/></svg>
