<?xml version="1.0" encoding="UTF-8"?>
<svg width="24" height="24" version="1.2" xmlns="http://www.w3.org/2000/svg"><path d="m17.234 4.1702h-0.95741l-1.1064 0.97873c-1.1915-0.80848-2.3404-1.1489-3.8298-1.1489-3.2766 0-5.5106 1.9149-5.5106 4.7447 0 2.5957 1.9149 4.4468 5.2553 5.0638l1.3192 0.25531c1.3617 0.25531 1.7872 0.36169 2.2979 0.63827 0.59572 0.31914 0.93613 0.95741 0.93613 1.7021 0 1.4894-1.2128 2.4894-3.0638 2.4894-2.4043 0-4.5106-1.8936-5.6809-5.0851h-1.0851l0.12765 6.0213h0.9575l1.3192-1.2553c1.2979 0.97873 2.6596 1.4255 4.3617 1.4255 3.3192 0 5.617-2.0851 5.617-5.0638 0-2.7021-1.5958-4.2128-5.2766-5.0213l-1.0213-0.23403c-1.6383-0.31914-1.6383-0.31914-2.1702-0.51062-0.9575-0.34041-1.4468-0.9575-1.4468-1.8298 0-1.2979 1.1915-2.234 2.8724-2.234 2.2128 0 3.9787 1.5532 5.234 4.5745h1.1277z" fill="#2e3436"/></svg>
