<?xml version="1.0" encoding="UTF-8"?>
<svg width="24" height="24" version="1.2" xmlns="http://www.w3.org/2000/svg"><path d="m15.751 7.9474-8.6986 8.1053h0.79426l8.7081-8.1053zm-11.024 0.31577c-0.66833 0.50663-1.4553 0.71528-2.7273 0.73684v0.60287h0.44976c0.95937 0.010779 0.96651 0.014209 0.96651 0.90909v3.8278c0 0.66832-0.0011 0.71759-0.076555 0.80383-0.097015 0.11857-0.32821 0.16266-0.89952 0.16266h-0.3445v0.58373h4.3062v-0.58373h-0.3445c-0.54975 0-0.79415-0.0441-0.88038-0.16266-0.075457-0.08623-0.066986-0.12474-0.066986-0.80383v-6.0766zm14.536 0c-0.77612 0-1.4229 0.20402-1.8756 0.60287-0.34494 0.31259-0.57416 0.75784-0.57416 1.1675 0 0.56053 0.42512 0.98565 0.98565 0.98565 0.51741 0 0.87081-0.34502 0.87081-0.85167 0-0.29103-0.11802-0.52235-0.43062-0.8134-0.0539-0.053895-0.07656-0.081283-0.07656-0.1244 0-0.2048 0.41335-0.41151 0.82297-0.41151 0.6791 0 1.0718 0.49892 1.0718 1.3397 0 0.92703-0.3259 1.512-0.83254 1.512-0.08624 0-0.20073-0.02498-0.37321-0.05742-0.24793-0.05389-0.31084-0.06697-0.44019-0.06697-0.24792 0-0.39234 0.12768-0.39234 0.35404 0 0.23714 0.16598 0.41151 0.39234 0.41151 0.04312 0 0.10757 0.0012 0.17225-0.0098 0.32338-0.03234 0.49277-0.05743 0.53588-0.05743 0.66832 0 1.0048 0.51783 1.0048 1.5311 0 1.0779-0.45591 1.7033-1.2536 1.7033-0.45274 0-0.92823-0.22337-0.92823-0.44978 0-0.06468 0.03939-0.1267 0.11483-0.19138 0.32338-0.31259 0.39234-0.45414 0.39234-0.75598 0-0.50664-0.39883-0.89952-0.9378-0.89952-0.57131 0-0.96651 0.42028-0.96651 1.0239 0 1.0887 1.0602 1.8373 2.6124 1.8373 0.7869 0 1.5233-0.19093 2.0191-0.53588 0.49587-0.34467 0.82298-1.0036 0.82298-1.6935 0-0.6791-0.2984-1.2783-0.79426-1.5694-0.30182-0.17247-0.56745-0.24034-1.1388-0.31579 0.12935-0.03234 0.21162-0.05497 0.28708-0.07658 0.94859-0.26947 1.4545-0.8542 1.4545-1.6842 0-1.1426-1.0148-1.9043-2.5455-1.9043z" fill="#2e3436" stroke-width="4.8995"/></svg>
