<?xml version="1.0" encoding="UTF-8"?>
<svg width="24" height="24" version="1.2" xmlns="http://www.w3.org/2000/svg"><path d="m5.9414 2c-0.18582 0-0.44657 0.073899-0.5957 0.29688-2.0074 2.8625-3.3457 6.2087-3.3457 9.7031s1.3383 6.8407 3.3457 9.7031c0.14913 0.2974 0.40987 0.29688 0.5957 0.29688 0.37165 0 0.70508-0.33528 0.70508-0.70703 0-0.14863 2.003e-4 -0.22235-0.11133-0.4082-1.7844-2.5651-2.2305-5.7621-2.2305-8.8848s0.44602-6.3197 2.2305-8.8848c0.11227-0.14863 0.11133-0.22233 0.11133-0.4082 0-0.37175-0.33326-0.70704-0.70508-0.70703zm12.117 0c-0.37165 0-0.70508 0.33528-0.70508 0.70703 0 0.14863-2e-4 0.22233 0.11133 0.4082 1.7844 2.5651 2.2305 5.7621 2.2305 8.8848 0 3.1227-0.44602 6.3197-2.2305 8.8848-0.11227 0.14863-0.11133 0.22232-0.11133 0.4082 0 0.37175 0.33326 0.70703 0.70508 0.70703 0.18599 0 0.44657-0.073895 0.5957-0.29688 2.0074-2.8625 3.3457-6.2087 3.3457-9.7031s-1.3383-6.8407-3.3457-9.7031c-0.14913-0.2974-0.40987-0.29686-0.5957-0.29688zm-6.0469 5.6543c-1.4788 0-2.9573 0.34635-4.2422 1.291-0.92121 0.6613-1.7695 1.7007-1.7695 3.0547 0 1.354 0.84831 2.3934 1.7695 3.0547 1.2848 0.94467 2.7634 1.291 4.2422 1.291 1.4788 0 2.9338-0.34634 4.2188-1.291 0.92121-0.6613 1.7695-1.7007 1.7695-3.0547 0-1.354-0.84832-2.3934-1.7695-3.0547-1.2849-0.94467-2.7399-1.291-4.2188-1.291z" fill="#232629"/></svg>
