<?xml version="1.0" encoding="UTF-8"?>
<svg width="24" height="24" version="1.2" xmlns="http://www.w3.org/2000/svg"><path d="m4.7374 12c0-0.13408 0.044834-0.22349 0.13408-0.31284 2.5028-2.324 4.7374-4.7821 6.7933-7.5084 0.089403-0.089405 0.22348-0.17876 0.35757-0.17876 0.13408 0 0.22348 0.089404 0.31284 0.17876 2.0559 2.7263 4.2905 5.1844 6.7933 7.5084 0.08941 0.08941 0.13408 0.17876 0.13408 0.31284s-0.04484 0.22348-0.13408 0.31284c-2.5028 2.324-4.7374 4.7821-6.7933 7.5084-0.089404 0.089409-0.17876 0.17876-0.31284 0.17876-0.13408 0-0.26816-0.08941-0.35757-0.17876-2.0559-2.7263-4.2905-5.1844-6.7933-7.5084-0.089405-0.089403-0.13408-0.17876-0.13408-0.31284z" fill="#232629"/></svg>
