<?xml version="1.0" encoding="UTF-8"?>
<svg width="24" height="24" version="1.2" xmlns="http://www.w3.org/2000/svg"><path d="m12.024 9.913 5.8359-5.6811c0.1459-0.11594 0.29179-0.23188 0.43769-0.23188 0.1459 0 0.34042 0.11594 0.48632 0.23188l0.97264 0.92753c0.1459 0.17391 0.24316 0.46377 0.24316 0.69565 0 0.23188-0.09726 0.46377-0.24316 0.63768l-5.6414 5.5073 5.6414 5.5073c0.1459 0.17391 0.24316 0.40579 0.24316 0.63768 0 0.23188-0.09726 0.52174-0.24316 0.69565l-0.97264 0.92753c-0.1459 0.11594-0.34042 0.23188-0.48632 0.23188-0.1459 0-0.29179-0.11594-0.43769-0.23188l-5.8359-5.6811-5.8845 5.6811c-0.1459 0.11594-0.29179 0.23188-0.43769 0.23188s-0.34043-0.11594-0.48632-0.23188l-0.97264-0.92753c-0.1459-0.17391-0.24316-0.46377-0.24316-0.69565 0-0.23188 0.097264-0.46377 0.24316-0.63768l5.6414-5.5073-5.6414-5.5073c-0.1459-0.17391-0.24316-0.40579-0.24316-0.63768 0-0.23188 0.097264-0.52174 0.24316-0.69565l0.97264-0.92753c0.1459-0.11594 0.34043-0.23188 0.48632-0.23188s0.29179 0.11594 0.43769 0.23188z" fill="#232629" stroke-width=".87344"/></svg>
