<?xml version="1.0" encoding="UTF-8"?>
<svg width="16.014" height="16" version="1.1" xmlns="http://www.w3.org/2000/svg"><path d="m15 0-3 2v1l-5.5312 5.5312c-1 0-0.74127-1.7665-0.5625-2.125 0.26522-0.53184 0.59375-0.9375 1.0938-1.2812-0.625-0.5-1.5879 0.22584-1.7812 0.5625-0.88392 1.5393-0.91487 2.2649-2.125 2.7812-1.5587 0.66514-3.0938 0.96875-3.0938 2.9688 0 0.75-0.031706 1.3639 0.55469 1.9785l1.9297 2.0215c0.58531 0.55442 0.93916 0.56452 1.6719 0.5625 2 0 3.0312-2.0312 3.125-3.25s3.2201-1.4791 2.25-3.125c-0.25612 0.55939-1.3697 1.2211-1.9746 0.9668-0.29201-0.12275-0.48164-0.3084-0.55664-0.5918l6-6c0.34115-0.29688 0.6369-0.3142 1 0 0.52865-0.59635 0.74475-1.302 1-2 0.55228 0 1-0.44772 1-1 0-0.55228-0.44772-1-1-1z" fill="#232629"/></svg>
