<?xml version="1.0" encoding="UTF-8"?>
<svg width="16.014" height="16" version="1.1" xmlns="http://www.w3.org/2000/svg"><path d="m2 0s-0.45927-0.013531-0.94727 0.23047c-0.489 0.245-1.0527 0.93653-1.0527 1.7695v12c0 0.833 0.56373 1.5245 1.0527 1.7695 0.488 0.244 0.94727 0.23047 0.94727 0.23047h12c0.833 0 1.5245-0.56373 1.7695-1.0527 0.244-0.488 0.23047-0.94727 0.23047-0.94727v-12c0-0.833-0.56373-1.5245-1.0527-1.7695-0.487-0.244-0.94727-0.23047-0.94727-0.23047zm0 2h12v12h-12z" color="#000000" fill="#2e3436" fill-rule="evenodd" style="font-feature-settings:normal;font-variant-alternates:normal;font-variant-caps:normal;font-variant-ligatures:normal;font-variant-numeric:normal;font-variant-position:normal;isolation:auto;mix-blend-mode:normal;shape-padding:0;text-decoration-color:#000000;text-decoration-line:none;text-decoration-style:solid;text-indent:0;text-orientation:mixed;text-transform:none;white-space:normal"/><path d="m9.2656 3c-0.14718 0-0.26562 0.11844-0.26562 0.26562v5.5156c-0.22232-0.07342-0.4637-0.11328-0.71094-0.11328-0.6436 0-1.2708 0.23481-1.8359 0.56445-0.73778 0.43953-1.6172 1.2096-1.6172 2.3398 0 0.97324 0.83188 1.4277 1.7109 1.4277 0.6436 0 1.2708-0.23481 1.8359-0.56445 0.67117-0.39985 1.453-1.0758 1.5898-2.0449 0.00713-0.02407 0.027344-0.04192 0.027344-0.06836v-7.0566c0-0.14718-0.11844-0.26562-0.26562-0.26562z" color="#bebebe" fill="#2e3436" style="text-decoration-line:none;text-indent:0;text-transform:none"/></svg>
