<?xml version="1.0" encoding="UTF-8"?>
<svg width="16.014" height="16" version="1.1" xmlns="http://www.w3.org/2000/svg"><path d="m2 0s-0.45927-0.013531-0.94727 0.23047c-0.489 0.245-1.0527 0.93653-1.0527 1.7695v12c0 0.833 0.56373 1.5245 1.0527 1.7695 0.488 0.244 0.94727 0.23047 0.94727 0.23047h12c0.833 0 1.5245-0.56373 1.7695-1.0527 0.244-0.488 0.23047-0.94727 0.23047-0.94727v-12c0-0.833-0.56373-1.5245-1.0527-1.7695-0.487-0.244-0.94727-0.23047-0.94727-0.23047h-12zm0 2h12v12h-12v-12zm7 3v1c0 0.277 0.11222 0.52628 0.29297 0.70703l0.29297 0.29297h-5.5859c-1.3333 0-1.3333 2 0 2h5.5859l-0.29297 0.29297c-0.18075 0.18075-0.29297 0.43003-0.29297 0.70703v1h1c0.277 0 0.52628-0.11222 0.70703-0.29297l2.707-2.707-2.707-2.707c-0.18075-0.18075-0.43003-0.29297-0.70703-0.29297h-1z" color="#000000" fill="#2e3436" fill-rule="evenodd" style="font-feature-settings:normal;font-variant-alternates:normal;font-variant-caps:normal;font-variant-ligatures:normal;font-variant-numeric:normal;font-variant-position:normal;isolation:auto;mix-blend-mode:normal;shape-padding:0;text-decoration-color:#000000;text-decoration-line:none;text-decoration-style:solid;text-indent:0;text-orientation:mixed;text-transform:none;white-space:normal"/></svg>
