<?xml version="1.0" encoding="UTF-8"?>
<svg width="16" height="16" version="1.1" xmlns="http://www.w3.org/2000/svg"><path d="m8.2656 1c-0.14718 0-0.26562 0.11844-0.26562 0.26562v9.5156c-0.22232-0.073415-0.4637-0.11328-0.71094-0.11328-0.6436 0-1.2708 0.23481-1.8359 0.56445-0.73778 0.43953-1.6172 1.2096-1.6172 2.3398 0 0.97324 0.83188 1.4277 1.7109 1.4277 0.6436 0 1.2708-0.23481 1.8359-0.56445 0.67117-0.39985 1.453-1.0758 1.5898-2.0449 0.0071258-0.024066 0.027344-0.041922 0.027344-0.068359v-11.057c0-0.14718-0.11844-0.26562-0.26562-0.26562h-0.46875zm-7.2656 4v1c0 0.257 0.1305 0.52775 0.3125 0.71875l1.2812 1.2812-1.2812 1.2812c-0.182 0.19-0.3125 0.46175-0.3125 0.71875v1h1c0.31 0 0.552-0.09025 0.75-0.28125l2.6562-2.7188-2.6562-2.7188c-0.198-0.19-0.44-0.28125-0.75-0.28125h-1zm13 0c-0.31 0-0.552 0.09125-0.75 0.28125l-2.6562 2.7188 2.6562 2.7188c0.198 0.191 0.44 0.28125 0.75 0.28125h1v-1c0-0.257-0.1305-0.52875-0.3125-0.71875l-1.2812-1.2812 1.2812-1.2812c0.182-0.191 0.3125-0.46175 0.3125-0.71875v-1h-1z" color="#bebebe" fill="#2e3436" style="text-decoration-line:none;text-indent:0;text-transform:none"/></svg>
