<?xml version="1.0" encoding="UTF-8"?>
<svg width="16" height="16" version="1.1" xmlns="http://www.w3.org/2000/svg"><path d="m2.9998 3.6465c0.013925 0.1998 0.18053 0.35449 0.38081 0.35358l1.2402 1.836e-4c0.21132-5.582e-4 0.38159-0.17341 0.37897-0.38471l1.822e-4 -1.2305c0.0026942-0.21207-0.16872-0.38529-0.3808-0.38483l-1.2402-1.836e-4c-0.21132 5.582e-4 -0.38159 0.17341-0.37897 0.38471l-1.822e-4 1.2305c-4.3e-4 0.010412-4.316e-4 0.020838-4.6e-6 0.03125zm4.0156-0.030606 0.00195 3e-7c-0.00268 0.21054 0.16635 0.38312 0.3769 0.38483l1.2422 1.839e-4c0.21132-5.577e-4 0.38159-0.17341 0.37897-0.38471l1.822e-4 -1.2305c0.0026813-0.2113-0.16753-0.38421-0.37885-0.38483l-1.2422-1.84e-4c-0.21132 5.582e-4 -0.38159 0.17341-0.37897 0.38471l-1.822e-4 1.2305zm3.9844 0.03184c0.01392 0.1998 0.18053 0.35449 0.38081 0.35358l1.2402 1.836e-4c0.21132-5.578e-4 0.38159-0.17341 0.37897-0.38471l1.82e-4 -1.2305c0.0027-0.2113-0.16754-0.38421-0.37885-0.38483l-1.2422-1.84e-4c-0.21132 5.583e-4 -0.38159 0.17341-0.37897 0.38471l-1.82e-4 1.2305c-4.3e-4 0.010412-4.31e-4 0.020838-5e-6 0.03125z" color="#000000" fill="#2e3436"/><path d="m8 5c-4 0-7 4-7 5s3 5 7 5 7-4 7-5-3-5-7-5zm0 2a3 3 0 0 1 3 3 3 3 0 0 1 -3 3 3 3 0 0 1 -3 -3 3 3 0 0 1 3 -3zm0 2a1 1 0 0 0 -1 1 1 1 0 0 0 1 1 1 1 0 0 0 1 -1 1 1 0 0 0 -1 -1z" fill="#2e3436" stroke-width="3.7795"/></svg>
