<?xml version="1.0" encoding="UTF-8" standalone="no"?>
<svg
   height="16px"
   viewBox="0 0 16 16"
   width="16px"
   version="1.1"
   id="svg4"
   sodipodi:docname="layout_tablature.svg"
   inkscape:version="1.2.2 (b0a8486541, 2022-12-01)"
   xmlns:inkscape="http://www.inkscape.org/namespaces/inkscape"
   xmlns:sodipodi="http://sodipodi.sourceforge.net/DTD/sodipodi-0.dtd"
   xmlns="http://www.w3.org/2000/svg"
   xmlns:svg="http://www.w3.org/2000/svg">
  <defs
     id="defs8" />
  <sodipodi:namedview
     id="namedview6"
     pagecolor="#ffffff"
     bordercolor="#666666"
     borderopacity="1.0"
     inkscape:showpageshadow="2"
     inkscape:pageopacity="0.0"
     inkscape:pagecheckerboard="0"
     inkscape:deskcolor="#d1d1d1"
     showgrid="true"
     inkscape:zoom="32.836271"
     inkscape:cx="4.1569885"
     inkscape:cy="5.8471926"
     inkscape:window-width="1920"
     inkscape:window-height="1021"
     inkscape:window-x="0"
     inkscape:window-y="0"
     inkscape:window-maximized="1"
     inkscape:current-layer="svg4">
    <inkscape:grid
       type="xygrid"
       id="grid284" />
  </sodipodi:namedview>
  <path
     id="path2"
     fill="#2e3436"
     d="M 4 0 C 2.3554738 0 1 1.3554738 1 3 L 1 13 C 1 14.644525 2.3554738 16 4 16 L 6 16 L 7 16 L 12 16 C 13.644525 16 15 14.644525 15 13 L 15 6 L 15 5 C 15 4.7343759 14.894531 4.4804682 14.707031 4.2929688 L 10.707031 0.29296875 C 10.519531 0.10546932 10.265625 0 10 0 L 4 0 z M 4 2 L 9.5859375 2 L 13 5.4140625 L 13 6 L 13 13 C 13 13.570309 12.570309 14 12 14 L 7 14 L 6 14 L 4 14 C 3.4296898 14 3 13.570309 3 13 L 3 3 C 3 2.4296898 3.4296898 2 4 2 z M 5.3554688 3 L 5.2597656 5 L 4.6660156 5 C 4.296224 5 4 5.1113281 4 5.25 L 4 5.75 C 4 5.8886719 4.296224 6 4.6660156 6 L 7.5273438 6 C 7.5923574 6.1334967 7.6269531 6.2865932 7.6269531 6.4589844 C 7.6269531 7.098188 7.1599777 7.4824219 6.4355469 7.4824219 C 6.0094111 7.4824219 5.5392396 7.3609727 5.1699219 7.1621094 L 5 7.6308594 C 5.4403403 7.8652341 5.9012791 8 6.3984375 8 C 7.492186 8 8.2324219 7.3741109 8.2324219 6.4082031 C 8.2324219 6.2614027 8.2086221 6.1285936 8.1757812 6 L 11.333984 6 C 11.703776 6 12 5.8886719 12 5.75 L 12 5.25 C 12 5.1113281 11.703776 5 11.333984 5 L 7.1582031 5 C 6.9496006 4.9389494 6.7151412 4.9042969 6.4550781 4.9042969 C 6.2420102 4.9042969 6.0223719 4.9241833 5.8164062 4.9667969 L 5.8886719 3.5039062 L 7.9980469 3.5039062 L 7.9980469 3 L 5.3554688 3 z M 10.767578 8 L 9 8.9160156 L 9.2148438 9.3242188 L 10.544922 8.6875 L 10.544922 10 L 4.6660156 10 C 4.296224 10 4 10.111328 4 10.25 L 4 10.75 C 4 10.888672 4.296224 11 4.6660156 11 L 10.544922 11 L 10.544922 13 L 11.109375 13 L 11.109375 11 L 11.333984 11 C 11.703776 11 12 10.888672 12 10.75 L 12 10.25 C 12 10.111328 11.703776 10 11.333984 10 L 11.109375 10 L 11.109375 8 L 10.767578 8 z " />
</svg>
