<?xml version="1.0" encoding="UTF-8" standalone="no"?>
<svg
   height="16px"
   viewBox="0 0 16 16"
   width="16px"
   version="1.1"
   id="svg4"
   sodipodi:docname="layout_compact.svg"
   inkscape:version="1.2.2 (b0a8486541, 2022-12-01)"
   xmlns:inkscape="http://www.inkscape.org/namespaces/inkscape"
   xmlns:sodipodi="http://sodipodi.sourceforge.net/DTD/sodipodi-0.dtd"
   xmlns="http://www.w3.org/2000/svg"
   xmlns:svg="http://www.w3.org/2000/svg">
  <defs
     id="defs8" />
  <sodipodi:namedview
     id="namedview6"
     pagecolor="#ffffff"
     bordercolor="#666666"
     borderopacity="1.0"
     inkscape:showpageshadow="2"
     inkscape:pageopacity="0.0"
     inkscape:pagecheckerboard="0"
     inkscape:deskcolor="#d1d1d1"
     showgrid="true"
     inkscape:zoom="46.4375"
     inkscape:cx="9.8411844"
     inkscape:cy="9.1951548"
     inkscape:window-width="1920"
     inkscape:window-height="1021"
     inkscape:window-x="0"
     inkscape:window-y="0"
     inkscape:window-maximized="1"
     inkscape:current-layer="svg4">
    <inkscape:grid
       type="xygrid"
       id="grid284" />
  </sodipodi:namedview>
  <path
     id="path2"
     fill="#2e3436"
     d="M 4 0 C 2.3554738 0 1 1.3554738 1 3 L 1 13 C 1 14.644525 2.3554738 16 4 16 L 6 16 L 7 16 L 12 16 C 13.644525 16 15 14.644525 15 13 L 15 6 L 15 5 C 15 4.7343759 14.894531 4.4804682 14.707031 4.2929688 L 10.707031 0.29296875 C 10.519531 0.10546932 10.265625 0 10 0 L 4 0 z M 4 2 L 9.5859375 2 L 11.605469 4.0195312 L 11.605469 9.9257812 C 11.358071 9.7370624 11.021984 9.6445312 10.675781 9.6445312 C 10.177334 9.6445312 9.6896023 9.8267445 9.2519531 10.082031 C 8.6805828 10.422433 8 11.019233 8 11.894531 C 8 12.64827 8.6434512 13 9.3242188 13 C 9.8226662 13 10.310397 12.817788 10.748047 12.5625 C 11.319417 12.222098 12 11.625298 12 10.75 C 12 10.71697 11.996601 10.685797 11.994141 10.654297 C 11.996038 10.645673 12 10.638181 12 10.628906 L 12 4.4140625 L 13 5.4140625 L 13 6 L 13 13 C 13 13.570309 12.570309 14 12 14 L 7 14 L 6 14 L 4 14 C 3.4296898 14 3 13.570309 3 13 L 3 3 C 3 2.4296898 3.4296898 2 4 2 z M 7.7265625 3.0039062 C 7.6592127 3.0039062 7.6054688 3.0576529 7.6054688 3.125 L 7.6054688 9.9257812 C 7.358071 9.7370625 7.0219833 9.6445312 6.6757812 9.6445312 C 6.1773337 9.6445312 5.6896023 9.8267446 5.2519531 10.082031 C 4.6805828 10.422433 4 11.019233 4 11.894531 C 4 12.64827 4.6434512 13 5.3242188 13 C 5.8226662 13 6.3103976 12.817788 6.7480469 12.5625 C 7.3194171 12.222098 8 11.625298 8 10.75 C 8 10.71697 7.9966006 10.685797 7.9941406 10.654297 C 7.9960371 10.645676 8 10.638181 8 10.628906 L 8 3.125 C 8 3.0576497 7.9462561 3.0039062 7.8789062 3.0039062 L 7.7265625 3.0039062 z " />
</svg>
