<?xml version="1.0" encoding="UTF-8" standalone="no"?>
<svg
   height="16px"
   viewBox="0 0 16 16"
   width="16px"
   version="1.1"
   id="svg4"
   sodipodi:docname="layout_linear.svg"
   inkscape:version="1.2.2 (b0a8486541, 2022-12-01)"
   xmlns:inkscape="http://www.inkscape.org/namespaces/inkscape"
   xmlns:sodipodi="http://sodipodi.sourceforge.net/DTD/sodipodi-0.dtd"
   xmlns="http://www.w3.org/2000/svg"
   xmlns:svg="http://www.w3.org/2000/svg">
  <defs
     id="defs8" />
  <sodipodi:namedview
     id="namedview6"
     pagecolor="#ffffff"
     bordercolor="#666666"
     borderopacity="1.0"
     inkscape:showpageshadow="2"
     inkscape:pageopacity="0.0"
     inkscape:pagecheckerboard="0"
     inkscape:deskcolor="#d1d1d1"
     showgrid="true"
     inkscape:zoom="46.4375"
     inkscape:cx="7.9892328"
     inkscape:cy="7.9892328"
     inkscape:window-width="1920"
     inkscape:window-height="1021"
     inkscape:window-x="0"
     inkscape:window-y="0"
     inkscape:window-maximized="1"
     inkscape:current-layer="svg4">
    <inkscape:grid
       type="xygrid"
       id="grid284" />
  </sodipodi:namedview>
  <path
     id="path2"
     fill="#2e3436"
     d="M 4,0 C 2.3554706,0 1,1.3554706 1,3 v 10 c 0,1.644529 1.3554706,3 3,3 h 2 1 5 c 1.644529,0 3,-1.355471 3,-3 V 6 5 C 15,4.7343753 14.894531,4.4804686 14.707031,4.2929688 l -4,-4.00000005 C 10.519531,0.10546894 10.265625,0 10,0 Z M 4,2 H 9.5859375 L 10.585938,3 H 4 v 2 h 8 1 V 5.4140625 6 13 c 0,0.570311 -0.429689,1 -1,1 H 7 6 4 C 3.4296886,14 3,13.570311 3,13 V 3 C 3,2.4296886 3.4296886,2 4,2 Z M 4,7 V 9 H 14 V 7 Z"
     sodipodi:nodetypes="ssssccsscsccsssccccccccssccssssccccc" />
</svg>
