<?xml version="1.0" encoding="UTF-8"?>
<svg width="16.014" height="16" version="1.1" xmlns="http://www.w3.org/2000/svg"><path d="m16 1.9999s0.01353-0.45927-0.23047-0.94727c-0.245-0.489-0.93653-1.0527-1.7695-1.0527h-12c-0.833 0-1.5245 0.56373-1.7695 1.0527-0.244 0.488-0.23047 0.94727-0.23047 0.94727v12c0 0.833 0.56373 1.5245 1.0527 1.7695 0.488 0.244 0.94727 0.23047 0.94727 0.23047h12c0.833 0 1.5245-0.56373 1.7695-1.0527 0.244-0.487 0.23047-0.94727 0.23047-0.94727zm-2 0v12h-12v-12zm-3 7h-1c-0.277 0-0.52628 0.11222-0.70703 0.29297l-0.29297 0.29297v-5.5859c0-1.3333-2-1.3333-2 0v5.5859l-0.29297-0.29297c-0.18075-0.18075-0.43003-0.29297-0.70703-0.29297h-1v1c0 0.277 0.11222 0.52628 0.29297 0.70703l2.707 2.707 2.707-2.707c0.18075-0.18075 0.29297-0.43003 0.29297-0.70703z" color="#000000" fill="#2e3436" fill-rule="evenodd" style="font-feature-settings:normal;font-variant-alternates:normal;font-variant-caps:normal;font-variant-ligatures:normal;font-variant-numeric:normal;font-variant-position:normal;isolation:auto;mix-blend-mode:normal;shape-padding:0;text-decoration-color:#000000;text-decoration-line:none;text-decoration-style:solid;text-indent:0;text-orientation:mixed;text-transform:none;white-space:normal"/></svg>
