<?xml version="1.0" encoding="UTF-8"?>
<svg width="16.003" height="16" version="1.1" xmlns="http://www.w3.org/2000/svg"><path d="m0 0v16h2v-3h5c1 0 2 1 3 1h5c0.55228 0 1-0.44772 1-1v-11c0-0.55228-0.44772-1-1-1h-5c-1 0-2-1-3-1h-6zm2 2h5c1 0 2 1 3 1h4v9h-4c-1 0-2-1-3-1h-5zm3 4v2h6v-2z" color="#000000" fill="#2e3436" fill-rule="evenodd" style="font-feature-settings:normal;font-variant-alternates:normal;font-variant-caps:normal;font-variant-ligatures:normal;font-variant-numeric:normal;font-variant-position:normal;isolation:auto;mix-blend-mode:normal;shape-padding:0;text-decoration-color:#000000;text-decoration-line:none;text-decoration-style:solid;text-indent:0;text-orientation:mixed;text-transform:none;white-space:normal"/></svg>
