<?xml version="1.0" encoding="UTF-8"?>
<svg id="svg1" width="16px" height="16px" version="1.1" viewBox="0 0 16 16" xmlns="http://www.w3.org/2000/svg">
 <path id="path1" d="m9.5 1c-0.13281 0-0.25977 0.052734-0.35352 0.14648-0.19531 0.19531-0.19531 0.51172 0 0.70703l2.1465 2.1465-2.1465 2.1465c-0.19531 0.19531-0.19531 0.51172 0 0.70703 0.19531 0.19531 0.51172 0.19531 0.70703 0l2.1465-2.1465 2.1465 2.1465c0.19531 0.19531 0.51172 0.19531 0.70703 0 0.19531-0.19531 0.19531-0.51172 0-0.70703l-2.1465-2.1465 2.1465-2.1465c0.19531-0.19531 0.19531-0.51172 0-0.70703-0.09375-0.09375-0.2207-0.14648-0.35352-0.14648-0.13281 0-0.25977 0.052734-0.35352 0.14648l-2.1465 2.1465-2.1465-2.1465c-0.09375-0.09375-0.2207-0.14648-0.35352-0.14648zm-1.4485 0.99706c0.10546-0.11952 0.15701-0.27653 0.14764-0.43588-0.011716-0.15936-0.084364-0.30699-0.20388-0.41245-0.11952-0.10546-0.27653-0.15701-0.43588-0.14764-0.15936 0.011717-0.30699 0.084364-0.41245 0.20388l-3.7777 4.3167-1.3451-1.3451c-0.23435-0.23435-0.61399-0.23435-0.84833 0-0.11249 0.11249-0.17576 0.26481-0.17576 0.42417 0 0.15936 0.063274 0.31168 0.17576 0.42417l1.7998 1.7998c0.11717 0.11717 0.27887 0.18279 0.44291 0.17576 0.16639-0.0046795 0.3234-0.079677 0.43354-0.20388zm1.1694 9.2783c1.1084 0 2.3133-0.87273 2.7791-2.2753l-1.3012-0.57662c-0.24096 0.68571-0.80321 1.0286-1.3333 1.0286-0.93173 0-1.4297-1.0286-2.6827-1.0286-1.0924 0-2.1847 0.87273-2.6827 2.3065l1.2691 0.54545c0.28916-0.71688 0.73896-1.0286 1.2048-1.0286 0.88353 0 1.4779 1.0286 2.747 1.0286zm0 3.7247c1.1084 0 2.3133-0.87273 2.7791-2.2753l-1.3012-0.56104c-0.24096 0.67013-0.80321 1.0286-1.3333 1.0286-0.93173 0-1.4297-1.0286-2.6827-1.0286-1.0763 0-2.1687 0.85714-2.6827 2.3065l1.2209 0.52987c0.28916-0.7013 0.78715-1.013 1.253-1.013 0.88353 0 1.4779 1.013 2.747 1.013z" fill="#2e3436"/>
</svg>
