<?xml version="1.0" encoding="UTF-8" standalone="no"?>
<svg
   width="16.014"
   height="16"
   version="1.1"
   id="svg998"
   sodipodi:docname="mixer.svg"
   inkscape:version="1.2.2 (b0a8486541, 2022-12-01)"
   xmlns:inkscape="http://www.inkscape.org/namespaces/inkscape"
   xmlns:sodipodi="http://sodipodi.sourceforge.net/DTD/sodipodi-0.dtd"
   xmlns="http://www.w3.org/2000/svg"
   xmlns:svg="http://www.w3.org/2000/svg"
   xmlns:rdf="http://www.w3.org/1999/02/22-rdf-syntax-ns#"
   xmlns:cc="http://creativecommons.org/ns#"
   xmlns:dc="http://purl.org/dc/elements/1.1/">
  <metadata
     id="metadata1004">
    <rdf:RDF>
      <cc:Work
         rdf:about="">
        <dc:format>image/svg+xml</dc:format>
        <dc:type
           rdf:resource="http://purl.org/dc/dcmitype/StillImage" />
      </cc:Work>
    </rdf:RDF>
  </metadata>
  <defs
     id="defs1002" />
  <sodipodi:namedview
     pagecolor="#ffffff"
     bordercolor="#666666"
     borderopacity="1"
     objecttolerance="10"
     gridtolerance="10"
     guidetolerance="10"
     inkscape:pageopacity="0"
     inkscape:pageshadow="2"
     inkscape:window-width="1600"
     inkscape:window-height="900"
     id="namedview1000"
     showgrid="false"
     inkscape:zoom="9.9246223"
     inkscape:cx="13.401014"
     inkscape:cy="16.776457"
     inkscape:window-x="0"
     inkscape:window-y="0"
     inkscape:window-maximized="0"
     inkscape:current-layer="svg998"
     inkscape:showpageshadow="2"
     inkscape:pagecheckerboard="0"
     inkscape:deskcolor="#d1d1d1">
    <inkscape:grid
       type="xygrid"
       id="grid1549" />
  </sodipodi:namedview>
  <path
     id="rect1582"
     fill="#2e3436"
     style="opacity:1;stroke-width:0.816497;stroke-linejoin:round;stroke-dashoffset:4;paint-order:markers fill stroke"
     d="m 7.25,13 h 1.5 C 8.8885,13 9,13.1115 9,13.25 v 1.5 C 9,14.8885 8.8885,15 8.75,15 H 7.25 C 7.1115,15 7,14.8885 7,14.75 v -1.5 C 7,13.1115 7.1115,13 7.25,13 Z m -1,-3 h 3.5 C 9.8885,10 10,10.1115 10,10.25 v 1.5 C 10,11.8885 9.8885,12 9.75,12 H 6.25 C 6.1115,12 6,11.8885 6,11.75 v -1.5 C 6,10.1115 6.1115,10 6.25,10 Z m 1,-9 h 1.5 C 8.8885,1 9,1.1115 9,1.25 v 7.5 C 9,8.8885 8.8885,9 8.75,9 H 7.25 C 7.1115,9 7,8.8885 7,8.75 V 1.25 C 7,1.1115 7.1115,1 7.25,1 Z M 3.75,3 H 2.25 C 2.1115,3 2,2.8885 2,2.75 V 1.25 C 2,1.1115 2.1115,1 2.25,1 h 1.5 C 3.8885,1 4,1.1115 4,1.25 v 1.5 C 4,2.8885 3.8885,3 3.75,3 Z m 1,3 H 1.25 C 1.1115,6 1,5.8885 1,5.75 V 4.25 C 1,4.1115 1.1115,4 1.25,4 h 3.5 C 4.8885,4 5,4.1115 5,4.25 v 1.5 C 5,5.8885 4.8885,6 4.75,6 Z m -1,9 H 2.25 C 2.1115,15 2,14.8885 2,14.75 V 7.25 C 2,7.1115 2.1115,7 2.25,7 h 1.5 C 3.8885,7 4,7.1115 4,7.25 v 7.5 C 4,14.8885 3.8885,15 3.75,15 Z m 10,-11 h -1.5 C 12.1115,4 12,3.8885 12,3.75 V 1.25 C 12,1.1115 12.1115,1 12.25,1 h 1.5 C 13.8885,1 14,1.1115 14,1.25 v 2.5 C 14,3.8885 13.8885,4 13.75,4 Z m 1,3 h -3.5 C 11.1115,7 11,6.8885 11,6.75 V 5.25 C 11,5.1115 11.1115,5 11.25,5 h 3.5 C 14.8885,5 15,5.1115 15,5.25 v 1.5 C 15,6.8885 14.8885,7 14.75,7 Z m -1,8 h -1.5 C 12.1115,15 12,14.8885 12,14.75 V 8.25 C 12,8.1115 12.1115,8 12.25,8 h 1.5 C 13.8885,8 14,8.1115 14,8.25 v 6.5 C 14,14.8885 13.8885,15 13.75,15 Z" />
</svg>
