<?xml version="1.0" encoding="UTF-8"?>
<svg width="48" height="48" version="1.1" xmlns="http://www.w3.org/2000/svg"><path d="m41.665 0.01715-4.6298 4.3188c-1.358 1.2618-1.5941 3.4521-0.80391 5.1286l-17.692 18.015a4.4826 4.4705 0 0 0-0.08802 0 4.4826 4.4705 0 0 0-2.5291-0.44596 4.4826 4.4705 0 0 0-2.5995 1.3203l-11.859 12.012a4.4894 4.4774 0 1 0 6.402 6.2787l11.853-12.006a4.4826 4.4705 0 0 0 0.89193-5.2225l17.692-17.921c1.6765 0.7481 3.8247 0.43874 5.1286-0.88019l4.2543-4.6826zm-30.971 0.26993a10.515 10.515 0 0 0-3.4328 0.65134l5.6626 5.645c1.1627 1.1597 1.1627 3.0036 0 4.1663l-2.1359 2.1301a2.9443 2.9443 0 0 1-4.178 0l-5.6685-5.6509a10.434 10.434 0 0 0-0.64548 3.4269 10.383 10.383 0 0 0 10.392 10.369 10.515 10.515 0 0 0 3.4386-0.64548l3.5266 3.5149a7.4269 7.4058 0 0 1 0.18778 0l6.2142-6.1966-3.6147-3.6147c0.37555-1.0696 0.65134-2.2253 0.65134-3.421a10.383 10.383 0 0 0-10.398-10.375zm19.681 23.707-6.22 6.2024a7.4269 7.4058 0 0 1 0.09389 0.27579l3.4328 3.421a10.437 10.437 0 0 0-0.65134 3.4269 10.383 10.383 0 0 0 10.398 10.369c1.3039 0 2.5667-0.30373 3.7144-0.73936l-6.0323-6.0205a3.0344 3.0344 0 0 1 0-4.2543l2.0421-2.0362c0.57985-0.57985 1.3758-0.92714 2.1359-0.92714s1.5502 0.34729 2.1301 0.92714l5.8504 5.8328c0.31546-0.99145 0.55746-2.0516 0.55746-3.1452a10.383 10.383 0 0 0-10.392-10.375 10.515 10.515 0 0 0-3.4386 0.65134z" color="#000000" fill="#2e3436" style="text-decoration-line:none;text-indent:0;text-transform:none"/></svg>
