<?xml version="1.0" encoding="UTF-8"?>
<svg width="24" height="24" version="1.2" xmlns="http://www.w3.org/2000/svg"><path d="m2.4922 5.9609a0.53139 0.53139 0 0 0-0.27539 0.082031 0.53139 0.53139 0 0 0-0.019531 0.011719 0.53139 0.53139 0 0 0-0.0039062 0.0039063 0.53139 0.53139 0 0 0-0.22461 0.55859v10.883a0.53139 0.53139 0 1 0 1.0625 0v-10.469h18.469a0.53139 0.53139 0 1 0 0-1.0625h-18.916a0.53139 0.53139 0 0 0-0.091797-0.0078125zm5.3281 3.0391c-0.30686 0-0.59961 0.3211-0.59961 0.64258 0 0.10229 0.044125 0.2641 0.11719 0.43945 0.30686 0.71602 0.33594 0.83318 0.33594 1.3008v0.52539l-0.45312-0.26367c-0.37993-0.21919-0.57031-0.40856-0.96484-0.94922-0.21919-0.30686-0.37955-0.41016-0.64258-0.41016-0.33609 0-0.61328 0.26345-0.61328 0.57031 0 0.40915 0.26294 0.65733 0.75977 0.70117 0.67218 0.07306 0.90624 0.13143 1.3008 0.36523l0.45312 0.26367-0.45312 0.24805c-0.40915 0.2338-0.61399 0.29217-1.3008 0.36523-0.49683 0.05845-0.75977 0.29202-0.75977 0.70117 0 0.32148 0.27719 0.57031 0.61328 0.57031 0.26303 0 0.42339-0.10228 0.64258-0.39453 0.39454-0.55528 0.55569-0.71643 0.96484-0.96484l0.45312-0.26172v0.52539c0 0.4676-0.028134 0.59844-0.34961 1.3145-0.073063 0.17535-0.11719 0.33717-0.11719 0.43945 0 0.32148 0.30642 0.64258 0.61328 0.64258s0.61328-0.32204 0.61328-0.62891c0-0.1169-0.044125-0.27778-0.11719-0.45313-0.29225-0.7014-0.33594-0.84685-0.33594-1.3145v-0.52539l0.45312 0.26172c0.39454 0.2338 0.57031 0.41051 0.96484 0.95117 0.21919 0.30686 0.37955 0.4082 0.64258 0.4082 0.33609 0 0.61328-0.24884 0.61328-0.57031 0-0.40915-0.26294-0.64272-0.75977-0.70117-0.7014-0.07306-0.89163-0.13042-1.3008-0.34961l-0.45117-0.26367 0.45117-0.26367c0.40915-0.2338 0.62861-0.29217 1.3008-0.36523 0.49683-0.05845 0.75977-0.29202 0.75977-0.70117 0-0.32148-0.27719-0.57031-0.61328-0.57031-0.26303 0-0.42339 0.10329-0.64258 0.41016-0.39454 0.54066-0.57031 0.71542-0.96484 0.94922l-0.45312 0.26367v-0.52539c0-0.3507 0.058953-0.65899 0.20508-0.98047 0.2338-0.55528 0.24805-0.61364 0.24805-0.75977 0-0.33609-0.30642-0.64258-0.61328-0.64258z" color="#000000" color-rendering="auto" dominant-baseline="auto" fill="#2e3436" image-rendering="auto" shape-rendering="auto" solid-color="#000000" style="font-feature-settings:normal;font-variant-alternates:normal;font-variant-caps:normal;font-variant-ligatures:normal;font-variant-numeric:normal;font-variant-position:normal;isolation:auto;mix-blend-mode:normal;shape-padding:0;text-decoration-color:#000000;text-decoration-line:none;text-decoration-style:solid;text-indent:0;text-orientation:mixed;text-transform:none;white-space:normal"/></svg>
