<?xml version="1.0" encoding="UTF-8"?>
<svg width="24" height="24" version="1.2" xmlns="http://www.w3.org/2000/svg"><path d="m2.1412 8.6223-0.14124 2.5343h0.49024c0.12167-0.69262 0.2573-1.06 0.48193-1.3876 0.2995-0.44927 0.64963-0.66473 1.0802-0.66473 0.28078 0 0.34068 0.063981 0.34068 0.3822v4.5451c0 0.58967-9.57e-4 0.62309-0.066458 0.69797-0.084239 0.10296-0.27665 0.14124-0.77275 0.14124h-0.20774v0.50688h3.7806v-0.50686h-0.20774c-0.49606 0-0.68851-0.0383-0.77275-0.14124-0.065519-0.07488-0.066491-0.10832-0.066491-0.69797v-4.5451c0-0.31822 0.051609-0.3822 0.33239-0.3822 0.40245 0 0.7142 0.17294 1.0137 0.55671 0.26206 0.3463 0.40798 0.73749 0.5484 1.4956h0.49854l-0.14124-2.5343zm6.3648 0v0.49854c0.41181 0.02808 0.54391 0.10754 0.80598 0.48193l1.9194 2.7337-1.3793 1.6951c-0.54286 0.66455-0.80321 0.8205-1.3461 0.83922v0.50686h3.0993v-0.50686c-0.71135-0.01872-1.0137-0.16264-1.0137-0.49024 0-0.14976 0.06942-0.31554 0.1911-0.46531l0.8226-1.0469 1.022 1.4624c0.07488 0.0936 0.12466 0.22216 0.12466 0.31575 0 0.1591-0.1552 0.21497-0.62318 0.22433v0.50687h3.3735v-0.50686c-0.49607-0.01872-0.6079-0.10487-1.1882-0.94724l-1.6618-2.4096 1.371-1.6701c0.42117-0.49607 0.74304-0.68545 1.2297-0.72289v-0.49854h-2.8833v0.49854c0.58968 0 0.9057 0.17306 0.9057 0.48193 0 0.14976-0.09943 0.33617-0.32405 0.59825l-0.65642 0.80598-0.98047-1.4125c-0.06552-0.093599-0.09143-0.17438-0.09143-0.24926 0-0.17783 0.08756-0.20561 0.6398-0.22433v-0.49855zm7.1625 0-0.14124 2.5343h0.49024c0.12168-0.69262 0.2573-1.06 0.48193-1.3876 0.2995-0.44927 0.65794-0.66473 1.0885-0.66473 0.28078 0 0.33238 0.063981 0.33238 0.3822v4.5451c0 0.58967-9.57e-4 0.62309-0.06649 0.69797-0.08424 0.10296-0.27665 0.14124-0.77274 0.14124h-0.20774v0.50688h3.7806v-0.50686h-0.20774c-0.49607 0-0.68851-0.0383-0.77275-0.14124-0.06552-0.07488-0.06649-0.10832-0.06649-0.69797v-4.5451c0-0.31822 0.05161-0.3822 0.33238-0.3822 0.40245 0 0.7142 0.17294 1.0137 0.55671 0.26206 0.3463 0.40798 0.73749 0.5484 1.4956h0.49854l-0.14124-2.5343z" fill="#2e3436"/></svg>
