<?xml version="1.0" encoding="UTF-8" standalone="no"?>
<svg
   width="24"
   height="24"
   version="1.2"
   id="svg4"
   sodipodi:docname="tiednote.svg"
   inkscape:version="1.2.2 (b0a8486541, 2022-12-01)"
   xmlns:inkscape="http://www.inkscape.org/namespaces/inkscape"
   xmlns:sodipodi="http://sodipodi.sourceforge.net/DTD/sodipodi-0.dtd"
   xmlns="http://www.w3.org/2000/svg"
   xmlns:svg="http://www.w3.org/2000/svg">
  <defs
     id="defs8" />
  <sodipodi:namedview
     id="namedview6"
     pagecolor="#ffffff"
     bordercolor="#666666"
     borderopacity="1.0"
     inkscape:showpageshadow="2"
     inkscape:pageopacity="0.0"
     inkscape:pagecheckerboard="0"
     inkscape:deskcolor="#d1d1d1"
     showgrid="false"
     inkscape:zoom="30.958333"
     inkscape:cx="11.983849"
     inkscape:cy="11.983849"
     inkscape:window-width="1920"
     inkscape:window-height="1021"
     inkscape:window-x="0"
     inkscape:window-y="0"
     inkscape:window-maximized="1"
     inkscape:current-layer="svg4" />
  <path
     id="path933"
     fill="#232629"
     style="font-variant-ligatures:normal;font-variant-position:normal;font-variant-caps:normal;font-variant-numeric:normal;font-variant-alternates:normal;font-feature-settings:normal;text-indent:0;text-decoration-line:none;text-decoration-style:solid;text-decoration-color:#000000;text-transform:none;text-orientation:mixed;white-space:normal;shape-padding:0;isolation:auto;mix-blend-mode:normal"
     d="M 21.402344 2 C 21.255164 2 21.136719 2.1184451 21.136719 2.265625 L 21.136719 8.9511719 C 20.595819 8.5373323 19.863268 8.3339844 19.105469 8.3339844 C 18.01627 8.3339844 16.952493 8.7331062 15.996094 9.2910156 C 14.747395 10.034895 13.259766 11.335249 13.259766 13.248047 C 13.259766 14.895245 14.668451 15.666016 16.15625 15.666016 C 17.245449 15.666016 18.307273 15.266894 19.263672 14.708984 C 20.512371 13.965105 22 12.664751 22 10.751953 C 22 10.676803 21.982302 10.612526 21.976562 10.541016 C 21.981262 10.521136 22 10.507698 22 10.486328 L 22 2.265625 C 22 2.1184451 21.881555 2 21.734375 2 L 21.402344 2 z M 2.6816406 17 L 2.6796875 17.001953 C 2.6303995 16.994063 2.6030675 17.036369 2.5546875 17.042969 C 2.5355875 17.046569 2.51572 17.050754 2.515625 17.050781 C 2.515625 17.050881 2.5127127 17.05241 2.5117188 17.052734 C 2.388042 17.072654 2.2616 17.098824 2.1953125 17.166016 C 2.1689135 17.192496 2.1434406 17.222416 2.1191406 17.259766 A 0.49762 0.49762 0 0 0 2.1054688 17.279297 C 2.0820988 17.319447 2.0605119 17.366243 2.0449219 17.414062 C 1.9822919 17.601642 1.982717 17.756396 2.0605469 17.947266 A 0.49762 0.49762 0 0 0 2.0664062 17.958984 C 2.0770262 17.983154 2.0963869 18.018624 2.1230469 18.058594 C 2.1447969 18.091694 2.1536744 18.083612 2.1777344 18.107422 C 3.8237327 20.715119 6.6971497 22 9.5605469 22 C 12.414244 22 15.276883 20.719957 16.925781 18.130859 C 16.955471 18.104359 16.964631 18.114272 16.994141 18.070312 A 0.49762 0.49762 0 0 0 17.009766 18.046875 C 17.027306 18.017305 17.031695 18.009909 17.015625 18.037109 A 0.49762 0.49762 0 0 1 17.017578 18.035156 C 17.040508 17.995636 17.060492 17.946577 17.076172 17.898438 C 17.138222 17.711768 17.138147 17.55932 17.060547 17.369141 A 0.49762 0.49762 0 0 0 17.054688 17.353516 C 17.045548 17.333046 17.026569 17.300498 17.005859 17.267578 C 16.998699 17.256088 16.973344 17.248218 16.964844 17.236328 A 0.49762 0.49762 0 0 0 16.658203 17.005859 C 16.656703 17.005559 16.655797 17.008169 16.654297 17.007812 L 16.652344 17.007812 C 16.610924 16.998083 16.580039 17.035709 16.537109 17.037109 C 16.529719 17.035609 16.51567 17.033207 16.515625 17.033203 C 16.515475 17.033193 16.414029 17.046134 16.355469 17.052734 C 16.405849 17.047394 16.517744 17.035171 16.517578 17.035156 C 16.517538 17.035156 16.529556 17.037963 16.535156 17.039062 C 16.418506 17.043392 16.310189 17.064494 16.224609 17.121094 C 16.269259 17.090194 16.318427 17.05662 16.318359 17.056641 C 16.317109 17.056841 16.30665 17.058592 16.306641 17.058594 C 16.306581 17.058624 16.258963 17.092534 16.220703 17.121094 C 16.208513 17.129214 16.186601 17.124113 16.175781 17.132812 L 16.175781 17.134766 C 16.167851 17.141066 16.149678 17.135978 16.142578 17.142578 A 0.49762 0.49762 0 0 0 16.068359 17.230469 L 16.066406 17.232422 C 16.043296 17.254942 16.038542 17.24503 16.013672 17.28125 C 14.643873 19.240248 12.118744 20.292969 9.5605469 20.292969 C 7.0108535 20.292969 4.4920922 19.247252 3.1191406 17.300781 C 3.0982106 17.266991 3.0924825 17.277656 3.0703125 17.253906 A 0.49762 0.49762 0 0 0 3.0664062 17.248047 A 0.49762 0.49762 0 0 0 3.0371094 17.208984 C 3.0370794 17.208944 3.0040612 17.188234 2.9882812 17.177734 C 2.9860413 17.176234 2.9830887 17.173975 2.9804688 17.171875 C 2.9719048 17.166245 2.9654712 17.16185 2.9570312 17.15625 C 2.9434273 17.1469 2.9310146 17.137706 2.9160156 17.128906 C 2.8907997 17.112206 2.8622409 17.093598 2.8417969 17.080078 C 2.8519799 17.087698 2.872794 17.103808 2.890625 17.117188 C 2.848704 17.094378 2.8069286 17.070784 2.7597656 17.052734 C 2.7780856 17.054834 2.8068938 17.058406 2.8085938 17.058594 C 2.8081938 17.058294 2.8027384 17.054688 2.8027344 17.054688 C 2.8026844 17.054488 2.7727594 17.050528 2.7558594 17.048828 C 2.7234094 17.036838 2.7190506 17.006 2.6816406 17 z M 16.1875 17.146484 C 16.13137 17.188374 16.087589 17.220409 16.074219 17.230469 L 16.074219 17.228516 C 16.083949 17.217036 16.08475 17.219737 16.09375 17.210938 C 16.10395 17.203908 16.14115 17.178544 16.1875 17.146484 z M 2.2324219 17.791016 C 2.2506219 17.820676 2.2579238 17.808128 2.2773438 17.830078 C 2.2724138 17.824048 2.254 17.820053 2.25 17.814453 L 2.2324219 17.791016 z M 2.2597656 17.826172 C 2.2627356 17.828392 2.2789094 17.841556 2.2871094 17.847656 C 2.2880094 17.848856 2.2882565 17.850363 2.2890625 17.851562 C 2.2965135 17.862232 2.3089063 17.868296 2.3164062 17.878906 C 2.3044763 17.871026 2.2773188 17.851537 2.2773438 17.851562 L 2.2597656 17.826172 z M 16.830078 17.859375 L 16.822266 17.867188 C 16.820766 17.868699 16.816053 17.867741 16.814453 17.869141 C 16.819043 17.865941 16.826778 17.861675 16.830078 17.859375 z M 16.958984 18.089844 L 16.943359 18.111328 C 16.938559 18.118028 16.938394 18.112941 16.933594 18.119141 C 16.940704 18.107941 16.951884 18.101094 16.958984 18.089844 z " />
</svg>
