<?xml version="1.0" encoding="UTF-8"?>
<svg width="24" height="24" version="1.2" xmlns="http://www.w3.org/2000/svg"><g transform="matrix(4.9782 0 0 4.9782 42.53 42.59)" fill="#2e3436"><path d="m-6.1448-4.6041h0.468c0 0.192 0.108 0.376 0.288 0.376 0.032 0 0.048 0.02 0.048 0.044s-0.016 0.048-0.048 0.048c-0.176 0-0.348-0.052-0.524-0.052s-0.348 0.052-0.524 0.052c-0.032 0-0.048-0.024-0.048-0.048s0.016-0.044 0.048-0.044c0.18 0 0.292-0.184 0.292-0.376zm0.032-0.76c0.088-0.056 0.176-0.116 0.24-0.2 0.044-0.06 0.076-0.132 0.108-0.2 8e-3 -0.016 0.02-0.024 0.036-0.024 0.024 0 0.052 0.02 0.052 0.056v0.98h0.288c0.04 0 0.06 0.028 0.06 0.056s-0.02 0.06-0.06 0.06h-0.288v0.032h-0.468v-0.032h-0.668c-0.092 0-0.124-0.056-0.124-0.092 0-0.012 4e-3 -0.02 8e-3 -0.024 0.32-0.372 0.552-0.828 0.552-1.32 0-0.04 0.028-0.076 0.064-0.064 0.092 0.028 0.188 0.052 0.284 0.052s0.192-0.024 0.284-0.052c0.056-0.016 0.092 0.036 0.068 0.064l-1.136 1.32h0.668v-0.524c0-0.032 4e-3 -0.068 0.032-0.088z"/><path d="m-6.1448-6.6186h0.468c0 0.192 0.108 0.376 0.288 0.376 0.032 0 0.048 0.02 0.048 0.044s-0.016 0.048-0.048 0.048c-0.176 0-0.348-0.052-0.524-0.052s-0.348 0.052-0.524 0.052c-0.032 0-0.048-0.024-0.048-0.048s0.016-0.044 0.048-0.044c0.18 0 0.292-0.184 0.292-0.376zm0.032-0.76c0.088-0.056 0.176-0.116 0.24-0.2 0.044-0.06 0.076-0.132 0.108-0.2 8e-3 -0.016 0.02-0.024 0.036-0.024 0.024 0 0.052 0.02 0.052 0.056v0.98h0.288c0.04 0 0.06 0.028 0.06 0.056s-0.02 0.06-0.06 0.06h-0.288v0.032h-0.468v-0.032h-0.668c-0.092 0-0.124-0.056-0.124-0.092 0-0.012 4e-3 -0.02 8e-3 -0.024 0.32-0.372 0.552-0.828 0.552-1.32 0-0.04 0.028-0.076 0.064-0.064 0.092 0.028 0.188 0.052 0.284 0.052s0.192-0.024 0.284-0.052c0.056-0.016 0.092 0.036 0.068 0.064l-1.136 1.32h0.668v-0.524c0-0.032 4e-3 -0.068 0.032-0.088z"/></g></svg>
