<?xml version="1.0" encoding="UTF-8" standalone="no"?>
<svg
   height="16px"
   viewBox="0 0 16 16"
   width="16px"
   version="1.1"
   id="svg4"
   sodipodi:docname="transport_count_in.svg"
   inkscape:version="1.2.2 (b0a8486541, 2022-12-01)"
   xmlns:inkscape="http://www.inkscape.org/namespaces/inkscape"
   xmlns:sodipodi="http://sodipodi.sourceforge.net/DTD/sodipodi-0.dtd"
   xmlns="http://www.w3.org/2000/svg"
   xmlns:svg="http://www.w3.org/2000/svg">
  <defs
     id="defs8" />
  <sodipodi:namedview
     id="namedview6"
     pagecolor="#ffffff"
     bordercolor="#666666"
     borderopacity="1.0"
     inkscape:showpageshadow="2"
     inkscape:pageopacity="0.0"
     inkscape:pagecheckerboard="0"
     inkscape:deskcolor="#d1d1d1"
     showgrid="false"
     inkscape:zoom="31.289475"
     inkscape:cx="-3.0841042"
     inkscape:cy="8.1976447"
     inkscape:window-width="1920"
     inkscape:window-height="888"
     inkscape:window-x="0"
     inkscape:window-y="0"
     inkscape:window-maximized="1"
     inkscape:current-layer="svg4" />
  <path
     id="text1884"
     fill="#2e3436"
     style="font-style:normal;font-variant:normal;font-weight:normal;font-stretch:normal;font-size:9.51832px;line-height:1.25;font-family:Cantarell;-inkscape-font-specification:'Cantarell, Normal';font-variant-ligatures:normal;font-variant-caps:normal;font-variant-numeric:normal;font-variant-east-asian:normal;letter-spacing:0px;word-spacing:0px;fill-opacity:1;stroke:none;stroke-width:0.237959"
     d="M 11.259766 0.8359375 C 10.469746 0.8359375 9.7178557 1.1214934 9.2324219 1.5878906 L 9.4511719 2.140625 C 9.9556423 1.7313376 10.583667 1.53125 11.097656 1.53125 C 11.944786 1.53125 12.46875 2.0361521 12.46875 2.8261719 C 12.46875 3.7875212 11.696479 4.7863872 9.3359375 7.0136719 L 9.3359375 7.5371094 L 13.525391 7.5371094 L 13.525391 6.8515625 L 10.488281 6.8515625 C 12.563273 4.8812722 13.267578 3.8148142 13.267578 2.7011719 C 13.267578 1.539938 12.478109 0.8359375 11.259766 0.8359375 z M 5.2304688 0.99609375 L 2.8808594 2.2128906 L 3.1660156 2.7558594 L 4.9355469 1.9082031 L 4.9355469 7.6484375 L 5.6875 7.6484375 L 5.6875 0.99609375 L 5.2304688 0.99609375 z M 4.1464844 8.4199219 C 3.461166 8.4199219 2.6982991 8.6392681 2.1367188 8.9628906 L 2.3183594 9.5527344 C 2.9084946 9.2576667 3.5262849 9.1054688 4.0117188 9.1054688 C 4.8588484 9.1054688 5.4785156 9.5429499 5.4785156 10.21875 C 5.4785156 10.942142 4.7736021 11.427734 3.8027344 11.427734 L 3.2890625 11.427734 L 3.2890625 12.103516 L 3.9746094 12.103516 C 5.0787334 12.103516 5.7734375 12.578874 5.7734375 13.359375 C 5.7734375 14.101803 5.1268704 14.511719 4.1464844 14.511719 C 3.5658674 14.511719 2.7944714 14.369039 2.1757812 14.064453 L 2.0039062 14.701172 C 2.6416331 15.024794 3.4223508 15.216797 4.1171875 15.216797 C 5.5639707 15.216797 6.5644531 14.454697 6.5644531 13.3125 C 6.5644531 12.455852 5.9821172 11.828074 5.0683594 11.675781 C 5.7727144 11.466378 6.2207031 10.885006 6.2207031 10.142578 C 6.2207031 9.095564 5.3743464 8.4199219 4.1464844 8.4199219 z M 12.072266 8.5058594 L 8.7597656 13.150391 L 8.7597656 13.550781 L 12.054688 13.550781 L 12.054688 15.207031 L 12.806641 15.207031 L 12.806641 13.550781 L 13.996094 13.550781 L 13.996094 12.902344 L 12.806641 12.902344 L 12.806641 8.5058594 L 12.072266 8.5058594 z M 12.064453 9.5058594 L 12.054688 12.902344 L 9.6933594 12.902344 L 12.064453 9.5058594 z " />
</svg>
