<?xml version="1.0" encoding="UTF-8" standalone="no"?>
<svg
   height="16px"
   viewBox="0 0 16 16"
   width="16px"
   version="1.1"
   id="svg4"
   sodipodi:docname="transport_count_in.svg"
   inkscape:version="1.2.2 (b0a8486541, 2022-12-01)"
   xmlns:inkscape="http://www.inkscape.org/namespaces/inkscape"
   xmlns:sodipodi="http://sodipodi.sourceforge.net/DTD/sodipodi-0.dtd"
   xmlns="http://www.w3.org/2000/svg"
   xmlns:svg="http://www.w3.org/2000/svg">
  <defs
     id="defs8" />
  <sodipodi:namedview
     id="namedview6"
     pagecolor="#ffffff"
     bordercolor="#666666"
     borderopacity="1.0"
     inkscape:showpageshadow="2"
     inkscape:pageopacity="0.0"
     inkscape:pagecheckerboard="0"
     inkscape:deskcolor="#d1d1d1"
     showgrid="true"
     inkscape:zoom="44.25"
     inkscape:cx="2.519774"
     inkscape:cy="9.2655367"
     inkscape:window-width="1920"
     inkscape:window-height="1021"
     inkscape:window-x="0"
     inkscape:window-y="0"
     inkscape:window-maximized="1"
     inkscape:current-layer="svg4">
    <inkscape:grid
       type="xygrid"
       id="grid893" />
  </sodipodi:namedview>
  <g
     aria-label="2"
     transform="matrix(1.0196953,0,0,1.2808947,-1.1428565,-1.142855)"
     id="text1387"
     style="font-weight:bold;font-size:8.14068px;font-family:Cantarell;-inkscape-font-specification:'Cantarell, Bold';fill:#232629;stroke-width:0.830348" />
  <g
     aria-label="4"
     transform="matrix(1.0196953,0,0,1.2808947,-1.1428565,-1.142855)"
     id="text1387-5"
     style="font-weight:bold;font-size:8.14068px;font-family:Cantarell;-inkscape-font-specification:'Cantarell, Bold';fill:#232629;stroke-width:0.830348" />
  <g
     aria-label="1"
     transform="matrix(1.0196953,0,0,1.2808947,-1.1428565,-1.142855)"
     id="text1387-3"
     style="font-weight:bold;font-size:8.14068px;font-family:Cantarell;-inkscape-font-specification:'Cantarell, Bold';fill:#232629;stroke-width:0.830348" />
  <g
     aria-label="3"
     transform="matrix(1.0196953,0,0,1.2808947,-1.1428565,-1.142855)"
     id="text1387-5-4"
     style="font-weight:bold;font-size:8.14068px;font-family:Cantarell;-inkscape-font-specification:'Cantarell, Bold';fill:#232629;stroke-width:0.830348">
    <path
       id="path1680"
       fill="#2e3436"
       d="m 5.0632789,13.383502 c 1.3839157,0 2.3119532,-0.651254 2.3119532,-1.644417 0,-0.71638 -0.4884408,-1.261806 -1.2536647,-1.400197 0.5861289,-0.162814 0.9524596,-0.6349733 0.9524596,-1.2699463 0,-0.9198969 -0.740802,-1.4978852 -1.8886379,-1.4978852 -0.634973,0 -1.2943682,0.1790949 -1.8397937,0.4884408 L 3.5816751,8.8410026 C 4.0863973,8.6049229 4.5666974,8.474672 4.9737314,8.474672 c 0.6186917,0 1.0420071,0.2849238 1.0420071,0.7326612 0,0.4965815 -0.5047222,0.8303498 -1.2292427,0.8303498 H 4.3713211 v 0.822208 h 0.4884408 c 0.8791935,0 1.4409004,0.333768 1.4409004,0.871053 0,0.4803 -0.4558781,0.748943 -1.19668,0.748943 -0.4965815,0 -1.0989918,-0.11397 -1.5955733,-0.341909 l -0.2442204,0.83035 c 0.5779883,0.276783 1.1722579,0.415174 1.7990903,0.415174 z m 0.59834,-6.8253582 H 6.703626 V 0.89223035 H 6.0767936 L 3.9357947,1.9830815 4.3265473,2.7238834 5.6616189,2.1214731 Z m 6.9878301,6.8253582 h 1.017585 v -1.229243 h 1.001304 V 11.283206 H 13.667034 V 7.676885 h -0.993163 l -2.7271276,3.931949 v 0.545425 H 12.649449 Z M 11.062017,11.275066 12.649449,8.8898463 V 11.275066 Z M 10.488099,6.6232724 h 3.793557 V 5.7115162 h -2.27125 c 1.473463,-1.2943681 2.084014,-2.214265 2.084014,-3.1423026 0,-1.0257257 -0.757083,-1.67698012 -1.91306,-1.67698012 -0.708239,0 -1.359493,0.23607972 -1.847934,0.65939512 l 0.276783,0.7570833 c 0.447737,-0.3337679 0.936178,-0.4965815 1.359494,-0.4965815 0.643113,0 1.042007,0.3663306 1.042007,0.9198968 0,0.7570833 -0.781506,1.6118547 -2.523611,3.1667247 z" />
  </g>
</svg>
