<?xml version="1.0" encoding="UTF-8" standalone="no"?>
<svg
   height="16px"
   viewBox="0 0 16 16"
   width="16px"
   version="1.1"
   id="svg6"
   sodipodi:docname="transport_metronome_NEU.svg"
   inkscape:version="1.2.2 (b0a8486541, 2022-12-01)"
   xmlns:inkscape="http://www.inkscape.org/namespaces/inkscape"
   xmlns:sodipodi="http://sodipodi.sourceforge.net/DTD/sodipodi-0.dtd"
   xmlns="http://www.w3.org/2000/svg"
   xmlns:svg="http://www.w3.org/2000/svg">
  <defs
     id="defs10" />
  <sodipodi:namedview
     id="namedview8"
     pagecolor="#ffffff"
     bordercolor="#666666"
     borderopacity="1.0"
     inkscape:showpageshadow="2"
     inkscape:pageopacity="0.0"
     inkscape:pagecheckerboard="0"
     inkscape:deskcolor="#d1d1d1"
     showgrid="true"
     inkscape:zoom="256"
     inkscape:cx="8.578125"
     inkscape:cy="2.9492188"
     inkscape:window-width="1920"
     inkscape:window-height="1021"
     inkscape:window-x="0"
     inkscape:window-y="0"
     inkscape:window-maximized="1"
     inkscape:current-layer="svg6">
    <inkscape:grid
       type="xygrid"
       id="grid396" />
  </sodipodi:namedview>
  <path
     id="path1627"
     fill="#2e3436"
     style="stroke-width:1.10612"
     class="UnoptimicedTransforms"
     d="M 7.4099314,1.983e-4 C 7.1244818,0.00242764 6.7947042,0.02166561 6.5368845,0.1486358 6.0374261,0.39460721 5.571348,0.84890959 5.3552439,1.3302764 4.8121168,2.540079 4.3769106,3.4906152 3.9782907,4.3595733 l -0.097656,-0.09375 C 4.088069,3.6064188 3.8901693,2.8866445 3.3747751,2.4259795 2.6551811,1.7831245 1.5520906,1.8397603 0.90211887,2.5529327 0.25139082,3.265994 0.2967096,4.3702032 1.0036814,5.027542 1.4844446,5.471919 2.1721769,5.6126257 2.7888376,5.3927764 l 0.5,0.4746094 c -0.5190832,1.132898 -0.9640378,2.1145723 -1.4453125,3.25 -0.5296275,1.3335872 -0.97298407,1.8322602 -0.8378906,3.3300782 0.068204,1.464991 0.9088808,3.10014 2.4414062,3.447266 0.9397454,0.183356 1.90533,0.06966 2.8574219,0.101562 1.8973868,-0.0092 3.7966544,0.01782 5.6933594,-0.01563 1.139048,-0.05618 2.13588,-0.844116 2.564453,-1.884766 C 15.215795,12.72209 15.117793,10.96261 14.447041,9.6330058 13.386887,7.0918592 11.761913,4.2437376 10.224384,1.3146514 9.888615,0.67498917 9.3304023,0.40237481 8.7575876,0.1564483 8.423252,0.01290799 8.2107067,1.983e-4 7.6775095,1.983e-4 c -0.08077,0 -0.1724282,-7.4311399e-4 -0.2675781,0 z m 0.4667968,2.09375 c 0.6695342,-0.00267 0.8444738,0.6088892 1.0859375,1.1191406 0.1936631,0.4092406 2.8881583,5.8144179 4.0507813,8.7226561 0.167152,0.817317 -0.261762,1.802429 -1.091797,2.056641 -2.5073713,0.01273 -5.0158016,-0.02116 -7.5234374,-0.0293 C 3.5593719,13.806368 2.8631244,12.910088 3.1404001,12.049026 3.4407522,10.970078 3.9914481,9.9785986 4.3923532,8.933792 4.5665687,8.5103082 4.7798298,8.0057438 4.997822,7.4923858 l 1.2070312,1.1464844 c -0.1907588,0.6295027 -0.014463,1.3128389 0.4570313,1.7714848 0.6924675,0.671063 1.7960573,0.65974 2.4746094,-0.02539 0.6780467,-0.6855305 0.6780467,-1.789079 0,-2.4746095 C 8.6518457,7.4205343 7.9258775,7.2586991 7.279072,7.496292 L 5.6560251,5.9533233 C 6.219357,4.6451245 6.7302861,3.4710199 6.8474314,3.1916045 7.0565542,2.6928042 7.1796648,2.0910911 7.8767282,2.0939483 Z m 29.5546878,6.40625 c -0.352214,0.0035 -0.697253,0.1045896 -1,0.2929687 -0.398093,0.2493181 -0.700623,0.6361141 -0.855469,1.09375 l -0.0059,-0.00195 -0.740235,2.210937 -0.541015,-0.826171 C 34.545896,10.642817 34.468736,9.9270648 34.083759,9.3673858 33.482018,8.4975817 32.311721,8.2421665 31.407978,8.7834014 c -0.90328,0.5406185 -1.231199,1.6917506 -0.75,2.6328126 0.386583,0.756325 1.205428,1.188819 2.044922,1.080078 l 1.316406,2.013672 -2.484375,7.412109 h 0.002 c -0.05296,0.17429 -0.08187,0.354996 -0.08594,0.53711 -0.01535,0.720219 0.357637,1.393094 0.976562,1.761718 0.314357,0.186223 0.673704,0.282815 1.039063,0.279297 h 9.96875 c 0.359581,-2.61e-4 0.712447,-0.09742 1.021484,-0.28125 0.61906,-0.367783 0.992755,-1.039837 0.978516,-1.759765 -0.0041,-0.182114 -0.03298,-0.36282 -0.08594,-0.53711 L 41.314228,9.8830108 h -0.002 C 41.156184,9.4265061 40.853009,9.0411488 40.454853,8.793167 40.146215,8.6019605 39.793996,8.501423 39.435322,8.5021514 v -0.00195 h -2 c -0.0013,-1.3e-6 -0.0026,-1.3e-6 -0.0039,0 z m 0.08984,1.9999997 c -0.506865,3.9e-5 1.133765,-0.0047 1.800835,-0.0039 0.115618,1.34e-4 0.205025,0.310568 0.205025,0.310568 l 3.90625,11.650391 -0.02344,0.04297 h -9.933593 l -0.02344,-0.04102 1.953125,-5.828125 1.257813,1.923828 c -0.336068,0.645291 -0.29569,1.423697 0.105468,2.033203 0.588274,0.890058 1.766878,1.166266 2.683594,0.628906 0.916736,-0.53825 1.250487,-1.702518 0.759766,-2.65039 -0.359348,-0.690562 -1.083928,-1.112219 -1.859375,-1.082032 l -2.136719,-3.267578 1.142578,-3.410156 c 0,0 0.08551,-0.307361 0.201133,-0.306641 z"
     transform="translate(-30.435322,-8.5001983)"
     sodipodi:nodetypes="sssccccccccccccccsssscsccccccccccccscsccccccccccccccccccccccccccsscccccccccccccscs" />
</svg>
