<?xml version="1.0" encoding="UTF-8" standalone="no"?>
<svg
   height="16px"
   viewBox="0 0 16 16"
   width="16px"
   version="1.1"
   id="svg6"
   sodipodi:docname="transport_metronome.svg"
   inkscape:version="1.2.2 (b0a8486541, 2022-12-01)"
   xmlns:inkscape="http://www.inkscape.org/namespaces/inkscape"
   xmlns:sodipodi="http://sodipodi.sourceforge.net/DTD/sodipodi-0.dtd"
   xmlns="http://www.w3.org/2000/svg"
   xmlns:svg="http://www.w3.org/2000/svg">
  <defs
     id="defs10" />
  <sodipodi:namedview
     id="namedview8"
     pagecolor="#ffffff"
     bordercolor="#666666"
     borderopacity="1.0"
     inkscape:showpageshadow="2"
     inkscape:pageopacity="0.0"
     inkscape:pagecheckerboard="0"
     inkscape:deskcolor="#d1d1d1"
     showgrid="true"
     inkscape:zoom="52.249127"
     inkscape:cx="7.5025177"
     inkscape:cy="8.0001336"
     inkscape:window-width="1920"
     inkscape:window-height="1021"
     inkscape:window-x="0"
     inkscape:window-y="0"
     inkscape:window-maximized="1"
     inkscape:current-layer="svg6">
    <inkscape:grid
       type="xygrid"
       id="grid396" />
  </sodipodi:namedview>
  <path
     id="path1627"
     fill="#2e3436"
     style="stroke-width:1.10612"
     class="UnoptimicedTransforms"
     d="m 37.431416,8.5001983 c -0.352214,0.0035 -0.697253,0.1045896 -1,0.2929687 -0.398093,0.2493181 -0.700623,0.6361141 -0.855469,1.09375 l -0.0059,-0.00195 -0.740235,2.210937 -0.541015,-0.826171 C 34.545896,10.642817 34.468736,9.9270648 34.083759,9.3673858 33.482018,8.4975817 32.311721,8.2421665 31.407978,8.7834014 c -0.90328,0.5406185 -1.231199,1.6917506 -0.75,2.6328126 0.386583,0.756325 1.205428,1.188819 2.044922,1.080078 l 1.316406,2.013672 -2.484375,7.412109 h 0.002 c -0.05296,0.17429 -0.08187,0.354996 -0.08594,0.53711 -0.01535,0.720219 0.357637,1.393094 0.976562,1.761718 0.314357,0.186223 0.673704,0.282815 1.039063,0.279297 h 9.96875 c 0.359581,-2.61e-4 0.712447,-0.09742 1.021484,-0.28125 0.61906,-0.367783 0.992755,-1.039837 0.978516,-1.759765 -0.0041,-0.182114 -0.03298,-0.36282 -0.08594,-0.53711 L 41.314228,9.8830108 h -0.002 C 41.156184,9.4265061 40.853009,9.0411488 40.454853,8.793167 40.146215,8.6019605 39.793996,8.501423 39.435322,8.5021514 v -0.00195 h -2 c -0.0013,-1.3e-6 -0.0026,-1.3e-6 -0.0039,0 z m 0.08984,1.9999997 c -0.506865,3.9e-5 1.133765,-0.0047 1.800835,-0.0039 0.115618,1.34e-4 0.205025,0.310568 0.205025,0.310568 l 3.90625,11.650391 -0.02344,0.04297 h -9.933593 l -0.02344,-0.04102 1.953125,-5.828125 1.257813,1.923828 c -0.336068,0.645291 -0.29569,1.423697 0.105468,2.033203 0.588274,0.890058 1.766878,1.166266 2.683594,0.628906 0.916736,-0.53825 1.250487,-1.702518 0.759766,-2.65039 -0.359348,-0.690562 -1.083928,-1.112219 -1.859375,-1.082032 l -2.136719,-3.267578 1.142578,-3.410156 c 0,0 0.08551,-0.307361 0.201133,-0.306641 z"
     transform="translate(-30.435322,-8.5001983)"
     sodipodi:nodetypes="sccccccccccccccccccccccccccsscccccccccccccscs" />
</svg>
