<?xml version="1.0" encoding="UTF-8"?>
<svg id="svg6" width="16px" height="16px" version="1.1" viewBox="0 0 16 16" xmlns="http://www.w3.org/2000/svg">
 <path id="path1627" class="UnoptimicedTransforms" transform="translate(-30.435 -8.5002)" d="m37.431 8.5002c-0.35221 0.0035-0.69725 0.10459-1 0.29297-0.39809 0.24932-0.70062 0.63611-0.85547 1.0938l-0.0059-0.00195-0.74024 2.2109-0.54102-0.82617c0.2571-0.62692 0.17994-1.3427-0.20504-1.9023-0.60174-0.8698-1.772-1.1252-2.6758-0.58398-0.90328 0.54062-1.2312 1.6918-0.75 2.6328 0.38658 0.75632 1.2054 1.1888 2.0449 1.0801l1.3164 2.0137-2.4844 7.4121h2e-3c-0.05296 0.17429-0.08187 0.355-0.08594 0.53711-0.01535 0.72022 0.35764 1.3931 0.97656 1.7617 0.31436 0.18622 0.6737 0.28282 1.0391 0.2793h9.9688c0.35958-2.61e-4 0.71245-0.09742 1.0215-0.28125 0.61906-0.36778 0.99276-1.0398 0.97852-1.7598-0.0041-0.18211-0.03298-0.36282-0.08594-0.53711l-4.0352-12.039h-2e-3c-0.15604-0.4565-0.45922-0.84186-0.85738-1.0898-0.30864-0.19121-0.66086-0.29174-1.0195-0.29102v-0.00195h-2c-0.0013-1.3e-6 -0.0026-1.3e-6 -0.0039 0zm0.08984 2c-0.50686 3.9e-5 1.1338-0.0047 1.8008-0.0039 0.11562 1.34e-4 0.20502 0.31057 0.20502 0.31057l3.9062 11.65-0.02344 0.04297h-9.9336l-0.02344-0.04102 1.9531-5.8281 1.2578 1.9238c-0.33607 0.64529-0.29569 1.4237 0.10547 2.0332 0.58827 0.89006 1.7669 1.1663 2.6836 0.62891 0.91674-0.53825 1.2505-1.7025 0.75977-2.6504-0.35935-0.69056-1.0839-1.1122-1.8594-1.082l-2.1367-3.2676 1.1426-3.4102s0.08551-0.30736 0.20113-0.30664z" fill="#2e3436" stroke-width="1.1061"/>
</svg>
