<?xml version="1.0" encoding="UTF-8" standalone="no"?>
<svg
   width="24"
   height="24"
   version="1.2"
   id="svg4"
   sodipodi:docname="tripletfeel.svg"
   inkscape:version="1.2.2 (b0a8486541, 2022-12-01)"
   xmlns:inkscape="http://www.inkscape.org/namespaces/inkscape"
   xmlns:sodipodi="http://sodipodi.sourceforge.net/DTD/sodipodi-0.dtd"
   xmlns="http://www.w3.org/2000/svg"
   xmlns:svg="http://www.w3.org/2000/svg">
  <defs
     id="defs8" />
  <sodipodi:namedview
     id="namedview6"
     pagecolor="#ffffff"
     bordercolor="#666666"
     borderopacity="1.0"
     inkscape:showpageshadow="2"
     inkscape:pageopacity="0.0"
     inkscape:pagecheckerboard="0"
     inkscape:deskcolor="#d1d1d1"
     showgrid="false"
     inkscape:zoom="29.5"
     inkscape:cx="14.40678"
     inkscape:cy="12.016949"
     inkscape:window-width="1920"
     inkscape:window-height="888"
     inkscape:window-x="0"
     inkscape:window-y="0"
     inkscape:window-maximized="1"
     inkscape:current-layer="svg4" />
  <path
     id="path2"
     fill="#232629"
     style="stroke-width:0.919187"
     d="M 12 1.9492188 C 8.5304498 1.9492188 5.0496675 3.5044952 3.0449219 6.6523438 C 3.0088249 6.6845617 2.9987666 6.6731116 2.9628906 6.7265625 C 2.9562906 6.7358835 2.9494294 6.7441863 2.9433594 6.7539062 C 2.9220434 6.7898562 2.9160049 6.8006501 2.9355469 6.7675781 L 2.9335938 6.7695312 C 2.9057148 6.8175799 2.8803921 6.8770219 2.8613281 6.9355469 C 2.7858802 7.1625013 2.7865175 7.3469027 2.8808594 7.578125 C 2.8831594 7.584505 2.8861919 7.5913163 2.8886719 7.5976562 C 2.8997849 7.622541 2.9220887 7.663104 2.9472656 7.703125 C 2.9559616 7.717096 2.9876789 7.7257754 2.9980469 7.7402344 C 3.079883 7.8796997 3.2143635 7.9796986 3.3710938 8.0195312 C 3.3729337 8.0199012 3.37316 8.0171442 3.375 8.0175781 L 3.3769531 8.0175781 C 3.4273191 8.0294081 3.4653872 7.9841719 3.5175781 7.9824219 C 3.5265771 7.9842619 3.5429137 7.9863235 3.5429688 7.9863281 C 3.5431517 7.9863461 3.6670813 7.9708906 3.7382812 7.9628906 C 3.6770285 7.9693796 3.5408142 7.9843566 3.5410156 7.984375 C 3.5410616 7.984375 3.5264212 7.9818487 3.5195312 7.9804688 C 3.6613553 7.9752038 3.7943893 7.9496693 3.8984375 7.8808594 C 3.8441476 7.9184263 3.7831204 7.9590101 3.7832031 7.9589844 C 3.7847281 7.9588044 3.7988171 7.9570339 3.7988281 7.9570312 C 3.7988962 7.9569943 3.8558238 7.9155863 3.9023438 7.8808594 C 3.9171697 7.8710224 3.9438773 7.8758144 3.9570312 7.8652344 L 3.9570312 7.8632812 C 3.9666832 7.8556313 3.9894069 7.8615156 3.9980469 7.8535156 C 4.0321578 7.8214984 4.0620427 7.7870388 4.0878906 7.7480469 L 4.0898438 7.7441406 C 4.1179427 7.7167587 4.1240559 7.7295848 4.1542969 7.6855469 C 5.8197101 5.3037795 8.8897208 4.0234375 12 4.0234375 C 15.112103 4.0234375 18.184876 5.3050112 19.849609 7.6894531 L 19.832031 7.6621094 C 19.857481 7.7031873 19.863675 7.689878 19.890625 7.71875 C 19.892325 7.72114 19.892931 7.7242625 19.894531 7.7265625 C 19.905631 7.7429605 19.918991 7.7582065 19.931641 7.7734375 C 19.931681 7.7734835 19.971054 7.7977789 19.990234 7.8105469 C 19.992934 7.8123869 19.9969 7.8157894 20 7.8183594 C 20.01041 7.8251984 20.019087 7.8310906 20.029297 7.8378906 C 20.045857 7.8492516 20.059885 7.8603948 20.078125 7.8710938 C 20.108795 7.8913987 20.143119 7.9132525 20.167969 7.9296875 C 20.155579 7.9204215 20.131045 7.9010356 20.109375 7.8847656 C 20.160341 7.9124976 20.210238 7.9409406 20.267578 7.9628906 C 20.245298 7.9603206 20.210984 7.9572592 20.208984 7.9570312 C 20.209484 7.9574012 20.216791 7.9609375 20.216797 7.9609375 C 20.216847 7.9612175 20.252898 7.96673 20.273438 7.96875 C 20.312887 7.983328 20.317801 8.0200838 20.363281 8.0273438 L 20.365234 8.0253906 C 20.425161 8.0349776 20.458758 7.9826094 20.517578 7.9746094 C 20.540798 7.9702694 20.564338 7.966829 20.564453 7.9667969 C 20.564453 7.9667069 20.569113 7.9632849 20.570312 7.9628906 C 20.720529 7.9386811 20.874569 7.9077748 20.955078 7.8261719 C 20.987178 7.7939789 21.017335 7.7563455 21.046875 7.7109375 C 21.052555 7.7031605 21.059153 7.6955 21.064453 7.6875 C 21.092863 7.6386856 21.117769 7.5815764 21.136719 7.5234375 C 21.212859 7.2953763 21.213771 7.1070606 21.119141 6.875 C 21.116841 6.870243 21.113728 6.8661081 21.111328 6.8613281 C 21.098418 6.8319466 21.075379 6.7888313 21.042969 6.7402344 C 21.016529 6.6999924 21.005812 6.7105856 20.976562 6.6816406 C 18.975343 3.5111782 15.481345 1.9492188 12 1.9492188 z M 9.0039062 5.4550781 C 8.9033749 5.4550781 8.8222656 5.5361933 8.8222656 5.6367188 L 8.8222656 17.410156 C 8.4529825 17.128463 7.9503604 16.992188 7.4335938 16.992188 C 6.6895767 16.992188 5.9638127 17.263474 5.3105469 17.644531 C 4.4576797 18.15264 3.4414063 19.043078 3.4414062 20.349609 C 3.4414062 21.474693 4.4037613 22 5.4199219 22 C 6.1639389 22 6.889703 21.728714 7.5429688 21.347656 C 8.3958359 20.839549 9.4121094 19.94911 9.4121094 18.642578 C 9.4121094 18.593268 9.4079669 18.547019 9.4042969 18.5 C 9.4071469 18.48707 9.4121094 18.474767 9.4121094 18.460938 L 9.4121094 5.6367188 C 9.4121094 5.5361874 9.3310002 5.4550781 9.2304688 5.4550781 L 9.0039062 5.4550781 z M 16.357422 5.4550781 C 16.25689 5.4550781 16.175781 5.5361924 16.175781 5.6367188 L 16.175781 17.410156 C 15.806498 17.128463 15.303876 16.992188 14.787109 16.992188 C 14.043093 16.992188 13.317328 17.263474 12.664062 17.644531 C 11.811186 18.15264 10.794922 19.043078 10.794922 20.349609 C 10.794922 21.474693 11.757277 22 12.773438 22 C 13.517454 22 14.243218 21.728714 14.896484 21.347656 C 15.74936 20.839549 16.765625 19.94911 16.765625 18.642578 C 16.765625 18.593048 16.761412 18.547223 16.757812 18.5 C 16.760612 18.48728 16.765625 18.474537 16.765625 18.460938 L 16.765625 10.173828 C 18.072156 11.534776 19.796875 11.583338 19.796875 13.470703 C 19.796875 14.668403 19.506975 15.848286 19.035156 16.955078 C 18.980726 17.245422 19.215262 17.443359 19.451172 17.443359 C 19.578195 17.443359 19.706141 17.371727 19.796875 17.226562 C 20.268674 16.028863 20.558594 14.759035 20.558594 13.470703 C 20.558594 9.877695 16.765625 9.229267 16.765625 5.6367188 C 16.765625 5.5361874 16.684511 5.4550781 16.583984 5.4550781 L 16.357422 5.4550781 z M 3.0351562 6.6660156 C 3.0265163 6.6796296 3.0144094 6.689447 3.0058594 6.703125 L 3.0234375 6.6757812 C 3.0292435 6.6676713 3.0293663 6.6735556 3.0351562 6.6660156 z M 20.806641 6.9589844 C 20.821141 6.9685624 20.855499 6.9922197 20.855469 6.9921875 L 20.876953 7.0234375 C 20.873343 7.0207445 20.851797 7.0054969 20.841797 6.9980469 C 20.840797 6.9965769 20.840844 6.9936575 20.839844 6.9921875 C 20.830784 6.9792175 20.815741 6.9718804 20.806641 6.9589844 z M 3.1796875 6.9707031 C 3.1741075 6.9746161 3.1660594 6.9796619 3.1621094 6.9824219 L 3.171875 6.9726562 C 3.173745 6.9708601 3.1777575 6.9724531 3.1796875 6.9707031 z M 20.855469 7.0175781 C 20.861459 7.0249041 20.883772 7.0303094 20.888672 7.0371094 L 20.910156 7.0664062 C 20.888016 7.0303463 20.879079 7.0442621 20.855469 7.0175781 z M 4.0800781 7.7480469 L 4.0800781 7.75 C 4.0682661 7.763921 4.0675516 7.7607854 4.0566406 7.7714844 C 4.0442417 7.7800334 3.9997053 7.8106264 3.9433594 7.8496094 C 4.0115956 7.7986771 4.0638181 7.7602809 4.0800781 7.7480469 z " />
</svg>
