<?xml version="1.0" encoding="UTF-8" standalone="no"?>
<svg
   width="16"
   height="16"
   version="1.1"
   id="svg4"
   sodipodi:docname="accessories-dictionary-symbolic.svg"
   inkscape:version="1.4.2 (ebf0e940d0, 2025-05-08)"
   xmlns:inkscape="http://www.inkscape.org/namespaces/inkscape"
   xmlns:sodipodi="http://sodipodi.sourceforge.net/DTD/sodipodi-0.dtd"
   xmlns="http://www.w3.org/2000/svg"
   xmlns:svg="http://www.w3.org/2000/svg">
  <defs
     id="defs4" />
  <sodipodi:namedview
     id="namedview4"
     pagecolor="#ffffff"
     bordercolor="#000000"
     borderopacity="0.25"
     inkscape:showpageshadow="2"
     inkscape:pageopacity="0.0"
     inkscape:pagecheckerboard="0"
     inkscape:deskcolor="#d1d1d1"
     showgrid="true"
     inkscape:zoom="16"
     inkscape:cx="2.78125"
     inkscape:cy="14.4375"
     inkscape:window-width="5120"
     inkscape:window-height="1371"
     inkscape:window-x="0"
     inkscape:window-y="0"
     inkscape:window-maximized="1"
     inkscape:current-layer="svg4">
    <inkscape:grid
       id="grid4"
       units="px"
       originx="0"
       originy="0"
       spacingx="1"
       spacingy="1"
       empcolor="#0099e5"
       empopacity="0.30196078"
       color="#0099e5"
       opacity="0.14901961"
       empspacing="5"
       enabled="true"
       visible="true" />
  </sodipodi:namedview>
  <g
     fill="#474747"
     id="g4">
    <path
       d="M9.57 1.184c-.567.078-1.251.35-2.015.753-1.541-.844-2.741-.896-3.748-.638-1.07.274-1.938.722-3.291.681L0 1.965v10.81h.5c1.322 0 2.48-.601 3.555-.867 1.075-.265 1.992-.296 3.144.738l.338.305.336-.308c1.119-1.033 2.01-1.004 3.074-.74 1.065.263 2.224.864 3.55.872l.503.004V1.982L14.482 2c-1.516.055-2.27-.394-3.25-.684a3.84 3.84 0 00-1.662-.132zm.11.96c.478-.07.854.01 1.267.131.726.215 1.679.602 3.053.664v8.707c-.875-.127-1.778-.459-2.812-.714-1.12-.277-2.408-.163-3.655.8-1.278-.967-2.586-1.074-3.717-.795-1.043.258-1.946.59-2.816.711v-8.73c1.274-.073 2.247-.444 3.055-.65.924-.237 1.727-.287 3.242.623l.252.152.254-.147C8.62 2.43 9.2 2.214 9.68 2.145z"
       style="line-height:normal;font-variant-ligatures:normal;font-variant-position:normal;font-variant-caps:normal;font-variant-numeric:normal;font-variant-alternates:normal;font-feature-settings:normal;text-indent:0;text-align:start;text-decoration-line:none;text-decoration-style:solid;text-decoration-color:#000;text-transform:none;text-orientation:mixed;shape-padding:0;isolation:auto;mix-blend-mode:normal"
       color="#000"
       font-weight="400"
       font-family="sans-serif"
       overflow="visible"
       id="path1" />
    <path
       d="M7 2.397h1V12H7z"
       id="path2" />
    <path
       d="M0 2.5V16h15V2.518h-2V14H2V2.5z"
       style="line-height:normal;font-variant-ligatures:normal;font-variant-position:normal;font-variant-caps:normal;font-variant-numeric:normal;font-variant-alternates:normal;font-feature-settings:normal;text-indent:0;text-align:start;text-decoration-line:none;text-decoration-style:solid;text-decoration-color:#000;text-transform:none;text-orientation:mixed;shape-padding:0;isolation:auto;mix-blend-mode:normal;marker:none"
       color="#000"
       font-weight="400"
       font-family="sans-serif"
       overflow="visible"
       id="path3" />
  </g>
</svg>
