<?xml version="1.0" encoding="UTF-8"?>
<svg id="svg4" width="22" height="22" version="1.2" xmlns="http://www.w3.org/2000/svg">
 <path id="path405" d="m10.706 14.614v-0.54261h0.4829q0.22995 0 0.40242-0.10238 0.18396-0.10238 0.18396-0.5119v-4.9859q0-0.40952-0.18396-0.5119-0.17246-0.11262-0.40242-0.11262h-0.4829v-0.54261h3.7022q1.6327 0 2.3915 0.49142 0.75884 0.48119 0.75884 1.4026 0 0.54261-0.22995 0.92142t-0.58638 0.62452-0.74735 0.38904l1.3682 2.0988q0.29894 0.44023 0.56338 0.64499 0.26444 0.19452 0.58638 0.19452h0.04599v0.54261h-0.37942q-0.68986 0-1.1498-0.07167t-0.77034-0.26619q-0.29894-0.20476-0.54039-0.58357l-1.3682-2.2524h-0.75884v2.0169q0 0.40952 0.17246 0.5119 0.18396 0.10238 0.41391 0.10238h0.4944v0.54261zm3.5298-3.7676q0.79334 0 1.0923-0.37881t0.29894-1.1262q0-0.77809-0.32193-1.1057-0.32193-0.32762-1.0923-0.32762h-0.62087v2.9383zm-13.235 3.7676v-0.54261h0.48919q0.25624 0 0.41931-0.11262 0.17471-0.11262 0.17471-0.55285v-4.8938q0-0.44023-0.17471-0.55285-0.16306-0.11262-0.41931-0.11262h-0.48919v-0.54261h4.0183v0.54261h-0.48919q-0.24459 0-0.41931 0.11262-0.17471 0.10238-0.17471 0.5119v5.5183h2.1664q0.40766 0 0.62896-0.22524 0.23295-0.23547 0.33777-0.66547l0.18636-0.76785h0.65225l-0.081532 2.2831zm19.054-1.8263c-0.52724 0-0.9541 0.42688-0.9541 0.9541 0 0.5171 0.419 0.95411 0.9361 0.95411 0.53737 0 0.9631-0.42688 0.9631-0.95411 0-0.52724-0.41787-0.9541-0.9451-0.9541zm-10.836 0c-0.52724 0-0.9541 0.42688-0.9541 0.9541 0 0.5171 0.419 0.95411 0.9361 0.95411 0.53737 0 0.9631-0.42688 0.9631-0.95411 0-0.52724-0.41787-0.9541-0.9451-0.9541z" fill="#232629" stroke-width="1.0171"/>
</svg>
