<?xml version="1.0" encoding="UTF-8"?>
<svg id="svg6" width="22" height="22" version="1.2" xmlns="http://www.w3.org/2000/svg">
 <path id="path4" class="ColorScheme-Text" d="m4 3v16h1 13v-1-9.5938-1.4062-0.0078125l-3.9922-3.9922-0.007812 0.0097656v-0.0097656h-1-8-1zm1 1h8v3h-5.377l0.12891-1.3535h2.3633v-0.66797h-2.9883l-0.17969 2.0215h-0.94727v1h1.2305l0.037109 0.023438c0.03507-0.00797 0.097205-0.015468 0.13867-0.023438h1.5938c0.16677 0.052432 0.31286 0.12242 0.42188 0.21875 0.23921 0.20583 0.35742 0.50123 0.35742 0.89062 0 0.43946-0.13562 0.76518-0.4082 0.97656-0.26701 0.20583-0.61913 0.30859-1.0586 0.30859-0.26145 0-0.5369-0.032861-0.82617-0.099609-0.2837-0.07231-0.52826-0.16863-0.72852-0.29102v0.69141c0.18358 0.1057 0.41266 0.18655 0.67969 0.24219 0.27258 0.05563 0.56123 0.083984 0.86719 0.083984 0.70093 0 1.2435-0.17492 1.6328-0.52539 0.39496-0.35603 0.59375-0.84346 0.59375-1.4609 0-0.41455-0.099973-0.75961-0.30078-1.0352h2.7695 4v10h-12v-14zm7.3574 7.0215-1.6074 1.25 0.38281 0.49219 0.63477-0.51562c0.11126-0.09457 0.20112-0.17122 0.27344-0.23242 0.07232-0.06118 0.15317-0.13951 0.24219-0.22852-0.01117 0.15576-0.017857 0.30653-0.023437 0.45117-0.0056 0.14463-0.009766 0.33697-0.009766 0.57617v0.18555h-6.25v1.041h6.25v2.9375h0.7168v-2.9375l3.0332-0.041016v-1h-3.0332v-1.9785h-0.60938z" fill="#232629"/>
</svg>
