<?xml version="1.0" encoding="UTF-8"?>
<svg id="svg2758" width="22" height="22" version="1.2" xmlns="http://www.w3.org/2000/svg">
 <path id="path2756" d="m6.5203 1v20h3.001v-20zm4.5008 0v20h0.94986v-20zm3.5701 6.3799c-0.62002 0-1.1204 0.49894-1.1204 1.119 0 0.62001 0.50041 1.1204 1.1204 1.1204s1.119-0.50041 1.119-1.1204c0-0.62001-0.49894-1.119-1.119-1.119zm0 4.9993c-0.62002 0-1.1204 0.50041-1.1204 1.1204 0 0.62001 0.50041 1.1204 1.1204 1.1204s1.119-0.50041 1.119-1.1204c0-0.62002-0.49894-1.1204-1.119-1.1204z" fill="#232629"/>
</svg>
