<?xml version="1.0" encoding="UTF-8"?>
<svg id="svg510" width="22" height="22" version="1.2" xmlns="http://www.w3.org/2000/svg">
 <path id="path508" d="m20.386 0.99996c-0.10937 0-0.1974 0.088036-0.1974 0.1974v14.809c-0.40175-0.30646-0.948-0.45479-1.5102-0.45479-0.80943 0-1.5996 0.29622-2.3103 0.71078-0.92785 0.55278-2.0334 1.5201-2.0334 2.9415 0 1.224 1.0464 1.7962 2.1519 1.7962 0.80943 0 1.5996-0.29622 2.3103-0.71078 0.92785-0.55278 2.0334-1.5201 2.0334-2.9415 0-0.05364-0.0051-0.1044-0.0091-0.15555 0.0031-0.01407 0.0091-0.02751 0.0091-0.04256v-15.952c0-0.10937-0.08803-0.1974-0.1974-0.1974z" fill="#232629"/>
 <text id="text1" x="0.12745292" y="11.107827" fill="#232629" font-family="'Noto Sans'" font-size="9.8039px" stroke-width="1.754" style="font-variant-caps:normal;font-variant-east-asian:normal;font-variant-ligatures:normal;font-variant-numeric:normal" xml:space="preserve"><tspan id="tspan1" x="0.12745292" y="11.107827" fill="#232629" font-family="'Noto Sans'" font-size="9.8039px" style="font-variant-caps:normal;font-variant-east-asian:normal;font-variant-ligatures:normal;font-variant-numeric:normal">120</tspan></text>
</svg>
