<?xml version="1.0" encoding="UTF-8" standalone="no"?>
<svg
   width="400"
   height="450"
   version="1.1"
   id="svg1"
   sodipodi:docname="clefsDialog.svg"
   inkscape:export-filename="../share/skins/Breeze/clefAlto.png"
   inkscape:export-xdpi="48"
   inkscape:export-ydpi="48"
   xml:space="preserve"
   inkscape:version="1.4.4 (unknown)"
   xmlns:inkscape="http://www.inkscape.org/namespaces/inkscape"
   xmlns:sodipodi="http://sodipodi.sourceforge.net/DTD/sodipodi-0.dtd"
   xmlns="http://www.w3.org/2000/svg"
   xmlns:svg="http://www.w3.org/2000/svg"><defs
     id="defs1"><rect
       x="109.45395"
       y="301.3732"
       width="276.63361"
       height="87.713097"
       id="rect5" /><rect
       x="153.62856"
       y="340.86334"
       width="182.43391"
       height="72.013382"
       id="rect3" /><rect
       x="109.45395"
       y="301.3732"
       width="276.63361"
       height="87.713097"
       id="rect5-2" /><rect
       x="153.62856"
       y="340.86334"
       width="182.43391"
       height="72.013382"
       id="rect3-7" /><filter
       inkscape:collect="always"
       style="color-interpolation-filters:sRGB"
       id="filter1-6"
       x="-0.10894215"
       y="-0.16000456"
       width="1.2178843"
       height="1.3200091"><feGaussianBlur
         inkscape:collect="always"
         stdDeviation="1.347846"
         id="feGaussianBlur1-0" /></filter><rect
       x="109.45395"
       y="301.3732"
       width="276.63361"
       height="87.713097"
       id="rect5-2-6" /><filter
       inkscape:collect="always"
       style="color-interpolation-filters:sRGB"
       id="filter1-6-7"
       x="-0.10894215"
       y="-0.16000456"
       width="1.2178843"
       height="1.3200091"><feGaussianBlur
         inkscape:collect="always"
         stdDeviation="1.347846"
         id="feGaussianBlur1-0-3" /></filter><rect
       x="109.45395"
       y="301.3732"
       width="276.63361"
       height="87.713097"
       id="rect5-2-6-1" /><rect
       x="109.45395"
       y="301.3732"
       width="276.63361"
       height="87.713097"
       id="rect11" /><filter
       inkscape:collect="always"
       style="color-interpolation-filters:sRGB"
       id="filter1-6-7-6"
       x="-0.10894215"
       y="-0.16000456"
       width="1.2178843"
       height="1.3200091"><feGaussianBlur
         inkscape:collect="always"
         stdDeviation="1.347846"
         id="feGaussianBlur1-0-3-2" /></filter><rect
       x="109.45395"
       y="301.3732"
       width="276.63361"
       height="87.713097"
       id="rect14" /><filter
       inkscape:collect="always"
       style="color-interpolation-filters:sRGB"
       id="filter1-6-0"
       x="-0.10894215"
       y="-0.16000456"
       width="1.2178843"
       height="1.3200091"><feGaussianBlur
         inkscape:collect="always"
         stdDeviation="1.347846"
         id="feGaussianBlur1-0-6" /></filter><rect
       x="109.45395"
       y="301.3732"
       width="276.63361"
       height="87.713097"
       id="rect5-2-6-1-3" /><rect
       x="109.45395"
       y="301.3732"
       width="276.63361"
       height="87.713097"
       id="rect15" /><rect
       x="109.45395"
       y="301.3732"
       width="276.63361"
       height="87.713097"
       id="rect6" /><rect
       x="109.45395"
       y="301.3732"
       width="276.63361"
       height="87.713097"
       id="rect7" /><rect
       x="109.45395"
       y="301.3732"
       width="276.63361"
       height="87.713097"
       id="rect5-2-6-1-5" /></defs><sodipodi:namedview
     id="namedview1"
     pagecolor="#ffffff"
     bordercolor="#000000"
     borderopacity="0.25"
     inkscape:showpageshadow="2"
     inkscape:pageopacity="0.0"
     inkscape:pagecheckerboard="0"
     inkscape:deskcolor="#d1d1d1"
     inkscape:zoom="0.85317977"
     inkscape:cx="-53.32991"
     inkscape:cy="54.501996"
     inkscape:window-width="1920"
     inkscape:window-height="1128"
     inkscape:window-x="0"
     inkscape:window-y="0"
     inkscape:window-maximized="1"
     inkscape:current-layer="svg1"
     showgrid="false"
     inkscape:export-bgcolor="#ffffffff" /><g
     id="g1"
     transform="translate(-2.9939945,22.616963)"
     inkscape:label="lines"
     style="display:inline"><path
       style="opacity:0.309693;fill:#000000;stroke:#000000;stroke-width:4.21832;stroke-opacity:1"
       d="M 13.234534,275.08485 H 383.23453"
       id="path3-6-2-3-7"
       sodipodi:nodetypes="cc"
       inkscape:label="line5" /><path
       style="opacity:0.309693;fill:#000000;stroke:#000000;stroke-width:4.21832;stroke-opacity:1"
       d="M 13.234534,228.08485 H 383.23453"
       id="path3-6-2-3"
       sodipodi:nodetypes="cc"
       inkscape:label="line4" /><path
       style="opacity:0.309693;fill:#000000;stroke:#000000;stroke-width:4.21832;stroke-opacity:1"
       d="M 13.234534,181.08485 H 383.23453"
       id="path3-6-2"
       sodipodi:nodetypes="cc"
       inkscape:label="line3" /><path
       style="opacity:0.309693;fill:#000000;stroke:#000000;stroke-width:4.21832;stroke-opacity:1"
       d="M 13.234534,134.08485 H 383.23453"
       id="path3-6"
       sodipodi:nodetypes="cc"
       inkscape:label="line2" /><path
       style="opacity:0.309693;fill:#000000;stroke:#000000;stroke-width:4.21831;stroke-opacity:1"
       d="M 13.234534,87.084353 H 383.23453"
       id="path3"
       sodipodi:nodetypes="cc"
       inkscape:label="line1" /></g><g
     id="g7"
     inkscape:label="alto"
     transform="translate(123.4641,-7.3163908)"
     style="display:none"><text
       xml:space="preserve"
       id="text6"
       style="font-style:normal;font-variant:normal;font-weight:normal;font-stretch:normal;font-size:48px;font-family:Cantarell;-inkscape-font-specification:Cantarell;letter-spacing:0px;writing-mode:lr-tb;direction:ltr;white-space:pre;shape-inside:url(#rect7);display:inline;fill:none;fill-opacity:1;stroke:#000000;stroke-width:4.199;stroke-dasharray:none;stroke-opacity:1"
       transform="translate(30.588276,75.282199)"
       inkscape:label="text_A220"><tspan
         x="109.45312"
         y="344.47765"
         id="tspan4">A3</tspan></text><ellipse
       style="display:inline;mix-blend-mode:normal;fill:none;stroke:#000000;stroke-width:4.59923;stroke-dasharray:none;stroke-opacity:1;filter:url(#filter1-6-0)"
       id="ellipse6"
       cx="255.29309"
       cy="150.84973"
       rx="25.400845"
       ry="17.294649"
       transform="rotate(-24.225409,463.62178,394.95108)"
       inkscape:label="noteA2_guitar" /><path
       d="m -98.332443,136.33497 c 0.449312,-0.29956 1.347938,-0.29956 9.435687,-0.29956 h 8.986313 l 0.449313,0.44931 c 0.299562,0.29956 0.599125,0.59906 0.748874,0.89863 0.299563,0.59906 0.299563,6.14069 0.299563,73.53819 0,67.3975 0,72.93912 -0.299563,73.53818 -0.149749,0.29957 -0.449312,0.59907 -0.748874,0.89863 l -0.449313,0.29956 h -9.136125 -9.136062 l -0.449375,-0.29956 c -0.2995,-0.29956 -0.599063,-0.59906 -0.748813,-0.89863 -0.299562,-0.59906 -0.299562,-6.14068 -0.299562,-73.68793 l 0.14975,-73.23869 0.299562,-0.44932 c 0.299563,-0.2995 0.599063,-0.59906 0.898625,-0.74881 m 28.756314,0 c 0.44931,-0.29956 0.898625,-0.29956 2.546125,-0.29956 1.947,0 2.09681,0.14975 2.546125,0.44931 1.198187,0.89863 1.048375,-2.54612 1.048375,36.39463 v 34.89701 l 0.898622,-0.74888 c 3.744313,-3.59456 7.189063,-9.13612 9.136126,-14.07863 1.198187,-3.59449 1.947062,-7.63838 2.246562,-11.98175 0,-1.94706 0.149813,-2.24663 0.449377,-2.69594 0.299498,-0.44931 1.347938,-1.04837 2.096753,-1.04837 0.74887,0 1.647495,0.44931 2.096805,0.89862 0.29957,0.59906 0.44938,0.74888 0.59913,3.59456 0.44931,6.14063 2.546125,11.23288 5.990875,14.82744 3.44475,3.29501 7.488625,4.64294 12.431125,4.04382 3.44475,-0.44932 5.990875,-1.49769 7.937945,-3.44475 2.0968,-2.09681 3.29493,-4.49313 4.19362,-8.23744 0.89862,-3.295 1.19812,-6.59 1.34793,-13.32975 0.29957,-23.21469 -4.04387,-32.65038 -16.175435,-34.29788 -4.792685,-0.59906 -7.93794,0.29956 -9.285875,2.54612 -0.2995,0.59913 -0.2995,0.74888 -0.2995,1.94707 0,1.34794 0,1.49775 0.44931,2.39637 0.44932,0.89863 0.748815,1.34794 2.546125,3.14519 1.797255,1.6475 2.096815,2.24663 2.546125,2.99544 1.048375,2.24662 0.599065,5.54162 -1.04843,8.53706 -0.599065,1.04838 -2.69588,3.14519 -3.744315,3.74431 -3.744315,2.24657 -8.08769,2.24657 -11.832,0 -1.048375,-0.59912 -3.14519,-2.69593 -3.744315,-3.74431 -1.497685,-2.54612 -1.947,-5.24206 -1.497685,-8.68681 0.74881,-4.34337 2.695873,-8.08769 5.841125,-11.38269 3.294935,-3.14525 7.33881,-5.24206 12.131495,-6.29044 2.845695,-0.59912 8.387255,-0.59912 13.180005,0.14975 17.67313,2.54613 27.10876,13.32975 28.45669,32.20107 0.44937,5.84112 0,10.03475 -1.34793,14.37812 -4.19364,12.28132 -15.42651,21.11788 -28.90601,22.46588 -4.34344,0.44932 -5.541625,0.14975 -9.58544,-2.54619 -2.396375,-1.64744 -3.59456,-2.24656 -4.79275,-2.54612 -1.79725,-0.44932 -3.5945,0 -4.942435,1.19819 -1.647505,1.34793 -2.396375,4.19362 -2.396375,9.13612 0,4.9425 0.74887,7.78819 2.396375,9.13613 1.347935,1.19818 3.145185,1.64749 4.942435,1.19818 1.19819,-0.29956 2.396375,-0.89868 4.79275,-2.54612 4.043815,-2.69594 5.242,-2.9955 9.58544,-2.54619 13.4795,1.348 24.71237,10.18457 28.90601,22.46587 1.34793,4.34337 1.7973,8.537 1.34793,14.22837 -1.49768,20.66857 -12.28132,31.30238 -32.949875,32.80013 -4.942505,0.29956 -8.38725,0 -11.832,-1.19819 -6.739755,-2.24656 -12.281318,-7.63837 -14.228378,-14.07863 -1.198187,-4.49311 -0.898627,-8.08768 0.898623,-11.38268 0.599125,-1.04838 2.69594,-3.14519 3.744315,-3.74431 3.74431,-2.24657 8.087685,-2.24657 11.832,0 1.048435,0.59912 3.14525,2.69593 3.744315,3.74431 1.647495,2.99544 2.096805,6.29043 1.04843,8.53706 -0.44931,0.74882 -0.74887,1.34794 -2.546125,2.99545 -1.79731,1.79724 -2.096805,2.24655 -2.546125,3.14518 -0.44931,0.89862 -0.44931,1.04844 -0.44931,2.24663 0,1.34793 0,1.49768 0.2995,2.09681 1.347935,2.24655 4.49319,3.14518 9.285875,2.54612 7.338875,-1.04844 11.832005,-4.9425 14.078625,-12.73069 1.49769,-5.09225 2.24656,-11.98175 2.09681,-21.56719 -0.14981,-6.73974 -0.44931,-10.03474 -1.34793,-13.47949 -1.79732,-7.18906 -5.541625,-10.78363 -12.131565,-11.53244 -4.9425,-0.59912 -8.986375,0.74881 -12.431125,4.04382 -3.44475,3.59455 -5.541565,8.6868 -5.990875,14.82743 -0.14975,2.84568 -0.29956,2.9955 -0.59913,3.59457 -0.44931,0.44931 -1.347935,0.89862 -2.096805,0.89862 -0.748815,0 -1.797255,-0.59906 -2.096753,-1.04838 -0.299564,-0.44931 -0.449377,-0.74887 -0.449377,-2.69594 -0.2995,-5.99087 -1.497685,-10.48406 -3.89406,-15.72605 -1.79725,-3.59457 -4.792689,-7.63838 -7.488628,-10.33431 l -0.898622,-0.74888 v 34.897 c 0,38.94075 0.149812,35.49599 -1.048375,36.39462 -0.449315,0.29956 -0.599125,0.29956 -2.69594,0.29956 -2.09681,0 -2.24656,0 -2.695872,-0.29956 -0.299563,-0.29956 -0.599125,-0.59906 -0.748876,-0.89863 -0.299564,-0.59906 -0.299564,-6.14068 -0.299564,-73.68793 l 0.149812,-73.23869 0.299503,-0.44932 c 0.299562,-0.2995 0.599125,-0.59906 0.898687,-0.74881"
       fill="none"
       stroke="#0000ff"
       stroke-width="1"
       id="path7"
       inkscape:label="alto"
       style="fill:#000000;fill-opacity:1;stroke:#000000;stroke-opacity:1" /></g><g
     id="g15"
     inkscape:label="alto-8"
     transform="translate(123.4641,-7.3163908)"
     style="display:none"><text
       xml:space="preserve"
       id="text15"
       style="font-style:normal;font-variant:normal;font-weight:normal;font-stretch:normal;font-size:48px;font-family:Cantarell;-inkscape-font-specification:Cantarell;letter-spacing:0px;writing-mode:lr-tb;direction:ltr;white-space:pre;shape-inside:url(#rect15);display:inline;fill:none;fill-opacity:1;stroke:#000000;stroke-width:4.199;stroke-dasharray:none;stroke-opacity:1"
       transform="translate(30.588276,75.330173)"
       inkscape:label="text_A110"><tspan
         x="109.45312"
         y="344.47765"
         id="tspan9">A2</tspan></text><ellipse
       style="display:inline;mix-blend-mode:normal;fill:none;stroke:#000000;stroke-width:4.59923;stroke-dasharray:none;stroke-opacity:1;filter:url(#filter1-6-0)"
       id="ellipse15"
       cx="255.29309"
       cy="150.84973"
       rx="25.400845"
       ry="17.294649"
       transform="rotate(-24.225409,463.62178,394.95108)"
       inkscape:label="noteA2_guitar" /><path
       d="m -59.72496,290.55056 c 4.36419,-2.10643 10.08069,-1.42364 12.08707,-0.99571 3.90394,0.95821 5.95013,3.91844 6.44303,8.16672 0.10202,4.0139 -3.24761,6.83977 -7.69304,9.98809 3.92265,3.42004 5.54219,5.69614 5.42116,10.11951 -0.90834,6.11224 -9.47343,12.11963 -19.41328,9.59611 -5.98398,-2.59875 -7.05399,-6.92505 -5.97007,-11.67551 1.86171,-5.1473 5.76379,-6.63534 7.58935,-7.43373 -4.73943,-4.59489 -4.25541,-8.08502 -3.68252,-10.66947 0.75655,-3.41301 2.65465,-5.44567 5.21886,-7.08591 m 10.939,3.2675 c -3.41637,-2.54982 -7.47984,-1.09333 -8.31826,-0.0637 -1.41423,1.17772 -2.47141,3.78698 -1.71108,5.61583 0.96934,2.33156 2.08211,3.85517 7.35027,4.6332 5.64331,-2.85036 5.21532,-6.94867 2.67336,-10.17784 m -10.01928,16.99882 c -3.36792,1.46656 -7.639,7.60474 -2.65423,12.48062 2.85559,1.8088 7.60801,0.49975 8.81559,-0.50139 1.3874,-0.89699 2.47892,-3.37999 2.6148,-5.58447 -0.39906,-5.0907 -4.21231,-6.45519 -8.77403,-6.40133"
       fill="none"
       stroke="#0000ff"
       stroke-width="1.03178"
       id="path2-7"
       sodipodi:nodetypes="ccccccccscccsccccccc"
       style="display:inline;fill:#000000;fill-opacity:1;stroke:#000000;stroke-opacity:1"
       inkscape:label="alto_8" /><path
       d="m -98.332443,136.33497 c 0.449312,-0.29956 1.347938,-0.29956 9.435687,-0.29956 h 8.986313 l 0.449313,0.44931 c 0.299562,0.29956 0.599125,0.59906 0.748874,0.89863 0.299563,0.59906 0.299563,6.14069 0.299563,73.53819 0,67.3975 0,72.93912 -0.299563,73.53818 -0.149749,0.29957 -0.449312,0.59907 -0.748874,0.89863 l -0.449313,0.29956 h -9.136125 -9.136062 l -0.449375,-0.29956 c -0.2995,-0.29956 -0.599063,-0.59906 -0.748813,-0.89863 -0.299562,-0.59906 -0.299562,-6.14068 -0.299562,-73.68793 l 0.14975,-73.23869 0.299562,-0.44932 c 0.299563,-0.2995 0.599063,-0.59906 0.898625,-0.74881 m 28.756314,0 c 0.44931,-0.29956 0.898625,-0.29956 2.546125,-0.29956 1.947,0 2.09681,0.14975 2.546125,0.44931 1.198187,0.89863 1.048375,-2.54612 1.048375,36.39463 v 34.89701 l 0.898622,-0.74888 c 3.744313,-3.59456 7.189063,-9.13612 9.136126,-14.07863 1.198187,-3.59449 1.947062,-7.63838 2.246562,-11.98175 0,-1.94706 0.149813,-2.24663 0.449377,-2.69594 0.299498,-0.44931 1.347938,-1.04837 2.096753,-1.04837 0.74887,0 1.647495,0.44931 2.096805,0.89862 0.29957,0.59906 0.44938,0.74888 0.59913,3.59456 0.44931,6.14063 2.546125,11.23288 5.990875,14.82744 3.44475,3.29501 7.488625,4.64294 12.431125,4.04382 3.44475,-0.44932 5.990875,-1.49769 7.937945,-3.44475 2.0968,-2.09681 3.29493,-4.49313 4.19362,-8.23744 0.89862,-3.295 1.19812,-6.59 1.34793,-13.32975 0.29957,-23.21469 -4.04387,-32.65038 -16.175435,-34.29788 -4.792685,-0.59906 -7.93794,0.29956 -9.285875,2.54612 -0.2995,0.59913 -0.2995,0.74888 -0.2995,1.94707 0,1.34794 0,1.49775 0.44931,2.39637 0.44932,0.89863 0.748815,1.34794 2.546125,3.14519 1.797255,1.6475 2.096815,2.24663 2.546125,2.99544 1.048375,2.24662 0.599065,5.54162 -1.04843,8.53706 -0.599065,1.04838 -2.69588,3.14519 -3.744315,3.74431 -3.744315,2.24657 -8.08769,2.24657 -11.832,0 -1.048375,-0.59912 -3.14519,-2.69593 -3.744315,-3.74431 -1.497685,-2.54612 -1.947,-5.24206 -1.497685,-8.68681 0.74881,-4.34337 2.695873,-8.08769 5.841125,-11.38269 3.294935,-3.14525 7.33881,-5.24206 12.131495,-6.29044 2.845695,-0.59912 8.387255,-0.59912 13.180005,0.14975 17.67313,2.54613 27.10876,13.32975 28.45669,32.20107 0.44937,5.84112 0,10.03475 -1.34793,14.37812 -4.19364,12.28132 -15.42651,21.11788 -28.90601,22.46588 -4.34344,0.44932 -5.541625,0.14975 -9.58544,-2.54619 -2.396375,-1.64744 -3.59456,-2.24656 -4.79275,-2.54612 -1.79725,-0.44932 -3.5945,0 -4.942435,1.19819 -1.647505,1.34793 -2.396375,4.19362 -2.396375,9.13612 0,4.9425 0.74887,7.78819 2.396375,9.13613 1.347935,1.19818 3.145185,1.64749 4.942435,1.19818 1.19819,-0.29956 2.396375,-0.89868 4.79275,-2.54612 4.043815,-2.69594 5.242,-2.9955 9.58544,-2.54619 13.4795,1.348 24.71237,10.18457 28.90601,22.46587 1.34793,4.34337 1.7973,8.537 1.34793,14.22837 -1.49768,20.66857 -12.28132,31.30238 -32.949875,32.80013 -4.942505,0.29956 -8.38725,0 -11.832,-1.19819 -6.739755,-2.24656 -12.281318,-7.63837 -14.228378,-14.07863 -1.198187,-4.49311 -0.898627,-8.08768 0.898623,-11.38268 0.599125,-1.04838 2.69594,-3.14519 3.744315,-3.74431 3.74431,-2.24657 8.087685,-2.24657 11.832,0 1.048435,0.59912 3.14525,2.69593 3.744315,3.74431 1.647495,2.99544 2.096805,6.29043 1.04843,8.53706 -0.44931,0.74882 -0.74887,1.34794 -2.546125,2.99545 -1.79731,1.79724 -2.096805,2.24655 -2.546125,3.14518 -0.44931,0.89862 -0.44931,1.04844 -0.44931,2.24663 0,1.34793 0,1.49768 0.2995,2.09681 1.347935,2.24655 4.49319,3.14518 9.285875,2.54612 7.338875,-1.04844 11.832005,-4.9425 14.078625,-12.73069 1.49769,-5.09225 2.24656,-11.98175 2.09681,-21.56719 -0.14981,-6.73974 -0.44931,-10.03474 -1.34793,-13.47949 -1.79732,-7.18906 -5.541625,-10.78363 -12.131565,-11.53244 -4.9425,-0.59912 -8.986375,0.74881 -12.431125,4.04382 -3.44475,3.59455 -5.541565,8.6868 -5.990875,14.82743 -0.14975,2.84568 -0.29956,2.9955 -0.59913,3.59457 -0.44931,0.44931 -1.347935,0.89862 -2.096805,0.89862 -0.748815,0 -1.797255,-0.59906 -2.096753,-1.04838 -0.299564,-0.44931 -0.449377,-0.74887 -0.449377,-2.69594 -0.2995,-5.99087 -1.497685,-10.48406 -3.89406,-15.72605 -1.79725,-3.59457 -4.792689,-7.63838 -7.488628,-10.33431 l -0.898622,-0.74888 v 34.897 c 0,38.94075 0.149812,35.49599 -1.048375,36.39462 -0.449315,0.29956 -0.599125,0.29956 -2.69594,0.29956 -2.09681,0 -2.24656,0 -2.695872,-0.29956 -0.299563,-0.29956 -0.599125,-0.59906 -0.748876,-0.89863 -0.299564,-0.59906 -0.299564,-6.14068 -0.299564,-73.68793 l 0.149812,-73.23869 0.299503,-0.44932 c 0.299562,-0.2995 0.599125,-0.59906 0.898687,-0.74881"
       fill="none"
       stroke="#0000ff"
       stroke-width="1"
       id="path15"
       inkscape:label="alto"
       style="fill:#000000;fill-opacity:1;stroke:#000000;stroke-opacity:1" /></g><g
     id="g8"
     inkscape:label="tenor"
     transform="translate(123.4641,-7.3163908)"
     style="display:none"><text
       xml:space="preserve"
       id="text5-5-7-9"
       style="font-style:normal;font-variant:normal;font-weight:normal;font-stretch:normal;font-size:48px;font-family:Cantarell;-inkscape-font-specification:Cantarell;letter-spacing:0px;writing-mode:lr-tb;direction:ltr;white-space:pre;shape-inside:url(#rect5-2-6-1-3);display:inline;fill:none;fill-opacity:1;stroke:#000000;stroke-width:4.199;stroke-dasharray:none;stroke-opacity:1"
       transform="translate(30.588276,75.282199)"
       inkscape:label="text_A220"><tspan
         x="109.45312"
         y="344.47765"
         id="tspan10">A3</tspan></text><ellipse
       style="display:inline;mix-blend-mode:normal;fill:none;stroke:#000000;stroke-width:4.59923;stroke-dasharray:none;stroke-opacity:1;filter:url(#filter1-6-0)"
       id="ellipse14-1"
       cx="255.29309"
       cy="150.84973"
       rx="25.400845"
       ry="17.294649"
       transform="rotate(-24.225409,355.5204,371.7511)"
       inkscape:label="noteA2_guitar" /><path
       d="m -98.332443,89.434595 c 0.449312,-0.299564 1.347938,-0.299564 9.435687,-0.299564 h 8.986313 l 0.449313,0.449314 c 0.299562,0.299562 0.599125,0.599062 0.748874,0.898625 0.299563,0.599062 0.299563,6.140688 0.299563,73.53819 0,67.3975 0,72.93912 -0.299563,73.53818 -0.149749,0.29957 -0.449312,0.59907 -0.748874,0.89863 l -0.449313,0.29956 h -9.136125 -9.136062 l -0.449375,-0.29956 c -0.2995,-0.29956 -0.599063,-0.59906 -0.748813,-0.89863 -0.299562,-0.59906 -0.299562,-6.14068 -0.299562,-73.68793 l 0.14975,-73.238691 0.299562,-0.449312 c 0.299563,-0.2995 0.599063,-0.599062 0.898625,-0.748812 m 28.756314,0 c 0.44931,-0.299564 0.898625,-0.299564 2.546125,-0.299564 1.947,0 2.09681,0.149751 2.546125,0.449314 1.198187,0.898625 1.048375,-2.546124 1.048375,36.394625 v 34.89701 l 0.898622,-0.74888 c 3.744313,-3.59456 7.189063,-9.13612 9.136126,-14.07863 1.198187,-3.59449 1.947062,-7.63838 2.246562,-11.98175 0,-1.94706 0.149813,-2.24663 0.449377,-2.69594 0.299498,-0.44931 1.347938,-1.04837 2.096753,-1.04837 0.74887,0 1.647495,0.44931 2.096805,0.89862 0.29957,0.59906 0.44938,0.74888 0.59913,3.59456 0.44931,6.14063 2.546125,11.23288 5.990875,14.82744 3.44475,3.29501 7.488625,4.64294 12.431125,4.04382 3.44475,-0.44932 5.990875,-1.49769 7.937945,-3.44475 2.0968,-2.09681 3.29493,-4.49313 4.19362,-8.23744 0.89862,-3.295 1.19812,-6.59 1.34793,-13.32975 0.29957,-23.21469 -4.04387,-32.650377 -16.175435,-34.297877 -4.792685,-0.599063 -7.93794,0.299562 -9.285875,2.546123 -0.2995,0.599125 -0.2995,0.748876 -0.2995,1.947063 0,1.347941 0,1.497751 0.44931,2.396371 0.44932,0.89863 0.748815,1.34794 2.546125,3.14519 1.797255,1.6475 2.096815,2.24663 2.546125,2.99544 1.048375,2.24662 0.599065,5.54162 -1.04843,8.53706 -0.599065,1.04838 -2.69588,3.14519 -3.744315,3.74431 -3.744315,2.24657 -8.08769,2.24657 -11.832,0 -1.048375,-0.59912 -3.14519,-2.69593 -3.744315,-3.74431 -1.497685,-2.54612 -1.947,-5.24206 -1.497685,-8.68681 0.74881,-4.34337 2.695873,-8.087688 5.841125,-11.382688 3.294935,-3.145251 7.33881,-5.242063 12.131495,-6.290437 2.845695,-0.599125 8.387255,-0.599125 13.180005,0.149749 17.67313,2.546126 27.10876,13.329746 28.45669,32.201066 0.44937,5.84112 0,10.03475 -1.34793,14.37812 -4.19364,12.28132 -15.42651,21.11788 -28.90601,22.46588 -4.34344,0.44932 -5.541625,0.14975 -9.58544,-2.54619 -2.396375,-1.64744 -3.59456,-2.24656 -4.79275,-2.54612 -1.79725,-0.44932 -3.5945,0 -4.942435,1.19819 -1.647505,1.34793 -2.396375,4.19362 -2.396375,9.13612 0,4.9425 0.74887,7.78819 2.396375,9.13613 1.347935,1.19818 3.145185,1.64749 4.942435,1.19818 1.19819,-0.29956 2.396375,-0.89868 4.79275,-2.54612 4.043815,-2.69594 5.242,-2.9955 9.58544,-2.54619 13.4795,1.348 24.71237,10.18457 28.90601,22.46587 1.34793,4.34337 1.7973,8.537 1.34793,14.22837 -1.49768,20.66857 -12.28132,31.30238 -32.949875,32.80013 -4.942505,0.29956 -8.38725,0 -11.832,-1.19819 -6.739755,-2.24656 -12.281318,-7.63837 -14.228378,-14.07863 -1.198187,-4.49311 -0.898627,-8.08768 0.898623,-11.38268 0.599125,-1.04838 2.69594,-3.14519 3.744315,-3.74431 3.74431,-2.24657 8.087685,-2.24657 11.832,0 1.048435,0.59912 3.14525,2.69593 3.744315,3.74431 1.647495,2.99544 2.096805,6.29043 1.04843,8.53706 -0.44931,0.74882 -0.74887,1.34794 -2.546125,2.99545 -1.79731,1.79724 -2.096805,2.24655 -2.546125,3.14518 -0.44931,0.89862 -0.44931,1.04844 -0.44931,2.24663 0,1.34793 0,1.49768 0.2995,2.09681 1.347935,2.24655 4.49319,3.14518 9.285875,2.54612 7.338875,-1.04844 11.832005,-4.9425 14.078625,-12.73069 1.49769,-5.09225 2.24656,-11.98175 2.09681,-21.56719 -0.14981,-6.73974 -0.44931,-10.03474 -1.34793,-13.47949 -1.79732,-7.18906 -5.541625,-10.78363 -12.131565,-11.53244 -4.9425,-0.59912 -8.986375,0.74881 -12.431125,4.04382 -3.44475,3.59455 -5.541565,8.6868 -5.990875,14.82743 -0.14975,2.84568 -0.29956,2.9955 -0.59913,3.59457 -0.44931,0.44931 -1.347935,0.89862 -2.096805,0.89862 -0.748815,0 -1.797255,-0.59906 -2.096753,-1.04838 -0.299564,-0.44931 -0.449377,-0.74887 -0.449377,-2.69594 -0.2995,-5.99087 -1.497685,-10.48406 -3.89406,-15.72605 -1.79725,-3.59457 -4.792689,-7.63838 -7.488628,-10.33431 l -0.898622,-0.74888 v 34.897 c 0,38.94075 0.149812,35.49599 -1.048375,36.39462 -0.449315,0.29956 -0.599125,0.29956 -2.69594,0.29956 -2.09681,0 -2.24656,0 -2.695872,-0.29956 -0.299563,-0.29956 -0.599125,-0.59906 -0.748876,-0.89863 -0.299564,-0.59906 -0.299564,-6.14068 -0.299564,-73.68793 l 0.149812,-73.238691 0.299503,-0.449312 c 0.299562,-0.2995 0.599125,-0.599062 0.898687,-0.748812"
       fill="none"
       stroke="#0000ff"
       stroke-width="1"
       id="path1-5"
       inkscape:label="tenor"
       style="fill:#000000;fill-opacity:1;stroke:#000000;stroke-opacity:1" /></g><g
     id="g5"
     inkscape:label="tenor-8"
     transform="translate(123.4641,-7.3163908)"
     style="display:none"><text
       xml:space="preserve"
       id="text5-5-7-91"
       style="font-style:normal;font-variant:normal;font-weight:normal;font-stretch:normal;font-size:48px;font-family:Cantarell;-inkscape-font-specification:Cantarell;letter-spacing:0px;writing-mode:lr-tb;direction:ltr;white-space:pre;shape-inside:url(#rect5-2-6-1-5);display:inline;fill:none;fill-opacity:1;stroke:#000000;stroke-width:4.199;stroke-dasharray:none;stroke-opacity:1"
       transform="translate(30.588276,75.330173)"
       inkscape:label="text_A110"><tspan
         x="109.45312"
         y="344.47765"
         id="tspan11">A2 </tspan></text><ellipse
       style="display:inline;mix-blend-mode:normal;fill:none;stroke:#000000;stroke-width:4.59923;stroke-dasharray:none;stroke-opacity:1;filter:url(#filter1-6-0)"
       id="ellipse1"
       cx="255.29309"
       cy="150.84973"
       rx="25.400845"
       ry="17.294649"
       transform="rotate(-24.225409,355.5204,371.7511)"
       inkscape:label="noteA2_guitar" /><path
       d="m -59.72511,243.55017 c 4.36419,-2.10643 10.08069,-1.42364 12.08707,-0.99571 3.90394,0.95821 5.95013,3.91844 6.44303,8.16672 0.10202,4.0139 -3.24761,6.83977 -7.69304,9.98809 3.92265,3.42004 5.54219,5.69614 5.42116,10.11951 -0.90834,6.11224 -9.47343,12.11963 -19.41328,9.59611 -5.98398,-2.59875 -7.05399,-6.92505 -5.97007,-11.67551 1.86171,-5.1473 5.76379,-6.63534 7.58935,-7.43373 -4.73943,-4.59489 -4.25541,-8.08502 -3.68252,-10.66947 0.75655,-3.41301 2.65465,-5.44567 5.21886,-7.08591 m 10.939,3.2675 c -3.41637,-2.54982 -7.47984,-1.09333 -8.31826,-0.0637 -1.41423,1.17772 -2.47141,3.78698 -1.71108,5.61583 0.96934,2.33156 2.08211,3.85517 7.35027,4.6332 5.64331,-2.85036 5.21532,-6.94867 2.67336,-10.17784 m -10.01928,16.99882 c -3.36792,1.46656 -7.639,7.60474 -2.65423,12.48062 2.85559,1.8088 7.60801,0.49975 8.81559,-0.50139 1.3874,-0.89699 2.47892,-3.37999 2.6148,-5.58447 -0.39906,-5.0907 -4.21231,-6.45519 -8.77403,-6.40133"
       fill="none"
       stroke="#0000ff"
       stroke-width="1.03178"
       id="path4"
       sodipodi:nodetypes="ccccccccscccsccccccc"
       style="display:inline;fill:#000000;fill-opacity:1;stroke:#000000;stroke-opacity:1"
       inkscape:label="tenor_8" /><path
       d="m -98.332443,89.434595 c 0.449312,-0.299564 1.347938,-0.299564 9.435687,-0.299564 h 8.986313 l 0.449313,0.449314 c 0.299562,0.299562 0.599125,0.599062 0.748874,0.898625 0.299563,0.599062 0.299563,6.140688 0.299563,73.53819 0,67.3975 0,72.93912 -0.299563,73.53818 -0.149749,0.29957 -0.449312,0.59907 -0.748874,0.89863 l -0.449313,0.29956 h -9.136125 -9.136062 l -0.449375,-0.29956 c -0.2995,-0.29956 -0.599063,-0.59906 -0.748813,-0.89863 -0.299562,-0.59906 -0.299562,-6.14068 -0.299562,-73.68793 l 0.14975,-73.238691 0.299562,-0.449312 c 0.299563,-0.2995 0.599063,-0.599062 0.898625,-0.748812 m 28.756314,0 c 0.44931,-0.299564 0.898625,-0.299564 2.546125,-0.299564 1.947,0 2.09681,0.149751 2.546125,0.449314 1.198187,0.898625 1.048375,-2.546124 1.048375,36.394625 v 34.89701 l 0.898622,-0.74888 c 3.744313,-3.59456 7.189063,-9.13612 9.136126,-14.07863 1.198187,-3.59449 1.947062,-7.63838 2.246562,-11.98175 0,-1.94706 0.149813,-2.24663 0.449377,-2.69594 0.299498,-0.44931 1.347938,-1.04837 2.096753,-1.04837 0.74887,0 1.647495,0.44931 2.096805,0.89862 0.29957,0.59906 0.44938,0.74888 0.59913,3.59456 0.44931,6.14063 2.546125,11.23288 5.990875,14.82744 3.44475,3.29501 7.488625,4.64294 12.431125,4.04382 3.44475,-0.44932 5.990875,-1.49769 7.937945,-3.44475 2.0968,-2.09681 3.29493,-4.49313 4.19362,-8.23744 0.89862,-3.295 1.19812,-6.59 1.34793,-13.32975 0.29957,-23.21469 -4.04387,-32.650377 -16.175435,-34.297877 -4.792685,-0.599063 -7.93794,0.299562 -9.285875,2.546123 -0.2995,0.599125 -0.2995,0.748876 -0.2995,1.947063 0,1.347941 0,1.497751 0.44931,2.396371 0.44932,0.89863 0.748815,1.34794 2.546125,3.14519 1.797255,1.6475 2.096815,2.24663 2.546125,2.99544 1.048375,2.24662 0.599065,5.54162 -1.04843,8.53706 -0.599065,1.04838 -2.69588,3.14519 -3.744315,3.74431 -3.744315,2.24657 -8.08769,2.24657 -11.832,0 -1.048375,-0.59912 -3.14519,-2.69593 -3.744315,-3.74431 -1.497685,-2.54612 -1.947,-5.24206 -1.497685,-8.68681 0.74881,-4.34337 2.695873,-8.087688 5.841125,-11.382688 3.294935,-3.145251 7.33881,-5.242063 12.131495,-6.290437 2.845695,-0.599125 8.387255,-0.599125 13.180005,0.149749 17.67313,2.546126 27.10876,13.329746 28.45669,32.201066 0.44937,5.84112 0,10.03475 -1.34793,14.37812 -4.19364,12.28132 -15.42651,21.11788 -28.90601,22.46588 -4.34344,0.44932 -5.541625,0.14975 -9.58544,-2.54619 -2.396375,-1.64744 -3.59456,-2.24656 -4.79275,-2.54612 -1.79725,-0.44932 -3.5945,0 -4.942435,1.19819 -1.647505,1.34793 -2.396375,4.19362 -2.396375,9.13612 0,4.9425 0.74887,7.78819 2.396375,9.13613 1.347935,1.19818 3.145185,1.64749 4.942435,1.19818 1.19819,-0.29956 2.396375,-0.89868 4.79275,-2.54612 4.043815,-2.69594 5.242,-2.9955 9.58544,-2.54619 13.4795,1.348 24.71237,10.18457 28.90601,22.46587 1.34793,4.34337 1.7973,8.537 1.34793,14.22837 -1.49768,20.66857 -12.28132,31.30238 -32.949875,32.80013 -4.942505,0.29956 -8.38725,0 -11.832,-1.19819 -6.739755,-2.24656 -12.281318,-7.63837 -14.228378,-14.07863 -1.198187,-4.49311 -0.898627,-8.08768 0.898623,-11.38268 0.599125,-1.04838 2.69594,-3.14519 3.744315,-3.74431 3.74431,-2.24657 8.087685,-2.24657 11.832,0 1.048435,0.59912 3.14525,2.69593 3.744315,3.74431 1.647495,2.99544 2.096805,6.29043 1.04843,8.53706 -0.44931,0.74882 -0.74887,1.34794 -2.546125,2.99545 -1.79731,1.79724 -2.096805,2.24655 -2.546125,3.14518 -0.44931,0.89862 -0.44931,1.04844 -0.44931,2.24663 0,1.34793 0,1.49768 0.2995,2.09681 1.347935,2.24655 4.49319,3.14518 9.285875,2.54612 7.338875,-1.04844 11.832005,-4.9425 14.078625,-12.73069 1.49769,-5.09225 2.24656,-11.98175 2.09681,-21.56719 -0.14981,-6.73974 -0.44931,-10.03474 -1.34793,-13.47949 -1.79732,-7.18906 -5.541625,-10.78363 -12.131565,-11.53244 -4.9425,-0.59912 -8.986375,0.74881 -12.431125,4.04382 -3.44475,3.59455 -5.541565,8.6868 -5.990875,14.82743 -0.14975,2.84568 -0.29956,2.9955 -0.59913,3.59457 -0.44931,0.44931 -1.347935,0.89862 -2.096805,0.89862 -0.748815,0 -1.797255,-0.59906 -2.096753,-1.04838 -0.299564,-0.44931 -0.449377,-0.74887 -0.449377,-2.69594 -0.2995,-5.99087 -1.497685,-10.48406 -3.89406,-15.72605 -1.79725,-3.59457 -4.792689,-7.63838 -7.488628,-10.33431 l -0.898622,-0.74888 v 34.897 c 0,38.94075 0.149812,35.49599 -1.048375,36.39462 -0.449315,0.29956 -0.599125,0.29956 -2.69594,0.29956 -2.09681,0 -2.24656,0 -2.695872,-0.29956 -0.299563,-0.29956 -0.599125,-0.59906 -0.748876,-0.89863 -0.299564,-0.59906 -0.299564,-6.14068 -0.299564,-73.68793 l 0.149812,-73.238691 0.299503,-0.449312 c 0.299562,-0.2995 0.599125,-0.599062 0.898687,-0.748812"
       fill="none"
       stroke="#0000ff"
       stroke-width="1"
       id="path5"
       inkscape:label="tenor"
       style="fill:#000000;fill-opacity:1;stroke:#000000;stroke-opacity:1" /></g><g
     id="g11"
     transform="translate(15.974886,33.259629)"
     style="display:none;fill:#000000;fill-opacity:1;stroke:#000000;stroke-opacity:1"
     inkscape:label="bass_standard"><text
       xml:space="preserve"
       id="text9"
       style="font-style:normal;font-variant:normal;font-weight:normal;font-stretch:normal;font-size:48px;font-family:Cantarell;-inkscape-font-specification:Cantarell;letter-spacing:0px;writing-mode:lr-tb;direction:ltr;white-space:pre;shape-inside:url(#rect11);display:inline;fill:none;stroke:#000000;stroke-width:4.199;stroke-dasharray:none;stroke-opacity:1"
       transform="translate(138.07749,34.754153)"
       inkscape:label="text_A110"><tspan
         x="109.45312"
         y="344.47765"
         id="tspan12">A2</tspan></text><ellipse
       style="display:inline;mix-blend-mode:normal;fill:none;fill-opacity:1;stroke:#000000;stroke-width:4.59923;stroke-dasharray:none;stroke-opacity:1;filter:url(#filter1-6-7-6)"
       id="path5-7-2"
       cx="255.29309"
       cy="150.84973"
       rx="25.400845"
       ry="17.294649"
       transform="rotate(-24.225409,479.30254,136.35683)"
       inkscape:label="noteA2_standard" /><path
       d="m 55.968542,76.834656 c 1.758751,-0.159875 8.633938,0 11.192125,0.159875 19.986003,2.238437 33.576443,12.151502 38.053323,27.820499 1.11918,4.31694 1.59887,7.51469 1.43892,12.95088 0,6.87519 -0.79943,12.63111 -3.0378,18.70686 -8.15432,24.143 -31.97757,44.12902 -75.467005,63.31551 -1.758812,0.79944 -3.357687,1.59887 -3.517562,1.75876 -0.959312,0.63955 -1.918625,0.79943 -2.877937,0.31981 -0.799438,-0.31981 -1.11925,-0.63957 -1.439,-1.43901 -0.479688,-0.79943 -0.319813,-1.59887 0,-2.23843 0.31975,-0.63957 0.959312,-1.11919 4.476812,-3.19776 14.230062,-8.47406 24.622749,-15.98875 33.416562,-23.66337 2.718065,-2.55819 7.8345,-7.67463 10.072937,-10.23282 9.753128,-11.352 14.869563,-22.38425 16.628313,-35.17531 0.31975,-3.03787 0.31975,-10.23281 0,-13.27068 -0.639565,-4.63669 -1.75875,-8.95369 -3.197745,-12.791007 -1.11925,-2.55818 -1.439005,-3.35762 -2.71813,-5.436182 -4.63675,-7.834499 -11.671813,-12.151437 -19.50625,-12.151437 -7.674624,0 -14.070125,4.316938 -18.227249,12.471251 -0.639501,1.279063 -2.238376,5.436185 -2.238376,5.596055 0,0.15988 0.639501,0 1.279063,0 3.677437,-0.15987 7.674625,1.27907 10.712501,3.67744 5.755936,4.9565 7.354811,12.95087 3.837311,20.14581 -2.398313,5.27632 -7.514748,8.63394 -13.110813,9.11363 -7.834499,0.47962 -15.509124,-4.63676 -18.067311,-11.99163 -0.799438,-2.39831 -0.959313,-4.79662 -0.639563,-8.63393 1.439001,-15.988749 11.671813,-29.57919 25.741937,-34.215939 2.398313,-0.799438 4.796625,-1.279126 7.194937,-1.598875 m 62.196308,15.029437 c 2.55819,-0.799436 5.59607,0 7.67463,1.91869 1.439,1.598873 2.23844,3.677373 2.23844,5.75594 0,4.316937 -3.51757,7.834497 -7.8345,7.834497 -4.47687,0 -7.99438,-3.51756 -7.99438,-7.834497 0,-3.677444 2.39832,-6.715316 5.91581,-7.67463 m 0,39.812057 c 2.55819,-0.79944 5.59607,0 7.67463,1.91863 1.91862,2.07856 2.71807,4.9565 1.91862,7.51475 -0.79944,3.67737 -3.83731,6.07568 -7.51468,6.07568 -4.47687,0 -7.99438,-3.5175 -7.99438,-7.8345 0,-3.67737 2.39832,-6.71525 5.91581,-7.67456"
       fill="none"
       stroke="#0000ff"
       stroke-width="1"
       id="path11"
       style="display:inline;fill:#000000;fill-opacity:1;stroke:#000000;stroke-opacity:1"
       inkscape:label="bass" /></g><g
     id="g3"
     transform="translate(15.974886,33.259629)"
     style="display:none;fill:#000000;fill-opacity:1;stroke:#000000;stroke-opacity:1"
     inkscape:label="bass_guitar"><text
       xml:space="preserve"
       id="text5-5-7"
       style="font-style:normal;font-variant:normal;font-weight:normal;font-stretch:normal;font-size:48px;font-family:Cantarell;-inkscape-font-specification:Cantarell;letter-spacing:0px;writing-mode:lr-tb;direction:ltr;white-space:pre;shape-inside:url(#rect5-2-6-1);display:inline;fill:none;stroke:#000000;stroke-width:4.199;stroke-dasharray:none;stroke-opacity:1"
       transform="translate(138.07768,34.754153)"
       inkscape:label="text_A110"><tspan
         x="109.45312"
         y="344.47765"
         id="tspan13">A2 </tspan></text><ellipse
       style="display:inline;mix-blend-mode:normal;fill:none;fill-opacity:1;stroke:#000000;stroke-width:4.59923;stroke-dasharray:none;stroke-opacity:1;filter:url(#filter1-6-7)"
       id="ellipse11"
       cx="255.29309"
       cy="150.84973"
       rx="25.400845"
       ry="17.294649"
       transform="rotate(-24.225409,95.589106,54.007457)"
       inkscape:label="noteA2_guitar" /><path
       d="m 51.014142,202.74011 c 4.364185,-2.10643 10.080688,-1.42364 12.087065,-0.99571 3.903945,0.95821 5.950129,3.91844 6.443029,8.16672 0.102026,4.0139 -3.247602,6.83977 -7.693039,9.98809 3.922649,3.42004 5.542197,5.69614 5.421158,10.11951 -0.908338,6.11224 -9.473425,12.11963 -19.413279,9.59611 -5.983975,-2.59875 -7.053982,-6.92505 -5.970068,-11.67551 1.861711,-5.1473 5.763792,-6.63534 7.589354,-7.43373 -4.739433,-4.59489 -4.255408,-8.08502 -3.682526,-10.66947 0.75655,-3.41301 2.654655,-5.44567 5.218865,-7.08591 m 10.938997,3.2675 c -3.416368,-2.54982 -7.479838,-1.09333 -8.31826,-0.0637 -1.414231,1.17772 -2.471405,3.78698 -1.711077,5.61583 0.969336,2.33156 2.082108,3.85517 7.350265,4.6332 5.643313,-2.85036 5.215324,-6.94867 2.673365,-10.17784 m -10.019276,16.99882 c -3.367925,1.46656 -7.639004,7.60474 -2.654236,12.48062 2.855586,1.8088 7.608014,0.49975 8.815592,-0.50139 1.387399,-0.89699 2.478919,-3.37999 2.614798,-5.58447 -0.399063,-5.0907 -4.212304,-6.45519 -8.774029,-6.40133"
       fill="none"
       stroke="#0000ff"
       stroke-width="1.03178"
       id="path2"
       sodipodi:nodetypes="ccccccccscccsccccccc"
       style="display:inline;fill:#000000;fill-opacity:1;stroke:#000000;stroke-opacity:1"
       inkscape:label="bass_8" /><path
       d="m 55.968542,76.834656 c 1.758751,-0.159875 8.633938,0 11.192125,0.159875 19.986003,2.238437 33.576443,12.151502 38.053323,27.820499 1.11918,4.31694 1.59887,7.51469 1.43892,12.95088 0,6.87519 -0.79943,12.63111 -3.0378,18.70686 -8.15432,24.143 -31.97757,44.12902 -75.467005,63.31551 -1.758812,0.79944 -3.357687,1.59887 -3.517562,1.75876 -0.959312,0.63955 -1.918625,0.79943 -2.877937,0.31981 -0.799438,-0.31981 -1.11925,-0.63957 -1.439,-1.43901 -0.479688,-0.79943 -0.319813,-1.59887 0,-2.23843 0.31975,-0.63957 0.959312,-1.11919 4.476812,-3.19776 14.230062,-8.47406 24.622749,-15.98875 33.416562,-23.66337 2.718065,-2.55819 7.8345,-7.67463 10.072937,-10.23282 9.753128,-11.352 14.869563,-22.38425 16.628313,-35.17531 0.31975,-3.03787 0.31975,-10.23281 0,-13.27068 -0.639565,-4.63669 -1.75875,-8.95369 -3.197745,-12.791007 -1.11925,-2.55818 -1.439005,-3.35762 -2.71813,-5.436182 -4.63675,-7.834499 -11.671813,-12.151437 -19.50625,-12.151437 -7.674624,0 -14.070125,4.316938 -18.227249,12.471251 -0.639501,1.279063 -2.238376,5.436185 -2.238376,5.596055 0,0.15988 0.639501,0 1.279063,0 3.677437,-0.15987 7.674625,1.27907 10.712501,3.67744 5.755936,4.9565 7.354811,12.95087 3.837311,20.14581 -2.398313,5.27632 -7.514748,8.63394 -13.110813,9.11363 -7.834499,0.47962 -15.509124,-4.63676 -18.067311,-11.99163 -0.799438,-2.39831 -0.959313,-4.79662 -0.639563,-8.63393 1.439001,-15.988749 11.671813,-29.57919 25.741937,-34.215939 2.398313,-0.799438 4.796625,-1.279126 7.194937,-1.598875 m 62.196308,15.029437 c 2.55819,-0.799436 5.59607,0 7.67463,1.91869 1.439,1.598873 2.23844,3.677373 2.23844,5.75594 0,4.316937 -3.51757,7.834497 -7.8345,7.834497 -4.47687,0 -7.99438,-3.51756 -7.99438,-7.834497 0,-3.677444 2.39832,-6.715316 5.91581,-7.67463 m 0,39.812057 c 2.55819,-0.79944 5.59607,0 7.67463,1.91863 1.91862,2.07856 2.71807,4.9565 1.91862,7.51475 -0.79944,3.67737 -3.83731,6.07568 -7.51468,6.07568 -4.47687,0 -7.99438,-3.5175 -7.99438,-7.8345 0,-3.67737 2.39832,-6.71525 5.91581,-7.67456"
       fill="none"
       stroke="#0000ff"
       stroke-width="1"
       id="path1"
       style="display:inline;fill:#000000;fill-opacity:1;stroke:#000000;stroke-opacity:1"
       inkscape:label="bass" /></g><g
     id="g2"
     transform="translate(-3.0026465,22.609982)"
     style="display:none"
     inkscape:label="treble_standard"><text
       xml:space="preserve"
       id="text5-5"
       style="font-style:normal;font-variant:normal;font-weight:normal;font-stretch:normal;font-size:48px;font-family:Cantarell;-inkscape-font-specification:Cantarell;letter-spacing:0px;writing-mode:lr-tb;direction:ltr;white-space:pre;shape-inside:url(#rect5-2-6);display:inline;opacity:1;fill:none;stroke:#000000;stroke-width:4.199;stroke-dasharray:none;stroke-opacity:1"
       transform="translate(31.641991,47.563803)"
       inkscape:label="text_A440"><tspan
         x="109.45312"
         y="344.47765"
         id="tspan14">A4 (440Hz)</tspan></text><ellipse
       style="mix-blend-mode:normal;fill:none;stroke:#000000;stroke-width:4.59923;stroke-dasharray:none;stroke-opacity:1;filter:url(#filter1-6)"
       id="use6"
       cx="255.29309"
       cy="150.84973"
       rx="25.400845"
       ry="17.294649"
       transform="rotate(-24.225409,402.47233,73.618973)"
       inkscape:label="noteA4_guitar" /><path
       d="m 73.765614,28.049492 c 0.980883,-0.490442 1.144373,-0.490442 2.125265,-0.490442 1.30783,0.16349 2.125255,0.653932 3.92354,2.615702 11.770625,12.097605 21.579491,33.677083 24.031711,51.986977 0.32695,2.942658 0.32695,9.808857 0,12.914974 -1.79828,16.838537 -8.827991,32.205787 -25.012601,54.275707 l -2.288725,3.10614 1.30784,3.76005 c 3.106145,8.99146 6.70271,19.94469 8.991455,27.95526 0.653935,1.96177 1.14438,3.59659 1.14438,3.76009 0,0 1.14435,0 2.288725,0.16348 5.72182,0.49042 10.626276,1.79828 15.694186,4.25049 4.087,2.12524 7.6836,4.57745 11.1167,7.84708 3.76007,3.76007 6.21228,7.19315 8.501,11.93413 3.4331,6.86619 4.90444,14.05934 4.74094,21.25252 -0.16347,4.57747 -0.8174,8.01058 -2.28871,12.26111 -1.96179,6.21223 -5.55836,11.93409 -10.4628,16.83853 -4.25052,4.2505 -8.17406,6.86619 -13.40544,8.99145 l -1.96177,0.8174 v 5.88531 c 0,8.33755 -0.49044,18.1464 -1.14438,24.0317 -0.6539,6.04879 -2.288716,11.77065 -4.904416,17.00205 -6.866195,13.89587 -18.963805,21.2525 -32.53271,19.94469 -15.367237,-1.47135 -27.791767,-11.93414 -30.897913,-25.99349 -1.471354,-6.3758 -0.817396,-11.2802 1.798282,-15.36725 3.433098,-5.39486 9.972343,-8.50098 16.348096,-8.33752 7.52013,0.32699 13.568933,6.21228 14.713282,14.38634 0.817423,6.53923 -1.961747,12.58803 -7.193152,15.85765 -2.942655,1.7983 -7.029687,2.61569 -10.135832,2.12526 -0.490416,0 -0.980885,-0.1635 -0.980885,0 l 1.961798,1.96177 c 3.596561,3.59659 7.683591,5.88533 12.914999,7.0297 1.144346,0.16347 2.125233,0.16347 4.740935,0.16347 2.942658,0 3.26961,0 4.904425,-0.32699 2.288753,-0.65391 4.25052,-1.4713 6.048805,-2.4522 8.17406,-4.90443 13.7324,-15.04023 15.20372,-27.30128 0.490445,-4.5775 0.980885,-14.38635 0.980885,-21.57952 0,-4.74094 0,-5.06792 -0.32695,-5.06792 -0.653935,0.32698 -4.08703,0.65394 -6.539245,0.8174 -3.106145,0.16348 -8.337525,0.16348 -10.78974,-0.16346 -9.64539,-1.14438 -18.473359,-4.41401 -26.15695,-9.8089 -11.44367,-8.01055 -19.617733,-19.94469 -23.050832,-33.67707 -4.413984,-17.16548 -1.307838,-35.47536 9.481901,-54.76615 4.577474,-8.01054 8.991458,-14.54979 19.944686,-29.09961 l 6.212265,-8.33751 -1.144377,-3.10615 C 53.820924,115.34837 51.205223,103.41425 50.387829,86.08527 c -0.326953,-7.520127 0,-13.89591 0.980883,-19.127288 2.452212,-13.732397 8.827969,-25.993463 18.800312,-35.802344 1.96177,-1.961771 2.779195,-2.615701 3.59659,-3.106146 m 12.914995,27.95526 c -1.634785,-2.779167 -1.30784,-2.615705 -2.77916,-1.634791 -4.577475,2.779168 -9.318415,7.029661 -12.75154,11.280155 -7.029662,8.991483 -10.953228,19.454271 -11.443642,30.73445 -0.163493,4.577474 0.326948,7.520124 2.452212,14.549794 1.634788,5.72185 6.21226,19.61773 6.539243,19.94469 0,0.16348 0.980861,-0.98086 1.961744,-2.45222 11.280208,-16.18461 17.329013,-29.42658 19.617738,-42.668538 0.49044,-3.433097 0.817395,-6.212265 0.98088,-10.135806 0.16349,-8.991459 -0.81739,-13.405442 -4.577475,-19.617734 M 72.621264,166.02749 c -0.980885,-3.10614 -1.961798,-5.55836 -1.961798,-5.55836 -0.163462,0 -7.029662,9.15491 -9.972342,13.24195 -9.645365,13.56893 -15.530676,24.52215 -18.963801,35.31188 -2.288724,6.70272 -3.26961,12.91502 -3.596562,19.78122 0,3.76008 0.16349,6.0488 0.817395,8.82797 3.760079,14.54981 19.290783,26.48393 37.600648,29.09964 2.77917,0.32694 10.62625,0.32694 14.05935,0 3.433095,-0.49045 3.106145,-0.32697 2.942655,-1.7983 -0.98086,-15.53071 -2.288725,-25.01261 -4.9044,-39.07198 -0.980915,-5.8853 -3.760075,-18.30986 -3.92357,-18.47336 -0.163485,-0.16346 -3.26961,0.1635 -5.067885,0.65395 -2.288755,0.49044 -3.760075,0.98086 -5.72185,1.96177 -10.626279,5.39487 -13.732423,17.65595 -7.02969,27.62828 1.144377,1.63482 4.08703,4.57748 5.885315,5.72184 0.653932,0.49045 2.125258,1.47132 3.10615,1.96178 1.47132,0.81739 1.798275,1.14436 2.125255,1.79829 1.30784,2.12526 0.49044,4.74093 -1.961775,5.88532 -1.307862,0.65391 -2.288745,0.49045 -4.90445,-0.81742 -6.375728,-3.10612 -11.116694,-7.35665 -14.54979,-12.58803 -6.375755,-9.80887 -7.193176,-22.39691 -1.96177,-33.02317 4.577472,-9.15492 12.751507,-15.3672 23.214295,-17.65594 0.980885,-0.32697 1.79831,-0.49044 1.79831,-0.49044 0.163465,-0.16349 -4.41401,-15.04026 -7.02969,-22.39689 m 22.23341,42.17811 c -0.49044,0 -0.980885,-0.1635 -1.144375,-0.1635 l -0.49044,-0.1635 0.81739,3.43312 c 3.76008,16.51156 6.539251,34.49448 7.520131,49.69823 0.16349,1.63482 0.16349,2.94267 0.16349,2.94267 0.16349,0 2.28872,-0.98089 3.4331,-1.7983 2.77917,-1.63484 5.39487,-4.08705 7.52012,-6.86622 5.06793,-6.70273 6.8662,-15.04025 4.90443,-23.54128 -1.47133,-6.8662 -5.39486,-13.24195 -10.95323,-17.65592 -3.43309,-2.61572 -8.010561,-4.90444 -11.770616,-5.8853"
       fill="none"
       stroke="#0000ff"
       stroke-width="1"
       id="path1-8"
       style="display:inline;fill:#000000;stroke:#000000;stroke-opacity:1"
       inkscape:label="treble" /></g><g
     id="g14"
     transform="translate(-3.0026465,22.609982)"
     style="display:inline"
     inkscape:label="treble_guitar"><text
       xml:space="preserve"
       id="text12"
       style="font-style:normal;font-variant:normal;font-weight:normal;font-stretch:normal;font-size:48px;font-family:Cantarell;-inkscape-font-specification:Cantarell;letter-spacing:0px;writing-mode:lr-tb;direction:ltr;white-space:pre;shape-inside:url(#rect14);display:inline;opacity:1;fill:none;stroke:#000000;stroke-width:4.199;stroke-dasharray:none;stroke-opacity:1"
       transform="translate(31.641991,47.563803)"
       inkscape:label="text_A440"><tspan
         x="109.45312"
         y="344.47765"
         id="tspan15">A4 (440Hz)</tspan></text><path
       style="opacity:0.309693;fill:#000000;stroke:#000000;stroke-width:3;stroke-opacity:1"
       d="m 258.12813,40.084347 h 81.01048"
       id="path13"
       sodipodi:nodetypes="cc"
       inkscape:label="line_note" /><ellipse
       style="mix-blend-mode:normal;fill:none;stroke:#000000;stroke-width:4.59923;stroke-dasharray:none;stroke-opacity:1;filter:url(#filter1-6)"
       id="ellipse13"
       cx="255.29309"
       cy="150.84973"
       rx="25.400845"
       ry="17.294649"
       transform="rotate(-24.225409,19.690638,-8.5310917)"
       inkscape:label="noteA4_guitar" /><path
       d="m 77.492944,339.99434 c 4.404846,-1.78114 9.381256,-1.22367 11.265649,-0.75508 3.944606,0.99887 6.234757,3.91844 6.727657,8.16672 0.102026,4.0139 -3.247602,6.83977 -7.693039,9.98809 3.922649,3.42004 5.542197,5.69614 5.421158,10.11951 -0.908338,6.11224 -9.473425,12.11963 -19.413279,9.59611 -5.983975,-2.59875 -7.053982,-6.92505 -5.970068,-11.67551 1.861711,-5.1473 5.763792,-6.63534 7.589354,-7.43373 -4.739433,-4.59489 -4.255408,-8.08502 -3.682526,-10.66947 0.75655,-3.41301 2.321476,-5.16339 4.885686,-6.80363 m 10.720604,2.69153 c -3.416368,-2.54982 -6.928266,-0.79964 -7.766688,0.23002 -1.414231,1.17772 -2.471405,3.78698 -1.711077,5.61583 0.969336,2.33156 2.082108,3.85517 7.350265,4.6332 5.643313,-2.85036 5.441107,-6.8132 2.899148,-10.04237 m -11.053653,17.01179 c -3.367925,1.46656 -6.83041,7.4563 -1.845642,12.33218 2.855586,1.8088 7.608014,0.49975 8.815592,-0.50139 1.387399,-0.89699 2.478919,-3.37999 2.614798,-5.58447 -0.399063,-5.0907 -4.212304,-6.45519 -8.774029,-6.40133"
       fill="none"
       stroke="#0000ff"
       stroke-width="1.03178"
       id="path12"
       sodipodi:nodetypes="ccccccccscccsccccccc"
       inkscape:label="treble_8"
       style="fill:#000000;stroke:#000000;stroke-opacity:1" /><path
       d="m 73.765614,28.049492 c 0.980883,-0.490442 1.144373,-0.490442 2.125265,-0.490442 1.30783,0.16349 2.125255,0.653932 3.92354,2.615702 11.770625,12.097605 21.579491,33.677083 24.031711,51.986977 0.32695,2.942658 0.32695,9.808857 0,12.914974 -1.79828,16.838537 -8.827991,32.205787 -25.012601,54.275707 l -2.288725,3.10614 1.30784,3.76005 c 3.106145,8.99146 6.70271,19.94469 8.991455,27.95526 0.653935,1.96177 1.14438,3.59659 1.14438,3.76009 0,0 1.14435,0 2.288725,0.16348 5.72182,0.49042 10.626276,1.79828 15.694186,4.25049 4.087,2.12524 7.6836,4.57745 11.1167,7.84708 3.76007,3.76007 6.21228,7.19315 8.501,11.93413 3.4331,6.86619 4.90444,14.05934 4.74094,21.25252 -0.16347,4.57747 -0.8174,8.01058 -2.28871,12.26111 -1.96179,6.21223 -5.55836,11.93409 -10.4628,16.83853 -4.25052,4.2505 -8.17406,6.86619 -13.40544,8.99145 l -1.96177,0.8174 v 5.88531 c 0,8.33755 -0.49044,18.1464 -1.14438,24.0317 -0.6539,6.04879 -2.288716,11.77065 -4.904416,17.00205 -6.866195,13.89587 -18.963805,21.2525 -32.53271,19.94469 -15.367237,-1.47135 -27.791767,-11.93414 -30.897913,-25.99349 -1.471354,-6.3758 -0.817396,-11.2802 1.798282,-15.36725 3.433098,-5.39486 9.972343,-8.50098 16.348096,-8.33752 7.52013,0.32699 13.568933,6.21228 14.713282,14.38634 0.817423,6.53923 -1.961747,12.58803 -7.193152,15.85765 -2.942655,1.7983 -7.029687,2.61569 -10.135832,2.12526 -0.490416,0 -0.980885,-0.1635 -0.980885,0 l 1.961798,1.96177 c 3.596561,3.59659 7.683591,5.88533 12.914999,7.0297 1.144346,0.16347 2.125233,0.16347 4.740935,0.16347 2.942658,0 3.26961,0 4.904425,-0.32699 2.288753,-0.65391 4.25052,-1.4713 6.048805,-2.4522 8.17406,-4.90443 13.7324,-15.04023 15.20372,-27.30128 0.490445,-4.5775 0.980885,-14.38635 0.980885,-21.57952 0,-4.74094 0,-5.06792 -0.32695,-5.06792 -0.653935,0.32698 -4.08703,0.65394 -6.539245,0.8174 -3.106145,0.16348 -8.337525,0.16348 -10.78974,-0.16346 -9.64539,-1.14438 -18.473359,-4.41401 -26.15695,-9.8089 -11.44367,-8.01055 -19.617733,-19.94469 -23.050832,-33.67707 -4.413984,-17.16548 -1.307838,-35.47536 9.481901,-54.76615 4.577474,-8.01054 8.991458,-14.54979 19.944686,-29.09961 l 6.212265,-8.33751 -1.144377,-3.10615 C 53.820924,115.34837 51.205223,103.41425 50.387829,86.08527 c -0.326953,-7.520127 0,-13.89591 0.980883,-19.127288 2.452212,-13.732397 8.827969,-25.993463 18.800312,-35.802344 1.96177,-1.961771 2.779195,-2.615701 3.59659,-3.106146 m 12.914995,27.95526 c -1.634785,-2.779167 -1.30784,-2.615705 -2.77916,-1.634791 -4.577475,2.779168 -9.318415,7.029661 -12.75154,11.280155 -7.029662,8.991483 -10.953228,19.454271 -11.443642,30.73445 -0.163493,4.577474 0.326948,7.520124 2.452212,14.549794 1.634788,5.72185 6.21226,19.61773 6.539243,19.94469 0,0.16348 0.980861,-0.98086 1.961744,-2.45222 11.280208,-16.18461 17.329013,-29.42658 19.617738,-42.668538 0.49044,-3.433097 0.817395,-6.212265 0.98088,-10.135806 0.16349,-8.991459 -0.81739,-13.405442 -4.577475,-19.617734 M 72.621264,166.02749 c -0.980885,-3.10614 -1.961798,-5.55836 -1.961798,-5.55836 -0.163462,0 -7.029662,9.15491 -9.972342,13.24195 -9.645365,13.56893 -15.530676,24.52215 -18.963801,35.31188 -2.288724,6.70272 -3.26961,12.91502 -3.596562,19.78122 0,3.76008 0.16349,6.0488 0.817395,8.82797 3.760079,14.54981 19.290783,26.48393 37.600648,29.09964 2.77917,0.32694 10.62625,0.32694 14.05935,0 3.433095,-0.49045 3.106145,-0.32697 2.942655,-1.7983 -0.98086,-15.53071 -2.288725,-25.01261 -4.9044,-39.07198 -0.980915,-5.8853 -3.760075,-18.30986 -3.92357,-18.47336 -0.163485,-0.16346 -3.26961,0.1635 -5.067885,0.65395 -2.288755,0.49044 -3.760075,0.98086 -5.72185,1.96177 -10.626279,5.39487 -13.732423,17.65595 -7.02969,27.62828 1.144377,1.63482 4.08703,4.57748 5.885315,5.72184 0.653932,0.49045 2.125258,1.47132 3.10615,1.96178 1.47132,0.81739 1.798275,1.14436 2.125255,1.79829 1.30784,2.12526 0.49044,4.74093 -1.961775,5.88532 -1.307862,0.65391 -2.288745,0.49045 -4.90445,-0.81742 -6.375728,-3.10612 -11.116694,-7.35665 -14.54979,-12.58803 -6.375755,-9.80887 -7.193176,-22.39691 -1.96177,-33.02317 4.577472,-9.15492 12.751507,-15.3672 23.214295,-17.65594 0.980885,-0.32697 1.79831,-0.49044 1.79831,-0.49044 0.163465,-0.16349 -4.41401,-15.04026 -7.02969,-22.39689 m 22.23341,42.17811 c -0.49044,0 -0.980885,-0.1635 -1.144375,-0.1635 l -0.49044,-0.1635 0.81739,3.43312 c 3.76008,16.51156 6.539251,34.49448 7.520131,49.69823 0.16349,1.63482 0.16349,2.94267 0.16349,2.94267 0.16349,0 2.28872,-0.98089 3.4331,-1.7983 2.77917,-1.63484 5.39487,-4.08705 7.52012,-6.86622 5.06793,-6.70273 6.8662,-15.04025 4.90443,-23.54128 -1.47133,-6.8662 -5.39486,-13.24195 -10.95323,-17.65592 -3.43309,-2.61572 -8.010561,-4.90444 -11.770616,-5.8853"
       fill="none"
       stroke="#0000ff"
       stroke-width="1"
       id="path14"
       style="display:inline;fill:#000000;stroke:#000000;stroke-opacity:1"
       inkscape:label="treble" /><ellipse
       style="mix-blend-mode:normal;fill:none;stroke:#000000;stroke-width:4.59923;stroke-dasharray:none;stroke-opacity:1;filter:url(#filter1-6)"
       id="ellipse14"
       cx="255.29309"
       cy="150.84973"
       rx="25.400845"
       ry="17.294649"
       transform="rotate(-24.225409,19.690638,-8.5310917)"
       inkscape:label="noteA4_guitar" /></g></svg>
