<?xml version="1.0" encoding="UTF-8"?>
<svg height="16px" viewBox="0 0 16 16" width="16px" xmlns="http://www.w3.org/2000/svg">
    <path d="m 7.996094 0.0195312 c -0.433594 0 -0.855469 0.2539068 -1.074219 0.5078128 c -0.222656 0.253906 -0.328125 0.503906 -0.417969 0.753906 c -0.183594 0.496094 -0.277344 1.023438 -0.386718 1.570312 c -0.214844 1.089844 -0.5625 2.199219 -0.828126 2.460938 c -0.261718 0.261719 -1.371093 0.609375 -2.460937 0.828125 c -0.546875 0.105469 -1.074219 0.203125 -1.570313 0.386719 c -0.25 0.089844 -0.5 0.195312 -0.753906 0.417968 c -0.253906 0.21875 -0.50781225 0.636719 -0.50781225 1.074219 s 0.25390625 0.855469 0.50781225 1.078125 c 0.253906 0.21875 0.503906 0.324219 0.753906 0.417969 c 0.496094 0.179687 1.023438 0.277344 1.570313 0.386719 c 1.089844 0.214844 2.199219 0.5625 2.460937 0.824218 c 0.265626 0.261719 0.613282 1.371094 0.828126 2.464844 c 0.109374 0.542969 0.203124 1.070313 0.386718 1.570313 c 0.089844 0.246093 0.195313 0.5 0.417969 0.753906 c 0.21875 0.253906 0.640625 0.503906 1.074219 0.503906 c 0.4375 0 0.855468 -0.25 1.078125 -0.503906 c 0.21875 -0.253906 0.328125 -0.507813 0.417969 -0.753906 c 0.183593 -0.5 0.277343 -1.027344 0.386718 -1.570313 c 0.214844 -1.09375 0.5625 -2.203125 0.824219 -2.464844 c 0.265625 -0.265624 1.375 -0.613281 2.464844 -0.828124 c 0.546875 -0.109376 1.074219 -0.199219 1.570312 -0.382813 c 0.25 -0.089844 0.5 -0.199219 0.753907 -0.417969 c 0.253906 -0.21875 0.507812 -0.636718 0.511718 -1.070312 c 0 -0.4375 -0.25 -0.859375 -0.503906 -1.082032 c -0.253906 -0.222656 -0.507812 -0.328124 -0.753906 -0.417968 c -0.5 -0.183594 -1.027344 -0.277344 -1.574219 -0.386719 c -1.089844 -0.214844 -2.203125 -0.566406 -2.46875 -0.828125 c -0.261719 -0.261719 -0.609375 -1.371094 -0.824219 -2.460938 c -0.109375 -0.546874 -0.203125 -1.074218 -0.386718 -1.570312 c -0.089844 -0.25 -0.199219 -0.5 -0.417969 -0.753906 c -0.222657 -0.253906 -0.640625 -0.5078128 -1.078125 -0.5078128 z m 0 3.5937498 c 0.191406 1.023438 0.394531 2.214844 1.292968 3.113281 c 0.902344 0.902344 2.089844 1.101563 3.121094 1.292969 c -1.03125 0.191407 -2.21875 0.390625 -3.121094 1.292969 c -0.898437 0.902344 -1.101562 2.089844 -1.292968 3.117188 c -0.191406 -1.027344 -0.390625 -2.214844 -1.292969 -3.117188 c -0.898437 -0.898438 -2.085937 -1.101562 -3.113281 -1.292969 c 1.027344 -0.191406 2.214844 -0.390625 3.113281 -1.292969 c 0.902344 -0.898437 1.101563 -2.089843 1.292969 -3.113281 z m 0 0" fill="#2e3436"/>
</svg>
