<?xml version="1.0" encoding="UTF-8" standalone="no"?>
<!-- Created with Inkscape (http://www.inkscape.org/) -->

<svg
   width="128"
   height="128"
   id="svg3408"
   sodipodi:version="0.32"
   inkscape:version="1.4 (e7c3feb100, 2024-10-09)"
   version="1.0"
   sodipodi:docname="layout_page.svg"
   inkscape:output_extension="org.inkscape.output.svgz.inkscape"
   inkscape:export-filename="/home/pinheiro/pics/oxygen-icons/scalable/actions/small/22x22/page-simple.png"
   inkscape:export-xdpi="30.9375"
   inkscape:export-ydpi="30.9375"
   sodipodi:modified="TRUE"
   xmlns:inkscape="http://www.inkscape.org/namespaces/inkscape"
   xmlns:sodipodi="http://sodipodi.sourceforge.net/DTD/sodipodi-0.dtd"
   xmlns:xlink="http://www.w3.org/1999/xlink"
   xmlns="http://www.w3.org/2000/svg"
   xmlns:svg="http://www.w3.org/2000/svg"
   xmlns:rdf="http://www.w3.org/1999/02/22-rdf-syntax-ns#"
   xmlns:cc="http://creativecommons.org/ns#"
   xmlns:dc="http://purl.org/dc/elements/1.1/">
  <defs
     id="defs3410">
    <linearGradient
       inkscape:collect="always"
       id="linearGradient6">
      <stop
         style="stop-color:#ffffff;stop-opacity:1;"
         offset="0"
         id="stop5" />
      <stop
         style="stop-color:#ffffff;stop-opacity:0;"
         offset="1"
         id="stop6" />
    </linearGradient>
    <inkscape:perspective
       sodipodi:type="inkscape:persp3d"
       inkscape:vp_x="0 : 64 : 1"
       inkscape:vp_y="0 : 1000 : 0"
       inkscape:vp_z="128 : 64 : 1"
       inkscape:persp3d-origin="64 : 42.666667 : 1"
       id="perspective164" />
    <linearGradient
       inkscape:collect="always"
       id="linearGradient3310">
      <stop
         style="stop-color:#ffffff;stop-opacity:1;"
         offset="0"
         id="stop3312" />
      <stop
         style="stop-color:#ffffff;stop-opacity:0;"
         offset="1"
         id="stop3314" />
    </linearGradient>
    <linearGradient
       id="linearGradient4197">
      <stop
         id="stop4199"
         offset="0"
         style="stop-color:#bfbfbf;stop-opacity:1;" />
      <stop
         id="stop4201"
         offset="1"
         style="stop-color:#8b939b;stop-opacity:1;" />
    </linearGradient>
    <linearGradient
       inkscape:collect="always"
       xlink:href="#linearGradient3954"
       id="linearGradient3602"
       gradientUnits="userSpaceOnUse"
       gradientTransform="matrix(8.0889801,0,0,7.9869061,48.218484,-0.1337937)"
       x1="-1.1477618"
       y1="7.0299931"
       x2="-1.8504742"
       y2="4.1436429" />
    <linearGradient
       inkscape:collect="always"
       xlink:href="#linearGradient6330"
       id="linearGradient3600"
       gradientUnits="userSpaceOnUse"
       gradientTransform="matrix(7.5452306,0,0,7.4748734,9.5916915,3.5066005)"
       x1="3.5"
       y1="7.8253403"
       x2="3.5"
       y2="4.8781629" />
    <linearGradient
       inkscape:collect="always"
       xlink:href="#linearGradient6310"
       id="linearGradient3598"
       gradientUnits="userSpaceOnUse"
       gradientTransform="matrix(8.0000001,0,0,8.0000039,7.9999995,-2.6791641e-6)"
       x1="3.5"
       y1="8"
       x2="3.5"
       y2="5" />
    <linearGradient
       inkscape:collect="always"
       xlink:href="#linearGradient3954"
       id="linearGradient3570"
       gradientUnits="userSpaceOnUse"
       gradientTransform="matrix(8.0889801,0,0,7.9869061,48.218484,-0.1337937)"
       x1="-1.1477618"
       y1="7.0299931"
       x2="-1.8504742"
       y2="4.1436429" />
    <linearGradient
       inkscape:collect="always"
       xlink:href="#linearGradient6330"
       id="linearGradient3568"
       gradientUnits="userSpaceOnUse"
       gradientTransform="matrix(7.5452306,0,0,7.4748734,9.5916915,3.5066005)"
       x1="3.5"
       y1="7.8253403"
       x2="3.5"
       y2="4.8781629" />
    <linearGradient
       inkscape:collect="always"
       xlink:href="#linearGradient6310"
       id="linearGradient3566"
       gradientUnits="userSpaceOnUse"
       gradientTransform="matrix(8.0000001,0,0,8.0000039,7.9999995,-2.6791641e-6)"
       x1="3.5"
       y1="8"
       x2="3.5"
       y2="5" />
    <linearGradient
       id="linearGradient3954">
      <stop
         id="stop3956"
         offset="0"
         style="stop-color:#b3b3b3;stop-opacity:1;" />
      <stop
         style="stop-color:#ffffff;stop-opacity:1;"
         offset="0.52879584"
         id="stop3962" />
      <stop
         id="stop3958"
         offset="1"
         style="stop-color:#c5c5c5;stop-opacity:1;" />
    </linearGradient>
    <linearGradient
       id="linearGradient6330">
      <stop
         id="stop6332"
         offset="0"
         style="stop-color:#0968ef;stop-opacity:1;" />
      <stop
         id="stop6334"
         offset="1"
         style="stop-color:#aecffc;stop-opacity:1;" />
    </linearGradient>
    <linearGradient
       inkscape:collect="always"
       id="linearGradient6310">
      <stop
         style="stop-color:#0057ae;stop-opacity:1;"
         offset="0"
         id="stop6312" />
      <stop
         style="stop-color:#0057ae;stop-opacity:1"
         offset="1"
         id="stop6314" />
    </linearGradient>
    <linearGradient
       id="linearGradient3291">
      <stop
         style="stop-color:black;stop-opacity:1"
         offset="0"
         id="stop3293" />
      <stop
         style="stop-color:black;stop-opacity:0"
         offset="1"
         id="stop3295" />
    </linearGradient>
    <linearGradient
       id="linearGradient4041">
      <stop
         style="stop-color:#ffffff;stop-opacity:0;"
         offset="0"
         id="stop4043" />
      <stop
         id="stop4045"
         offset="1"
         style="stop-color:#ffffff;stop-opacity:1;" />
    </linearGradient>
    <clipPath
       clipPathUnits="userSpaceOnUse"
       id="clipPath5126">
      <rect
         style="opacity:1;fill:#000000;fill-opacity:1;fill-rule:nonzero;stroke:none;stroke-width:4;stroke-linecap:round;stroke-linejoin:round;stroke-miterlimit:4;stroke-dasharray:none;stroke-dashoffset:4;stroke-opacity:1"
         id="rect5128"
         width="96"
         height="80"
         x="95.628647"
         y="260.8761"
         inkscape:r_cx="true"
         inkscape:r_cy="true"
         rx="3.7671635"
         ry="5.1168208"
         inkscape:export-filename="/home/pinheiro/Desktop/mock2.png"
         inkscape:export-xdpi="90"
         inkscape:export-ydpi="90" />
    </clipPath>
    <linearGradient
       id="linearGradient3369">
      <stop
         style="stop-color:#ffffff;stop-opacity:1;"
         offset="0"
         id="stop3372" />
      <stop
         id="stop3374"
         offset="0.42597079"
         style="stop-color:#ffffff;stop-opacity:1;" />
      <stop
         id="stop3376"
         offset="0.5892781"
         style="stop-color:#f1f1f1;stop-opacity:1;" />
      <stop
         style="stop-color:#eaeaea;stop-opacity:1;"
         offset="0.80219781"
         id="stop3378" />
      <stop
         style="stop-color:#dfdfdf;stop-opacity:1;"
         offset="1"
         id="stop3384" />
    </linearGradient>
    <linearGradient
       id="linearGradient7422">
      <stop
         id="stop7424"
         offset="0"
         style="stop-color:#b4b4b6;stop-opacity:1;" />
      <stop
         style="stop-color:#9c9ca1;stop-opacity:1;"
         offset="0.5"
         id="stop5348" />
      <stop
         style="stop-color:#cdcdd1;stop-opacity:1;"
         offset="1"
         id="stop7426" />
    </linearGradient>
    <linearGradient
       inkscape:collect="always"
       xlink:href="#linearGradient3369"
       id="linearGradient4021"
       gradientUnits="userSpaceOnUse"
       x1="139.01326"
       y1="340.8761"
       x2="139.24403"
       y2="260.8757" />
    <linearGradient
       inkscape:collect="always"
       xlink:href="#linearGradient3369"
       id="linearGradient4024"
       gradientUnits="userSpaceOnUse"
       x1="139.01326"
       y1="340.8761"
       x2="139.24403"
       y2="260.8757" />
    <linearGradient
       inkscape:collect="always"
       xlink:href="#linearGradient3369"
       id="linearGradient5655"
       gradientUnits="userSpaceOnUse"
       gradientTransform="matrix(1,0,0,0.4444445,7.2727273e-7,67.55556)"
       x1="15.999999"
       y1="100"
       x2="112"
       y2="27.999998" />
    <linearGradient
       inkscape:collect="always"
       xlink:href="#linearGradient7422"
       id="linearGradient5658"
       gradientUnits="userSpaceOnUse"
       gradientTransform="matrix(0.1133599,0,0,7.8071538e-2,0.6428007,29.097878)"
       x1="399.77466"
       y1="1164.6696"
       x2="399.77466"
       y2="549.06134" />
    <linearGradient
       inkscape:collect="always"
       xlink:href="#linearGradient4197"
       id="linearGradient4561"
       gradientUnits="userSpaceOnUse"
       gradientTransform="matrix(1,0,0,0.5,-148,48)"
       x1="48"
       y1="60"
       x2="64"
       y2="60" />
    <linearGradient
       inkscape:collect="always"
       xlink:href="#linearGradient4197"
       id="linearGradient4564"
       gradientUnits="userSpaceOnUse"
       gradientTransform="matrix(1,0,0,0.5,-148,16)"
       x1="48"
       y1="60"
       x2="64"
       y2="60" />
    <linearGradient
       inkscape:collect="always"
       xlink:href="#linearGradient4197"
       id="linearGradient4570"
       gradientUnits="userSpaceOnUse"
       gradientTransform="matrix(4.4999998,0,0,1,-319.99998,-104)"
       x1="48"
       y1="60"
       x2="64"
       y2="60" />
    <linearGradient
       inkscape:collect="always"
       xlink:href="#linearGradient4197"
       id="linearGradient2830"
       gradientUnits="userSpaceOnUse"
       gradientTransform="matrix(4.4999998,0,0,1,-319.99998,-144)"
       x1="48"
       y1="60"
       x2="64"
       y2="60" />
    <linearGradient
       y2="59.9995"
       x2="46.590199"
       y1="59.9995"
       x1="100.936"
       gradientUnits="userSpaceOnUse"
       id="linearGradient16291"
       xlink:href="#XMLID_4_"
       inkscape:collect="always" />
    <linearGradient
       y2="60.0005"
       x2="3.9985001"
       y1="60.0005"
       x1="47.998501"
       gradientTransform="translate(-617.1419,-943.4291)"
       gradientUnits="userSpaceOnUse"
       id="linearGradient16289"
       xlink:href="#XMLID_3_"
       inkscape:collect="always" />
    <linearGradient
       y2="60"
       x2="47.998501"
       y1="60"
       x1="3.9985001"
       gradientUnits="userSpaceOnUse"
       id="linearGradient16287"
       xlink:href="#XMLID_2_"
       inkscape:collect="always" />
    <linearGradient
       y2="60.0005"
       x2="47.999001"
       y1="60.0005"
       x1="84.965302"
       gradientUnits="userSpaceOnUse"
       id="linearGradient16285"
       xlink:href="#XMLID_1_"
       inkscape:collect="always" />
    <linearGradient
       y2="-543.35211"
       x2="645.99847"
       y1="-532.10211"
       x1="645.99847"
       gradientTransform="matrix(0,-4,-4,0,-2060.408,2643.994)"
       gradientUnits="userSpaceOnUse"
       id="linearGradient16283"
       xlink:href="#polygon3293_12_"
       inkscape:collect="always" />
    <linearGradient
       y2="-17.9995"
       x2="181.9985"
       y1="-85.999496"
       x1="181.9985"
       gradientTransform="matrix(0,-1,1,0,-483.1434,-701.4306)"
       gradientUnits="userSpaceOnUse"
       id="linearGradient16281"
       xlink:href="#rect3244_12_"
       inkscape:collect="always" />
    <linearGradient
       y2="59.9995"
       x2="46.590199"
       y1="59.9995"
       x1="100.936"
       gradientUnits="userSpaceOnUse"
       id="XMLID_4_">
      <stop
         id="stop227"
         style="stop-color:#A4C0E4"
         offset="0" />
      <stop
         id="stop229"
         style="stop-color:#FFFFFF"
         offset="1" />
    </linearGradient>
    <linearGradient
       gradientTransform="translate(-617.1419,-943.4291)"
       y2="60.0005"
       x2="3.9985001"
       y1="60.0005"
       x1="47.998501"
       gradientUnits="userSpaceOnUse"
       id="XMLID_3_">
      <stop
         id="stop212"
         style="stop-color:#A4C0E4"
         offset="0" />
      <stop
         id="stop214"
         style="stop-color:#FFFFFF"
         offset="0.7" />
    </linearGradient>
    <linearGradient
       y2="60"
       x2="47.998501"
       y1="60"
       x1="3.9985001"
       gradientUnits="userSpaceOnUse"
       id="XMLID_2_">
      <stop
         id="stop197"
         style="stop-color:#6193CF"
         offset="0" />
      <stop
         id="stop199"
         style="stop-color:#6897D1"
         offset="0.1543" />
      <stop
         id="stop201"
         style="stop-color:#7AA4D7"
         offset="0.3722" />
      <stop
         id="stop203"
         style="stop-color:#98B9E0"
         offset="0.6277" />
      <stop
         id="stop205"
         style="stop-color:#C2D5EC"
         offset="0.9098" />
      <stop
         id="stop207"
         style="stop-color:#D1DFF1"
         offset="1" />
    </linearGradient>
    <linearGradient
       y2="60.0005"
       x2="47.999001"
       y1="60.0005"
       x1="84.965302"
       gradientUnits="userSpaceOnUse"
       id="XMLID_1_">
      <stop
         id="stop188"
         style="stop-color:#2C72C7"
         offset="0" />
      <stop
         id="stop190"
         style="stop-color:#6193CF"
         offset="0.15" />
      <stop
         id="stop192"
         style="stop-color:#A4C0E4"
         offset="1" />
    </linearGradient>
    <linearGradient
       gradientTransform="matrix(0,-4,-4,0,-2060.408,2643.994)"
       y2="-543.35211"
       x2="645.99847"
       y1="-532.10211"
       x1="645.99847"
       gradientUnits="userSpaceOnUse"
       id="polygon3293_12_">
      <stop
         id="stop182"
         style="stop-color:#6193CF"
         offset="0" />
      <stop
         id="stop184"
         style="stop-color:#EEEEEE"
         offset="1" />
    </linearGradient>
    <linearGradient
       gradientTransform="matrix(0,-1,1,0,-483.1434,-701.4306)"
       y2="-17.9995"
       x2="181.9985"
       y1="-85.999496"
       x1="181.9985"
       gradientUnits="userSpaceOnUse"
       id="rect3244_12_">
      <stop
         id="stop174"
         style="stop-color:#A4C0E4"
         offset="0" />
      <stop
         id="stop176"
         style="stop-color:#D1DFF1"
         offset="0.25" />
      <stop
         id="stop178"
         style="stop-color:#FFFFFF"
         offset="0.85" />
    </linearGradient>
    <linearGradient
       y2="4.1436429"
       x2="-1.8504742"
       y1="7.0299931"
       x1="-1.1477618"
       gradientTransform="matrix(8.0889801,0,0,7.9869061,48.218484,-0.1337937)"
       gradientUnits="userSpaceOnUse"
       id="linearGradient3608"
       xlink:href="#linearGradient3954"
       inkscape:collect="always" />
    <linearGradient
       y2="4.8781629"
       x2="3.5"
       y1="7.8253403"
       x1="3.5"
       gradientTransform="matrix(7.5452306,0,0,7.4748734,9.5916915,3.5066005)"
       gradientUnits="userSpaceOnUse"
       id="linearGradient3606"
       xlink:href="#linearGradient6330"
       inkscape:collect="always" />
    <linearGradient
       y2="5"
       x2="3.5"
       y1="8"
       x1="3.5"
       gradientTransform="matrix(8.0000001,0,0,8.0000039,7.9999995,-2.6791641e-6)"
       gradientUnits="userSpaceOnUse"
       id="linearGradient3604"
       xlink:href="#linearGradient6310"
       inkscape:collect="always" />
    <linearGradient
       y2="4.1436429"
       x2="-1.8504742"
       y1="7.0299931"
       x1="-1.1477618"
       gradientTransform="matrix(8.0889801,0,0,7.9869061,48.218484,-0.1337937)"
       gradientUnits="userSpaceOnUse"
       id="linearGradient3596"
       xlink:href="#linearGradient3954"
       inkscape:collect="always" />
    <linearGradient
       y2="4.8781629"
       x2="3.5"
       y1="7.8253403"
       x1="3.5"
       gradientTransform="matrix(7.5452306,0,0,7.4748734,9.5916915,3.5066005)"
       gradientUnits="userSpaceOnUse"
       id="linearGradient3594"
       xlink:href="#linearGradient6330"
       inkscape:collect="always" />
    <linearGradient
       y2="5"
       x2="3.5"
       y1="8"
       x1="3.5"
       gradientTransform="matrix(8.0000001,0,0,8.0000039,7.9999995,-2.6791641e-6)"
       gradientUnits="userSpaceOnUse"
       id="linearGradient3592"
       xlink:href="#linearGradient6310"
       inkscape:collect="always" />
    <linearGradient
       y2="4.1436429"
       x2="-1.8504742"
       y1="7.0299931"
       x1="-1.1477618"
       gradientTransform="matrix(7.9260579,0,0,7.9869061,47.725101,-0.1337937)"
       gradientUnits="userSpaceOnUse"
       id="linearGradient3520"
       xlink:href="#linearGradient3954"
       inkscape:collect="always" />
    <linearGradient
       y2="4.1436429"
       x2="-1.8504742"
       y1="7.0299931"
       x1="-1.1477618"
       gradientTransform="matrix(1,0,0,0.872468,4.965317,0.615893)"
       gradientUnits="userSpaceOnUse"
       id="linearGradient3516"
       xlink:href="#linearGradient3954"
       inkscape:collect="always" />
    <linearGradient
       y2="4.1436429"
       x2="-1.8504742"
       y1="7.0299931"
       x1="-1.1477618"
       gradientTransform="matrix(1,0,0,0.872468,4.965317,0.615893)"
       gradientUnits="userSpaceOnUse"
       id="linearGradient3514"
       xlink:href="#linearGradient3954"
       inkscape:collect="always" />
    <linearGradient
       y2="4.1436429"
       x2="-1.8504742"
       y1="7.0299931"
       x1="-1.1477618"
       gradientTransform="matrix(1,0,0,0.872468,4.965317,0.615893)"
       gradientUnits="userSpaceOnUse"
       id="linearGradient3512"
       xlink:href="#linearGradient3954"
       inkscape:collect="always" />
    <linearGradient
       y2="4.8781629"
       x2="3.5"
       y1="7.8253403"
       x1="3.5"
       gradientTransform="matrix(1,0,0,0.872468,0,0.637662)"
       gradientUnits="userSpaceOnUse"
       id="linearGradient3510"
       xlink:href="#linearGradient6330"
       inkscape:collect="always" />
    <linearGradient
       y2="5"
       x2="3.5"
       y1="8"
       x1="3.5"
       gradientTransform="matrix(1,0,0,0.872468,0,0.637662)"
       gradientUnits="userSpaceOnUse"
       id="linearGradient3508"
       xlink:href="#linearGradient6310"
       inkscape:collect="always" />
    <linearGradient
       y2="4.1436429"
       x2="-1.8504742"
       y1="7.0299931"
       x1="-1.1477618"
       gradientTransform="matrix(1,0,0,0.872468,4.965317,0.615893)"
       gradientUnits="userSpaceOnUse"
       id="linearGradient3506"
       xlink:href="#linearGradient3954"
       inkscape:collect="always" />
    <linearGradient
       y2="4.1436429"
       x2="-1.8504742"
       y1="7.0299931"
       x1="-1.1477618"
       gradientTransform="matrix(1,0,0,0.872468,4.965317,0.615893)"
       gradientUnits="userSpaceOnUse"
       id="linearGradient3504"
       xlink:href="#linearGradient3954"
       inkscape:collect="always" />
    <linearGradient
       y2="4.1436429"
       x2="-1.8504742"
       y1="7.0299931"
       x1="-1.1477618"
       gradientTransform="matrix(1,0,0,0.872468,4.965317,0.615893)"
       gradientUnits="userSpaceOnUse"
       id="linearGradient3502"
       xlink:href="#linearGradient3954"
       inkscape:collect="always" />
    <linearGradient
       y2="4.8781629"
       x2="3.5"
       y1="7.8253403"
       x1="3.5"
       gradientTransform="matrix(1,0,0,0.872468,0,0.637662)"
       gradientUnits="userSpaceOnUse"
       id="linearGradient3500"
       xlink:href="#linearGradient6330"
       inkscape:collect="always" />
    <linearGradient
       y2="5"
       x2="3.5"
       y1="8"
       x1="3.5"
       gradientTransform="matrix(1,0,0,0.872468,0,0.637662)"
       gradientUnits="userSpaceOnUse"
       id="linearGradient3498"
       xlink:href="#linearGradient6310"
       inkscape:collect="always" />
    <linearGradient
       y2="549.06134"
       x2="399.77466"
       y1="597.15161"
       x1="399.77466"
       gradientTransform="matrix(0.1052627,0,0,0.169155,5.1683154,-80.954598)"
       gradientUnits="userSpaceOnUse"
       id="linearGradient4039"
       xlink:href="#linearGradient4041"
       inkscape:collect="always" />
    <linearGradient
       gradientTransform="translate(8.244873e-7,4.0000017)"
       gradientUnits="userSpaceOnUse"
       y2="27.999998"
       x2="112"
       y1="100"
       x1="15.999999"
       id="linearGradient4034"
       xlink:href="#linearGradient3369"
       inkscape:collect="always" />
    <linearGradient
       y2="260.8757"
       x2="139.24403"
       y1="340.8761"
       x1="139.01326"
       gradientUnits="userSpaceOnUse"
       id="linearGradient2454"
       xlink:href="#linearGradient3369"
       inkscape:collect="always" />
    <linearGradient
       y2="260.8757"
       x2="139.24403"
       y1="340.8761"
       x1="139.01326"
       gradientUnits="userSpaceOnUse"
       id="linearGradient2452"
       xlink:href="#linearGradient3369"
       inkscape:collect="always" />
    <linearGradient
       y2="549.06134"
       x2="399.77466"
       y1="1164.6696"
       x1="399.77466"
       gradientTransform="matrix(0.1133599,0,0,0.169155,0.642801,-84.954598)"
       gradientUnits="userSpaceOnUse"
       id="linearGradient2517"
       xlink:href="#linearGradient7422"
       inkscape:collect="always" />
    <linearGradient
       id="linearGradient2443">
      <stop
         style="stop-color:#b4b4b6;stop-opacity:1;"
         offset="0"
         id="stop2445" />
      <stop
         id="stop2447"
         offset="0.5"
         style="stop-color:#9c9ca1;stop-opacity:1;" />
      <stop
         id="stop2449"
         offset="1"
         style="stop-color:#cdcdd1;stop-opacity:1;" />
    </linearGradient>
    <linearGradient
       id="linearGradient2431">
      <stop
         id="stop2433"
         offset="0"
         style="stop-color:#ffffff;stop-opacity:1;" />
      <stop
         style="stop-color:#ffffff;stop-opacity:1;"
         offset="0.42597079"
         id="stop2435" />
      <stop
         style="stop-color:#f1f1f1;stop-opacity:1;"
         offset="0.5892781"
         id="stop2437" />
      <stop
         id="stop2439"
         offset="0.80219781"
         style="stop-color:#eaeaea;stop-opacity:1;" />
      <stop
         id="stop2441"
         offset="1"
         style="stop-color:#dfdfdf;stop-opacity:1;" />
    </linearGradient>
    <clipPath
       id="clipPath2427"
       clipPathUnits="userSpaceOnUse">
      <rect
         inkscape:export-ydpi="90"
         inkscape:export-xdpi="90"
         inkscape:export-filename="/home/pinheiro/Desktop/mock2.png"
         ry="5.1168208"
         rx="3.7671635"
         inkscape:r_cy="true"
         inkscape:r_cx="true"
         y="260.8761"
         x="95.628647"
         height="80"
         width="96"
         id="rect2429"
         style="opacity:1;fill:#000000;fill-opacity:1;fill-rule:nonzero;stroke:none;stroke-width:4;stroke-linecap:round;stroke-linejoin:round;stroke-miterlimit:4;stroke-dasharray:none;stroke-dashoffset:4;stroke-opacity:1" />
    </clipPath>
    <linearGradient
       id="linearGradient2421">
      <stop
         id="stop2423"
         offset="0"
         style="stop-color:#ffffff;stop-opacity:0;" />
      <stop
         style="stop-color:#ffffff;stop-opacity:1;"
         offset="1"
         id="stop2425" />
    </linearGradient>
    <radialGradient
       r="63.912209"
       fy="115.7093"
       fx="63.912209"
       cy="115.70919"
       cx="63.912209"
       gradientTransform="matrix(1,0,0,0.197802,0,92.82166)"
       gradientUnits="userSpaceOnUse"
       id="radialGradient2419"
       xlink:href="#linearGradient3291"
       inkscape:collect="always" />
    <linearGradient
       id="linearGradient2413">
      <stop
         id="stop2415"
         offset="0"
         style="stop-color:black;stop-opacity:1" />
      <stop
         id="stop2417"
         offset="1"
         style="stop-color:black;stop-opacity:0" />
    </linearGradient>
    <linearGradient
       y2="5"
       x2="3.5"
       y1="8"
       x1="3.5"
       gradientTransform="matrix(1,0,0,0.872468,0,0.637662)"
       gradientUnits="userSpaceOnUse"
       id="linearGradient15103"
       xlink:href="#linearGradient6310"
       inkscape:collect="always" />
    <linearGradient
       y2="4.8781629"
       x2="3.5"
       y1="7.8253403"
       x1="3.5"
       gradientTransform="matrix(1,0,0,0.872468,0,0.637662)"
       gradientUnits="userSpaceOnUse"
       id="linearGradient15105"
       xlink:href="#linearGradient6330"
       inkscape:collect="always" />
    <linearGradient
       id="linearGradient2399">
      <stop
         style="stop-color:#0968ef;stop-opacity:1;"
         offset="0"
         id="stop2401" />
      <stop
         style="stop-color:#aecffc;stop-opacity:1;"
         offset="1"
         id="stop2403" />
    </linearGradient>
    <linearGradient
       y2="4.1436429"
       x2="-1.8504742"
       y1="7.0299931"
       x1="-1.1477618"
       gradientTransform="matrix(1,0,0,0.872468,4.965317,0.615893)"
       gradientUnits="userSpaceOnUse"
       id="linearGradient15107"
       xlink:href="#linearGradient3954"
       inkscape:collect="always" />
    <linearGradient
       id="linearGradient2390">
      <stop
         style="stop-color:#b3b3b3;stop-opacity:1;"
         offset="0"
         id="stop2392" />
      <stop
         id="stop2394"
         offset="0.52879584"
         style="stop-color:#ffffff;stop-opacity:1;" />
      <stop
         style="stop-color:#c5c5c5;stop-opacity:1;"
         offset="1"
         id="stop2396" />
    </linearGradient>
    <linearGradient
       y2="4.1436429"
       x2="-1.8504742"
       y1="7.0299931"
       x1="-1.1477618"
       gradientTransform="matrix(1,0,0,0.872468,4.965317,0.615893)"
       gradientUnits="userSpaceOnUse"
       id="linearGradient15109"
       xlink:href="#linearGradient3954"
       inkscape:collect="always" />
    <linearGradient
       y2="4.1436429"
       x2="-1.8504742"
       y1="7.0299931"
       x1="-1.1477618"
       gradientTransform="matrix(1,0,0,0.872468,4.965317,0.615893)"
       gradientUnits="userSpaceOnUse"
       id="linearGradient15111"
       xlink:href="#linearGradient3954"
       inkscape:collect="always" />
    <linearGradient
       y2="5"
       x2="3.5"
       y1="8"
       x1="3.5"
       gradientTransform="matrix(1,0,0,0.872468,0,0.637662)"
       gradientUnits="userSpaceOnUse"
       id="linearGradient15113"
       xlink:href="#linearGradient6310"
       inkscape:collect="always" />
    <linearGradient
       y2="4.8781629"
       x2="3.5"
       y1="7.8253403"
       x1="3.5"
       gradientTransform="matrix(1,0,0,0.872468,0,0.637662)"
       gradientUnits="userSpaceOnUse"
       id="linearGradient15115"
       xlink:href="#linearGradient6330"
       inkscape:collect="always" />
    <linearGradient
       y2="4.1436429"
       x2="-1.8504742"
       y1="7.0299931"
       x1="-1.1477618"
       gradientTransform="matrix(1,0,0,0.872468,4.965317,0.615893)"
       gradientUnits="userSpaceOnUse"
       id="linearGradient15117"
       xlink:href="#linearGradient3954"
       inkscape:collect="always" />
    <linearGradient
       y2="4.1436429"
       x2="-1.8504742"
       y1="7.0299931"
       x1="-1.1477618"
       gradientTransform="matrix(1,0,0,0.872468,4.965317,0.615893)"
       gradientUnits="userSpaceOnUse"
       id="linearGradient15119"
       xlink:href="#linearGradient3954"
       inkscape:collect="always" />
    <linearGradient
       y2="4.1436429"
       x2="-1.8504742"
       y1="7.0299931"
       x1="-1.1477618"
       gradientTransform="matrix(1,0,0,0.872468,4.965317,0.615893)"
       gradientUnits="userSpaceOnUse"
       id="linearGradient15121"
       xlink:href="#linearGradient3954"
       inkscape:collect="always" />
    <linearGradient
       id="linearGradient2377">
      <stop
         style="stop-color:#575757;stop-opacity:0.01898734;"
         offset="0"
         id="stop2379" />
      <stop
         style="stop-color:#8b939b;stop-opacity:1;"
         offset="1"
         id="stop2381" />
    </linearGradient>
    <radialGradient
       inkscape:collect="always"
       xlink:href="#linearGradient3291"
       id="radialGradient2500"
       gradientUnits="userSpaceOnUse"
       gradientTransform="matrix(1,0,0,0.197802,0,92.82166)"
       cx="63.912209"
       cy="115.70919"
       fx="63.912209"
       fy="115.7093"
       r="63.912209" />
    <linearGradient
       inkscape:collect="always"
       xlink:href="#linearGradient4041"
       id="linearGradient2518"
       gradientUnits="userSpaceOnUse"
       gradientTransform="matrix(0.1052627,0,0,0.169155,177.92506,-187.71135)"
       x1="399.77466"
       y1="597.15161"
       x2="399.77466"
       y2="549.06134" />
    <linearGradient
       inkscape:collect="always"
       xlink:href="#linearGradient3369"
       id="linearGradient2521"
       gradientUnits="userSpaceOnUse"
       gradientTransform="translate(172.75674,-102.75675)"
       x1="15.999999"
       y1="100"
       x2="112"
       y2="27.999998" />
    <linearGradient
       inkscape:collect="always"
       xlink:href="#linearGradient7422"
       id="linearGradient2524"
       gradientUnits="userSpaceOnUse"
       gradientTransform="matrix(0.1133599,0,0,0.169155,173.39954,-191.71135)"
       x1="399.77466"
       y1="1164.6696"
       x2="399.77466"
       y2="549.06134" />
    <linearGradient
       inkscape:collect="always"
       xlink:href="#linearGradient7422"
       id="linearGradient2330"
       gradientUnits="userSpaceOnUse"
       gradientTransform="matrix(8.0971324e-2,0,0,7.8071538e-2,42.744858,-2.9021226)"
       x1="399.77466"
       y1="1164.6696"
       x2="399.77466"
       y2="549.06134" />
    <linearGradient
       inkscape:collect="always"
       xlink:href="#linearGradient3369"
       id="linearGradient2332"
       gradientUnits="userSpaceOnUse"
       gradientTransform="matrix(0.6666667,0,0,0.4444445,45.333334,35.555557)"
       x1="15.999999"
       y1="100"
       x2="112"
       y2="27.999998" />
    <linearGradient
       inkscape:collect="always"
       xlink:href="#linearGradient3310"
       id="linearGradient3316"
       x1="77.5625"
       y1="32"
       x2="108.625"
       y2="32"
       gradientUnits="userSpaceOnUse"
       gradientTransform="translate(-3,64)" />
    <linearGradient
       inkscape:collect="always"
       xlink:href="#linearGradient3310"
       id="linearGradient3320"
       gradientUnits="userSpaceOnUse"
       x1="77.5625"
       y1="32"
       x2="108.625"
       y2="32"
       gradientTransform="translate(7,32)" />
    <linearGradient
       inkscape:collect="always"
       xlink:href="#linearGradient2399"
       id="linearGradient3330"
       x1="16.263456"
       y1="67.869316"
       x2="28.913122"
       y2="-12.523698"
       gradientUnits="userSpaceOnUse"
       gradientTransform="matrix(1.9362358,0,0,1.1370159,40.510114,-9.0961276)" />
    <linearGradient
       inkscape:collect="always"
       xlink:href="#linearGradient7422"
       id="linearGradient2333"
       gradientUnits="userSpaceOnUse"
       gradientTransform="matrix(8.0971324e-2,0,0,7.8071538e-2,-3.5051408,-9.6521224)"
       x1="399.77466"
       y1="1164.6696"
       x2="399.77466"
       y2="549.06134" />
    <linearGradient
       inkscape:collect="always"
       xlink:href="#linearGradient3369"
       id="linearGradient2335"
       gradientUnits="userSpaceOnUse"
       gradientTransform="matrix(0.6666667,0,0,0.4444445,-0.9166648,28.805557)"
       x1="15.999999"
       y1="100"
       x2="112"
       y2="27.999998" />
    <linearGradient
       inkscape:collect="always"
       xlink:href="#linearGradient3310"
       id="linearGradient2337"
       gradientUnits="userSpaceOnUse"
       gradientTransform="translate(-39.249999,25.25)"
       x1="77.5625"
       y1="32"
       x2="108.625"
       y2="32" />
    <linearGradient
       inkscape:collect="always"
       xlink:href="#linearGradient3369"
       id="linearGradient2459"
       gradientUnits="userSpaceOnUse"
       gradientTransform="matrix(1.1666667,0,0,1.5555557,-10.666665,-35.555551)"
       x1="15.999999"
       y1="100"
       x2="112"
       y2="27.999998" />
    <linearGradient
       inkscape:collect="always"
       xlink:href="#linearGradient3310"
       id="linearGradient2515"
       gradientUnits="userSpaceOnUse"
       gradientTransform="matrix(1,0,-1.0391918,2.6020388,32.12241,-33.63262)"
       x1="101.47155"
       y1="-3.3719175"
       x2="79.994766"
       y2="39.929062" />
    <linearGradient
       inkscape:collect="always"
       xlink:href="#linearGradient6"
       id="linearGradient2519"
       gradientUnits="userSpaceOnUse"
       gradientTransform="matrix(0.47270904,0,0,1.5555557,51.367638,-35.55735)"
       x1="185.42065"
       y1="50.818695"
       x2="38.579346"
       y2="50.818695" />
  </defs>
  <sodipodi:namedview
     id="base"
     pagecolor="#ffffff"
     bordercolor="#666666"
     borderopacity="1.0"
     inkscape:pageopacity="0.0"
     inkscape:pageshadow="2"
     inkscape:zoom="4"
     inkscape:cx="44.875"
     inkscape:cy="81.625001"
     inkscape:document-units="px"
     inkscape:current-layer="layer1"
     height="128px"
     width="128px"
     showborder="true"
     inkscape:showpageshadow="false"
     showgrid="true"
     inkscape:window-width="1920"
     inkscape:window-height="1022"
     inkscape:window-x="0"
     inkscape:window-y="0"
     showguides="true"
     inkscape:guide-bbox="true"
     inkscape:pagecheckerboard="0"
     inkscape:deskcolor="#d1d1d1"
     inkscape:window-maximized="1">
    <inkscape:grid
       id="GridFromPre046Settings"
       type="xygrid"
       originx="0px"
       originy="0px"
       spacingx="5.8181px"
       spacingy="5.8181px"
       color="#0000ff"
       empcolor="#0000ff"
       opacity="0.2"
       empopacity="0.4"
       empspacing="2"
       visible="true"
       enabled="true"
       units="px" />
  </sodipodi:namedview>
  <metadata
     id="metadata3413">
    <rdf:RDF>
      <cc:Work
         rdf:about="">
        <dc:format>image/svg+xml</dc:format>
        <dc:type
           rdf:resource="http://purl.org/dc/dcmitype/StillImage" />
        <dc:title />
      </cc:Work>
    </rdf:RDF>
  </metadata>
  <g
     inkscape:label="Livello 1"
     inkscape:groupmode="layer"
     id="layer1">
    <rect
       style="fill:#232629;fill-opacity:1;stroke-width:0.302984"
       id="rect1"
       width="3.3615692"
       height="21.850201"
       x="29.0905"
       y="17.4543" />
    <rect
       style="fill:#232629;fill-opacity:1;stroke-width:0.389645"
       id="rect1-3"
       width="72.273735"
       height="1.6807846"
       x="32.452068"
       y="17.4543" />
    <rect
       style="fill:#232629;fill-opacity:1;stroke-width:0.389645"
       id="rect2"
       width="72.273735"
       height="1.6807846"
       x="32.452068"
       y="22.496655" />
    <rect
       style="fill:#232629;fill-opacity:1;stroke-width:0.389645"
       id="rect3"
       width="72.273735"
       height="1.6807846"
       x="32.452068"
       y="27.539009" />
    <rect
       style="fill:#232629;fill-opacity:1;stroke-width:0.389645"
       id="rect4"
       width="72.273735"
       height="1.6807846"
       x="32.452068"
       y="32.58136" />
    <rect
       style="fill:#232629;fill-opacity:1;stroke-width:0.389645"
       id="rect5"
       width="72.273735"
       height="1.6807846"
       x="32.452068"
       y="37.623718" />
    <path
       id="path1"
       d="m 55.362449,15.773516 c -0.110298,0 -0.199074,0.08874 -0.199074,0.19907 v 14.934379 c -0.405149,-0.309056 -0.956026,-0.458643 -1.522985,-0.458643 -0.816281,0 -1.613141,0.298729 -2.32986,0.7168 -0.935705,0.55746 -2.050614,1.532969 -2.050614,2.966401 0,1.234365 1.055259,1.811409 2.170119,1.811409 0.816281,0 1.613141,-0.298729 2.329857,-0.716797 0.935706,-0.557461 2.050617,-1.532969 2.050617,-2.966404 0,-0.05405 -0.0051,-0.105286 -0.0092,-0.156867 0.0031,-0.01421 0.0092,-0.02773 0.0092,-0.04296 V 15.972849 c 0,-0.110295 -0.08878,-0.19907 -0.19907,-0.19907 z"
       fill="#232629"
       style="stroke-width:1.00847" />
    <path
       id="path2"
       d="m 43.596955,20.946494 c -0.110296,0 -0.199071,0.08874 -0.199071,0.19907 V 36.079943 C 42.992732,35.770887 42.441858,35.6213 41.874898,35.6213 c -0.816283,0 -1.613143,0.298729 -2.32986,0.7168 -0.935705,0.55746 -2.050615,1.532969 -2.050615,2.966401 0,1.234365 1.055259,1.811409 2.170119,1.811409 0.816282,0 1.613142,-0.298729 2.329859,-0.716797 0.935706,-0.557461 2.050615,-1.532969 2.050615,-2.966404 0,-0.05405 -0.0051,-0.105286 -0.0092,-0.156867 0.0031,-0.01421 0.0092,-0.02773 0.0092,-0.04296 V 21.145827 c 0,-0.110295 -0.08877,-0.19907 -0.199071,-0.19907 z"
       fill="#232629"
       style="stroke-width:1.00847" />
    <path
       id="path3"
       d="m 67.127941,40.985286 c -0.110298,0 -0.199073,-0.08874 -0.199073,-0.199071 V 25.851837 c -0.40515,0.309056 -0.956026,0.458642 -1.522985,0.458642 -0.816282,0 -1.613141,-0.298728 -2.32986,-0.716799 -0.935706,-0.557461 -2.050615,-1.532969 -2.050615,-2.966401 0,-1.234365 1.055259,-1.811409 2.170119,-1.811409 0.816282,0 1.613142,0.298728 2.329858,0.716797 0.935705,0.55746 2.050617,1.532969 2.050617,2.966404 0,0.05405 -0.0051,0.105285 -0.0092,0.156866 0.0031,0.01421 0.0092,0.02773 0.0092,0.04296 v 16.087054 c 0,0.110295 -0.08878,0.199071 -0.199071,0.199071 z"
       fill="#232629"
       style="stroke-width:1.00847" />
    <rect
       style="fill:#232629;fill-opacity:1;stroke-width:0.214242"
       id="rect6"
       width="1.6807846"
       height="21.850201"
       x="86.237175"
       y="17.4543" />
    <path
       id="path6"
       d="m 78.893433,15.773516 c -0.110297,0 -0.199073,0.08874 -0.199073,0.19907 v 14.934379 c -0.405149,-0.309056 -0.956026,-0.458643 -1.522985,-0.458643 -0.816281,0 -1.613141,0.298729 -2.32986,0.7168 -0.935705,0.55746 -2.050614,1.532969 -2.050614,2.966401 0,1.234365 1.055259,1.811409 2.170119,1.811409 0.816281,0 1.613141,-0.298729 2.329857,-0.716797 0.935706,-0.557461 2.050617,-1.532969 2.050617,-2.966404 0,-0.05405 -0.0051,-0.105286 -0.0092,-0.156867 0.0031,-0.01421 0.0092,-0.02773 0.0092,-0.04296 V 15.972849 c 0,-0.110295 -0.08877,-0.19907 -0.19907,-0.19907 z"
       fill="#232629"
       style="stroke-width:1.00847" />
    <path
       id="path8"
       d="m 99.062849,20.81587 c -0.110298,0 -0.199073,0.08874 -0.199073,0.19907 v 14.934379 c -0.40515,-0.309056 -0.956026,-0.458643 -1.522985,-0.458643 -0.816282,0 -1.613141,0.298729 -2.32986,0.7168 -0.935706,0.55746 -2.050615,1.532969 -2.050615,2.966401 0,1.234365 1.055259,1.811409 2.170119,1.811409 0.816282,0 1.613142,-0.298729 2.329861,-0.716797 0.935705,-0.557461 2.050614,-1.532969 2.050614,-2.966404 0,-0.05405 -0.0051,-0.105286 -0.0092,-0.156867 0.0031,-0.01421 0.0092,-0.02773 0.0092,-0.04296 V 21.015203 c 0,-0.110295 -0.08877,-0.19907 -0.19907,-0.19907 z"
       fill="#232629"
       style="stroke-width:1.00847" />
    <rect
       style="fill:#232629;fill-opacity:1;stroke-width:0.302984"
       id="rect8"
       width="3.3615692"
       height="21.850201"
       x="29.0905"
       y="52.36264" />
    <rect
       style="fill:#232629;fill-opacity:1;stroke-width:0.389645"
       id="rect9"
       width="72.273735"
       height="1.6807846"
       x="32.452068"
       y="52.36264" />
    <rect
       style="fill:#232629;fill-opacity:1;stroke-width:0.389645"
       id="rect10"
       width="72.273735"
       height="1.6807846"
       x="32.452068"
       y="57.404991" />
    <rect
       style="fill:#232629;fill-opacity:1;stroke-width:0.389645"
       id="rect11"
       width="72.273735"
       height="1.6807846"
       x="32.452068"
       y="62.447342" />
    <rect
       style="fill:#232629;fill-opacity:1;stroke-width:0.389645"
       id="rect12"
       width="72.273735"
       height="1.6807846"
       x="32.452068"
       y="67.4897" />
    <rect
       style="fill:#232629;fill-opacity:1;stroke-width:0.389645"
       id="rect13"
       width="72.273735"
       height="1.6807846"
       x="32.452068"
       y="72.532051" />
    <path
       id="path13"
       d="m 55.362449,50.681853 c -0.110298,0 -0.199074,0.08874 -0.199074,0.19907 v 14.934379 c -0.405149,-0.309056 -0.956026,-0.458643 -1.522985,-0.458643 -0.816281,0 -1.613141,0.298729 -2.32986,0.7168 -0.935705,0.55746 -2.050614,1.532969 -2.050614,2.966401 0,1.234365 1.055259,1.811409 2.170119,1.811409 0.816281,0 1.613141,-0.298729 2.329857,-0.716797 0.935706,-0.557461 2.050617,-1.532969 2.050617,-2.966404 0,-0.05405 -0.0051,-0.105286 -0.0092,-0.156867 0.0031,-0.01421 0.0092,-0.02773 0.0092,-0.04296 V 50.881186 c 0,-0.110295 -0.08878,-0.19907 -0.19907,-0.19907 z"
       fill="#232629"
       style="stroke-width:1.00847" />
    <path
       id="path14"
       d="m 43.596955,55.854831 c -0.110296,0 -0.199071,0.08874 -0.199071,0.19907 V 70.98828 c -0.405152,-0.309056 -0.956026,-0.458643 -1.522986,-0.458643 -0.816283,0 -1.613143,0.298729 -2.32986,0.7168 -0.935705,0.55746 -2.050615,1.532969 -2.050615,2.966401 0,1.234365 1.055259,1.811409 2.170119,1.811409 0.816282,0 1.613142,-0.298729 2.329859,-0.716797 0.935706,-0.557461 2.050615,-1.532969 2.050615,-2.966404 0,-0.05405 -0.0051,-0.105286 -0.0092,-0.156867 0.0031,-0.01421 0.0092,-0.02773 0.0092,-0.04296 V 56.054164 c 0,-0.110295 -0.08877,-0.19907 -0.199071,-0.19907 z"
       fill="#232629"
       style="stroke-width:1.00847" />
    <path
       id="path15"
       d="m 67.127941,75.893623 c -0.110298,0 -0.199073,-0.08874 -0.199073,-0.199071 V 60.760174 c -0.40515,0.309056 -0.956026,0.458642 -1.522985,0.458642 -0.816282,0 -1.613141,-0.298728 -2.32986,-0.716799 -0.935706,-0.557461 -2.050615,-1.532969 -2.050615,-2.966401 0,-1.234365 1.055259,-1.811409 2.170119,-1.811409 0.816282,0 1.613142,0.298728 2.329858,0.716797 0.935705,0.55746 2.050617,1.532969 2.050617,2.966404 0,0.05405 -0.0051,0.105285 -0.0092,0.156866 0.0031,0.01421 0.0092,0.02773 0.0092,0.04296 v 16.087054 c 0,0.110295 -0.08878,0.199071 -0.199071,0.199071 z"
       fill="#232629"
       style="stroke-width:1.00847" />
    <rect
       style="fill:#232629;fill-opacity:1;stroke-width:0.214242"
       id="rect15"
       width="1.6807846"
       height="21.850201"
       x="86.237175"
       y="52.36264" />
    <path
       id="path16"
       d="m 78.893433,50.681853 c -0.110297,0 -0.199073,0.08874 -0.199073,0.19907 v 14.934379 c -0.405149,-0.309056 -0.956026,-0.458643 -1.522985,-0.458643 -0.816281,0 -1.613141,0.298729 -2.32986,0.7168 -0.935705,0.55746 -2.050614,1.532969 -2.050614,2.966401 0,1.234365 1.055259,1.811409 2.170119,1.811409 0.816281,0 1.613141,-0.298729 2.329857,-0.716797 0.935706,-0.557461 2.050617,-1.532969 2.050617,-2.966404 0,-0.05405 -0.0051,-0.105286 -0.0092,-0.156867 0.0031,-0.01421 0.0092,-0.02773 0.0092,-0.04296 V 50.881186 c 0,-0.110295 -0.08877,-0.19907 -0.19907,-0.19907 z"
       fill="#232629"
       style="stroke-width:1.00847" />
    <path
       id="path17"
       d="m 99.062849,55.724207 c -0.110298,0 -0.199073,0.08874 -0.199073,0.19907 v 14.934379 c -0.40515,-0.309056 -0.956026,-0.458643 -1.522985,-0.458643 -0.816282,0 -1.613141,0.298729 -2.32986,0.7168 -0.935706,0.55746 -2.050615,1.532969 -2.050615,2.966401 0,1.234365 1.055259,1.811409 2.170119,1.811409 0.816282,0 1.613142,-0.298729 2.329861,-0.716797 0.935705,-0.557461 2.050614,-1.532969 2.050614,-2.966404 0,-0.05405 -0.0051,-0.105286 -0.0092,-0.156867 0.0031,-0.01421 0.0092,-0.02773 0.0092,-0.04296 V 55.92354 c 0,-0.110295 -0.08877,-0.19907 -0.19907,-0.19907 z"
       fill="#232629"
       style="stroke-width:1.00847" />
    <rect
       style="fill:#232629;fill-opacity:1;stroke-width:0.302984"
       id="rect17"
       width="3.3615692"
       height="21.850201"
       x="29.0905"
       y="87.27137" />
    <rect
       style="fill:#232629;fill-opacity:1;stroke-width:0.389645"
       id="rect18"
       width="72.273735"
       height="1.6807846"
       x="32.452068"
       y="87.27137" />
    <rect
       style="fill:#232629;fill-opacity:1;stroke-width:0.389645"
       id="rect19"
       width="72.273735"
       height="1.6807846"
       x="32.452068"
       y="92.313728" />
    <rect
       style="fill:#232629;fill-opacity:1;stroke-width:0.389645"
       id="rect20"
       width="72.273735"
       height="1.6807846"
       x="32.452068"
       y="97.356071" />
    <rect
       style="fill:#232629;fill-opacity:1;stroke-width:0.389645"
       id="rect21"
       width="72.273735"
       height="1.6807846"
       x="32.452068"
       y="102.39844" />
    <rect
       style="fill:#232629;fill-opacity:1;stroke-width:0.389645"
       id="rect22"
       width="72.273735"
       height="1.6807846"
       x="32.452068"
       y="107.44078" />
    <path
       id="path22"
       d="m 55.362449,85.590584 c -0.110298,0 -0.199074,0.08874 -0.199074,0.19907 v 14.934376 c -0.405149,-0.30905 -0.956026,-0.45864 -1.522985,-0.45864 -0.816281,0 -1.613141,0.29873 -2.32986,0.7168 -0.935705,0.55746 -2.050614,1.53297 -2.050614,2.9664 0,1.23437 1.055259,1.81141 2.170119,1.81141 0.816281,0 1.613141,-0.29873 2.329857,-0.7168 0.935706,-0.55746 2.050617,-1.53297 2.050617,-2.9664 0,-0.0541 -0.0051,-0.10529 -0.0092,-0.15687 0.0031,-0.0142 0.0092,-0.0277 0.0092,-0.043 V 85.789917 c 0,-0.110295 -0.08878,-0.19907 -0.19907,-0.19907 z"
       fill="#232629"
       style="stroke-width:1.00847" />
    <path
       id="path23"
       d="m 43.596955,90.763562 c -0.110296,0 -0.199071,0.08874 -0.199071,0.19907 v 14.934378 c -0.405152,-0.30906 -0.956026,-0.45864 -1.522986,-0.45864 -0.816283,0 -1.613143,0.29873 -2.32986,0.7168 -0.935705,0.55746 -2.050615,1.53297 -2.050615,2.9664 0,1.23436 1.055259,1.81141 2.170119,1.81141 0.816282,0 1.613142,-0.29873 2.329859,-0.7168 0.935706,-0.55746 2.050615,-1.53297 2.050615,-2.9664 0,-0.0541 -0.0051,-0.10529 -0.0092,-0.15687 0.0031,-0.0142 0.0092,-0.0277 0.0092,-0.043 V 90.962895 c 0,-0.110295 -0.08877,-0.19907 -0.199071,-0.19907 z"
       fill="#232629"
       style="stroke-width:1.00847" />
    <path
       id="path24"
       d="m 67.127941,110.80235 c -0.110298,0 -0.199073,-0.0887 -0.199073,-0.19907 V 95.668905 c -0.40515,0.309056 -0.956026,0.458642 -1.522985,0.458642 -0.816282,0 -1.613141,-0.298728 -2.32986,-0.716799 -0.935706,-0.557461 -2.050615,-1.532969 -2.050615,-2.966401 0,-1.234365 1.055259,-1.811409 2.170119,-1.811409 0.816282,0 1.613142,0.298728 2.329858,0.716797 0.935705,0.55746 2.050617,1.532969 2.050617,2.966404 0,0.05405 -0.0051,0.105285 -0.0092,0.156866 0.0031,0.01421 0.0092,0.02773 0.0092,0.04296 v 16.087055 c 0,0.11029 -0.08878,0.19907 -0.199071,0.19907 z"
       fill="#232629"
       style="stroke-width:1.00847" />
    <rect
       style="fill:#232629;fill-opacity:1;stroke-width:0.214242"
       id="rect24"
       width="1.6807846"
       height="21.850201"
       x="86.237175"
       y="87.27137" />
    <path
       id="path25"
       d="m 78.893433,85.590584 c -0.110297,0 -0.199073,0.08874 -0.199073,0.19907 v 14.934376 c -0.405149,-0.30905 -0.956026,-0.45864 -1.522985,-0.45864 -0.816281,0 -1.613141,0.29873 -2.32986,0.7168 -0.935705,0.55746 -2.050614,1.53297 -2.050614,2.9664 0,1.23437 1.055259,1.81141 2.170119,1.81141 0.816281,0 1.613141,-0.29873 2.329857,-0.7168 0.935706,-0.55746 2.050617,-1.53297 2.050617,-2.9664 0,-0.0541 -0.0051,-0.10529 -0.0092,-0.15687 0.0031,-0.0142 0.0092,-0.0277 0.0092,-0.043 V 85.789917 c 0,-0.110295 -0.08877,-0.19907 -0.19907,-0.19907 z"
       fill="#232629"
       style="stroke-width:1.00847" />
    <path
       id="path26"
       d="m 99.062849,90.632938 c -0.110298,0 -0.199073,0.08874 -0.199073,0.19907 v 14.934382 c -0.40515,-0.30906 -0.956026,-0.45865 -1.522985,-0.45865 -0.816282,0 -1.613141,0.29873 -2.32986,0.7168 -0.935706,0.55746 -2.050615,1.53297 -2.050615,2.9664 0,1.23437 1.055259,1.81141 2.170119,1.81141 0.816282,0 1.613142,-0.29873 2.329861,-0.71679 0.935705,-0.55746 2.050614,-1.53297 2.050614,-2.96641 0,-0.0541 -0.0051,-0.10528 -0.0092,-0.15686 0.0031,-0.0142 0.0092,-0.0277 0.0092,-0.043 V 90.832271 c 0,-0.110295 -0.08877,-0.19907 -0.19907,-0.19907 z"
       fill="#232629"
       style="stroke-width:1.00847" />
    <rect
       ry="1.7500014"
       rx="1.0000008"
       y="11.6362"
       x="58.181"
       height="104.7258"
       width="46.5448"
       id="rect2326"
       style="fill:url(#linearGradient2519);fill-rule:evenodd;stroke:none;stroke-width:0.755929" />
  </g>
</svg>
