<svg id="svg6" version="1.1" viewBox="0 0 22 22" xmlns="http://www.w3.org/2000/svg">
    <defs id="defs3051">
    <style type="text/css" id="current-color-scheme">
        .ColorScheme-Text {            color:#232629;        }
    </style>
    </defs>
    <path id="path347" d="m11 3a8 8 0 0 0-8 8 8 8 0 0 0 8 8 8 8 0 0 0 4.892578-1.693359l3.400391 3.40039a1 1 0 0 0 1.414062 0 1 1 0 0 0 0-1.414062l-3.40039-3.400391a8 8 0 0 0 1.693359-4.892578 8 8 0 0 0-8-8zm0 1a7 7 0 0 1 7 7 7 7 0 0 1-7 7 7 7 0 0 1-7-7 7 7 0 0 1 7-7zm-1 3v3h-3v2h3v3h2v-3h3v-2h-3v-3h-2z" class="ColorScheme-Text" fill="currentColor" stroke-linecap="square" stroke-width="2" style="paint-order:markers stroke fill"/>
</svg>
