<?xml version="1.0" encoding="UTF-8"?>
<svg id="svg4" width="16px" height="16px" version="1.1" viewBox="0 0 16 16" xmlns="http://www.w3.org/2000/svg">
 <path id="path293" d="m4 0c-1.6445 0-3 1.3555-3 3v10c0 1.6445 1.3555 3 3 3h1.2296c0.55078 0 1-0.44922 1-1s-0.44922-1-1-1h-1.2296c-0.57031 0-1-0.42969-1-1v-10c0-0.57031 0.42969-1 1-1h5.5859l3.4141 3.4141v3.5859c0 1.1172-0.88281 2-2 2h-1.8106l1.293-1.293c0.39062-0.39062 0.39062-1.0234 0-1.4141-0.39062-0.39062-1.0234-0.39062-1.4141 0l-3 3c-0.39062 0.39062-0.39062 1.0234 0 1.4141l3 3c0.1875 0.1875 0.44141 0.29297 0.70703 0.29297 0.26563 0 0.51953-0.10547 0.70703-0.29297 0.39062-0.39062 0.39062-1.0234 0-1.4141l-1.293-1.293h1.8106c2.1992 0 4-1.8008 4-4v-4c0-0.26562-0.10547-0.51953-0.29297-0.70703l-4-4c-0.1875-0.1875-0.44141-0.29297-0.70703-0.29297z" fill="#232629"/>
</svg>
