<?xml version="1.0" encoding="UTF-8"?>
<svg id="svg4" width="16px" height="16px" version="1.1" viewBox="0 0 16 16" xmlns="http://www.w3.org/2000/svg">
 <path id="path2" d="m4 0c-1.6445 0-3 1.3555-3 3v10c0 1.6445 1.3555 2.9908 3 3l3.7126 0.02073c0.55075 0.0059 1-0.44922 1-1s-0.44923-0.99692-1-1l-3.7126-0.02073c-0.5703-0.003184-1-0.42969-1-1v-10c0-0.57031 0.42969-1 1-1h5.5859l3.4141 3.4141v1.9254c0 0.55078 0.44922 1 1 1s1-0.44922 1-1v-2.3395c0-0.26562-0.10547-0.51953-0.29297-0.70703l-4-4c-0.1875-0.1875-0.44141-0.29297-0.70703-0.29297zm7 8c-0.25586 0-0.51172 0.097656-0.70703 0.29297-0.39062 0.39062-0.39062 1.0234 0 1.4141l1.293 1.293h-4.8328c-0.54114 0.01676-0.97852 0.45622-0.97852 1 0 0.54377 0.43739 0.99429 0.97852 1 0.86025 7e-6 3.9712 0 4.8328 0l-1.293 1.293c-0.39062 0.39062-0.39062 1.0234 0 1.4141 0.1875 0.1875 0.44141 0.29297 0.70703 0.29297s0.51953-0.10547 0.70703-0.29297l3-3c0.39062-0.39062 0.39062-1.0234 0-1.4141l-3-3c-0.19531-0.19531-0.45117-0.29297-0.70703-0.29297z" fill="#232629"/>
</svg>
