<?xml version="1.0" encoding="UTF-8"?>
<svg id="svg4" width="16px" height="16px" version="1.1" viewBox="0 0 16 16" xmlns="http://www.w3.org/2000/svg">
 <g id="text455" transform="scale(1.0153 .98495)" stop-color="#000000" aria-label="≈">
  <path id="path243" d="m9.0821 11.448c1.0918 0 2.2784-0.88606 2.7373-2.3101l-1.2816-0.58543c-0.23734 0.69619-0.79112 1.0443-1.3133 1.0443-0.91771 0-1.4082-1.0443-2.6424-1.0443-1.0759 0-2.1519 0.88606-2.6424 2.3417l1.25 0.55379c0.2848-0.72784 0.72784-1.0443 1.1867-1.0443 0.87024 0 1.4557 1.0443 2.7056 1.0443zm0 3.7816c1.0918 0 2.2784-0.88606 2.7373-2.3101l-1.2816-0.56961c-0.23734 0.68037-0.79112 1.0443-1.3133 1.0443-0.91771 0-1.4082-1.0443-2.6424-1.0443-1.0601 0-2.136 0.87024-2.6424 2.3417l1.2025 0.53796c0.2848-0.71201 0.7753-1.0285 1.2342-1.0285 0.87024 0 1.4557 1.0285 2.7056 1.0285zm-3.9881-14.214-1.5621 1.6102c-0.36936 0.38073-0.57712 0.8963-0.57712 1.4357v3.0458h2.9549c0.52325 0 1.0234-0.21416 1.3928-0.59489l5.3326-5.4968h-2.724l-3.5089 3.6169-1.0465-1.0787 2.4624-2.5382z" fill="#2e3436"/>
 </g>
</svg>
