<?xml version="1.0" encoding="UTF-8"?>
<svg id="svg4" width="16px" height="16px" version="1.1" viewBox="0 0 16 16" xmlns="http://www.w3.org/2000/svg">
 <path id="path563" d="m9 12a1 1 0 0 1-1 1 1 1 0 0 1-1-1 1 1 0 0 1 1-1 1 1 0 0 1 1 1zm-1-5c-0.55078 0-1-0.44922-1-1v-2.5859l-1.293 1.293c-0.1875 0.1875-0.44141 0.29297-0.70703 0.29297s-0.51953-0.10547-0.70703-0.29297c-0.39062-0.39062-0.39062-1.0234 0-1.4141l3-3c0.39062-0.39063 1.0234-0.39063 1.4141 0l3 3c0.39062 0.39062 0.39062 1.0234 0 1.4141s-1.0234 0.39062-1.4141 0l-1.293-1.293v2.5859c0 0.55078-0.44922 1-1 1zm-7 1v2h14v-2zm0 6v2h14v-2z" fill="#2e3436"/>
</svg>
