<?xml version="1.0" encoding="UTF-8"?>
<svg id="svg4" width="16px" height="16px" version="1.1" viewBox="0 0 16 16" xmlns="http://www.w3.org/2000/svg">
 <path id="path2" d="m4 0c-1.6445 0-3 1.3555-3 3v10c0 1.6445 1.3555 3 3 3h2 1 5c1.6445 0 3-1.3555 3-3v-7-1c0-0.26562-0.10547-0.51953-0.29297-0.70703l-4-4c-0.1875-0.1875-0.44141-0.29297-0.70703-0.29297h-6zm0 2h5.5859l2.0195 2.0195v5.9062c-0.2474-0.18872-0.58348-0.28125-0.92969-0.28125-0.49845 0-0.98618 0.18221-1.4238 0.4375-0.57137 0.3404-1.252 0.9372-1.252 1.8125 0 0.75374 0.64345 1.1055 1.3242 1.1055 0.49845 0 0.98618-0.18221 1.4238-0.4375 0.57137-0.3404 1.252-0.9372 1.252-1.8125 0-0.03303-0.003399-0.064203-0.005859-0.095703 0.001897-0.008624 0.005859-0.016116 0.005859-0.025391v-6.2148l1 1v0.58594 7c0 0.57031-0.42969 1-1 1h-5-1-2c-0.57031 0-1-0.42969-1-1v-10c0-0.57031 0.42969-1 1-1zm3.7266 1.0039c-0.06735 0-0.12109 0.053747-0.12109 0.12109v6.8008c-0.2474-0.18872-0.58349-0.28125-0.92969-0.28125-0.49845 0-0.98618 0.18221-1.4238 0.4375-0.57137 0.3404-1.252 0.9372-1.252 1.8125 0 0.75374 0.64345 1.1055 1.3242 1.1055 0.49845 0 0.98618-0.18221 1.4238-0.4375 0.57137-0.3404 1.252-0.9372 1.252-1.8125 0-0.03303-0.0033994-0.064203-0.0058594-0.095703 0.0018965-0.008621 0.0058594-0.016116 0.0058594-0.025391v-7.5039c0-0.06735-0.053744-0.12109-0.12109-0.12109h-0.15234z" fill="#2e3436"/>
</svg>
