<?xml version="1.0" encoding="UTF-8"?>
<svg id="svg4" width="16px" height="16px" version="1.1" viewBox="0 0 16 16" xmlns="http://www.w3.org/2000/svg">
 <path id="path2" d="m7 1v2h-3c-2.1992 0-4 1.8008-4 4v2c0 1.0195 0.38672 1.9648 1.0195 2.6719 0.36719 0.41016 1 0.44531 1.4102 0.07813 0.41406-0.36719 0.44922-1 0.078124-1.4141-0.31641-0.35157-0.50781-0.8125-0.50781-1.3359v-2c0-1.125 0.875-2 2-2h3v2h1v-0.007812c0.26562 0.003906 0.51953-0.10156 0.70703-0.28516l2-2c0.20703-0.20703 0.3125-0.49609 0.28906-0.78906 0-0.015625-0.0039-0.03125-0.0078-0.046875-0.0078-0.070313-0.02344-0.13672-0.04687-0.20312-0.01172-0.035157-0.02344-0.070313-0.04297-0.10156 0-0.00781-0.0039-0.011718-0.0078-0.019531-0.011748-0.023437-0.027373-0.046875-0.039092-0.070313-0.007812-0.011718-0.019531-0.027343-0.027343-0.039062-0.015625-0.019531-0.027344-0.042969-0.042969-0.0625l-0.023438-0.023438c-0.015624-0.019531-0.03125-0.039062-0.050781-0.058593l-2-2c-0.1875-0.18359-0.44141-0.28906-0.70703-0.28516v-0.007812z" fill="#2e3436"/>
</svg>
