<?xml version="1.0" encoding="UTF-8"?>
<svg id="svg135" width="16px" height="16px" version="1.1" viewBox="0 0 16 16" xmlns="http://www.w3.org/2000/svg">
 <path id="path133" d="m14 2c-1.1055 0-2 0.89453-2 2s0.89453 2 2 2 2-0.89453 2-2-0.89453-2-2-2zm1 5c-0.55078 0-1 0.44922-1 1v1.0078c0 1.125-0.875 2-2 2h-4v-2.0078h-1v0.00781c-0.26562-0.003904-0.51953 0.10156-0.70703 0.28516l-2 2c-0.39062 0.39062-0.39062 1.0234 0 1.4141l2 2c0.1875 0.18359 0.44141 0.28906 0.70703 0.28516v0.007812h1v-1.9922h4c2.1992 0 4-1.8047 4-4v-1.0078c0-0.55078-0.44922-1-1-1z" fill="#2e3436"/>
</svg>
