<?xml version="1.0" encoding="UTF-8"?>
<svg id="svg4" width="16px" height="16px" version="1.1" viewBox="0 0 16 16" xmlns="http://www.w3.org/2000/svg">
 <g id="text1387-5-4" transform="matrix(1.0197 0 0 1.2809 -1.1429 -1.1429)" fill="#232629" stroke-width=".83035" aria-label="3">
  <path id="path1680" d="m5.0633 13.384c1.3839 0 2.312-0.65125 2.312-1.6444 0-0.71638-0.48844-1.2618-1.2537-1.4002 0.58613-0.16281 0.95246-0.63497 0.95246-1.2699 0-0.9199-0.7408-1.4979-1.8886-1.4979-0.63497 0-1.2944 0.17909-1.8398 0.48844l0.23608 0.78151c0.50472-0.23608 0.98502-0.36633 1.3921-0.36633 0.61869 0 1.042 0.28492 1.042 0.73266 0 0.49658-0.50472 0.83035-1.2292 0.83035h-0.41517v0.82221h0.48844c0.87919 0 1.4409 0.33377 1.4409 0.87105 0 0.4803-0.45588 0.74894-1.1967 0.74894-0.49658 0-1.099-0.11397-1.5956-0.34191l-0.24422 0.83035c0.57799 0.27678 1.1723 0.41517 1.7991 0.41517zm0.59834-6.8254h1.042v-5.6659h-0.62683l-2.141 1.0909 0.39075 0.7408 1.3351-0.60241zm6.9878 6.8254h1.0176v-1.2292h1.0013v-0.87105h-1.0013v-3.6063h-0.99316l-2.7271 3.9319v0.54542h2.7027zm-1.5874-2.1084 1.5874-2.3852v2.3852zm-0.57392-4.6518h3.7936v-0.91176h-2.2712c1.4735-1.2944 2.084-2.2143 2.084-3.1423 0-1.0257-0.75708-1.677-1.9131-1.677-0.70824 0-1.3595 0.23608-1.8479 0.6594l0.27678 0.75708c0.44774-0.33377 0.93618-0.49658 1.3595-0.49658 0.64311 0 1.042 0.36633 1.042 0.9199 0 0.75708-0.78151 1.6119-2.5236 3.1667z" fill="#2e3436"/>
 </g>
</svg>
