<?xml version="1.0" encoding="UTF-8"?>
<svg id="svg883" width="22" height="22" version="1.2" xmlns="http://www.w3.org/2000/svg">
 <path id="path881" d="m10.928 5.0098c-0.64404 0-1.1582 0.20588-1.541 0.61914-0.38278 0.41326-0.57422 0.97883-0.57422 1.6973 0 0.66122 0.16778 1.1762 0.50195 1.5449 0.34025 0.3624 0.79236 0.54492 1.3574 0.54492 0.40101 0 0.72007-0.075927 0.95703-0.22852 0.23696-0.15895 0.42297-0.34829 0.55664-0.56445h0.054687c-0.012151 0.34968-0.055995 0.68065-0.12891 0.99219s-0.18773 0.58507-0.3457 0.82031c-0.15797 0.23524-0.37676 0.41922-0.65625 0.55273-0.27342 0.12716-0.61614 0.19141-1.0293 0.19141-0.29164 0-0.5597-0.038941-0.80273-0.11524v0.84961c0.10329 0.03179 0.23634 0.053691 0.40039 0.066407 0.16405 0.012715 0.30991 0.019531 0.4375 0.019531 0.5043 0 0.93644-0.072519 1.2949-0.21875 0.35848-0.15259 0.65388-0.36042 0.88477-0.62109 0.23088-0.26703 0.40952-0.56928 0.53711-0.90625 0.13367-0.34332 0.22483-0.70447 0.27344-1.0859 0.054683-0.38783 0.082031-0.77623 0.082031-1.1641 0-0.68029-0.10028-1.239-0.30078-1.6777-0.2005-0.44505-0.4703-0.77602-0.81055-0.99219-0.34025-0.21617-0.72312-0.32422-1.1484-0.32422zm0.007813 0.83008c0.27949-1e-7 0.51477 0.082743 0.70312 0.24805 0.19443 0.1653 0.3366 0.37118 0.42773 0.61914 0.097215 0.24796 0.14648 0.49959 0.14648 0.75391 0 0.19074-0.054697 0.37471-0.16406 0.55273-0.10937 0.17802-0.2626 0.32501-0.45703 0.43945-0.19443 0.11444-0.42407 0.16992-0.69141 0.16992-0.38278 0-0.66907-0.11632-0.85742-0.35156-0.18835-0.23524-0.2832-0.55599-0.2832-0.96289 0-0.49591 0.10939-0.86582 0.32813-1.1074 0.21873-0.2416 0.50133-0.36133 0.84766-0.36133zm-9.5313 2.2188c-0.00217 6.752e-4 -0.0056925 0.0011831-0.0078125 0.0019531-0.076429 0.00791-0.14684 0.036771-0.20703 0.078125-0.00533 0.00384-0.010959 0.0090319-0.015625 0.013672-0.00691 0.0064799-0.014624 0.010242-0.021484 0.017578-0.00219 0.0022-0.0041194 0.0059425-0.0058594 0.0078125-0.00581 0.0056-0.011799 0.011395-0.017578 0.017578-0.0080499 0.0079-0.01649 0.016476-0.023437 0.023438-0.00217 0.0022-0.0042794 0.0042094-0.0058594 0.0058594-0.020532 0.020337-0.030138 0.044014-0.046875 0.068359-0.00537 0.011552-0.0099708 0.024492-0.011719 0.037109v-0.0058593c-4.368e-4 0.0012099-0.0011431 0.0058325-0.0019531 0.0078124-0.015296 0.01713-0.016114 0.041901-0.023438 0.060547-0.00277 0.00692-0.0043494 0.01416-0.0058594 0.021484-7.058e-4 0.0022-0.0031862 0.0013863-0.0039062 0.0039063-0.00371 0.011091-0.0052894 0.021519-0.0058594 0.033203-3.74e-5 0.00307-3.74e-5 0.0086367 0 0.011719-1.923e-4 0.00879-3.211e-4 0.016607 0 0.025391-1.371e-4 0.00802-2.943e-4 0.015378 0 0.023438l0.0019531-0.011719c-0.00109 0.018021-0.00109 0.036666 0 0.054688l-0.0019531-0.0078125v2.7617l0.0019531-0.007813c-0.009246 0.14582 0.042904 0.27356 0.13086 0.35547 0.087954 0.0819 0.20402 0.12109 0.31641 0.12109 0.11238 0 0.22649-0.039184 0.31445-0.12109 0.087955-0.08191 0.14011-0.20965 0.13086-0.35547l0.0019532 0.007813v-2.3535h5.5918l-0.0078124-0.0019531c0.14583 0.00922 0.27355-0.0429 0.35547-0.13086 0.081913-0.087958 0.11914-0.20206 0.11914-0.31445s-0.037224-0.22845-0.11914-0.31641c-0.081935-0.087955-0.20964-0.13817-0.35547-0.12891l0.0078124-0.0039062h-6.0117c-0.00879-3.194e-4 -0.016619-1.921e-4 -0.025391 0-0.00131-1.53e-5 -0.0026263 5.5e-6 -0.0039063 0-0.014075-6.851e-4 -0.028893-6.863e-4 -0.042969 0zm13.107 0 0.007812 0.0039062c-0.14583-0.00926-0.27357 0.040948-0.35547 0.12891-0.081919 0.08796-0.11914 0.20402-0.11914 0.31641s0.037231 0.22649 0.11914 0.31445c0.08191 0.08796 0.20965 0.14008 0.35547 0.13086l-0.007812 0.0019531h5.5918v2.3535l0.001953-0.007813c-0.00924 0.14582 0.042909 0.27356 0.13086 0.35547 0.08796 0.08191 0.20402 0.12109 0.31641 0.12109s0.2265-0.039194 0.31445-0.12109c0.087959-0.08191 0.14016-0.20965 0.13086-0.35547l0.001953 0.007813v-2.7617l-0.001953 0.0078125c0.0011-0.018021 0.0011-0.036666 0-0.054688l0.001953 0.011719c2.95e-4 -0.00806 1.37e-4 -0.015418 0-0.023438 3.21e-4 -0.0087839 1.93e-4 -0.016601 0-0.025391 3.8e-5 -0.003082 3.8e-5 -0.0086487 0-0.011719-6e-4 -0.011684-0.002259-0.022112-0.005859-0.033203-6e-4 -0.00252-0.001249-0.0017063-0.001953-0.0039063-0.0016-0.007324-0.005113-0.014564-0.007813-0.021484-0.00733-0.018646-0.008148-0.043417-0.023437-0.060547-7e-4 -0.0019799-0.001517-0.0066025-0.001954-0.0078124v0.0058593c-0.00166-0.012617-0.004365-0.025557-0.009765-0.037109-0.01674-0.024345-0.028288-0.048022-0.048828-0.068359-0.0016-0.00165-0.00366-0.0036594-0.00586-0.0058594-0.00695-0.006962-0.015437-0.015538-0.023437-0.023438-0.00577-0.006183-0.011778-0.011978-0.017578-0.017578-0.0019-0.00187-0.00366-0.0056125-0.00586-0.0078125-0.00685-0.007336-0.014584-0.011098-0.021484-0.017578-0.00469-0.00464-0.010225-0.0098319-0.015625-0.013672-0.06019-0.041354-0.1306-0.070215-0.20703-0.078125-0.001683-5.888e-4 -0.004205-0.0014109-0.00586-0.0019531h-0.001953c-0.013495-5.955e-4 -0.027585-6.542e-4 -0.041015 0-0.0014 5.3e-6 -0.00446-1.54e-5 -0.00586 0-0.00877-1.921e-4 -0.016691-3.196e-4 -0.02539 0h-6.0117z" fill="#232629"/>
</svg>
