<?xml version="1.0" encoding="UTF-8"?>
<svg id="svg510" width="22" height="22" version="1.2" xmlns="http://www.w3.org/2000/svg">
 <path id="path508" d="m20.362 0.99991c-0.10937 0-0.1974 0.088036-0.1974 0.1974v14.809c-0.40175-0.30646-0.948-0.45479-1.5102-0.45479-0.80943 0-1.5996 0.29622-2.3103 0.71078-0.92785 0.55278-2.0334 1.5201-2.0334 2.9415 0 1.224 1.0464 1.7962 2.1519 1.7962 0.80943 0 1.5996-0.29622 2.3103-0.71078 0.92785-0.55278 2.0334-1.5201 2.0334-2.9415 0-0.05364-0.0051-0.1044-0.0091-0.15555 0.0031-0.01407 0.0091-0.02751 0.0091-0.04256v-15.952c0-0.10937-0.08803-0.1974-0.1974-0.1974z" fill="#232629"/>
 <path id="path133" d="m5.2844 1.5181c-0.99638 0-1.375 0.85688-1.375 1.7536 0 1.5344 1.1359 2.7101 2.6703 2.7101 0.99638 0 1.375-0.85688 1.375-1.7536 0-1.5344-1.1359-2.7101-2.6703-2.7101zm5.5797 2.2319c0 0.85688-0.69746 1.5145-1.4547 1.933-1.0562 0.59783-2.2518 0.81703-3.4674 0.81703s-2.4312-0.2192-3.4873-0.81703c-0.75725-0.41848-1.4547-1.0761-1.4547-1.933 0-0.85688 0.69746-1.5145 1.4547-1.933 1.0562-0.59783 2.2717-0.81703 3.4873-0.81703s2.4112 0.2192 3.4674 0.81703c0.75724 0.41848 1.4547 1.0761 1.4547 1.933z" fill="#232629"/>
 <path id="path258" d="m13.359 1.0038c-0.10938 0-0.1974 0.08804-0.1974 0.1974v8.6041c-0.27559-0.15703-0.6204-0.23438-1.0073-0.23438-1.4807 0-2.6651 0.27632-3.7311 0.98704-0.65147 0.43432-1.0264 1.145-1.2633 1.8952-0.11845 0.37511-0.21694 0.7305-0.21694 1.1056 0 1.0068 0.73018 1.4412 1.6581 1.4412 1.4807 0 2.6456-0.29585 3.7118-1.0066 0.65147-0.43432 1.0459-1.145 1.2828-1.8952 0.11845-0.37511 0.1974-0.73051 0.1974-1.1056 0-0.04338-0.0084-0.07949-0.01112-0.12068 0.01261-0.02606 0.02092-0.05411 0.02092-0.0851v-9.5851c1e-6 -0.10937-0.08805-0.1974-0.1974-0.1974zm-1.0268 9.1791c0.41458 0 0.8294 0.33604 0.8294 0.80986 0 0.19742-0.05921 0.39454-0.19741 0.55247-0.39482 0.49354-1.3231 1.0664-2.0536 1.5402-0.73047 0.47382-1.6578 1.0856-2.2698 1.2633-0.07897 0.01973-0.1582 0.01953-0.23717 0.01953-0.41457 0-0.8294-0.33535-0.8294-0.80915 1.3e-6 -0.19742 0.07944-0.39454 0.21764-0.55247 0.39482-0.49354 1.3224-1.0664 2.0529-1.5402 0.73047-0.47382 1.6383-1.0856 2.2503-1.2633 0.07897-0.01973 0.1582-0.02022 0.23717-0.02022z" fill="#232629"/>
</svg>
