<?xml version="1.0" encoding="UTF-8"?>
<svg id="svg2508" width="22" height="22" version="1.2" xmlns="http://www.w3.org/2000/svg">
 <path id="path2506" d="m7.3515 7.0283c-1.0201 0-1.7341 1.2736-2.2441 2.4297-0.017 0.051-0.033203 0.10272-0.033203 0.13672 0 0.13601 0.10227 0.20508 0.23828 0.20508 0.15301 1e-6 0.32319-0.08504 0.4082-0.28906 0.27202-0.62906 0.78075-1.6504 1.3418-1.6504 0.15302 0 0.1875 0.10227 0.1875 0.23828 0 0.10201-0.034359 0.22083-0.068359 0.33984l-1.7344 5.1016c-0.11901 0.34003-0.54394 0.40683-0.91797 0.42383-0.28903 0.017-0.81445-0.03259-0.81445 0.27344 0 0.11901 0.083314 0.23633 0.23633 0.23633 0.62906 0 1.292-0.08398 1.9551-0.08398 0.64606 0 1.3266 0.08398 1.9727 0.08398 0.15301 0 0.2207-0.11732 0.2207-0.23633 1e-6 -0.10201-0.067689-0.22128-0.2207-0.23828-0.39104-0.034-0.74805-0.13653-0.74805-0.47656 0-0.034 5.79e-4 -0.08514 0.017579-0.11914l0.49219-1.4629c0.034003-0.10201 0.15443-0.15234 0.27344-0.15234 0.068006 0 0.11754 0.01678 0.18555 0.05078 0.35703 0.20402 0.78315 0.28906 1.2422 0.28906 0.95209 0 2.158-1.0373 2.498-2.0234 0.08042-0.23121 0.13119-0.45942 0.16406-0.68359 0.27959-0.63169 0.76388-1.5605 1.3008-1.5605 0.15302 0 0.18555 0.10227 0.18555 0.23828 0 0.10201-0.03436 0.22083-0.06836 0.33984l-1.7324 5.1016c-0.11901 0.34003-0.54589 0.40683-0.91992 0.42383-0.28903 0.017-0.81445-0.03259-0.81445 0.27344 0 0.11901 0.08527 0.23633 0.23828 0.23633 0.62906 0 1.292-0.08398 1.9551-0.08398 0.64606 0 1.3246 0.08398 1.9707 0.08398 0.15301 0 0.22266-0.11732 0.22266-0.23633 0-0.10201-0.06964-0.22128-0.22266-0.23828-0.39104-0.034-0.74805-0.13653-0.74805-0.47656 0-0.034 5.79e-4 -0.08514 0.01758-0.11914l0.49219-1.4629c0.034-0.10201 0.15443-0.15234 0.27344-0.15234 0.06801 0 0.11949 0.01678 0.1875 0.05078 0.35703 0.20402 0.78119 0.28906 1.2402 0.28906 0.95209 0 2.16-1.0373 2.5-2.0234 0.13601-0.39104 0.20312-0.78164 0.20312-1.1387 0-1.1051-0.64525-1.9375-1.8184-1.9375-0.61206 0-1.2589 0.35576-1.752 0.88281-0.11901-0.52705-0.52799-0.88281-1.123-0.88281-0.67388 0-1.2025 0.57218-1.6387 1.2832-0.21095-0.76159-0.80102-1.2832-1.7266-1.2832-0.61206 0-1.2589 0.35576-1.752 0.88281-0.11901-0.52705-0.52799-0.88281-1.123-0.88281zm2.5859 0.83203c0.30603 0 0.42383 0.25452 0.42383 0.56055 0 0.88408-0.56034 3.0273-1.6484 3.0273-0.37404 0-0.50977-0.27245-0.50977-0.64648 0-1.1221 0.78229-2.9414 1.7344-2.9414zm6.2402 0c0.30603 0 0.42383 0.25452 0.42383 0.56055 0 0.88408-0.56034 3.0273-1.6484 3.0273-0.37404 0-0.50977-0.27245-0.50977-0.64648 1e-6 -1.1221 0.78229-2.9414 1.7344-2.9414z" fill="#232629"/>
</svg>
