<?xml version="1.0" encoding="UTF-8"?>
<svg id="svg1133" width="22" height="22" version="1.2" xmlns="http://www.w3.org/2000/svg">
 <path id="path1131" d="m17.302 5.5c-1.6151 0-3.077 1.6159-3.6211 3.248h-1.0195c-0.18702 0-0.32422 0.13525-0.32422 0.32227 0 0.18702 0.1372 0.32227 0.32422 0.32227h0.83203l-1.1562 4.6426c-0.20402 0.85008-0.42416 1.8359-1.2402 1.8359h-0.10156c-0.20402 0-0.39258-0.01749-0.39258-0.1875 0-0.51005 0.64648-0.40792 0.64648-0.91797 0-0.40804-0.34001-0.74805-0.74805-0.74805-0.59506 0-0.88281 0.64553-0.88281 1.3086 0 0.71406 0.71344 1.1738 1.4785 1.1738 1.6491 0 3.197-2.6528 3.707-4.3359l0.84961-2.7715h1.1211c0.18702 0 0.32422-0.13525 0.32422-0.32227s-0.1372-0.32227-0.32422-0.32227h-0.93359c0.27202-1.1221 0.40684-2.6191 1.4609-2.6191h0.11914c0.20402 0 0.375 0.017485 0.375 0.1875 0 0.51005-0.64648 0.4255-0.64648 0.93555 0 0.40804 0.34001 0.73047 0.74805 0.73047 0.59505 0 0.88281-0.64553 0.88281-1.3086 0-0.71407-0.71345-1.1738-1.4785-1.1738zm-11.516 2.9746c-1.1391 0-2.0912 1.3094-2.5332 2.6016-0.017 0.034-0.033203 0.06756-0.033203 0.10156 0 0.11901 0.084114 0.1875 0.20312 0.1875 0.13601 0 0.32262-0.10204 0.39062-0.28906 0.20402-0.57805 0.63-1.4785 1.123-1.4785 0.17002 0 0.2207 0.11905 0.2207 0.28906 0 0.08501 7.971e-4 0.1689-0.033203 0.25391l-1.0723 3.1113c-0.051004 0.17002 0.035063 0.30664 0.20508 0.30664h0.69727c0.17002 0 0.3572-0.13662 0.4082-0.30664l1.0527-3.0938c0.10201-0.28903 0.42524-0.56055 0.69726-0.56055 0.15301 0 0.2207 0.11847 0.2207 0.27148 0 0.08501-0.016781 0.16948-0.050781 0.27148l-0.88281 3.1113c-0.051004 0.17002 0.050688 0.30664 0.2207 0.30664h0.69726c0.17002 0 0.32205-0.13662 0.37305-0.30664l0.90039-3.1113c0.10201-0.27202 0.39204-0.54297 0.66406-0.54297 0.17001 0 0.23828 0.13662 0.23828 0.30664 0 0.08501-0.01816 0.15132-0.03516 0.23633l-0.66211 2.8066c-0.017 0.06801-0.017578 0.11754-0.017578 0.18555 0 0.32303 0.20489 0.54492 0.54492 0.54492 0.78207 0 1.5465-0.62933 2.2266-1.2754 0.06801-0.06801 0.11914-0.13512 0.11914-0.20312 0-0.102-0.08549-0.16992-0.1875-0.16992-0.06801 0-0.15269 0.03355-0.2207 0.10156-0.35703 0.34003-0.66339 0.52734-0.81641 0.52734-0.08501 0-0.11914-0.05171-0.11914-0.13672 0-0.017 0.01758-0.04998 0.01758-0.08398l0.5957-2.5332c0.017-0.08501 0.0332-0.17085 0.0332-0.25586 0-0.57805-0.4409-1.1738-1.002-1.1738-0.49304 0-0.98729 0.32416-1.3613 0.7832-0.10201-0.42504-0.35701-0.7832-0.74805-0.7832-0.51005 0-1.0029 0.32358-1.377 0.76562-0.085003-0.42504-0.32323-0.76563-0.69726-0.76563z" fill="#232629"/>
</svg>
