<?xml version="1.0" encoding="UTF-8"?>
<svg id="svg1764" width="22" height="22" version="1.2" xmlns="http://www.w3.org/2000/svg">
 <path id="path1762" d="m14.363 1.0002c-0.12247 0-0.22068 0.098215-0.22068 0.22068v10.968c-0.45016-0.34482-1.0609-0.51294-1.6919-0.51294-0.90635 0-1.7907 0.33103-2.5865 0.79525-1.039 0.61897-2.2764 1.7027-2.2764 3.2943 0 1.3705 1.1716 2.012 2.4096 2.012 0.90634 0 1.7907-0.33301 2.5865-0.79724 1.039-0.61897 2.2764-1.7007 2.2764-3.2924 0-0.06161-0.01525-0.11429-0.01988-0.17296 0.0043-0.01731 0.01988-0.02904 0.01988-0.04771v-12.247c0-0.12247-0.09822-0.22068-0.22068-0.22068zm-3.1393 17.789c-0.61897 0-1.1054 0.48643-1.1054 1.1054 0 0.61897 0.48643 1.1054 1.1054 1.1054 0.61897 0 1.1054-0.48643 1.1054-1.1054 0-0.61892-0.48643-1.1054-1.1054-1.1054z" fill="#232629" stroke-width="1.0179"/>
</svg>
