<?xml version="1.0" encoding="UTF-8"?>
<svg id="svg510" width="22" height="22" version="1.2" xmlns="http://www.w3.org/2000/svg">
 <path id="path508" d="m5.5473 1.9999c-0.16724 0-0.40192 0.066509-0.53614 0.26719-1.8067 2.5763-3.0112 5.5879-3.0112 8.7329 0 3.145 1.2045 6.1567 3.0112 8.7329 0.13422 0.26766 0.36889 0.26719 0.53614 0.26719 0.33449 0 0.63458-0.30176 0.63458-0.63633 0-0.13377 1.803e-4 -0.20012-0.1002-0.36738-1.606-2.3086-2.0075-5.1859-2.0075-7.9964 0-2.8105 0.40142-5.6878 2.0075-7.9964 0.10104-0.13377 0.1002-0.2001 0.1002-0.36738 0-0.33458-0.29994-0.63634-0.63458-0.63633zm10.905 0c-0.33449 0-0.63458 0.30176-0.63458 0.63633 0 0.13377-1.8e-4 0.2001 0.1002 0.36738 1.606 2.3086 2.0075 5.1859 2.0075 7.9964 0 2.8105-0.40142 5.6878-2.0075 7.9964-0.10104 0.13377-0.1002 0.20009-0.1002 0.36738 0 0.33458 0.29994 0.63633 0.63458 0.63633 0.16739 0 0.40192-0.06651 0.53614-0.26719 1.8067-2.5763 3.0112-5.5879 3.0112-8.7329 0-3.145-1.2045-6.1567-3.0112-8.7329-0.13422-0.26766-0.36889-0.26718-0.53614-0.26719zm-5.4423 5.0889c-1.3309 0-2.6616 0.31172-3.818 1.1619-0.8291 0.59518-1.5926 1.5306-1.5926 2.7493 0 1.2186 0.76349 2.1541 1.5926 2.7493 1.1563 0.85021 2.4871 1.1619 3.818 1.1619 1.3309 0 2.6404-0.31171 3.797-1.1619 0.8291-0.59518 1.5926-1.5306 1.5926-2.7493 0-1.2186-0.7635-2.1541-1.5926-2.7493-1.1564-0.85021-2.4659-1.1619-3.797-1.1619z" fill="#232629" stroke-width=".90001"/>
</svg>
