<?xml version="1.0" encoding="UTF-8"?>
<svg id="svg385" width="22" height="22" version="1.2" xmlns="http://www.w3.org/2000/svg">
 <path id="path383" d="m20.522 7.7595a0.48211 0.48211 0 0 0-0.08286 0.00565l-18.964 2.753-0.024479 0.0037a0.48211 0.48211 0 0 0-0.041427 0.0057 0.48211 0.48211 0 0 0-0.024479 0.0037 0.48211 0.48211 0 0 0-0.00564 0.0019 0.48211 0.48211 0 0 0 0.11675 0.95282h0.00565l18.938 2.7493a0.48241 0.48241 0 1 0 0.13934-0.9547l-15.724-2.2803 15.724-2.2803a0.48211 0.48211 0 0 0-0.05649-0.96035z" color="#000000" color-rendering="auto" dominant-baseline="auto" fill="#232629" image-rendering="auto" shape-rendering="auto" solid-color="#000000" stroke-width=".96412" style="font-feature-settings:normal;font-variant-alternates:normal;font-variant-caps:normal;font-variant-ligatures:normal;font-variant-numeric:normal;font-variant-position:normal;isolation:auto;mix-blend-mode:normal;shape-padding:0;text-decoration-color:#000000;text-decoration-line:none;text-decoration-style:solid;text-indent:0;text-orientation:mixed;text-transform:none;white-space:normal"/>
</svg>
