<?xml version="1.0" encoding="UTF-8"?>
<svg id="svg1514" width="22" height="22" version="1.2" xmlns="http://www.w3.org/2000/svg">
 <path id="path1512" d="m15.58 4.1489h-0.83774l-0.9681 0.85639c-1.0426-0.70742-2.0479-1.0053-3.3511-1.0053-2.867 0-4.8218 1.6755-4.8218 4.1516 0 2.2712 1.6755 3.891 4.5984 4.4308l1.1543 0.2234c1.1915 0.2234 1.5638 0.31648 2.0107 0.55849 0.52126 0.27925 0.81912 0.83773 0.81912 1.4893 0 1.3032-1.0612 2.1782-2.6808 2.1782-2.1038 0-3.9468-1.6569-4.9708-4.4495h-0.94946l0.11169 5.2686h0.83781l1.1543-1.0984c1.1357 0.85639 2.3272 1.2473 3.8165 1.2473 2.9043 0 4.9149-1.8245 4.9149-4.4308 0-2.3643-1.3963-3.6862-4.617-4.3936l-0.89364-0.20478c-1.4335-0.27925-1.4335-0.27925-1.8989-0.44679-0.83781-0.29786-1.266-0.83781-1.266-1.6011 0-1.1357 1.0426-1.9548 2.5134-1.9548 1.9362 0 3.4814 1.3591 4.5798 4.0027h0.98674z" fill="#232629" stroke-width=".875"/>
</svg>
