<?xml version="1.0" encoding="UTF-8"?>
<svg id="svg2393" width="22" height="22" version="1.2" xmlns="http://www.w3.org/2000/svg">
 <path id="path2391" d="m3.3923 13.884c-0.14917 0.19889-0.39779 0.29834-0.59668 0.29834-0.39779 0-0.79558-0.34806-0.79558-0.79558 0-0.14918 0.049724-0.34806 0.19889-0.49724l5.3204-6.3646c0.29834-0.39779 0.64641-0.54696 0.9945-0.54696 1.1934 0 2.5359 1.9392 3.8785 3.3812 0.69613 0.74585 1.6906 1.1436 2.6354 1.1436 0.84531 0 1.6409-0.24862 2.337-0.8453l1.2431-1.5414c0.14917-0.19889 0.39779-0.29834 0.59668-0.29834 0.39779 0 0.79558 0.34807 0.79558 0.79558 0 0.14917-0.04973 0.34807-0.19889 0.49724l-5.3204 6.3646c-0.29834 0.39779-0.6464 0.54696-0.9945 0.54696-1.1934 0-2.5359-1.9392-3.8785-3.3812-0.69613-0.74586-1.6906-1.1436-2.6354-1.1436-0.8453 0-1.6409 0.24862-2.337 0.8453z" fill="#232629" stroke-width=".9"/>
</svg>
