<?xml version="1.0" encoding="UTF-8"?>
<svg id="svg1389" width="22" height="22" version="1.2" xmlns="http://www.w3.org/2000/svg">
 <path id="path1387" d="m9.5921 11.989h2.2054c4.1154 0 6.2025-1.3767 6.2025-4.0914 0-1.4543-0.72852-2.6372-1.9887-3.2189-1.0633-0.48474-2.2251-0.67864-4.1941-0.67864h-7.8172v1.0665h0.29535c1.024 0 1.4374 0.077559 1.6147 0.27146 0.13783 0.17451 0.13783 0.23268 0.13783 1.4737v8.3962c0 1.241 0 1.2992-0.13783 1.4737-0.17721 0.1939-0.59069 0.27146-1.6147 0.27146h-0.29535v1.0471h7.7975v-1.0471h-0.43317c-1.0436 0-1.4571-0.07756-1.6343-0.27146-0.13783-0.17451-0.13783-0.23268-0.13783-1.4737zm0-1.0665v-4.6925c0-0.95016 0.1969-1.1634 1.083-1.1634h0.78759c1.8706 0 2.737 0.87263 2.737 2.8116 0 2.2299-0.92541 3.0443-3.4656 3.0443z" fill="#232629" stroke-width=".88174"/>
</svg>
