<?xml version="1.0" encoding="UTF-8"?>
<svg id="svg6" version="1.1" viewBox="0 0 16 16" xmlns="http://www.w3.org/2000/svg">
 <defs id="defs3051">
  <style id="current-color-scheme" type="text/css">.ColorScheme-Text {
        color:#232629;
      }</style>
 </defs>
 <path id="path4" class="ColorScheme-Text" d="m3 2v12h10v-9l-3-3h-7zm1 1h5v2.5h-2.9258l0.085937-1.0586h1.5645v-0.44141h-1.9785l-0.11914 1.5h-0.62695v0.5h0.81445l0.025391 0.015625c0.02322-0.0052773 0.064342-0.010348 0.091797-0.015625h1.0547c0.11042 0.034716 0.20712 0.08075 0.2793 0.14453 0.15838 0.13628 0.23633 0.33202 0.23633 0.58984 0 0.29097-0.089053 0.50652-0.26953 0.64648-0.17679 0.13628-0.4102 0.20508-0.70117 0.20508-0.17311 0-0.35535-0.022208-0.54688-0.066406-0.18784-0.047882-0.34983-0.11233-0.48242-0.19336v0.45898c0.12155 0.069981 0.27242 0.12332 0.44922 0.16016 0.18048 0.036832 0.37164 0.054688 0.57422 0.054688 0.46409 0 0.82421-0.11561 1.082-0.34766 0.26151-0.23573 0.39258-0.55796 0.39258-0.9668 0-0.27448-0.066262-0.50311-0.19922-0.68555h4.1992v7h-8v-10zm5.209 5-1.0645 0.82812 0.25391 0.32617 0.41992-0.3418c0.073664-0.062615 0.13376-0.11378 0.18164-0.1543 0.047882-0.040515 0.10122-0.091459 0.16016-0.15039-0.0073664 0.10313-0.011942 0.20306-0.015625 0.29883-0.0036832 0.095764-0.0058593 0.22248-0.0058593 0.38086v0.3125h-4.1387v0.5h4.1387v1.9453h0.47461v-1.9453h1.3867v-0.5h-1.3867v-1.5h-0.4043z" fill="currentColor"/>
</svg>
