<?xml version="1.0" encoding="UTF-8"?>
<svg id="svg6" width="22" height="22" version="1.2" xmlns="http://www.w3.org/2000/svg">
 <path id="path508-3" d="m14.118 5c-0.06562 0-0.11844 0.052821-0.11844 0.11844v8.8854c-0.24105-0.18388-0.5688-0.27287-0.90612-0.27287-0.48566 0-0.95976 0.17773-1.3862 0.42647-0.55671 0.33167-1.22 0.91206-1.22 1.7649 0 0.7344 0.62784 1.0777 1.2911 1.0777 0.48566 0 0.95976-0.17773 1.3862-0.42647 0.55671-0.33167 1.22-0.91206 1.22-1.7649 0-0.03218-0.0031-0.06265-0.0055-0.09333 0.0019-0.0084 0.0055-0.01651 0.0055-0.02554v-9.5712c0-0.065622-0.05282-0.11844-0.11844-0.11844zm-4 0c-0.06562 0-0.11844 0.052821-0.11844 0.11844v8.8854c-0.24105-0.18388-0.5688-0.27287-0.90612-0.27287-0.48566 0-0.95976 0.17773-1.3862 0.42647-0.55671 0.33167-1.22 0.91206-1.22 1.7649 0 0.7344 0.62784 1.0777 1.2911 1.0777 0.48566 0 0.95976-0.17773 1.3862-0.42647 0.55671-0.33167 1.22-0.91206 1.22-1.7649 0-0.03218-0.0031-0.06265-0.0055-0.09333 0.0019-0.0084 0.0055-0.01651 0.0055-0.02554v-9.5712c0-0.065622-0.05282-0.11844-0.11844-0.11844zm-6.1184-2v16h14v-1h-13v-14h8v4h4v11h1v-12.008l-3.9922-3.9922-0.007812 0.0097656v-0.0097656h-9z" fill="#232629" stroke-width=".6"/>
</svg>
