<?xml version="1.0" encoding="UTF-8"?>
<svg id="svg135" version="1.1" viewBox="0 0 22 22" xmlns="http://www.w3.org/2000/svg">
 <path id="path133" d="m8 3-1.0156 4.0625-0.78516-1.1699a1.5 1.5 0 0 0 0.30078-0.89258 1.5 1.5 0 0 0-1.5-1.5 1.5 1.5 0 0 0-1.5 1.5 1.5 1.5 0 0 0 1.5 1.5 1.5 1.5 0 0 0 0.37109-0.048828l1.2852 1.9199-2.6562 10.629h14l-4-16h-6zm0.77734 1h4.4453l3.5137 14h-11.473l2.1387-8.5176 2.4141 3.6035a1.5 1.5 0 0 0-0.31641 0.91406 1.5 1.5 0 0 0 1.5 1.5 1.5 1.5 0 0 0 1.5-1.5 1.5 1.5 0 0 0-1.5-1.5 1.5 1.5 0 0 0-0.34375 0.042969l-2.9277-4.3672 1.0488-4.1758z" fill="#232629"/>
</svg>
