<?xml version="1.0" encoding="UTF-8" standalone="no"?>
<svg
   xmlns:dc="http://purl.org/dc/elements/1.1/"
   xmlns:cc="http://creativecommons.org/ns#"
   xmlns:rdf="http://www.w3.org/1999/02/22-rdf-syntax-ns#"
   xmlns:svg="http://www.w3.org/2000/svg"
   xmlns="http://www.w3.org/2000/svg"
   xmlns:sodipodi="http://sodipodi.sourceforge.net/DTD/sodipodi-0.dtd"
   xmlns:inkscape="http://www.inkscape.org/namespaces/inkscape"
   viewBox="0 0 22 22"
   version="1.1"
   id="svg8"
   sodipodi:docname="edit_voice_2.svg"
   inkscape:version="1.0.2 (e86c870879, 2021-01-15)">
  <metadata
     id="metadata12">
    <rdf:RDF>
      <cc:Work
         rdf:about="">
        <dc:format>image/svg+xml</dc:format>
        <dc:type
           rdf:resource="http://purl.org/dc/dcmitype/StillImage" />
      </cc:Work>
    </rdf:RDF>
  </metadata>
  <sodipodi:namedview
     pagecolor="#ffffff"
     bordercolor="#666666"
     borderopacity="1"
     objecttolerance="10"
     gridtolerance="10"
     guidetolerance="10"
     inkscape:pageopacity="0"
     inkscape:pageshadow="2"
     inkscape:window-width="987"
     inkscape:window-height="995"
     id="namedview10"
     showgrid="false"
     inkscape:zoom="32.863636"
     inkscape:cx="11"
     inkscape:cy="11"
     inkscape:window-x="925"
     inkscape:window-y="0"
     inkscape:window-maximized="0"
     inkscape:current-layer="svg8" />
  <defs
     id="defs3051">
    <style
       type="text/css"
       id="current-color-scheme">
      .ColorScheme-Text {
        color:#232629;
      }
      .ColorScheme-Highlight {
        color:#3daee9;
      }
      </style>
  </defs>
  <path
     style="fill:currentColor;fill-opacity:1;stroke:none"
     d="m 19.191702,19.006074 h -5.87247 v -0.910932 l 2.325911,-2.350202 q 1.050608,-1.062753 1.390689,-1.518219 0.340081,-0.455465 0.504048,-0.880567 0.170041,-0.425101 0.170041,-0.917004 0,-0.704453 -0.419029,-1.09919 -0.419028,-0.394737 -1.147773,-0.394737 -0.546559,0 -1.038462,0.182186 -0.48583,0.182187 -1.09919,0.661944 L 13.422471,11.044535 Q 14.66741,10 16.143119,10 q 1.238866,0 1.961539,0.637652 0.728744,0.631579 0.728744,1.724697 0,0.582996 -0.21255,1.129554 -0.212551,0.540486 -0.637652,1.105264 -0.425101,0.558704 -1.427126,1.536437 l -1.852226,1.827935 v 0.04858 h 4.487854 v 0.995952 z"
     class="ColorScheme-Highlight"
     id="path4" />
  <path
     style="color:#232629;fill:currentColor;fill-opacity:1;stroke:none"
     d="m 9,3 v 1 3 1 4 2.640625 C 8.450691,14.229206 7.738567,14.001104 7,14 5.3431458,14 4,15.119288 4,16.5 4,17.880712 5.3431458,19 7,19 c 1.656854,0 3,-1.119288 3,-2.5 V 12 8.0957031 c 1.473938,0.2519591 3.180894,1.3814641 4,2.1485529 v -0.7442558 -0.5 -0.15625 V 5.5 4.84375 C 12.788541,3.8472864 10.971189,3 9,3 Z m 1,1.0957031 c 1.132773,0.1936395 2.194743,0.6800469 3,1.2460938 V 8.1464844 C 12.137786,7.634143 11.107988,7.23782 10,7.0800781 Z M 7,15 c 1.104569,0 2,0.671573 2,1.5 C 9,17.328427 8.104569,18 7,18 5.8954305,18 5,17.328427 5,16.5 5,15.671573 5.8954305,15 7,15 Z"
     class="ColorScheme-Text"
     id="path16" />
</svg>
