<?xml version="1.0" encoding="UTF-8" standalone="no"?>
<svg
   xmlns:dc="http://purl.org/dc/elements/1.1/"
   xmlns:cc="http://creativecommons.org/ns#"
   xmlns:rdf="http://www.w3.org/1999/02/22-rdf-syntax-ns#"
   xmlns:svg="http://www.w3.org/2000/svg"
   xmlns="http://www.w3.org/2000/svg"
   xmlns:sodipodi="http://sodipodi.sourceforge.net/DTD/sodipodi-0.dtd"
   xmlns:inkscape="http://www.inkscape.org/namespaces/inkscape"
   viewBox="0 0 22 22"
   version="1.1"
   id="svg8"
   sodipodi:docname="edit_voice_1.svg"
   inkscape:version="1.0.2 (e86c870879, 2021-01-15)">
  <metadata
     id="metadata12">
    <rdf:RDF>
      <cc:Work
         rdf:about="">
        <dc:format>image/svg+xml</dc:format>
        <dc:type
           rdf:resource="http://purl.org/dc/dcmitype/StillImage" />
      </cc:Work>
    </rdf:RDF>
  </metadata>
  <sodipodi:namedview
     pagecolor="#ffffff"
     bordercolor="#666666"
     borderopacity="1"
     objecttolerance="10"
     gridtolerance="10"
     guidetolerance="10"
     inkscape:pageopacity="0"
     inkscape:pageshadow="2"
     inkscape:window-width="1920"
     inkscape:window-height="995"
     id="namedview10"
     showgrid="false"
     inkscape:zoom="32.863636"
     inkscape:cx="11"
     inkscape:cy="11"
     inkscape:window-x="0"
     inkscape:window-y="0"
     inkscape:window-maximized="1"
     inkscape:current-layer="svg8" />
  <defs
     id="defs3051">
    <style
       type="text/css"
       id="current-color-scheme">
      .ColorScheme-Text {
        color:#232629;
      }
      .ColorScheme-Highlight {
        color:#3daee9;
      }
      </style>
  </defs>
  <path
     style="fill:currentColor;fill-opacity:1;stroke:none"
     d="m 18.700024,19 h -1 v -8 c -0.508487,0.438772 -1.58039,1.423509 -2.094174,1.845943 L 15.035,12.19775 17.700024,10 h 1 z"
     class="ColorScheme-Highlight"
     id="path6" />
  <path
     style="color:#232629;fill:currentColor;fill-opacity:1;stroke:none"
     d="m 9,3 v 1 3 1 4 2.640625 C 8.450691,14.229206 7.7385673,14.001104 7,14 5.3431458,14 4,15.119288 4,16.5 4,17.880712 5.3431458,19 7,19 c 1.656854,0 3,-1.119288 3,-2.5 V 12 8.0957031 c 1.473938,0.2519592 3.180894,1.3814645 4,2.1485529 V 9.5 9 8.84375 5.5 4.84375 C 12.788541,3.8472864 10.971189,3 9,3 Z m 1,1.0957031 c 1.132773,0.1936395 2.194743,0.6800469 3,1.2460938 V 8.1464844 C 12.137786,7.634143 11.107988,7.23782 10,7.0800781 Z M 7,15 c 1.104569,0 2,0.671573 2,1.5 C 9,17.328427 8.104569,18 7,18 5.8954305,18 5,17.328427 5,16.5 5,15.671573 5.8954305,15 7,15 Z"
     class="ColorScheme-Text"
     id="path16" />
</svg>
