<?xml version="1.0" encoding="UTF-8" standalone="no"?>
<svg
   xmlns:dc="http://purl.org/dc/elements/1.1/"
   xmlns:cc="http://creativecommons.org/ns#"
   xmlns:rdf="http://www.w3.org/1999/02/22-rdf-syntax-ns#"
   xmlns:svg="http://www.w3.org/2000/svg"
   xmlns="http://www.w3.org/2000/svg"
   xmlns:sodipodi="http://sodipodi.sourceforge.net/DTD/sodipodi-0.dtd"
   xmlns:inkscape="http://www.inkscape.org/namespaces/inkscape"
   viewBox="0 0 22 22"
   version="1.1"
   id="svg8"
   sodipodi:docname="layout_multitrack.svg"
   inkscape:version="1.0.2 (e86c870879, 2021-01-15)">
  <metadata
     id="metadata12">
    <rdf:RDF>
      <cc:Work
         rdf:about="">
        <dc:format>image/svg+xml</dc:format>
        <dc:type
           rdf:resource="http://purl.org/dc/dcmitype/StillImage" />
      </cc:Work>
    </rdf:RDF>
  </metadata>
  <sodipodi:namedview
     pagecolor="#ffffff"
     bordercolor="#666666"
     borderopacity="1"
     objecttolerance="10"
     gridtolerance="10"
     guidetolerance="10"
     inkscape:pageopacity="0"
     inkscape:pageshadow="2"
     inkscape:window-width="1920"
     inkscape:window-height="995"
     id="namedview10"
     showgrid="true"
     inkscape:zoom="28.090909"
     inkscape:cx="20.402855"
     inkscape:cy="14.551891"
     inkscape:window-x="0"
     inkscape:window-y="0"
     inkscape:window-maximized="1"
     inkscape:current-layer="svg8">
    <inkscape:grid
       type="xygrid"
       id="grid14" />
  </sodipodi:namedview>
  <defs
     id="defs3051">
    <style
       type="text/css"
       id="current-color-scheme">
      .ColorScheme-Text {
        color:#232629;
      }
      .ColorScheme-Highlight {
        color:#3daee9;
      }
      </style>
  </defs>
  <path
     style="fill:currentColor;fill-opacity:1;stroke:none"
     d="M 3,3 V 19 H 19 V 3 Z M 4,4 H 18 V 18 H 4 Z M 5,5 5,8.011316 6,8 V 7 h 4 v 1 h 1 V 5 H 10 V 6 L 6,6.0589028 V 5 Z m 5,9 v 3 h 1 v -1 h 4 v 1 h 1 v -3 h -1 v 1 h -4 v -1 z"
     class="ColorScheme-Text"
     id="path4"
     sodipodi:nodetypes="cccccccccccccccccccccccccccccccccccc" />
  <path
     style="color:#232629;fill:currentColor;fill-opacity:1;stroke:none"
     d="m 9,9.5 v 3 h 1 v -1 h 4 v 1 h 1 v -3 h -1 v 1 h -4 v -1 z"
     class="ColorScheme-Text"
     id="path4-6"
     sodipodi:nodetypes="ccccccccccccc" />
  <path
     style="fill:currentColor;fill-opacity:1;stroke:none"
     d="m 433.71429,529.79074 h 1 c 0,0 0.002,12.74659 0,13.99994 0,2e-5 -2e-5,3e-5 -2e-5,3e-5 h -0.99995 c -10e-6,0 -3e-5,-3e-5 -3e-5,-3e-5 z"
     class="ColorScheme-Highlight"
     transform="translate(-421.71429,-525.79074)"
     id="path6"
     sodipodi:nodetypes="ccccscc" />
</svg>
