<?xml version="1.0" encoding="UTF-8" standalone="no"?>
<svg
   xmlns:dc="http://purl.org/dc/elements/1.1/"
   xmlns:cc="http://creativecommons.org/ns#"
   xmlns:rdf="http://www.w3.org/1999/02/22-rdf-syntax-ns#"
   xmlns:svg="http://www.w3.org/2000/svg"
   xmlns="http://www.w3.org/2000/svg"
   xmlns:sodipodi="http://sodipodi.sourceforge.net/DTD/sodipodi-0.dtd"
   xmlns:inkscape="http://www.inkscape.org/namespaces/inkscape"
   viewBox="0 0 22 22"
   version="1.1"
   id="svg6"
   sodipodi:docname="layout_compact.svg"
   inkscape:version="1.0.2 (e86c870879, 2021-01-15)">
  <metadata
     id="metadata10">
    <rdf:RDF>
      <cc:Work
         rdf:about="">
        <dc:format>image/svg+xml</dc:format>
        <dc:type
           rdf:resource="http://purl.org/dc/dcmitype/StillImage" />
      </cc:Work>
    </rdf:RDF>
  </metadata>
  <sodipodi:namedview
     pagecolor="#ffffff"
     bordercolor="#666666"
     borderopacity="1"
     objecttolerance="10"
     gridtolerance="10"
     guidetolerance="10"
     inkscape:pageopacity="0"
     inkscape:pageshadow="2"
     inkscape:window-width="1920"
     inkscape:window-height="995"
     id="namedview8"
     showgrid="true"
     inkscape:zoom="32.863636"
     inkscape:cx="11"
     inkscape:cy="11"
     inkscape:window-x="0"
     inkscape:window-y="0"
     inkscape:window-maximized="1"
     inkscape:current-layer="svg6">
    <inkscape:grid
       type="xygrid"
       id="grid12" />
  </sodipodi:namedview>
  <defs
     id="defs3051">
    <style
       type="text/css"
       id="current-color-scheme">
      .ColorScheme-Text {
        color:#232629;
      }
      </style>
  </defs>
  <path
     style="fill:currentColor;fill-opacity:1;stroke:none"
     d="m 12,3 v 9 2.640625 C 11.450691,14.229206 10.738567,14.001104 10,14 c -1.6568542,0 -3,1.119288 -3,2.5 0,1.380712 1.3431458,2.5 3,2.5 1.656854,0 3,-1.119288 3,-2.5 V 12 3 Z m -2,12 c 1.104569,0 2,0.671573 2,1.5 C 12,17.328427 11.104569,18 10,18 8.8954305,18 8,17.328427 8,16.5 8,15.671573 8.8954305,15 10,15 Z"
     class="ColorScheme-Text"
     id="path4"
     sodipodi:nodetypes="ccccssscccsssss" />
  <path
     style="fill:currentColor;fill-opacity:1;stroke:none"
     d="m 19,9 -3,2 3,2 V 9"
     id="path34" />
  <path
     style="fill:currentColor;fill-opacity:1;stroke:none"
     d="m 3,9 v 4 L 6,11 3,9"
     id="path4-6" />
</svg>
