<?xml version="1.0" encoding="UTF-8" standalone="no"?>
<svg
   xmlns:dc="http://purl.org/dc/elements/1.1/"
   xmlns:cc="http://creativecommons.org/ns#"
   xmlns:rdf="http://www.w3.org/1999/02/22-rdf-syntax-ns#"
   xmlns:svg="http://www.w3.org/2000/svg"
   xmlns="http://www.w3.org/2000/svg"
   xmlns:sodipodi="http://sodipodi.sourceforge.net/DTD/sodipodi-0.dtd"
   xmlns:inkscape="http://www.inkscape.org/namespaces/inkscape"
   id="svg3521"
   version="1.1"
   viewBox="0 0 22 22"
   sodipodi:docname="layout_linear.svg"
   inkscape:version="1.0.2 (e86c870879, 2021-01-15)">
  <metadata
     id="metadata9">
    <rdf:RDF>
      <cc:Work
         rdf:about="">
        <dc:format>image/svg+xml</dc:format>
        <dc:type
           rdf:resource="http://purl.org/dc/dcmitype/StillImage" />
      </cc:Work>
    </rdf:RDF>
  </metadata>
  <sodipodi:namedview
     pagecolor="#ffffff"
     bordercolor="#666666"
     borderopacity="1"
     objecttolerance="10"
     gridtolerance="10"
     guidetolerance="10"
     inkscape:pageopacity="0"
     inkscape:pageshadow="2"
     inkscape:window-width="1920"
     inkscape:window-height="995"
     id="namedview7"
     showgrid="true"
     inkscape:zoom="28.090909"
     inkscape:cx="2.7944984"
     inkscape:cy="12.423948"
     inkscape:window-x="0"
     inkscape:window-y="0"
     inkscape:window-maximized="1"
     inkscape:current-layer="svg3521">
    <inkscape:grid
       type="xygrid"
       id="grid837" />
  </sodipodi:namedview>
  <defs
     id="defs4339">
    <style
       id="current-color-scheme"
       type="text/css">.ColorScheme-Text {
        color:#232629;
      }</style>
  </defs>
  <path
     id="rect4315"
     class="ColorScheme-Text"
     d="m 16.5,3 v 2 h -13 v 1 h 13 V 7.6523 A 1.9977,1.9977 0 0 0 16.135,7.5 L 16.127,7.498 A 1.9977,1.9977 0 0 0 13.639,8.832 1.9977,1.9977 0 0 0 13.598,9 H 13.5 V 7 h -1 v 2 h -9 v 1 h 9 v 1.652 A 1.9977,1.9977 0 0 0 12.135,11.5 L 12.127,11.498 A 1.9977,1.9977 0 0 0 9.6387,12.832 1.9977,1.9977 0 0 0 9.5977,13 H 9.5 v -2 h -1 v 2 h -5 v 1 h 5 v 1.654 A 1.9977,1.9977 0 0 0 8.1348,15.5 L 8.127,15.498 A 1.9977,1.9977 0 0 0 5.6387,16.832 1.9977,1.9977 0 0 0 5.5977,17 H 3.5 v 1 H 5.6445 A 1.9977,1.9977 0 0 0 6.9707,19.322 1.9977,1.9977 0 0 0 9.4609,18 H 19.5 V 17 H 9.5039 A 1.9977,1.9977 0 0 0 9.5,16.982 V 14 H 9.6445 A 1.9977,1.9977 0 0 0 10.973,15.322 1.9977,1.9977 0 0 0 13.461,14 H 19.5 V 13 H 13.504 A 1.9977,1.9977 0 0 0 13.5,12.982 V 10 h 0.145 A 1.9977,1.9977 0 0 0 14.973,11.322 1.9977,1.9977 0 0 0 17.461,10 H 19.5 V 9 H 17.504 A 1.9977,1.9977 0 0 0 17.5,8.9824 V 6 h 2 V 5 h -2 V 3 Z m -0.943,5.457 a 0.97972,0.97972 0 0 1 0.255,0.0352 L 15.838,8.5 A 0.97972,0.97972 0 0 1 16.49,9.7168 0.97972,0.97972 0 0 1 15.277,10.377 0.97972,0.97972 0 0 1 14.609,9.168 0.97972,0.97972 0 0 1 15.557,8.457 Z m -4,4 a 0.97972,0.97972 0 0 1 0.255,0.035 l 0.026,0.008 a 0.97972,0.97972 0 0 1 0.652,1.217 0.97972,0.97972 0 0 1 -1.213,0.66 0.97972,0.97972 0 0 1 -0.668,-1.209 0.97972,0.97972 0 0 1 0.948,-0.711 z m -4.0004,4 a 0.97972,0.97972 0 0 1 0.2559,0.035 L 7.8379,16.5 a 0.97972,0.97972 0 0 1 0.6523,1.217 0.97972,0.97972 0 0 1 -1.2129,0.66 0.97972,0.97972 0 0 1 -0.6679,-1.209 0.97972,0.97972 0 0 1 0.9472,-0.711 z"
     fill="currentColor" />
  <path
     style="fill:none;fill-rule:evenodd;stroke:#000000;stroke-width:1px;stroke-linecap:butt;stroke-linejoin:miter;stroke-opacity:1"
     d="M 3,5 V 18"
     id="path839" />
  <path
     style="fill:none;fill-rule:evenodd;stroke:#000000;stroke-width:1px;stroke-linecap:butt;stroke-linejoin:miter;stroke-opacity:1"
     d="M 4,5 4.039549,18"
     id="path841" />
</svg>
